<?xml version="1.0" encoding="utf-8"?>
<!-- Generator: Adobe Illustrator 16.0.0, SVG Export Plug-In . SVG Version: 6.00 Build 0)  -->
<!DOCTYPE svg PUBLIC "-//W3C//DTD SVG 1.1//EN" "http://www.w3.org/Graphics/SVG/1.1/DTD/svg11.dtd">
<svg version="1.1" id="Layer_1" xmlns="http://www.w3.org/2000/svg" xmlns:xlink="http://www.w3.org/1999/xlink" x="0px" y="0px"
	 width="200px" height="200px" viewBox="0 0 200 200" enable-background="new 0 0 200 200" xml:space="preserve">
<path fill="#333333" d="M121.392,21.342H70.027c-5.763,0-5.763-20.867,0-20.867h51.365c2.867,0,16.136,5.161,16.149,10.351
	C137.558,16.069,124.289,21.342,121.392,21.342z"/>
<g>
	<path fill="#FFFFFF" d="M89.786,15.153c-0.089,0-0.15-0.019-0.183-0.055s-0.049-0.104-0.049-0.202v-6.97l-0.745,0.716
		c-0.13,0.122-0.232,0.134-0.305,0.037l-0.721-0.818c-0.049-0.057-0.063-0.108-0.043-0.153c0.021-0.044,0.067-0.1,0.141-0.165
		l1.881-1.759c0.09-0.073,0.188-0.11,0.293-0.11h0.806c0.179,0,0.285,0.021,0.317,0.061c0.033,0.041,0.049,0.163,0.049,0.367v8.795
		c0,0.089-0.016,0.154-0.049,0.195c-0.032,0.041-0.094,0.061-0.183,0.061H89.786z"/>
	<path fill="#FFFFFF" d="M101.061,10.89c-0.342,0.073-0.741,0.141-1.197,0.202s-0.924,0.112-1.405,0.153
		c-0.48,0.041-0.951,0.067-1.411,0.079c-0.46,0.012-0.865,0.01-1.215-0.006c-0.293-0.008-0.511-0.063-0.654-0.165
		c-0.143-0.102-0.213-0.324-0.213-0.666v-4.3c0-0.163,0.012-0.295,0.037-0.397c0.024-0.102,0.069-0.179,0.134-0.232
		c0.065-0.053,0.15-0.087,0.256-0.104c0.106-0.016,0.244-0.024,0.416-0.024h4.226c0.163,0,0.245,0.069,0.245,0.208v0.965
		c0,0.139-0.082,0.208-0.245,0.208h-3.2c-0.082,0-0.13,0.016-0.146,0.049c-0.017,0.033-0.024,0.073-0.024,0.122v2.797
		c0,0.13,0.065,0.195,0.195,0.195c0.594,0,1.226-0.024,1.894-0.073c0.667-0.049,1.352-0.134,2.052-0.256
		c0.123-0.024,0.2-0.021,0.233,0.012c0.031,0.032,0.057,0.081,0.072,0.146l0.135,0.782c0.016,0.114,0.012,0.189-0.012,0.226
		C101.207,10.848,101.15,10.874,101.061,10.89z M103.724,16.228h-6.657c-0.35,0-0.58-0.061-0.69-0.183s-0.165-0.354-0.165-0.696
		v-2.675c0-0.171,0.085-0.257,0.257-0.257h1.197c0.163,0,0.244,0.085,0.244,0.257v1.979c0,0.122,0.065,0.184,0.196,0.184h5.619
		c0.065,0,0.124,0.014,0.178,0.042c0.053,0.028,0.079,0.087,0.079,0.177v0.953c0,0.114-0.026,0.179-0.079,0.195
		C103.848,16.22,103.789,16.228,103.724,16.228z M104.994,9.583h-1.515v3.115c0,0.089-0.015,0.15-0.043,0.183
		s-0.088,0.049-0.177,0.049h-1.234c-0.09,0-0.152-0.016-0.189-0.049c-0.036-0.033-0.055-0.094-0.055-0.183V4.941
		c0-0.154,0.082-0.232,0.244-0.232h1.234c0.146,0,0.22,0.078,0.22,0.232v3.25h1.515c0.065,0,0.122,0.008,0.171,0.024
		c0.049,0.016,0.073,0.077,0.073,0.183v0.965c0,0.09-0.022,0.149-0.067,0.177C105.126,9.569,105.067,9.583,104.994,9.583z"/>
	<path fill="#FFFFFF" d="M110.552,11.708c-0.082,0-0.143-0.014-0.184-0.042s-0.062-0.1-0.062-0.214v-0.916
		c0-0.09,0.022-0.146,0.067-0.171s0.104-0.037,0.178-0.037h1.343V8.752h-1.258c-0.302,0.969-0.79,1.875-1.466,2.718
		c-0.676,0.843-1.507,1.574-2.492,2.192c-0.098,0.065-0.171,0.092-0.22,0.08s-0.102-0.055-0.158-0.128l-0.563-0.782
		c-0.065-0.089-0.1-0.161-0.104-0.214c-0.004-0.053,0.038-0.108,0.128-0.165c0.521-0.342,0.987-0.721,1.398-1.136
		c0.411-0.416,0.766-0.847,1.063-1.295c0.297-0.448,0.533-0.902,0.708-1.362s0.283-0.898,0.324-1.313
		c0.024-0.211-0.058-0.317-0.245-0.317h-2.504c-0.163,0-0.244-0.077-0.244-0.232V5.895c0-0.163,0.081-0.245,0.244-0.245h3.519
		c0.383,0,0.635,0.071,0.757,0.214s0.184,0.397,0.184,0.764c0,0.13-0.005,0.256-0.013,0.378s-0.021,0.244-0.036,0.367h0.977V5.137
		c0-0.09,0.019-0.151,0.056-0.184c0.036-0.032,0.1-0.049,0.189-0.049h1.123c0.155,0,0.232,0.078,0.232,0.232v10.664
		c0,0.098-0.017,0.161-0.049,0.189c-0.032,0.028-0.094,0.042-0.184,0.042h-1.123c-0.09,0-0.153-0.012-0.189-0.037
		c-0.037-0.024-0.056-0.09-0.056-0.195v-4.092H110.552z M115.73,16.448h-1.209c-0.09,0-0.151-0.017-0.184-0.049
		c-0.032-0.033-0.049-0.094-0.049-0.184V4.941c0-0.089,0.019-0.15,0.055-0.183c0.037-0.032,0.1-0.049,0.189-0.049h1.197
		c0.09,0,0.15,0.017,0.184,0.049c0.032,0.033,0.049,0.094,0.049,0.183v11.274c0,0.09-0.017,0.151-0.049,0.184
		C115.881,16.432,115.82,16.448,115.73,16.448z"/>
</g>
<circle fill="#ECECEC" cx="101.47" cy="119.371" r="80.416"/>
<circle opacity="0.3" fill="#1D87C9" cx="98.686" cy="103.967" r="9.326"/>
<path opacity="0.3" fill="#1D87C9" d="M107.721,112.057c0.194,0.459-0.018,0.988-0.479,1.183l-8.047,3.408
	c-0.459,0.194-0.988-0.019-1.182-0.479l0,0c-0.195-0.459,0.019-0.988,0.478-1.183l8.047-3.408
	C106.999,111.383,107.527,111.596,107.721,112.057L107.721,112.057z"/>
<path opacity="0.3" fill="#1D87C9" d="M36.404,148.898h47.603c0-23.29-10.792-30.186-17.841-32.213
	c4.804-2.247,8.14-7.109,8.14-12.764c0-7.786-6.313-14.101-14.1-14.101c-7.788,0-14.101,6.314-14.101,14.101
	c0,5.632,3.312,10.479,8.087,12.739C36.406,121.695,36.404,148.898,36.404,148.898z"/>
<path opacity="0.3" fill="#1D87C9" d="M166.512,146.381c0-23.289-10.792-30.186-17.842-32.213c4.804-2.246,8.14-7.109,8.14-12.764
	c0-7.786-6.313-14.101-14.1-14.101c-7.786,0-14.101,6.314-14.101,14.101c0,5.633,3.313,10.48,8.086,12.738
	c-3.703,1.049-6.627,3.066-8.948,5.592h-17.953v0.002l-1.561-3.686c-0.948-2.24-9.065,1.195-8.116,3.438l9.406,22.213
	c0.865,2.039,3.079,3.072,5.161,2.531l3.04,7.184l1.184-0.504l-3.041-7.18c1.838-1.119,2.637-3.428,1.772-5.469l-4.575-10.803h9.785
	c-3.933,8.977-3.941,18.92-3.941,18.92H166.512z"/>
<g>
	<path fill="#333333" d="M61.474,123.503c-0.177,0.217-0.421,0.203-0.733-0.041c-0.258-0.189-0.55-0.454-0.875-0.794
		c-0.326-0.339-0.655-0.716-0.987-1.13s-0.651-0.858-0.957-1.333c-0.305-0.476-0.566-0.937-0.784-1.385
		c-0.244,0.529-0.516,1.049-0.814,1.558c-0.298,0.509-0.618,0.994-0.957,1.456c-0.339,0.461-0.696,0.889-1.069,1.282
		c-0.374,0.394-0.743,0.732-1.109,1.018c-0.19,0.149-0.33,0.231-0.417,0.244c-0.088,0.014-0.201-0.047-0.336-0.183l-1.12-1.16
		c-0.109-0.109-0.163-0.214-0.163-0.316c0-0.102,0.082-0.233,0.245-0.396c0.787-0.746,1.503-1.618,2.147-2.616
		c0.645-0.997,1.144-2.032,1.497-3.104c0.285-0.868,0.495-1.813,0.631-2.83s0.204-2.124,0.204-3.318
		c0-0.149,0.023-0.261,0.071-0.336c0.047-0.074,0.166-0.112,0.356-0.112l1.954,0.062c0.19,0.014,0.306,0.058,0.346,0.132
		c0.041,0.075,0.061,0.194,0.061,0.356c0,1.67-0.129,3.189-0.387,4.561c0.149,0.57,0.38,1.171,0.692,1.802
		c0.312,0.631,0.662,1.235,1.048,1.812c0.387,0.577,0.787,1.11,1.201,1.599c0.414,0.488,0.797,0.875,1.15,1.16
		c0.19,0.149,0.281,0.282,0.274,0.397s-0.071,0.247-0.193,0.396L61.474,123.503z M69.353,118.678h-2.524v9.487
		c0,0.163-0.024,0.268-0.071,0.315c-0.048,0.048-0.146,0.071-0.295,0.071h-2.056c-0.149,0-0.254-0.023-0.315-0.071
		s-0.092-0.152-0.092-0.315v-18.75c0-0.149,0.031-0.251,0.092-0.306c0.061-0.054,0.166-0.081,0.315-0.081h2.056
		c0.149,0,0.248,0.027,0.295,0.081c0.047,0.055,0.071,0.156,0.071,0.306v6.942h2.524c0.122,0,0.22,0.017,0.295,0.051
		s0.112,0.146,0.112,0.336v1.547c0,0.163-0.037,0.269-0.112,0.315C69.573,118.654,69.475,118.678,69.353,118.678z"/>
	<path fill="#333333" d="M72.447,121.264c-0.231,0.108-0.391,0.143-0.479,0.102c-0.088-0.041-0.167-0.115-0.234-0.224l-0.875-1.426
		c-0.136-0.203-0.048-0.393,0.265-0.569c0.706-0.407,1.377-0.849,2.015-1.323c0.638-0.476,1.215-0.971,1.73-1.486
		s0.967-1.038,1.354-1.567s0.688-1.045,0.906-1.548c0.109-0.258,0.139-0.417,0.092-0.479c-0.048-0.061-0.173-0.091-0.376-0.091
		h-4.458c-0.19,0-0.302-0.038-0.336-0.112c-0.034-0.074-0.051-0.18-0.051-0.315v-1.466c0-0.299,0.136-0.448,0.407-0.448h6.718
		c0.814,0,1.31,0.197,1.486,0.591c0.176,0.394,0.149,0.937-0.082,1.628c-0.204,0.558-0.458,1.12-0.763,1.69
		c-0.306,0.569-0.669,1.14-1.089,1.71c0.258,0.299,0.543,0.587,0.855,0.865s0.631,0.539,0.957,0.784
		c0.326,0.244,0.645,0.468,0.957,0.671c0.313,0.204,0.597,0.388,0.855,0.55c0.217,0.136,0.251,0.306,0.102,0.51l-1.038,1.485
		c-0.068,0.109-0.143,0.167-0.224,0.174s-0.197-0.031-0.346-0.112c-0.204-0.122-0.455-0.292-0.753-0.509
		c-0.299-0.217-0.614-0.462-0.947-0.733c-0.333-0.271-0.672-0.563-1.018-0.875s-0.668-0.624-0.967-0.937
		c-0.666,0.692-1.388,1.333-2.168,1.924C74.161,120.316,73.329,120.829,72.447,121.264z M87.085,128.227H76.112
		c-0.285,0-0.52-0.024-0.703-0.071c-0.183-0.048-0.326-0.126-0.427-0.234c-0.102-0.109-0.173-0.258-0.214-0.448
		c-0.041-0.19-0.061-0.428-0.061-0.712v-4.54c0-0.285,0.135-0.428,0.407-0.428h2.015c0.271,0,0.407,0.143,0.407,0.428v3.379
		c0,0.204,0.108,0.306,0.326,0.306h9.223c0.108,0,0.204,0.023,0.285,0.071c0.082,0.047,0.123,0.146,0.123,0.295v1.588
		c0,0.19-0.041,0.299-0.123,0.326C87.289,128.213,87.193,128.227,87.085,128.227z M81.181,116.479c-0.258,0-0.387-0.129-0.387-0.387
		v-1.527c0-0.176,0.038-0.285,0.112-0.325c0.074-0.041,0.166-0.062,0.274-0.062h2.79v-4.764c0-0.258,0.122-0.387,0.366-0.387h2.056
		c0.258,0,0.387,0.129,0.387,0.387v13.05c0,0.149-0.027,0.251-0.081,0.306c-0.055,0.054-0.156,0.081-0.306,0.081h-2.056
		c-0.149,0-0.248-0.027-0.295-0.081c-0.047-0.055-0.071-0.156-0.071-0.306v-5.985H81.181z"/>
	<path fill="#333333" d="M101.132,119.736c-0.733,0-1.405-0.122-2.016-0.366s-1.14-0.587-1.588-1.028
		c-0.448-0.44-0.794-0.957-1.038-1.547c-0.245-0.591-0.367-1.231-0.367-1.924c0-0.651,0.122-1.272,0.367-1.863
		c0.244-0.59,0.59-1.109,1.038-1.557c0.448-0.448,0.977-0.805,1.588-1.069s1.283-0.396,2.016-0.396c0.746,0,1.432,0.132,2.057,0.396
		c0.624,0.265,1.163,0.621,1.618,1.069c0.454,0.447,0.808,0.967,1.059,1.557c0.251,0.591,0.377,1.212,0.377,1.863
		c0,0.692-0.126,1.333-0.377,1.924c-0.251,0.59-0.604,1.106-1.059,1.547c-0.455,0.441-0.994,0.784-1.618,1.028
		C102.563,119.614,101.878,119.736,101.132,119.736z M101.132,112.448c-0.326,0-0.628,0.062-0.906,0.184
		c-0.279,0.122-0.523,0.295-0.733,0.519c-0.211,0.225-0.374,0.489-0.489,0.794c-0.116,0.306-0.173,0.635-0.173,0.987
		c0,0.354,0.058,0.683,0.173,0.987c0.115,0.306,0.278,0.57,0.489,0.795c0.21,0.224,0.454,0.396,0.733,0.519
		c0.278,0.122,0.58,0.184,0.906,0.184c0.679,0,1.238-0.234,1.68-0.702c0.44-0.469,0.661-1.063,0.661-1.782
		c0-0.719-0.221-1.313-0.661-1.781C102.37,112.683,101.811,112.448,101.132,112.448z M111.616,128.227h-10.688
		c-0.299,0-0.54-0.024-0.723-0.071c-0.183-0.048-0.329-0.133-0.438-0.255c-0.108-0.122-0.183-0.278-0.224-0.469
		c-0.041-0.189-0.061-0.427-0.061-0.712v-4.602c0-0.284,0.135-0.427,0.407-0.427h2.015c0.271,0,0.407,0.143,0.407,0.427v3.461
		c0,0.204,0.108,0.306,0.326,0.306h8.978c0.108,0,0.204,0.023,0.285,0.071s0.122,0.146,0.122,0.295v1.608
		c0,0.19-0.041,0.299-0.122,0.326S111.725,128.227,111.616,128.227z M111.046,122.831h-2.056c-0.149,0-0.251-0.03-0.306-0.092
		c-0.055-0.061-0.081-0.166-0.081-0.315v-13.009c0-0.258,0.129-0.387,0.387-0.387h2.056c0.245,0,0.367,0.129,0.367,0.387v13.029
		c0,0.149-0.024,0.251-0.071,0.306C111.294,122.804,111.195,122.831,111.046,122.831z"/>
	<path fill="#333333" d="M123.2,117.904c-0.787,0.055-1.602,0.092-2.443,0.112s-1.669,0.037-2.483,0.051v2.728
		c0,0.245,0.122,0.367,0.366,0.367c0.909,0.027,1.935,0.003,3.074-0.071c1.141-0.075,2.253-0.207,3.339-0.397
		c0.149-0.027,0.251-0.017,0.306,0.03c0.054,0.048,0.095,0.126,0.122,0.234l0.244,1.486c0.027,0.149,0.014,0.251-0.041,0.306
		c-0.054,0.054-0.156,0.102-0.305,0.143c-0.57,0.136-1.226,0.251-1.965,0.346c-0.74,0.095-1.496,0.17-2.271,0.224
		c-0.773,0.055-1.53,0.085-2.27,0.092c-0.74,0.007-1.401-0.003-1.985-0.03c-0.488-0.014-0.852-0.102-1.089-0.265
		s-0.356-0.529-0.356-1.1v-10.383c0-0.271,0.021-0.491,0.062-0.661c0.04-0.17,0.111-0.303,0.214-0.397
		c0.102-0.095,0.244-0.159,0.427-0.193c0.184-0.033,0.418-0.051,0.703-0.051h6.922c0.148,0,0.254,0.023,0.315,0.071
		c0.061,0.048,0.092,0.146,0.092,0.295v1.608c0,0.149-0.031,0.244-0.092,0.285c-0.062,0.041-0.167,0.061-0.315,0.061h-5.212
		c-0.136,0-0.218,0.027-0.244,0.082c-0.027,0.055-0.041,0.122-0.041,0.203v2.688c0.842,0,1.673-0.007,2.494-0.021
		c0.82-0.013,1.591-0.04,2.311-0.081c0.298-0.014,0.447,0.088,0.447,0.306v1.526C123.525,117.755,123.417,117.891,123.2,117.904z
		 M130.692,128.552h-2.077c-0.149,0-0.251-0.023-0.305-0.071c-0.055-0.048-0.082-0.152-0.082-0.315v-10.342h-2.769
		c-0.136,0-0.237-0.023-0.306-0.071c-0.067-0.048-0.102-0.146-0.102-0.296v-1.567c0-0.149,0.034-0.251,0.102-0.305
		c0.068-0.055,0.17-0.082,0.306-0.082h2.769v-6.087c0-0.149,0.027-0.251,0.082-0.306c0.054-0.054,0.155-0.081,0.305-0.081h2.077
		c0.148,0,0.247,0.027,0.295,0.081c0.047,0.055,0.071,0.156,0.071,0.306v18.75c0,0.163-0.024,0.268-0.071,0.315
		C130.939,128.528,130.841,128.552,130.692,128.552z"/>
	<path fill="#333333" d="M151.295,121.895h-4.093v6.107c0,0.271-0.136,0.407-0.407,0.407h-2.035c-0.149,0-0.252-0.03-0.306-0.092
		c-0.055-0.061-0.081-0.166-0.081-0.315v-6.107h-3.583v6.107c0,0.271-0.137,0.407-0.407,0.407h-2.036
		c-0.271,0-0.407-0.136-0.407-0.407v-6.107h-4.133c-0.177,0-0.288-0.041-0.336-0.122s-0.071-0.196-0.071-0.346v-1.405
		c0-0.149,0.023-0.261,0.071-0.336c0.048-0.074,0.159-0.111,0.336-0.111h17.488c0.284,0,0.427,0.149,0.427,0.447v1.405
		C151.722,121.738,151.579,121.895,151.295,121.895z M147.549,117.701h-9.996c-0.326,0-0.591-0.021-0.794-0.062
		c-0.204-0.041-0.363-0.112-0.479-0.214s-0.193-0.247-0.234-0.438c-0.04-0.189-0.061-0.435-0.061-0.733v-6.656
		c0-0.258,0.122-0.388,0.366-0.388h2.036c0.135,0,0.237,0.027,0.305,0.082c0.068,0.055,0.103,0.156,0.103,0.306v1.648h7.491v-1.669
		c0-0.271,0.129-0.407,0.387-0.407h2.036c0.258,0,0.387,0.136,0.387,0.407v6.738c0,0.516-0.102,0.875-0.306,1.079
		C148.587,117.599,148.173,117.701,147.549,117.701z M146.286,113.568h-7.491v1.506c0,0.204,0.102,0.306,0.305,0.306h6.882
		c0.203,0,0.305-0.102,0.305-0.306V113.568z"/>
</g>
<path fill="#333333" d="M-56.373,243.123h-51.365c-5.763,0-5.763-20.867,0-20.867h51.365c2.867,0,16.135,5.161,16.148,10.35
	C-40.207,237.851-53.477,243.123-56.373,243.123z"/>
<g>
	<path fill="#FFFFFF" d="M-90.468,237.471c-0.115,0-0.197-0.012-0.246-0.037c-0.049-0.023-0.074-0.094-0.074-0.209v-0.873
		c0-0.09,0.02-0.166,0.061-0.227c0.041-0.063,0.09-0.125,0.148-0.191l1.795-2.164c0.664-0.803,1.144-1.459,1.438-1.967
		c0.295-0.509,0.443-0.914,0.443-1.218c0-0.336-0.088-0.603-0.265-0.8c-0.176-0.196-0.428-0.311-0.756-0.344
		c-0.312-0.033-0.627,0-0.947,0.098c-0.32,0.1-0.676,0.259-1.07,0.48c-0.115,0.065-0.195,0.088-0.24,0.067s-0.076-0.067-0.092-0.142
		l-0.221-1.082c-0.017-0.065-0.015-0.119,0.006-0.16c0.02-0.041,0.08-0.094,0.178-0.16c0.155-0.105,0.332-0.202,0.529-0.288
		c0.197-0.087,0.399-0.16,0.608-0.222s0.416-0.106,0.621-0.135c0.205-0.029,0.389-0.043,0.553-0.043
		c0.394,0,0.765,0.057,1.113,0.172c0.349,0.115,0.65,0.285,0.904,0.51c0.254,0.227,0.455,0.507,0.603,0.843
		c0.148,0.337,0.222,0.726,0.222,1.168c0,0.386-0.082,0.771-0.246,1.156s-0.365,0.761-0.603,1.125s-0.494,0.714-0.769,1.046
		c-0.275,0.332-0.522,0.633-0.744,0.903c-0.139,0.181-0.305,0.377-0.498,0.59c-0.192,0.214-0.367,0.41-0.522,0.591h3.247
		c0.123,0,0.199,0.02,0.228,0.061c0.028,0.041,0.043,0.119,0.043,0.234v0.922c0,0.123-0.017,0.203-0.049,0.24
		s-0.106,0.055-0.221,0.055H-90.468z"/>
	<path fill="#FFFFFF" d="M-76.708,233.18c-0.345,0.074-0.746,0.141-1.205,0.203c-0.459,0.061-0.931,0.112-1.415,0.153
		c-0.483,0.041-0.957,0.067-1.42,0.08c-0.463,0.013-0.871,0.011-1.224-0.007c-0.295-0.008-0.515-0.063-0.658-0.166
		c-0.144-0.102-0.215-0.325-0.215-0.67v-4.328c0-0.164,0.012-0.297,0.037-0.4c0.025-0.102,0.07-0.18,0.135-0.232
		c0.066-0.054,0.152-0.088,0.258-0.105c0.106-0.016,0.246-0.023,0.418-0.023h4.254c0.164,0,0.246,0.068,0.246,0.209v0.971
		c0,0.14-0.082,0.209-0.246,0.209h-3.222c-0.082,0-0.131,0.017-0.147,0.049c-0.017,0.033-0.025,0.074-0.025,0.123v2.816
		c0,0.131,0.066,0.197,0.197,0.197c0.599,0,1.234-0.025,1.906-0.074c0.672-0.049,1.361-0.135,2.066-0.258
		c0.123-0.025,0.201-0.021,0.233,0.012s0.057,0.082,0.074,0.147l0.135,0.787c0.017,0.114,0.013,0.19-0.012,0.228
		C-76.56,233.137-76.618,233.163-76.708,233.18z M-74.026,238.553h-6.702c-0.353,0-0.584-0.061-0.695-0.184
		c-0.111-0.123-0.166-0.357-0.166-0.701v-2.693c0-0.172,0.086-0.258,0.258-0.258h1.205c0.164,0,0.246,0.086,0.246,0.258v1.992
		c0,0.123,0.065,0.185,0.197,0.185h5.657c0.064,0,0.125,0.015,0.178,0.043s0.08,0.088,0.08,0.179v0.959
		c0,0.115-0.027,0.18-0.08,0.197C-73.901,238.545-73.962,238.553-74.026,238.553z M-72.749,231.863h-1.523V235
		c0,0.09-0.016,0.151-0.043,0.184c-0.029,0.033-0.088,0.049-0.18,0.049h-1.241c-0.09,0-0.154-0.016-0.19-0.049
		c-0.037-0.032-0.056-0.094-0.056-0.184v-7.809c0-0.156,0.082-0.234,0.246-0.234h1.241c0.148,0,0.223,0.078,0.223,0.234v3.271h1.523
		c0.066,0,0.123,0.009,0.174,0.024c0.049,0.017,0.072,0.078,0.072,0.185v0.972c0,0.09-0.021,0.149-0.066,0.178
		C-72.614,231.85-72.675,231.863-72.749,231.863z"/>
	<path fill="#FFFFFF" d="M-67.153,234.004c-0.082,0-0.144-0.015-0.185-0.043c-0.041-0.029-0.062-0.102-0.062-0.216v-0.923
		c0-0.09,0.023-0.146,0.068-0.172c0.045-0.024,0.104-0.037,0.178-0.037h1.353v-1.586h-1.267c-0.303,0.977-0.795,1.888-1.476,2.736
		c-0.68,0.849-1.517,1.584-2.508,2.207c-0.099,0.066-0.173,0.092-0.222,0.08s-0.103-0.055-0.16-0.129l-0.565-0.787
		c-0.065-0.09-0.101-0.162-0.104-0.215c-0.004-0.054,0.039-0.109,0.129-0.166c0.524-0.345,0.994-0.727,1.408-1.145
		s0.771-0.852,1.07-1.303c0.299-0.451,0.536-0.908,0.713-1.371c0.176-0.463,0.284-0.904,0.326-1.322
		c0.024-0.213-0.058-0.319-0.246-0.319h-2.521c-0.164,0-0.245-0.078-0.245-0.233v-0.91c0-0.164,0.081-0.246,0.245-0.246h3.542
		c0.385,0,0.64,0.072,0.763,0.215c0.122,0.145,0.184,0.4,0.184,0.77c0,0.131-0.004,0.258-0.012,0.381
		c-0.009,0.123-0.021,0.246-0.037,0.369h0.983v-2.251c0-0.09,0.019-0.151,0.056-0.185c0.037-0.032,0.101-0.049,0.19-0.049h1.132
		c0.155,0,0.233,0.078,0.233,0.233v10.735c0,0.098-0.017,0.162-0.049,0.19c-0.033,0.028-0.095,0.043-0.185,0.043h-1.132
		c-0.09,0-0.153-0.013-0.19-0.036c-0.037-0.025-0.056-0.091-0.056-0.197v-4.119H-67.153z M-61.939,238.774h-1.217
		c-0.091,0-0.152-0.017-0.185-0.049c-0.033-0.033-0.05-0.095-0.05-0.185v-11.35c0-0.09,0.019-0.152,0.056-0.186
		c0.037-0.031,0.101-0.049,0.19-0.049h1.205c0.091,0,0.152,0.018,0.185,0.049c0.033,0.033,0.05,0.096,0.05,0.186v11.35
		c0,0.09-0.017,0.151-0.05,0.185C-61.787,238.758-61.849,238.774-61.939,238.774z"/>
</g>
<circle fill="#ECECEC" cx="-76.142" cy="339.43" r="80.953"/>
<path opacity="0.3" fill="#1D87C9" d="M-139.117,384.667h47.921c0-23.444-10.864-30.39-17.96-32.427
	c4.835-2.264,8.194-7.161,8.194-12.852c0-7.84-6.355-14.196-14.194-14.196c-7.838,0-14.194,6.356-14.194,14.196
	c0,5.67,3.333,10.55,8.14,12.823C-139.115,357.283-139.117,384.667-139.117,384.667z"/>
<path opacity="0.3" fill="#1D87C9" d="M-52.297,352.79h47.924c0-23.446-10.865-30.39-17.961-32.429
	c4.834-2.263,8.193-7.158,8.193-12.85c0-7.838-6.357-14.195-14.193-14.195c-7.84,0-14.195,6.357-14.195,14.195
	c0,5.67,3.332,10.55,8.141,12.823C-52.295,325.404-52.297,352.79-52.297,352.79z"/>
<path opacity="0.3" fill="#1D87C9" d="M-65.248,344.364c0,3.797-3.078,6.875-6.875,6.875h-17.652c-2.245,0-4.241-1.077-5.496-2.746
	c-0.334-0.444-5.452,1.289-5.672,0.769c-0.351-0.822,4.293-3.947,4.293-4.897v-1.751v-2.522c0-3.796,3.078-6.877,6.875-6.877h17.652
	c3.797,0,6.875,3.081,6.875,6.877V344.364z"/>
<path opacity="0.3" fill="#1D87C9" d="M-90.605,306.43c0,4.827,3.913,8.74,8.738,8.74h22.432c2.857,0,5.393-1.371,6.988-3.49
	c0.426-0.567,6.928,1.637,7.207,0.975c0.443-1.045-5.455-5.018-5.455-6.225v-2.225V301c0-4.826-3.912-8.738-8.74-8.738h-22.432
	c-4.825,0-8.738,3.912-8.738,8.738V306.43z"/>
<g opacity="0.3">
	<path fill="#FFFFFF" d="M-76.434,308.463c-0.09,0-0.152-0.019-0.184-0.055c-0.033-0.037-0.049-0.105-0.049-0.203v-7.018
		l-0.75,0.721c-0.131,0.123-0.234,0.136-0.308,0.037l-0.726-0.824c-0.049-0.057-0.063-0.107-0.043-0.153
		c0.021-0.045,0.068-0.101,0.142-0.166l1.894-1.771c0.09-0.074,0.189-0.111,0.294-0.111h0.812c0.18,0,0.287,0.021,0.32,0.063
		c0.031,0.041,0.049,0.164,0.049,0.369v8.854c0,0.09-0.018,0.155-0.049,0.196c-0.033,0.041-0.096,0.062-0.186,0.062H-76.434z"/>
	<path fill="#FFFFFF" d="M-66.006,301.835c-0.238,0.696-0.59,1.364-1.057,2.005c0.344,0.368,0.709,0.703,1.094,1.002
		s0.729,0.543,1.033,0.731c0.09,0.065,0.129,0.134,0.117,0.202c-0.014,0.07-0.049,0.146-0.105,0.229l-0.529,0.762
		c-0.064,0.09-0.139,0.125-0.221,0.105c-0.082-0.021-0.176-0.064-0.283-0.13c-0.123-0.073-0.268-0.174-0.436-0.302
		c-0.168-0.127-0.348-0.268-0.535-0.424c-0.189-0.155-0.377-0.321-0.566-0.498c-0.188-0.176-0.365-0.35-0.529-0.522
		c-0.434,0.442-0.914,0.856-1.438,1.242c-0.525,0.386-1.096,0.729-1.709,1.032c-0.092,0.041-0.158,0.061-0.203,0.056
		c-0.045-0.004-0.092-0.047-0.143-0.129l-0.504-0.812c-0.064-0.09-0.086-0.164-0.061-0.222c0.023-0.058,0.068-0.106,0.135-0.147
		c1.016-0.574,1.865-1.201,2.545-1.881c0.682-0.681,1.172-1.349,1.477-2.005c0.023-0.058,0.037-0.112,0.037-0.166
		s-0.059-0.079-0.172-0.079h-3.063c-0.115,0-0.184-0.025-0.203-0.074c-0.021-0.049-0.031-0.115-0.031-0.197v-0.885
		c0-0.164,0.082-0.246,0.246-0.246h4.168c0.32,0,0.57,0.063,0.752,0.19c0.18,0.127,0.27,0.321,0.27,0.584
		c0,0.073-0.004,0.164-0.012,0.271C-65.939,301.635-65.965,301.736-66.006,301.835z M-66.977,299.793h-3.223
		c-0.066,0-0.125-0.016-0.178-0.049c-0.055-0.032-0.08-0.102-0.08-0.209v-0.848c0-0.107,0.025-0.177,0.08-0.209
		c0.053-0.033,0.111-0.05,0.178-0.05h3.223c0.18,0,0.27,0.091,0.27,0.271v0.824C-66.707,299.703-66.797,299.793-66.977,299.793z
		 M-61.125,303.753h-1.523v5.755c0,0.099-0.016,0.162-0.043,0.191c-0.029,0.027-0.088,0.043-0.18,0.043h-1.24
		c-0.092,0-0.154-0.016-0.191-0.043c-0.037-0.029-0.055-0.093-0.055-0.191v-11.325c0-0.09,0.018-0.151,0.055-0.185
		c0.037-0.032,0.1-0.049,0.191-0.049h1.24c0.092,0,0.15,0.017,0.18,0.049c0.027,0.033,0.043,0.095,0.043,0.185v4.169h1.523
		c0.074,0,0.135,0.01,0.18,0.03s0.066,0.089,0.066,0.203v0.935c0,0.098-0.021,0.162-0.066,0.19S-61.051,303.753-61.125,303.753z"/>
</g>
<g>
	<path fill="#333333" d="M-105.633,348.554c-0.151,0-0.253-0.031-0.308-0.092c-0.055-0.063-0.082-0.175-0.082-0.339v-11.694
		l-1.25,1.201c-0.219,0.205-0.39,0.226-0.513,0.062l-1.209-1.373c-0.082-0.095-0.106-0.181-0.072-0.256s0.113-0.167,0.236-0.276
		l3.156-2.951c0.15-0.123,0.314-0.185,0.492-0.185h1.353c0.3,0,0.478,0.034,0.533,0.103s0.082,0.273,0.082,0.614v14.756
		c0,0.15-0.027,0.26-0.082,0.328s-0.157,0.103-0.307,0.103H-105.633z"/>
	<path fill="#333333" d="M-88.254,337.507c-0.396,1.162-0.984,2.275-1.763,3.341c0.574,0.615,1.182,1.172,1.824,1.671
		c0.642,0.499,1.216,0.905,1.722,1.219c0.15,0.11,0.215,0.223,0.194,0.339s-0.079,0.242-0.174,0.379l-0.881,1.271
		c-0.109,0.15-0.232,0.209-0.369,0.174c-0.137-0.033-0.294-0.105-0.471-0.215c-0.205-0.123-0.448-0.29-0.728-0.502
		c-0.28-0.212-0.578-0.447-0.892-0.707c-0.314-0.26-0.628-0.536-0.943-0.83s-0.608-0.584-0.881-0.871
		c-0.724,0.738-1.523,1.428-2.397,2.07c-0.875,0.642-1.824,1.216-2.849,1.722c-0.15,0.068-0.263,0.099-0.338,0.092
		c-0.075-0.007-0.154-0.078-0.236-0.215l-0.84-1.354c-0.109-0.149-0.144-0.272-0.103-0.368s0.116-0.178,0.226-0.246
		c1.694-0.956,3.108-2.002,4.243-3.136c1.134-1.134,1.954-2.247,2.459-3.341c0.041-0.096,0.062-0.188,0.062-0.276
		s-0.096-0.134-0.287-0.134h-5.104c-0.191,0-0.304-0.041-0.338-0.122c-0.034-0.082-0.051-0.191-0.051-0.328v-1.476
		c0-0.273,0.136-0.41,0.41-0.41h6.948c0.533,0,0.95,0.106,1.25,0.317c0.301,0.212,0.451,0.537,0.451,0.974
		c0,0.123-0.007,0.273-0.021,0.451C-88.145,337.173-88.186,337.344-88.254,337.507z M-89.874,334.105h-5.37
		c-0.109,0-0.208-0.027-0.297-0.082c-0.089-0.055-0.133-0.171-0.133-0.349v-1.414c0-0.178,0.044-0.294,0.133-0.349
		c0.088-0.055,0.188-0.082,0.297-0.082h5.37c0.3,0,0.451,0.15,0.451,0.451v1.373C-89.422,333.955-89.573,334.105-89.874,334.105z
		 M-80.118,340.704h-2.541v9.592c0,0.164-0.024,0.27-0.072,0.317c-0.048,0.048-0.147,0.072-0.297,0.072h-2.07
		c-0.15,0-0.256-0.024-0.318-0.072s-0.092-0.153-0.092-0.317v-18.875c0-0.15,0.031-0.253,0.092-0.308s0.167-0.082,0.318-0.082h2.07
		c0.15,0,0.249,0.027,0.297,0.082c0.047,0.055,0.072,0.157,0.072,0.308v6.947h2.541c0.123,0,0.222,0.018,0.297,0.051
		c0.075,0.034,0.113,0.147,0.113,0.339v1.558c0,0.164-0.038,0.27-0.113,0.317C-79.896,340.681-79.995,340.704-80.118,340.704z"/>
	<path fill="#333333" d="M-69.441,344.947h-6.783c-0.314,0-0.571-0.018-0.769-0.052c-0.198-0.034-0.352-0.103-0.461-0.205
		s-0.185-0.246-0.225-0.43c-0.041-0.185-0.062-0.434-0.062-0.748V333.9c0-0.588,0.105-0.963,0.317-1.127s0.577-0.246,1.097-0.246
		h6.885c0.287,0,0.523,0.014,0.707,0.041c0.186,0.027,0.328,0.089,0.432,0.185c0.102,0.096,0.174,0.235,0.215,0.42
		s0.061,0.427,0.061,0.728v9.612c0,0.3-0.02,0.546-0.061,0.737s-0.113,0.338-0.215,0.44c-0.104,0.103-0.246,0.171-0.432,0.205
		C-68.918,344.93-69.154,344.947-69.441,344.947z M-70.855,335.253c0-0.178-0.016-0.29-0.051-0.338
		c-0.033-0.048-0.133-0.072-0.297-0.072h-3.299c-0.179,0-0.291,0.021-0.339,0.062s-0.071,0.157-0.071,0.349v6.968
		c0,0.191,0.023,0.308,0.071,0.349s0.16,0.062,0.339,0.062h3.299c0.164,0,0.264-0.023,0.297-0.071
		c0.035-0.048,0.051-0.161,0.051-0.339V335.253z M-62.984,350.686h-2.051c-0.15,0-0.252-0.024-0.307-0.072s-0.082-0.153-0.082-0.317
		v-18.875c0-0.15,0.027-0.253,0.082-0.308s0.156-0.082,0.307-0.082h2.051c0.15,0,0.252,0.027,0.307,0.082s0.082,0.157,0.082,0.308
		v18.875c0,0.164-0.027,0.27-0.082,0.317S-62.834,350.686-62.984,350.686z"/>
	<path fill="#333333" d="M-49.786,337.568c0,0.069-0.007,0.116-0.021,0.144c-0.041,0.082-0.144,0.13-0.308,0.144
		c-0.901,0.055-1.8,0.093-2.694,0.113c-0.896,0.021-1.78,0.03-2.654,0.03v1.373c0,0.219,0.109,0.328,0.328,0.328
		c1.011,0,2.046-0.027,3.104-0.082s2.176-0.191,3.351-0.41c0.205-0.027,0.335-0.013,0.39,0.041c0.055,0.055,0.096,0.137,0.123,0.246
		l0.226,1.312c0.027,0.191,0.021,0.318-0.021,0.38s-0.137,0.105-0.287,0.133c-0.574,0.123-1.236,0.232-1.988,0.328
		c-0.751,0.096-1.52,0.171-2.306,0.226c-0.785,0.055-1.554,0.089-2.306,0.103c-0.751,0.014-1.421,0.007-2.008-0.021
		c-0.492-0.014-0.857-0.106-1.097-0.277s-0.358-0.543-0.358-1.117v-7.542c0-0.272,0.021-0.494,0.062-0.666
		c0.041-0.17,0.115-0.3,0.225-0.389s0.257-0.147,0.441-0.175s0.42-0.041,0.707-0.041h7.009c0.287,0,0.431,0.116,0.431,0.349v1.619
		c0,0.232-0.144,0.349-0.431,0.349h-5.308c-0.137,0-0.219,0.027-0.246,0.082s-0.041,0.123-0.041,0.205v1.373
		c0.901,0,1.79-0.007,2.664-0.021s1.729-0.041,2.562-0.082c0.123-0.014,0.229-0.004,0.318,0.03c0.088,0.034,0.133,0.12,0.133,0.257
		v1.455c0,0.041,0.003,0.078,0.011,0.112C-49.77,337.511-49.772,337.542-49.786,337.568z M-49.643,350.87
		c-0.93,0-1.772-0.089-2.531-0.267c-0.758-0.178-1.411-0.434-1.957-0.769c-0.547-0.335-0.967-0.738-1.261-1.209
		c-0.294-0.472-0.44-1.001-0.44-1.589c0-0.546,0.15-1.052,0.451-1.517c0.3-0.464,0.721-0.864,1.26-1.199
		c0.54-0.334,1.189-0.594,1.947-0.778c0.759-0.185,1.602-0.276,2.531-0.276c0.874,0,1.697,0.089,2.47,0.267
		c0.771,0.178,1.438,0.43,1.998,0.758s1.004,0.725,1.332,1.188c0.328,0.465,0.492,0.984,0.492,1.558
		c0,0.574-0.164,1.097-0.492,1.568c-0.328,0.471-0.771,0.874-1.332,1.209s-1.227,0.594-1.998,0.778
		C-47.945,350.777-48.769,350.87-49.643,350.87z M-49.643,345.459c-1.065,0-1.879,0.164-2.438,0.492
		c-0.561,0.328-0.841,0.711-0.841,1.147c0,0.424,0.28,0.792,0.841,1.106c0.56,0.314,1.373,0.472,2.438,0.472
		c1.024,0,1.841-0.157,2.449-0.472c0.607-0.314,0.912-0.683,0.912-1.106c0-0.437-0.308-0.819-0.923-1.147
		C-47.818,345.623-48.632,345.459-49.643,345.459z M-43.884,342.631h-2.069c-0.26,0-0.39-0.13-0.39-0.39v-10.82
		c0-0.178,0.041-0.287,0.123-0.328s0.185-0.062,0.307-0.062h2.05c0.178,0,0.283,0.037,0.317,0.112s0.052,0.168,0.052,0.277v10.8
		C-43.494,342.494-43.624,342.631-43.884,342.631z"/>
</g>
<path fill="#333333" d="M121.345,238.422H69.849c-5.776,0-5.776-20.92,0-20.92h51.496c2.874,0,16.176,5.174,16.192,10.376
	C137.553,233.136,124.249,238.422,121.345,238.422z"/>
<g>
	<path fill="#FFFFFF" d="M92.857,229.475c0,0.416-0.076,0.805-0.227,1.163c-0.151,0.359-0.376,0.672-0.674,0.937
		c-0.298,0.266-0.665,0.473-1.103,0.619c-0.437,0.146-0.94,0.221-1.512,0.221c-0.343,0-0.71-0.031-1.103-0.092
		c-0.392-0.063-0.734-0.149-1.028-0.264c-0.114-0.041-0.184-0.09-0.208-0.146c-0.024-0.058-0.029-0.131-0.013-0.221l0.123-0.98
		c0.016-0.113,0.047-0.184,0.092-0.207c0.045-0.025,0.132-0.018,0.263,0.023c0.196,0.066,0.421,0.131,0.674,0.196
		s0.478,0.106,0.674,0.122c0.277,0.025,0.555,0.021,0.832-0.012s0.527-0.104,0.747-0.215c0.221-0.109,0.398-0.263,0.533-0.459
		c0.135-0.195,0.202-0.441,0.202-0.734c0-0.172-0.041-0.341-0.123-0.508c-0.081-0.168-0.206-0.316-0.373-0.447
		c-0.168-0.131-0.376-0.236-0.625-0.318s-0.541-0.123-0.875-0.123h-0.661c-0.106,0-0.174-0.016-0.202-0.049
		c-0.029-0.032-0.043-0.098-0.043-0.195v-1.005c0-0.114,0.014-0.186,0.043-0.214c0.028-0.029,0.096-0.043,0.202-0.043h0.637
		c0.171,0,0.361-0.024,0.569-0.074c0.208-0.049,0.403-0.126,0.588-0.232c0.184-0.105,0.338-0.238,0.465-0.397
		s0.189-0.349,0.189-0.569c0-0.311-0.107-0.572-0.324-0.784c-0.216-0.212-0.545-0.318-0.985-0.318c-0.286,0-0.592,0.041-0.919,0.122
		c-0.326,0.082-0.62,0.18-0.882,0.295c-0.114,0.049-0.204,0.066-0.269,0.055c-0.065-0.012-0.106-0.075-0.123-0.189l-0.122-1.017
		c-0.017-0.081-0.011-0.144,0.019-0.185c0.028-0.04,0.104-0.085,0.227-0.134c0.343-0.14,0.697-0.255,1.064-0.349
		c0.368-0.094,0.727-0.142,1.078-0.142c0.359,0,0.718,0.05,1.077,0.147s0.682,0.246,0.968,0.447
		c0.286,0.199,0.517,0.457,0.692,0.771c0.175,0.314,0.263,0.684,0.263,1.107c0,0.237-0.043,0.465-0.128,0.686
		c-0.086,0.221-0.205,0.428-0.355,0.619c-0.151,0.191-0.331,0.363-0.539,0.514c-0.208,0.151-0.435,0.275-0.68,0.374
		c0.62,0.237,1.088,0.56,1.402,0.968S92.857,229.059,92.857,229.475z"/>
	<path fill="#FFFFFF" d="M100.964,227.943c-0.343,0.074-0.743,0.141-1.2,0.203c-0.457,0.061-0.927,0.111-1.408,0.152
		s-0.953,0.067-1.414,0.08c-0.462,0.012-0.868,0.01-1.219-0.006c-0.294-0.009-0.513-0.064-0.655-0.166s-0.214-0.324-0.214-0.668
		v-4.311c0-0.162,0.012-0.295,0.036-0.397s0.069-0.179,0.135-0.232s0.151-0.088,0.258-0.104c0.105-0.016,0.244-0.024,0.416-0.024
		h4.237c0.163,0,0.244,0.069,0.244,0.208v0.968c0,0.14-0.081,0.208-0.244,0.208h-3.209c-0.081,0-0.131,0.017-0.146,0.049
		c-0.017,0.033-0.024,0.074-0.024,0.123v2.805c0,0.13,0.064,0.195,0.195,0.195c0.596,0,1.229-0.024,1.898-0.073
		c0.669-0.05,1.355-0.135,2.058-0.257c0.122-0.025,0.199-0.021,0.232,0.012c0.032,0.033,0.057,0.082,0.073,0.146l0.135,0.784
		c0.017,0.114,0.013,0.19-0.012,0.227C101.11,227.9,101.054,227.928,100.964,227.943z M103.634,233.295h-6.675
		c-0.351,0-0.581-0.061-0.691-0.184c-0.11-0.122-0.165-0.355-0.165-0.697v-2.682c0-0.172,0.085-0.258,0.257-0.258h1.2
		c0.163,0,0.245,0.086,0.245,0.258v1.982c0,0.123,0.065,0.185,0.195,0.185h5.634c0.064,0,0.124,0.015,0.177,0.042
		c0.054,0.029,0.08,0.088,0.08,0.178v0.955c0,0.115-0.026,0.18-0.08,0.197C103.758,233.287,103.698,233.295,103.634,233.295z
		 M104.907,226.633h-1.519v3.123c0,0.09-0.015,0.151-0.043,0.184c-0.028,0.033-0.088,0.049-0.178,0.049h-1.236
		c-0.09,0-0.153-0.016-0.19-0.049c-0.036-0.032-0.055-0.094-0.055-0.184v-7.775c0-0.155,0.081-0.232,0.245-0.232h1.236
		c0.147,0,0.221,0.077,0.221,0.232v3.257h1.519c0.065,0,0.122,0.009,0.171,0.024c0.049,0.017,0.074,0.078,0.074,0.184v0.968
		c0,0.09-0.023,0.149-0.067,0.178C105.04,226.619,104.98,226.633,104.907,226.633z"/>
	<path fill="#FFFFFF" d="M110.479,228.764c-0.082,0-0.143-0.014-0.184-0.042s-0.062-0.101-0.062-0.214v-0.919
		c0-0.09,0.022-0.147,0.067-0.171c0.045-0.025,0.104-0.037,0.178-0.037h1.347v-1.58h-1.261c-0.303,0.972-0.792,1.88-1.47,2.725
		c-0.678,0.846-1.511,1.578-2.498,2.198c-0.098,0.065-0.172,0.092-0.221,0.079c-0.049-0.012-0.102-0.055-0.159-0.128l-0.563-0.784
		c-0.065-0.09-0.1-0.16-0.104-0.214c-0.005-0.054,0.038-0.108,0.128-0.165c0.522-0.344,0.99-0.723,1.402-1.139
		c0.412-0.417,0.768-0.85,1.065-1.299s0.535-0.904,0.71-1.365c0.176-0.461,0.284-0.9,0.325-1.316
		c0.024-0.213-0.058-0.318-0.245-0.318h-2.511c-0.163,0-0.244-0.078-0.244-0.232v-0.906c0-0.164,0.081-0.245,0.244-0.245h3.527
		c0.384,0,0.637,0.071,0.759,0.214c0.123,0.144,0.184,0.398,0.184,0.766c0,0.131-0.004,0.258-0.012,0.38
		c-0.009,0.122-0.021,0.245-0.037,0.367h0.979v-2.241c0-0.09,0.019-0.15,0.056-0.184c0.036-0.032,0.1-0.049,0.189-0.049h1.127
		c0.155,0,0.232,0.078,0.232,0.232v10.691c0,0.098-0.017,0.16-0.049,0.189c-0.033,0.028-0.094,0.043-0.184,0.043h-1.127
		c-0.09,0-0.153-0.013-0.189-0.037c-0.037-0.024-0.056-0.09-0.056-0.195v-4.104H110.479z M115.671,233.516h-1.213
		c-0.09,0-0.15-0.017-0.184-0.049c-0.032-0.033-0.049-0.094-0.049-0.184V221.98c0-0.09,0.019-0.151,0.056-0.184
		c0.036-0.033,0.1-0.049,0.189-0.049h1.2c0.09,0,0.15,0.016,0.184,0.049c0.032,0.032,0.049,0.094,0.049,0.184v11.303
		c0,0.09-0.017,0.15-0.049,0.184C115.821,233.499,115.761,233.516,115.671,233.516z"/>
</g>
<circle fill="#ECECEC" cx="101.652" cy="334.883" r="80.618"/>
<path opacity="0.3" fill="#1D87C9" d="M40.881,378.991h47.723c0-23.348-10.817-30.264-17.886-32.293
	c4.815-2.254,8.16-7.132,8.16-12.798c0-7.807-6.328-14.137-14.136-14.137c-7.805,0-14.136,6.33-14.136,14.137
	c0,5.646,3.321,10.506,8.106,12.771C40.885,351.721,40.881,378.991,40.881,378.991z"/>
<path opacity="0.3" fill="#1D87C9" d="M127.343,347.246h47.724c0-23.35-10.819-30.263-17.886-32.294
	c4.814-2.254,8.159-7.129,8.159-12.796c0-7.807-6.33-14.136-14.135-14.136c-7.808,0-14.136,6.329-14.136,14.136
	c0,5.646,3.318,10.506,8.106,12.771C127.345,319.976,127.343,347.246,127.343,347.246z"/>
<path opacity="0.3" fill="#1D87C9" d="M114.445,338.855c0,3.781-3.065,6.847-6.847,6.847H90.02c-2.236,0-4.224-1.072-5.474-2.734
	c-0.332-0.443-5.429,1.283-5.647,0.765c-0.35-0.819,4.274-3.931,4.274-4.877v-1.744V334.6c0-3.78,3.065-6.848,6.847-6.848h17.579
	c3.781,0,6.847,3.067,6.847,6.848V338.855z"/>
<path opacity="0.3" fill="#1D87C9" d="M89.192,301.079c0,4.807,3.896,8.703,8.702,8.703h22.339c2.844,0,5.369-1.365,6.958-3.476
	c0.425-0.565,6.9,1.63,7.177,0.971c0.442-1.042-5.431-4.997-5.431-6.198v-2.217v-3.191c0-4.807-3.896-8.703-8.704-8.703H97.895
	c-4.807,0-8.702,3.896-8.702,8.703V301.079z"/>
<g opacity="0.3">
	<path fill="#FFFFFF" d="M100.905,303.102c-0.114,0-0.196-0.012-0.245-0.037c-0.049-0.024-0.073-0.094-0.073-0.208v-0.87
		c0-0.089,0.021-0.164,0.062-0.227c0.04-0.061,0.09-0.123,0.146-0.189l1.788-2.154c0.661-0.801,1.139-1.453,1.433-1.96
		c0.294-0.506,0.441-0.91,0.441-1.212c0-0.335-0.088-0.601-0.264-0.797c-0.176-0.195-0.427-0.31-0.753-0.342
		c-0.311-0.033-0.625,0-0.943,0.098s-0.673,0.257-1.065,0.478c-0.114,0.065-0.193,0.087-0.238,0.067
		c-0.045-0.021-0.076-0.067-0.092-0.141l-0.221-1.078c-0.017-0.065-0.015-0.118,0.006-0.159c0.021-0.04,0.08-0.094,0.178-0.159
		c0.155-0.105,0.331-0.202,0.526-0.287c0.196-0.086,0.398-0.16,0.606-0.221c0.208-0.062,0.414-0.106,0.618-0.135
		c0.204-0.029,0.388-0.043,0.552-0.043c0.392,0,0.761,0.057,1.107,0.172c0.348,0.113,0.647,0.283,0.9,0.508s0.453,0.504,0.601,0.838
		c0.146,0.336,0.22,0.723,0.22,1.164c0,0.384-0.081,0.768-0.245,1.15c-0.163,0.385-0.363,0.758-0.6,1.121
		c-0.237,0.363-0.492,0.711-0.766,1.041s-0.521,0.631-0.74,0.9c-0.14,0.18-0.305,0.375-0.496,0.588
		c-0.192,0.212-0.365,0.408-0.521,0.588h3.232c0.123,0,0.198,0.02,0.227,0.061s0.043,0.119,0.043,0.232v0.919
		c0,0.122-0.017,0.202-0.049,0.239c-0.032,0.036-0.106,0.055-0.221,0.055H100.905z"/>
	<path fill="#FFFFFF" d="M113.689,296.501c-0.236,0.694-0.587,1.359-1.053,1.996c0.343,0.367,0.706,0.7,1.09,0.998
		s0.727,0.541,1.028,0.729c0.09,0.065,0.129,0.133,0.117,0.202c-0.013,0.069-0.048,0.145-0.104,0.227l-0.526,0.76
		c-0.065,0.09-0.139,0.124-0.221,0.104s-0.176-0.063-0.281-0.129c-0.123-0.073-0.268-0.173-0.436-0.3
		c-0.167-0.126-0.345-0.267-0.532-0.423c-0.188-0.154-0.376-0.32-0.563-0.496c-0.188-0.175-0.363-0.349-0.526-0.52
		c-0.433,0.44-0.91,0.854-1.433,1.236c-0.522,0.384-1.09,0.727-1.702,1.029c-0.09,0.041-0.157,0.059-0.202,0.055
		s-0.092-0.047-0.141-0.129l-0.502-0.809c-0.065-0.09-0.086-0.162-0.062-0.22s0.069-0.106,0.135-0.147
		c1.012-0.57,1.857-1.195,2.535-1.873c0.677-0.678,1.167-1.343,1.469-1.996c0.024-0.057,0.037-0.112,0.037-0.166
		c0-0.053-0.058-0.079-0.172-0.079h-3.049c-0.114,0-0.182-0.024-0.202-0.073s-0.03-0.114-0.03-0.196v-0.882
		c0-0.163,0.081-0.244,0.245-0.244h4.15c0.319,0,0.567,0.063,0.747,0.189s0.27,0.32,0.27,0.582c0,0.073-0.004,0.163-0.012,0.27
		C113.755,296.301,113.73,296.402,113.689,296.501z M112.723,294.469h-3.209c-0.065,0-0.124-0.018-0.177-0.05
		c-0.054-0.032-0.08-0.102-0.08-0.208v-0.845c0-0.106,0.026-0.176,0.08-0.208c0.053-0.033,0.111-0.049,0.177-0.049h3.209
		c0.18,0,0.27,0.09,0.27,0.27v0.82C112.992,294.379,112.902,294.469,112.723,294.469z M118.552,298.411h-1.519v5.731
		c0,0.098-0.015,0.16-0.043,0.189s-0.088,0.043-0.178,0.043h-1.236c-0.09,0-0.153-0.014-0.19-0.043
		c-0.036-0.029-0.055-0.092-0.055-0.189v-11.279c0-0.089,0.019-0.15,0.055-0.184c0.037-0.032,0.101-0.049,0.19-0.049h1.236
		c0.09,0,0.149,0.017,0.178,0.049c0.028,0.033,0.043,0.095,0.043,0.184v4.152h1.519c0.073,0,0.133,0.01,0.178,0.03
		c0.044,0.021,0.067,0.088,0.067,0.202v0.931c0,0.098-0.023,0.161-0.067,0.189C118.685,298.396,118.625,298.411,118.552,298.411z"/>
</g>
<g>
	<path fill="#333333" d="M68.282,342.517c-0.19,0-0.326-0.021-0.408-0.062c-0.081-0.04-0.122-0.156-0.122-0.347v-1.449
		c0-0.149,0.033-0.275,0.102-0.377c0.068-0.103,0.149-0.208,0.245-0.316l2.979-3.593c1.103-1.333,1.898-2.422,2.389-3.266
		c0.489-0.843,0.734-1.517,0.734-2.021c0-0.558-0.146-1-0.438-1.326c-0.293-0.327-0.712-0.517-1.256-0.571
		c-0.517-0.055-1.041,0-1.571,0.163s-1.122,0.429-1.775,0.796c-0.19,0.109-0.323,0.146-0.398,0.112
		c-0.074-0.034-0.126-0.112-0.152-0.234l-0.368-1.797c-0.027-0.108-0.023-0.196,0.011-0.265c0.033-0.068,0.133-0.156,0.296-0.266
		c0.258-0.177,0.551-0.337,0.878-0.479c0.326-0.143,0.663-0.266,1.01-0.367c0.347-0.103,0.69-0.177,1.03-0.225
		c0.341-0.048,0.646-0.071,0.919-0.071c0.653,0,1.269,0.095,1.847,0.285c0.578,0.191,1.078,0.474,1.5,0.848s0.756,0.84,1.001,1.397
		c0.244,0.559,0.367,1.204,0.367,1.939c0,0.64-0.137,1.278-0.408,1.918c-0.272,0.64-0.605,1.263-1,1.868
		c-0.396,0.605-0.82,1.184-1.276,1.734s-0.867,1.051-1.234,1.5c-0.231,0.3-0.507,0.626-0.826,0.979
		c-0.32,0.354-0.609,0.681-0.868,0.979h5.389c0.204,0,0.33,0.034,0.377,0.103c0.048,0.068,0.072,0.197,0.072,0.388v1.53
		c0,0.204-0.027,0.337-0.082,0.398s-0.177,0.092-0.367,0.092H68.282z"/>
	<path fill="#333333" d="M89.59,331.516c-0.395,1.157-0.979,2.266-1.755,3.327c0.571,0.612,1.177,1.167,1.816,1.663
		c0.64,0.497,1.211,0.901,1.714,1.215c0.15,0.108,0.215,0.221,0.194,0.337c-0.021,0.115-0.078,0.241-0.174,0.377l-0.877,1.266
		c-0.109,0.149-0.231,0.208-0.368,0.174c-0.136-0.034-0.292-0.105-0.469-0.215c-0.204-0.122-0.446-0.289-0.725-0.5
		c-0.279-0.211-0.575-0.445-0.888-0.704c-0.313-0.258-0.626-0.534-0.939-0.826c-0.313-0.293-0.605-0.582-0.877-0.868
		c-0.722,0.735-1.518,1.423-2.389,2.062c-0.87,0.64-1.816,1.212-2.837,1.715c-0.149,0.068-0.262,0.099-0.336,0.092
		c-0.075-0.007-0.153-0.078-0.235-0.215l-0.837-1.347c-0.108-0.149-0.143-0.271-0.102-0.367c0.041-0.095,0.115-0.177,0.225-0.245
		c1.687-0.952,3.095-1.993,4.225-3.123c1.129-1.129,1.945-2.237,2.449-3.326c0.041-0.095,0.062-0.188,0.062-0.275
		c0-0.089-0.096-0.133-0.286-0.133H81.1c-0.19,0-0.303-0.041-0.337-0.123c-0.034-0.081-0.051-0.19-0.051-0.326v-1.47
		c0-0.271,0.136-0.408,0.408-0.408h6.919c0.53,0,0.945,0.105,1.245,0.316c0.299,0.211,0.448,0.534,0.448,0.97
		c0,0.122-0.007,0.272-0.02,0.449C89.698,331.183,89.658,331.353,89.59,331.516z M87.978,328.128H82.63
		c-0.108,0-0.207-0.027-0.296-0.082c-0.088-0.054-0.132-0.17-0.132-0.347v-1.408c0-0.177,0.044-0.292,0.132-0.347
		c0.089-0.055,0.188-0.082,0.296-0.082h5.348c0.299,0,0.449,0.15,0.449,0.449v1.367C88.427,327.979,88.276,328.128,87.978,328.128z
		 M97.692,334.7h-2.53v9.552c0,0.163-0.024,0.268-0.071,0.315c-0.048,0.048-0.146,0.072-0.296,0.072h-2.062
		c-0.15,0-0.256-0.024-0.316-0.072c-0.062-0.048-0.092-0.152-0.092-0.315v-18.798c0-0.149,0.03-0.252,0.092-0.306
		c0.061-0.055,0.166-0.082,0.316-0.082h2.062c0.149,0,0.248,0.027,0.296,0.082c0.047,0.054,0.071,0.156,0.071,0.306v6.919h2.53
		c0.123,0,0.222,0.018,0.296,0.051c0.075,0.034,0.112,0.146,0.112,0.337v1.551c0,0.164-0.037,0.27-0.112,0.316
		C97.914,334.676,97.815,334.7,97.692,334.7z"/>
	<path fill="#333333" d="M108.325,338.925h-6.755c-0.313,0-0.568-0.018-0.766-0.051c-0.197-0.034-0.351-0.103-0.459-0.204
		c-0.109-0.103-0.184-0.245-0.225-0.429s-0.062-0.433-0.062-0.745v-9.572c0-0.585,0.105-0.959,0.316-1.123
		c0.211-0.163,0.574-0.244,1.092-0.244h6.857c0.286,0,0.521,0.014,0.704,0.04c0.184,0.028,0.327,0.089,0.429,0.185
		c0.103,0.095,0.174,0.234,0.215,0.418s0.061,0.426,0.061,0.725v9.572c0,0.299-0.02,0.544-0.061,0.734s-0.112,0.337-0.215,0.439
		c-0.102,0.102-0.245,0.17-0.429,0.204C108.846,338.907,108.611,338.925,108.325,338.925z M106.917,329.271
		c0-0.177-0.017-0.289-0.051-0.337c-0.034-0.047-0.133-0.071-0.296-0.071h-3.286c-0.177,0-0.289,0.021-0.337,0.062
		s-0.071,0.156-0.071,0.347v6.939c0,0.19,0.023,0.307,0.071,0.347c0.048,0.041,0.16,0.062,0.337,0.062h3.286
		c0.163,0,0.262-0.023,0.296-0.071s0.051-0.16,0.051-0.337V329.271z M114.755,344.64h-2.041c-0.15,0-0.252-0.024-0.307-0.072
		s-0.081-0.152-0.081-0.315v-18.798c0-0.149,0.026-0.252,0.081-0.306c0.055-0.055,0.156-0.082,0.307-0.082h2.041
		c0.149,0,0.251,0.027,0.306,0.082c0.055,0.054,0.082,0.156,0.082,0.306v18.798c0,0.163-0.027,0.268-0.082,0.315
		S114.904,344.64,114.755,344.64z"/>
	<path fill="#333333" d="M127.897,331.577c0,0.068-0.007,0.115-0.02,0.143c-0.041,0.082-0.144,0.13-0.307,0.144
		c-0.898,0.054-1.793,0.092-2.684,0.111c-0.892,0.021-1.772,0.031-2.644,0.031v1.367c0,0.218,0.109,0.326,0.327,0.326
		c1.007,0,2.037-0.026,3.092-0.081s2.167-0.19,3.337-0.408c0.204-0.027,0.333-0.014,0.388,0.041s0.095,0.136,0.123,0.244
		l0.224,1.307c0.027,0.19,0.021,0.316-0.021,0.378c-0.04,0.061-0.136,0.105-0.285,0.133c-0.571,0.122-1.231,0.231-1.979,0.326
		c-0.749,0.096-1.515,0.17-2.297,0.225s-1.548,0.089-2.296,0.102c-0.748,0.014-1.415,0.008-2-0.021
		c-0.489-0.013-0.854-0.104-1.092-0.275c-0.238-0.17-0.357-0.541-0.357-1.112v-7.511c0-0.271,0.021-0.493,0.062-0.663
		s0.115-0.299,0.225-0.388c0.108-0.089,0.255-0.146,0.438-0.174c0.184-0.026,0.419-0.041,0.704-0.041h6.98
		c0.285,0,0.429,0.116,0.429,0.348v1.612c0,0.231-0.144,0.347-0.429,0.347h-5.286c-0.137,0-0.218,0.027-0.245,0.082
		s-0.041,0.122-0.041,0.204v1.367c0.898,0,1.782-0.007,2.653-0.021s1.722-0.041,2.552-0.082c0.122-0.013,0.228-0.003,0.316,0.031
		c0.088,0.034,0.132,0.119,0.132,0.255v1.449c0,0.041,0.004,0.078,0.011,0.112S127.911,331.55,127.897,331.577z M128.041,344.823
		c-0.926,0-1.766-0.089-2.521-0.266c-0.756-0.177-1.405-0.432-1.949-0.766c-0.545-0.333-0.963-0.734-1.256-1.204
		c-0.292-0.469-0.438-0.997-0.438-1.581c0-0.545,0.149-1.048,0.449-1.511c0.299-0.463,0.718-0.86,1.255-1.194
		c0.537-0.333,1.184-0.592,1.939-0.775c0.755-0.184,1.595-0.275,2.521-0.275c0.87,0,1.69,0.089,2.459,0.266s1.432,0.429,1.99,0.755
		c0.558,0.326,1,0.722,1.326,1.184c0.327,0.463,0.49,0.979,0.49,1.552c0,0.571-0.163,1.092-0.49,1.561
		c-0.326,0.47-0.769,0.871-1.326,1.204c-0.559,0.334-1.222,0.592-1.99,0.776C129.731,344.731,128.911,344.823,128.041,344.823z
		 M128.041,339.435c-1.062,0-1.871,0.163-2.429,0.49c-0.559,0.326-0.837,0.707-0.837,1.143c0,0.422,0.278,0.789,0.837,1.103
		c0.558,0.313,1.367,0.469,2.429,0.469c1.021,0,1.833-0.156,2.438-0.469c0.605-0.313,0.908-0.681,0.908-1.103
		c0-0.436-0.306-0.816-0.918-1.143C129.857,339.598,129.048,339.435,128.041,339.435z M133.775,336.618h-2.061
		c-0.259,0-0.388-0.129-0.388-0.388v-10.776c0-0.177,0.04-0.286,0.122-0.326c0.082-0.041,0.184-0.062,0.306-0.062h2.041
		c0.177,0,0.282,0.038,0.316,0.112c0.034,0.075,0.052,0.167,0.052,0.275v10.756C134.164,336.482,134.034,336.618,133.775,336.618z"
		/>
</g>
<path fill="#333333" d="M328.84,242.813h-51.263c-5.75,0-5.75-20.826,0-20.826h51.263c2.86,0,16.104,5.15,16.119,10.33
	C344.975,237.551,331.729,242.813,328.84,242.813z"/>
<g>
	<path fill="#FFFFFF" d="M299.835,234.847v1.78c0,0.138-0.015,0.225-0.043,0.262c-0.028,0.036-0.111,0.055-0.25,0.055h-1.012
		c-0.138,0-0.222-0.022-0.25-0.066c-0.028-0.045-0.042-0.129-0.042-0.25v-1.78h-3.719c-0.113,0-0.188-0.015-0.226-0.043
		c-0.036-0.028-0.055-0.095-0.055-0.201v-0.865c0-0.089,0.021-0.165,0.062-0.226c0.04-0.061,0.081-0.124,0.121-0.189
		c0.618-0.951,1.231-1.912,1.841-2.883c0.61-0.971,1.239-1.92,1.89-2.847c0.041-0.065,0.084-0.107,0.128-0.128
		c0.045-0.02,0.108-0.03,0.189-0.03h1.121c0.146,0,0.224,0.026,0.232,0.079c0.008,0.053,0.012,0.12,0.012,0.201v5.633h1
		c0.121,0,0.196,0.012,0.226,0.036c0.028,0.024,0.042,0.105,0.042,0.243v0.951c0,0.139-0.018,0.218-0.055,0.238
		c-0.036,0.02-0.107,0.03-0.213,0.03H299.835z M296.068,233.348h2.17v-3.354L296.068,233.348z"/>
	<path fill="#FFFFFF" d="M308.552,232.641c-0.342,0.072-0.74,0.14-1.195,0.201c-0.455,0.061-0.922,0.111-1.401,0.152
		c-0.479,0.04-0.949,0.066-1.408,0.078c-0.459,0.013-0.863,0.011-1.213-0.006c-0.293-0.008-0.511-0.063-0.652-0.164
		c-0.143-0.102-0.214-0.323-0.214-0.664v-4.292c0-0.162,0.013-0.294,0.037-0.396s0.069-0.18,0.134-0.232
		c0.065-0.053,0.15-0.087,0.256-0.104c0.105-0.016,0.244-0.023,0.415-0.023h4.218c0.162,0,0.244,0.068,0.244,0.207v0.963
		c0,0.139-0.082,0.207-0.244,0.207h-3.194c-0.081,0-0.13,0.016-0.146,0.049c-0.017,0.032-0.024,0.072-0.024,0.121v2.793
		c0,0.129,0.064,0.194,0.194,0.194c0.594,0,1.224-0.024,1.89-0.073c0.667-0.049,1.35-0.134,2.049-0.256
		c0.121-0.024,0.198-0.02,0.231,0.012c0.032,0.033,0.057,0.082,0.073,0.146l0.134,0.78c0.017,0.114,0.012,0.188-0.013,0.226
		S308.641,232.623,308.552,232.641z M311.209,237.967h-6.644c-0.35,0-0.579-0.061-0.689-0.182c-0.109-0.123-0.164-0.354-0.164-0.695
		v-2.67c0-0.171,0.085-0.256,0.256-0.256h1.194c0.163,0,0.244,0.085,0.244,0.256v1.975c0,0.122,0.064,0.184,0.195,0.184h5.607
		c0.065,0,0.124,0.014,0.177,0.042s0.079,0.087,0.079,0.177v0.951c0,0.113-0.026,0.179-0.079,0.195
		C311.333,237.959,311.274,237.967,311.209,237.967z M312.477,231.336h-1.512v3.108c0,0.089-0.014,0.15-0.042,0.183
		c-0.029,0.033-0.088,0.049-0.177,0.049h-1.231c-0.09,0-0.152-0.016-0.189-0.049c-0.036-0.032-0.055-0.094-0.055-0.183v-7.741
		c0-0.154,0.081-0.232,0.244-0.232h1.231c0.146,0,0.219,0.078,0.219,0.232v3.242h1.512c0.065,0,0.122,0.009,0.171,0.025
		c0.049,0.016,0.073,0.076,0.073,0.182v0.964c0,0.089-0.022,0.148-0.067,0.177S312.55,231.336,312.477,231.336z"/>
	<path fill="#FFFFFF" d="M318.023,233.457c-0.081,0-0.143-0.014-0.183-0.043c-0.041-0.028-0.062-0.1-0.062-0.213v-0.914
		c0-0.09,0.022-0.146,0.067-0.172c0.045-0.023,0.104-0.036,0.177-0.036h1.341v-1.573h-1.256c-0.301,0.968-0.788,1.872-1.463,2.713
		c-0.675,0.842-1.503,1.57-2.486,2.188c-0.098,0.065-0.171,0.091-0.22,0.079s-0.102-0.055-0.158-0.128l-0.562-0.78
		c-0.064-0.09-0.1-0.16-0.104-0.213s0.039-0.107,0.128-0.165c0.521-0.341,0.985-0.72,1.396-1.134
		c0.41-0.414,0.764-0.845,1.061-1.292c0.296-0.446,0.532-0.899,0.707-1.359c0.175-0.459,0.282-0.896,0.323-1.311
		c0.024-0.211-0.058-0.317-0.244-0.317h-2.499c-0.163,0-0.244-0.076-0.244-0.23v-0.902c0-0.163,0.081-0.244,0.244-0.244h3.511
		c0.382,0,0.634,0.071,0.756,0.213c0.122,0.143,0.183,0.396,0.183,0.762c0,0.131-0.004,0.257-0.012,0.379
		c-0.009,0.121-0.021,0.244-0.037,0.365h0.976v-2.23c0-0.09,0.019-0.15,0.055-0.184c0.037-0.032,0.1-0.049,0.189-0.049h1.121
		c0.154,0,0.231,0.078,0.231,0.232v10.643c0,0.098-0.016,0.16-0.049,0.188c-0.032,0.028-0.093,0.043-0.183,0.043h-1.121
		c-0.09,0-0.152-0.013-0.189-0.036c-0.036-0.025-0.055-0.09-0.055-0.195v-4.084H318.023z M323.192,238.188h-1.207
		c-0.09,0-0.15-0.018-0.183-0.049c-0.033-0.033-0.049-0.094-0.049-0.184v-11.252c0-0.09,0.019-0.15,0.055-0.184
		c0.036-0.031,0.1-0.049,0.188-0.049h1.195c0.089,0,0.15,0.018,0.183,0.049c0.032,0.033,0.049,0.094,0.049,0.184v11.252
		c0,0.09-0.017,0.15-0.049,0.184C323.343,238.17,323.281,238.188,323.192,238.188z"/>
</g>
<circle fill="#ECECEC" cx="309.112" cy="340.396" r="80.255"/>
<polygon opacity="0.3" fill="#1D87C9" points="350.261,329.377 322.975,316.17 322.975,324.412 240.679,324.412 240.679,360.758 
	322.975,360.758 322.975,369 350.261,355.793 377.544,342.588 "/>
<g>
	<path fill="#333333" d="M248.135,334.526c-0.123,0.678-0.306,1.368-0.549,2.072c-0.244,0.705-0.549,1.423-0.914,2.154
		c0.162,0.338,0.357,0.681,0.588,1.025c0.23,0.346,0.475,0.681,0.732,1.006c0.257,0.325,0.524,0.63,0.803,0.914
		c0.277,0.285,0.551,0.528,0.822,0.731c0.122,0.096,0.186,0.19,0.193,0.285c0.006,0.095-0.059,0.224-0.193,0.386l-0.975,1.219
		c-0.123,0.163-0.228,0.241-0.315,0.234c-0.089-0.007-0.206-0.071-0.355-0.193c-0.217-0.176-0.447-0.386-0.69-0.63
		c-0.244-0.244-0.488-0.508-0.732-0.792c-0.243-0.285-0.48-0.579-0.711-0.885c-0.23-0.305-0.434-0.599-0.609-0.884
		c-0.542,0.772-1.145,1.504-1.809,2.194c-0.664,0.691-1.381,1.321-2.153,1.89c-0.177,0.122-0.302,0.177-0.376,0.163
		s-0.172-0.095-0.295-0.244l-1.076-1.3c-0.189-0.217-0.143-0.44,0.143-0.671c0.744-0.582,1.418-1.216,2.021-1.899
		c0.602-0.685,1.134-1.385,1.595-2.104c0.46-0.718,0.847-1.436,1.157-2.153c0.313-0.718,0.557-1.415,0.732-2.093
		c0.027-0.108,0.033-0.21,0.02-0.305s-0.121-0.143-0.324-0.143h-3.861c-0.189,0-0.297-0.037-0.324-0.111s-0.041-0.18-0.041-0.315
		v-1.442c0-0.148,0.023-0.257,0.071-0.325c0.048-0.067,0.152-0.102,0.315-0.102h5.627c0.609,0,1.029,0.105,1.26,0.315
		s0.346,0.552,0.346,1.025c0,0.136-0.014,0.295-0.041,0.478C248.188,334.212,248.161,334.378,248.135,334.526z M256.912,350.069
		h-2.053c-0.149,0-0.248-0.023-0.295-0.071c-0.047-0.047-0.07-0.146-0.07-0.294v-9.509h-1.524v8.757
		c0,0.176-0.024,0.281-0.071,0.314c-0.047,0.034-0.146,0.052-0.295,0.052h-1.889c-0.149,0-0.254-0.018-0.315-0.052
		c-0.062-0.033-0.091-0.139-0.091-0.314v-17.636c0-0.149,0.029-0.247,0.091-0.295c0.062-0.047,0.166-0.071,0.315-0.071h1.889
		c0.149,0,0.248,0.024,0.295,0.071c0.047,0.048,0.071,0.146,0.071,0.295v6.583h1.524v-6.949c0-0.148,0.026-0.247,0.08-0.294
		c0.055-0.048,0.156-0.071,0.306-0.071h2.032c0.148,0,0.246,0.023,0.294,0.071c0.048,0.047,0.071,0.146,0.071,0.294v18.754
		c0,0.148-0.023,0.247-0.071,0.294C257.158,350.046,257.061,350.069,256.912,350.069z"/>
	<path fill="#333333" d="M276.782,343.101h-7.314v6.421c0,0.271-0.136,0.406-0.406,0.406h-2.012c-0.271,0-0.406-0.136-0.406-0.406
		v-6.421h-7.314c-0.177,0-0.288-0.041-0.335-0.122c-0.048-0.081-0.071-0.196-0.071-0.346v-1.401c0-0.149,0.023-0.261,0.071-0.335
		c0.047-0.074,0.158-0.112,0.335-0.112h17.453c0.284,0,0.427,0.149,0.427,0.447v1.401
		C277.209,342.945,277.066,343.101,276.782,343.101z M273.206,338.976h-10.2c-0.311,0-0.562-0.017-0.751-0.051
		c-0.19-0.033-0.339-0.102-0.447-0.203s-0.183-0.243-0.224-0.427c-0.041-0.183-0.061-0.43-0.061-0.741v-5.263
		c0-0.284,0.023-0.515,0.07-0.69c0.048-0.176,0.129-0.312,0.244-0.406s0.262-0.159,0.438-0.193c0.176-0.033,0.386-0.051,0.629-0.051
		h10.302c0.284,0,0.515,0.014,0.69,0.041s0.315,0.088,0.417,0.183s0.173,0.23,0.214,0.406c0.04,0.177,0.061,0.413,0.061,0.711v5.263
		c0,0.298-0.021,0.542-0.061,0.731c-0.041,0.189-0.112,0.335-0.214,0.437s-0.241,0.17-0.417,0.203
		C273.721,338.959,273.49,338.976,273.206,338.976z M271.805,333.652c0-0.176-0.018-0.287-0.051-0.335
		c-0.034-0.047-0.133-0.071-0.295-0.071h-6.746c-0.176,0-0.287,0.021-0.335,0.062c-0.048,0.04-0.071,0.155-0.071,0.345v2.621
		c0,0.19,0.023,0.305,0.071,0.346s0.159,0.061,0.335,0.061h6.746c0.162,0,0.261-0.023,0.295-0.07
		c0.033-0.048,0.051-0.159,0.051-0.336V333.652z"/>
	<path fill="#333333" d="M280.521,340.683c-0.271,0.149-0.45,0.228-0.538,0.233c-0.089,0.008-0.18-0.063-0.275-0.213l-0.934-1.26
		c-0.149-0.203-0.211-0.346-0.184-0.427s0.136-0.183,0.326-0.305c1.408-0.921,2.468-1.981,3.18-3.18
		c0.711-1.199,1.066-2.638,1.066-4.317c0-0.23,0.029-0.369,0.092-0.417c0.061-0.047,0.186-0.063,0.375-0.051l1.91,0.081
		c0.148,0.014,0.25,0.045,0.305,0.092c0.055,0.048,0.082,0.146,0.082,0.295c0,0.542-0.035,1.063-0.102,1.564
		c-0.068,0.501-0.164,0.988-0.285,1.463c0.203,0.446,0.463,0.877,0.781,1.29s0.662,0.792,1.027,1.138s0.738,0.66,1.117,0.944
		c0.379,0.285,0.73,0.516,1.057,0.691c0.189,0.108,0.281,0.213,0.273,0.314c-0.006,0.102-0.064,0.234-0.172,0.396l-0.752,1.219
		c-0.109,0.163-0.203,0.251-0.285,0.265c-0.08,0.014-0.217-0.034-0.406-0.143c-0.283-0.135-0.596-0.318-0.934-0.549
		c-0.34-0.229-0.682-0.49-1.027-0.782c-0.344-0.291-0.676-0.609-0.994-0.954c-0.318-0.346-0.607-0.708-0.863-1.088
		c-0.461,0.759-1.014,1.446-1.656,2.063C282.061,339.664,281.333,340.209,280.521,340.683z M294.561,350.171h-10.932
		c-0.299,0-0.539-0.023-0.721-0.07c-0.184-0.048-0.326-0.122-0.428-0.224s-0.169-0.237-0.203-0.406
		c-0.033-0.17-0.051-0.376-0.051-0.62v-2.723c0-0.257,0.018-0.468,0.051-0.63c0.034-0.162,0.102-0.295,0.203-0.396
		s0.24-0.173,0.418-0.213c0.176-0.041,0.412-0.062,0.711-0.062h7.863c0.135,0,0.203-0.074,0.203-0.223v-0.549
		c0-0.163-0.076-0.244-0.225-0.244h-8.857c-0.15,0-0.255-0.026-0.316-0.081c-0.061-0.054-0.091-0.162-0.091-0.325v-1.402
		c0-0.257,0.136-0.386,0.407-0.386h10.381c0.313,0,0.563,0.024,0.752,0.071c0.189,0.048,0.34,0.122,0.447,0.224
		c0.109,0.102,0.18,0.233,0.213,0.396c0.035,0.162,0.051,0.365,0.051,0.609v2.702c0,0.271-0.016,0.491-0.051,0.66
		c-0.033,0.17-0.102,0.302-0.203,0.396s-0.242,0.159-0.426,0.192c-0.184,0.034-0.43,0.051-0.742,0.051h-7.781
		c-0.148,0-0.225,0.068-0.225,0.204v0.629c0,0.149,0.082,0.224,0.244,0.224h9.285c0.15,0,0.254,0.021,0.316,0.062
		c0.061,0.04,0.09,0.148,0.09,0.325v1.401C294.945,350.036,294.816,350.171,294.561,350.171z M288.484,336.01
		c-0.121,0-0.217-0.027-0.283-0.081c-0.068-0.055-0.102-0.156-0.102-0.305v-1.504c0-0.189,0.037-0.302,0.111-0.335
		c0.074-0.034,0.166-0.051,0.273-0.051h3.191v-2.764c0-0.176,0.039-0.284,0.121-0.325c0.082-0.04,0.184-0.061,0.305-0.061h2.012
		c0.176,0,0.281,0.037,0.314,0.111c0.033,0.075,0.051,0.166,0.051,0.274v9.265c0,0.258-0.129,0.387-0.385,0.387h-2.033
		c-0.258,0-0.385-0.122-0.385-0.366v-4.246H288.484z"/>
	<path fill="#333333" d="M305.43,342.227c-0.135,0-0.236-0.023-0.305-0.07c-0.068-0.048-0.102-0.166-0.102-0.356v-1.523
		c0-0.148,0.037-0.244,0.111-0.284c0.074-0.041,0.174-0.062,0.295-0.062h2.234v-2.621h-2.092c-0.502,1.612-1.314,3.119-2.438,4.521
		c-1.125,1.401-2.506,2.617-4.146,3.646c-0.162,0.108-0.283,0.152-0.365,0.132c-0.08-0.02-0.17-0.091-0.264-0.213l-0.936-1.301
		c-0.107-0.148-0.166-0.267-0.172-0.355c-0.008-0.088,0.064-0.179,0.213-0.274c0.867-0.568,1.643-1.198,2.326-1.889
		c0.684-0.691,1.273-1.409,1.768-2.154c0.494-0.744,0.889-1.5,1.18-2.266c0.291-0.765,0.471-1.493,0.537-2.184
		c0.041-0.353-0.094-0.528-0.406-0.528h-4.164c-0.271,0-0.406-0.129-0.406-0.387v-1.503c0-0.271,0.135-0.406,0.406-0.406h5.852
		c0.637,0,1.057,0.118,1.26,0.355s0.305,0.66,0.305,1.27c0,0.217-0.008,0.427-0.021,0.63s-0.033,0.406-0.061,0.609h1.625v-3.718
		c0-0.149,0.031-0.251,0.092-0.305s0.166-0.081,0.316-0.081h1.868c0.258,0,0.387,0.129,0.387,0.386v17.737
		c0,0.163-0.027,0.268-0.082,0.315c-0.055,0.047-0.156,0.071-0.305,0.071h-1.868c-0.15,0-0.256-0.021-0.316-0.062
		c-0.061-0.04-0.092-0.149-0.092-0.325v-6.807H305.43z M314.044,350.11h-2.01c-0.15,0-0.252-0.027-0.305-0.081
		c-0.055-0.055-0.082-0.156-0.082-0.305v-18.754c0-0.148,0.031-0.25,0.092-0.305c0.061-0.054,0.166-0.081,0.314-0.081h1.99
		c0.15,0,0.252,0.027,0.305,0.081c0.055,0.055,0.082,0.156,0.082,0.305v18.754c0,0.148-0.027,0.25-0.082,0.305
		C314.296,350.083,314.194,350.11,314.044,350.11z"/>
	<path fill="#333333" d="M322.091,341.231c-0.732,0-1.402-0.122-2.012-0.366c-0.609-0.243-1.131-0.585-1.564-1.025
		s-0.771-0.955-1.016-1.545c-0.244-0.589-0.365-1.229-0.365-1.92c0-0.649,0.121-1.27,0.365-1.858
		c0.244-0.59,0.582-1.107,1.016-1.555s0.955-0.803,1.564-1.066c0.609-0.265,1.279-0.396,2.012-0.396
		c0.744,0,1.426,0.132,2.041,0.396c0.617,0.264,1.148,0.619,1.596,1.066s0.793,0.965,1.035,1.555
		c0.244,0.589,0.367,1.209,0.367,1.858c0,0.691-0.123,1.331-0.367,1.92c-0.242,0.59-0.588,1.104-1.035,1.545
		s-0.979,0.782-1.596,1.025C323.517,341.109,322.835,341.231,322.091,341.231z M332.271,349.744h-11.074
		c-0.285,0-0.518-0.023-0.701-0.07c-0.182-0.048-0.324-0.126-0.426-0.234s-0.174-0.257-0.213-0.446
		c-0.041-0.19-0.063-0.427-0.063-0.712v-4.53c0-0.285,0.137-0.427,0.406-0.427h1.992c0.283,0,0.426,0.142,0.426,0.427v3.373
		c0,0.203,0.102,0.305,0.305,0.305h9.348c0.107,0,0.205,0.023,0.293,0.07c0.088,0.048,0.133,0.146,0.133,0.295v1.585
		c0,0.189-0.045,0.298-0.133,0.325C332.476,349.73,332.378,349.744,332.271,349.744z M322.091,333.957
		c-0.664,0-1.207,0.234-1.625,0.701c-0.42,0.468-0.631,1.061-0.631,1.778s0.211,1.311,0.631,1.777
		c0.418,0.468,0.961,0.701,1.625,0.701c0.678,0,1.225-0.233,1.645-0.701c0.42-0.467,0.631-1.06,0.631-1.777
		s-0.211-1.311-0.631-1.778C323.315,334.191,322.769,333.957,322.091,333.957z M334.384,338.691h-2.52v5.182
		c0,0.148-0.025,0.25-0.072,0.305c-0.047,0.054-0.145,0.081-0.295,0.081h-2.051c-0.15,0-0.254-0.027-0.316-0.081
		c-0.061-0.055-0.09-0.156-0.09-0.305v-12.902c0-0.257,0.135-0.386,0.406-0.386h2.051c0.244,0,0.367,0.129,0.367,0.386v5.404h2.52
		c0.107,0,0.203,0.014,0.283,0.041c0.082,0.027,0.123,0.129,0.123,0.305v1.605c0,0.148-0.039,0.247-0.113,0.294
		C334.603,338.668,334.505,338.691,334.384,338.691z"/>
	<path fill="#333333" d="M343.444,340.683c-0.271,0.149-0.449,0.228-0.537,0.233c-0.09,0.008-0.18-0.063-0.275-0.213l-0.934-1.26
		c-0.15-0.203-0.211-0.346-0.184-0.427s0.135-0.183,0.324-0.305c1.41-0.921,2.469-1.981,3.18-3.18
		c0.713-1.199,1.068-2.638,1.068-4.317c0-0.23,0.029-0.369,0.09-0.417c0.063-0.047,0.188-0.063,0.377-0.051l1.91,0.081
		c0.148,0.014,0.25,0.045,0.305,0.092c0.053,0.048,0.08,0.146,0.08,0.295c0,0.894-0.094,1.761-0.283,2.601
		c0.203,0.461,0.463,0.9,0.781,1.32s0.668,0.813,1.047,1.179c0.379,0.365,0.762,0.694,1.148,0.985
		c0.385,0.291,0.748,0.532,1.086,0.722c0.189,0.108,0.281,0.213,0.275,0.314c-0.008,0.102-0.064,0.233-0.174,0.396l-0.752,1.219
		c-0.107,0.163-0.203,0.251-0.283,0.265c-0.082,0.014-0.217-0.034-0.406-0.143c-0.285-0.136-0.598-0.318-0.936-0.549
		c-0.338-0.229-0.68-0.49-1.025-0.782c-0.346-0.291-0.678-0.609-0.996-0.955c-0.318-0.345-0.605-0.707-0.863-1.087
		c-0.475,0.813-1.051,1.552-1.727,2.215C345.063,339.579,344.298,340.168,343.444,340.683z M357.403,350.171h-10.789
		c-0.299,0-0.539-0.023-0.721-0.07c-0.184-0.048-0.326-0.122-0.428-0.224s-0.168-0.237-0.203-0.406
		c-0.033-0.17-0.051-0.376-0.051-0.62v-2.662c0-0.257,0.018-0.467,0.051-0.63c0.035-0.162,0.102-0.294,0.203-0.396
		s0.24-0.173,0.418-0.214c0.176-0.04,0.412-0.061,0.711-0.061h7.721c0.135,0,0.203-0.074,0.203-0.224v-0.487
		c0-0.163-0.074-0.244-0.225-0.244h-8.715c-0.15,0-0.254-0.027-0.316-0.081c-0.061-0.054-0.092-0.163-0.092-0.325v-1.402
		c0-0.257,0.137-0.386,0.408-0.386h10.24c0.311,0,0.561,0.023,0.75,0.071s0.34,0.122,0.447,0.224
		c0.109,0.102,0.18,0.233,0.215,0.396c0.033,0.163,0.051,0.366,0.051,0.61v2.641c0,0.271-0.018,0.491-0.051,0.66
		c-0.035,0.17-0.102,0.302-0.203,0.396s-0.244,0.159-0.428,0.193c-0.184,0.033-0.43,0.051-0.742,0.051h-7.639
		c-0.148,0-0.225,0.067-0.225,0.203v0.568c0,0.149,0.082,0.224,0.244,0.224h9.145c0.148,0,0.254,0.021,0.314,0.062
		c0.061,0.04,0.092,0.148,0.092,0.325v1.401C357.79,350.036,357.661,350.171,357.403,350.171z M356.896,340.744h-2.053
		c-0.258,0-0.385-0.136-0.385-0.407v-9.366c0-0.148,0.025-0.25,0.08-0.305c0.055-0.054,0.156-0.081,0.305-0.081h2.053
		c0.148,0,0.246,0.027,0.295,0.081c0.047,0.055,0.07,0.156,0.07,0.305v9.387C357.261,340.615,357.14,340.744,356.896,340.744z"/>
	<path fill="#333333" d="M369.31,335.948h-8.311c-0.299,0-0.447-0.142-0.447-0.427v-1.279c0-0.285,0.148-0.427,0.447-0.427h8.311
		c0.285,0,0.426,0.142,0.426,0.427v1.3C369.735,335.813,369.595,335.948,369.31,335.948z M365.347,342.856
		c-0.609,0-1.16-0.088-1.656-0.264c-0.494-0.176-0.914-0.41-1.258-0.701c-0.346-0.291-0.613-0.63-0.803-1.016
		c-0.191-0.387-0.285-0.789-0.285-1.209s0.094-0.819,0.285-1.199c0.189-0.379,0.459-0.714,0.813-1.006
		c0.352-0.291,0.775-0.524,1.27-0.7s1.047-0.265,1.656-0.265s1.164,0.085,1.666,0.254c0.5,0.17,0.928,0.396,1.279,0.681
		s0.623,0.617,0.813,0.996s0.285,0.778,0.285,1.198c0,0.434-0.096,0.844-0.285,1.229s-0.461,0.729-0.813,1.026
		s-0.779,0.535-1.279,0.711C366.532,342.769,365.97,342.856,365.347,342.856z M367.644,333.124h-4.592
		c-0.123,0-0.227-0.023-0.314-0.07c-0.09-0.048-0.133-0.166-0.133-0.355v-1.301c0-0.176,0.043-0.291,0.133-0.346
		c0.088-0.054,0.191-0.081,0.314-0.081h4.592c0.283,0,0.426,0.149,0.426,0.447v1.26
		C368.069,332.976,367.927,333.124,367.644,333.124z M365.368,338.569c-0.488,0-0.84,0.122-1.057,0.366s-0.326,0.487-0.326,0.731
		c0,0.257,0.109,0.508,0.326,0.752c0.217,0.243,0.568,0.365,1.057,0.365c0.486,0,0.842-0.122,1.066-0.365
		c0.223-0.244,0.336-0.495,0.336-0.752s-0.113-0.505-0.336-0.742C366.21,338.688,365.854,338.569,365.368,338.569z M370.853,350.171
		c-1.043,0-1.977-0.084-2.803-0.254c-0.826-0.169-1.527-0.413-2.104-0.731s-1.02-0.697-1.33-1.138
		c-0.313-0.44-0.467-0.938-0.467-1.493c0-0.528,0.154-1.013,0.467-1.453c0.311-0.439,0.754-0.815,1.33-1.127
		s1.277-0.556,2.104-0.731s1.76-0.265,2.803-0.265c0.977,0,1.873,0.085,2.693,0.254c0.818,0.17,1.527,0.41,2.123,0.722
		s1.063,0.688,1.402,1.128c0.338,0.439,0.508,0.931,0.508,1.473c0,0.556-0.17,1.053-0.508,1.493c-0.34,0.44-0.807,0.819-1.402,1.138
		s-1.305,0.563-2.123,0.731C372.726,350.087,371.829,350.171,370.853,350.171z M370.853,345.152c-1.232,0-2.166,0.143-2.803,0.427
		c-0.637,0.285-0.955,0.63-0.955,1.036c0,0.393,0.322,0.722,0.965,0.985c0.643,0.265,1.574,0.396,2.793,0.396
		c0.502,0,0.982-0.021,1.443-0.061c0.461-0.041,0.863-0.112,1.209-0.214s0.619-0.243,0.822-0.427
		c0.203-0.183,0.305-0.409,0.305-0.681c0-0.406-0.342-0.751-1.025-1.036C372.923,345.295,372.005,345.152,370.853,345.152z
		 M377.03,342.633h-2.012c-0.258,0-0.387-0.135-0.387-0.406v-4.104h-1.422v3.515c0,0.162-0.023,0.268-0.07,0.314
		c-0.049,0.048-0.146,0.071-0.295,0.071h-1.93c-0.15,0-0.254-0.017-0.316-0.051c-0.061-0.033-0.09-0.146-0.09-0.335v-10.342
		c0-0.149,0.029-0.247,0.09-0.295c0.063-0.047,0.166-0.071,0.316-0.071h1.93c0.244,0,0.365,0.122,0.365,0.366v4.551h1.422v-4.876
		c0-0.148,0.031-0.25,0.092-0.305c0.061-0.054,0.166-0.081,0.314-0.081h1.992c0.148,0,0.25,0.027,0.305,0.081
		c0.055,0.055,0.082,0.156,0.082,0.305v11.256c0,0.149-0.027,0.254-0.082,0.315C377.28,342.603,377.179,342.633,377.03,342.633z"/>
</g>
<path fill="#333333" d="M527.508,238.293h-51.229c-5.747,0-5.747-20.813,0-20.813h51.229c2.859,0,16.093,5.147,16.109,10.323
	C543.633,233.034,530.397,238.293,527.508,238.293z"/>
<g>
	<path fill="#FFFFFF" d="M498.363,232.575c-0.301,0.275-0.662,0.479-1.084,0.608c-0.423,0.13-0.865,0.195-1.328,0.195
		c-0.146,0-0.311-0.011-0.493-0.03c-0.184-0.021-0.366-0.049-0.549-0.086c-0.183-0.036-0.357-0.079-0.523-0.128
		c-0.167-0.049-0.307-0.102-0.421-0.158c-0.064-0.032-0.107-0.061-0.128-0.085s-0.03-0.081-0.03-0.171v-1.145
		c0-0.098,0.019-0.159,0.055-0.184c0.037-0.024,0.096-0.02,0.177,0.013c0.122,0.049,0.264,0.096,0.427,0.14
		c0.162,0.045,0.333,0.088,0.512,0.128c0.179,0.041,0.361,0.073,0.548,0.098s0.361,0.037,0.524,0.037
		c0.479,0,0.871-0.143,1.175-0.427c0.305-0.284,0.457-0.67,0.457-1.157c0-0.455-0.124-0.829-0.371-1.121
		c-0.248-0.292-0.668-0.438-1.261-0.438c-0.236,0-0.498,0.026-0.786,0.079s-0.555,0.124-0.798,0.213
		c-0.073,0.033-0.146,0.06-0.22,0.079c-0.073,0.021-0.138,0.024-0.194,0.013c-0.058-0.013-0.102-0.049-0.135-0.109
		c-0.032-0.062-0.048-0.156-0.048-0.287l0.061-4.52c0-0.122,0.024-0.199,0.073-0.231s0.142-0.049,0.28-0.049h4.422
		c0.098,0,0.16,0.019,0.189,0.055c0.028,0.037,0.042,0.1,0.042,0.189v1.011c0,0.09-0.012,0.154-0.036,0.195
		c-0.024,0.04-0.09,0.061-0.195,0.061h-3.167l-0.049,1.986c0.138-0.033,0.282-0.056,0.433-0.067
		c0.149-0.012,0.294-0.019,0.432-0.019c0.415,0,0.803,0.063,1.164,0.189s0.676,0.309,0.944,0.548
		c0.268,0.239,0.479,0.536,0.633,0.89s0.231,0.757,0.231,1.212C499.325,231.142,499.005,231.966,498.363,232.575z"/>
	<path fill="#FFFFFF" d="M507.232,229.054c-0.341,0.073-0.739,0.141-1.194,0.201s-0.922,0.111-1.4,0.152
		c-0.479,0.041-0.948,0.067-1.407,0.079c-0.459,0.013-0.863,0.011-1.213-0.006c-0.292-0.008-0.51-0.063-0.651-0.165
		c-0.143-0.102-0.213-0.322-0.213-0.664v-4.288c0-0.162,0.012-0.294,0.036-0.396s0.069-0.179,0.134-0.231
		c0.065-0.053,0.15-0.088,0.256-0.104c0.105-0.017,0.244-0.024,0.415-0.024h4.215c0.162,0,0.243,0.068,0.243,0.207v0.962
		c0,0.139-0.081,0.207-0.243,0.207h-3.192c-0.081,0-0.13,0.017-0.146,0.049c-0.017,0.033-0.024,0.073-0.024,0.122v2.79
		c0,0.13,0.064,0.195,0.194,0.195c0.593,0,1.223-0.024,1.889-0.073s1.349-0.135,2.047-0.256c0.122-0.024,0.199-0.021,0.231,0.012
		s0.057,0.081,0.073,0.146l0.134,0.779c0.017,0.114,0.013,0.189-0.012,0.226S507.321,229.038,507.232,229.054z M509.889,234.378
		h-6.641c-0.349,0-0.578-0.062-0.688-0.183c-0.11-0.122-0.165-0.354-0.165-0.694v-2.668c0-0.171,0.086-0.256,0.256-0.256h1.194
		c0.162,0,0.243,0.085,0.243,0.256v1.974c0,0.121,0.065,0.183,0.195,0.183h5.604c0.064,0,0.123,0.014,0.176,0.042
		s0.08,0.088,0.08,0.177v0.95c0,0.114-0.027,0.179-0.08,0.195C510.012,234.369,509.953,234.378,509.889,234.378z M511.155,227.75
		h-1.511v3.107c0,0.089-0.015,0.149-0.043,0.183c-0.028,0.032-0.087,0.049-0.177,0.049h-1.23c-0.089,0-0.151-0.017-0.188-0.049
		c-0.036-0.033-0.055-0.094-0.055-0.183v-7.736c0-0.154,0.081-0.231,0.243-0.231h1.23c0.146,0,0.22,0.077,0.22,0.231v3.24h1.511
		c0.064,0,0.122,0.008,0.171,0.024s0.072,0.077,0.072,0.183v0.963c0,0.089-0.022,0.148-0.066,0.177
		C511.287,227.736,511.229,227.75,511.155,227.75z"/>
	<path fill="#FFFFFF" d="M516.697,229.87c-0.081,0-0.142-0.014-0.183-0.043c-0.04-0.028-0.061-0.099-0.061-0.213V228.7
		c0-0.089,0.022-0.146,0.067-0.17c0.044-0.024,0.104-0.037,0.176-0.037h1.341v-1.571h-1.255c-0.301,0.967-0.788,1.87-1.462,2.711
		c-0.675,0.841-1.503,1.569-2.485,2.187c-0.098,0.065-0.171,0.092-0.22,0.079c-0.049-0.012-0.102-0.055-0.158-0.128l-0.561-0.779
		c-0.065-0.09-0.1-0.16-0.104-0.214c-0.004-0.053,0.038-0.107,0.128-0.164c0.52-0.341,0.984-0.719,1.396-1.133
		c0.409-0.414,0.763-0.845,1.06-1.292c0.296-0.446,0.532-0.899,0.706-1.358c0.175-0.458,0.282-0.896,0.323-1.31
		c0.024-0.211-0.057-0.316-0.243-0.316h-2.498c-0.162,0-0.243-0.077-0.243-0.231v-0.901c0-0.163,0.081-0.244,0.243-0.244h3.509
		c0.382,0,0.634,0.071,0.755,0.214c0.122,0.142,0.184,0.396,0.184,0.761c0,0.13-0.005,0.256-0.013,0.378s-0.021,0.244-0.036,0.365
		h0.975v-2.229c0-0.089,0.018-0.15,0.055-0.183c0.036-0.032,0.1-0.049,0.188-0.049h1.121c0.154,0,0.231,0.077,0.231,0.231v10.636
		c0,0.098-0.017,0.16-0.049,0.189c-0.032,0.028-0.094,0.042-0.183,0.042h-1.121c-0.089,0-0.152-0.012-0.188-0.036
		c-0.037-0.024-0.055-0.09-0.055-0.195v-4.081H516.697z M521.863,234.597h-1.206c-0.09,0-0.15-0.016-0.183-0.048
		c-0.033-0.033-0.049-0.094-0.049-0.184v-11.244c0-0.09,0.019-0.15,0.055-0.183c0.036-0.033,0.1-0.049,0.188-0.049h1.194
		c0.089,0,0.15,0.016,0.183,0.049c0.032,0.032,0.049,0.093,0.049,0.183v11.244c0,0.09-0.017,0.15-0.049,0.184
		C522.014,234.581,521.952,234.597,521.863,234.597z"/>
</g>
<circle fill="#ECECEC" cx="507.792" cy="335.315" r="80.204"/>
<path opacity="0.3" fill="#1D87C9" d="M537.18,278.883c0,0-37.733-0.51-23.959,35.089l-36.896,58.833
	c0,0-10.776,11.954,1.573,19.317c0,0,9.183,7.058,17.064-8.207l31.778-60.971c0,0,32.785-0.215,29.114-27.74l-17.313,11.32
	l-11.675-9.853L537.18,278.883z"/>
<g>
	<path fill="#333333" d="M440.382,339.939c-0.108,0.136-0.229,0.183-0.365,0.142c-0.136-0.04-0.291-0.121-0.467-0.243
		c-0.23-0.162-0.497-0.379-0.802-0.649c-0.305-0.271-0.623-0.572-0.955-0.904c-0.331-0.331-0.659-0.683-0.984-1.056
		c-0.325-0.372-0.616-0.734-0.873-1.086c-0.69,0.866-1.462,1.688-2.314,2.467c-0.854,0.778-1.767,1.479-2.741,2.102
		c-0.122,0.081-0.221,0.115-0.295,0.102s-0.166-0.088-0.273-0.224l-0.955-1.279c-0.108-0.148-0.146-0.267-0.111-0.355
		c0.033-0.088,0.111-0.172,0.233-0.253c0.785-0.542,1.529-1.145,2.233-1.808s1.351-1.36,1.939-2.092
		c0.589-0.73,1.106-1.481,1.553-2.254c0.447-0.771,0.792-1.543,1.036-2.314c0.081-0.271-0.021-0.406-0.305-0.406h-4.935
		c-0.189,0-0.301-0.037-0.335-0.111c-0.033-0.074-0.051-0.18-0.051-0.314v-1.462c0-0.163,0.031-0.274,0.092-0.335
		c0.061-0.062,0.166-0.092,0.314-0.092h6.701c0.527,0,0.944,0.115,1.248,0.346c0.305,0.229,0.457,0.568,0.457,1.015
		c0,0.189-0.017,0.373-0.051,0.548c-0.034,0.177-0.071,0.346-0.111,0.508c-0.162,0.664-0.399,1.341-0.711,2.031
		c-0.312,0.689-0.684,1.388-1.116,2.091c0.257,0.406,0.551,0.799,0.883,1.178s0.673,0.741,1.025,1.086
		c0.352,0.346,0.704,0.664,1.056,0.955c0.353,0.291,0.67,0.552,0.955,0.781c0.229,0.176,0.223,0.406-0.021,0.69L440.382,339.939z
		 M445.032,345.482h-2.03c-0.149,0-0.251-0.023-0.305-0.071c-0.055-0.047-0.081-0.152-0.081-0.314v-18.701
		c0-0.148,0.026-0.25,0.081-0.304c0.054-0.055,0.155-0.082,0.305-0.082h2.03c0.148,0,0.25,0.027,0.305,0.082
		c0.054,0.054,0.081,0.155,0.081,0.304v18.701c0,0.162-0.027,0.268-0.081,0.314C445.282,345.459,445.181,345.482,445.032,345.482z"
		/>
	<path fill="#333333" d="M465.905,337.3h-17.422c-0.189,0-0.305-0.03-0.346-0.092c-0.04-0.061-0.061-0.172-0.061-0.335v-1.462
		c0-0.148,0.027-0.254,0.081-0.314s0.163-0.092,0.325-0.092h7.249v-2.07c0-0.149,0.026-0.251,0.081-0.305
		c0.054-0.055,0.162-0.082,0.325-0.082h1.989c0.163,0,0.271,0.027,0.325,0.082c0.054,0.054,0.081,0.155,0.081,0.305v2.07h7.371
		c0.121,0,0.223,0.027,0.304,0.082c0.082,0.054,0.122,0.162,0.122,0.324v1.462C466.331,337.157,466.189,337.3,465.905,337.3z
		 M450.859,333.726c-0.203,0.041-0.343,0.034-0.417-0.02c-0.074-0.055-0.146-0.163-0.213-0.325l-0.609-1.34
		c-0.04-0.108-0.044-0.206-0.01-0.295c0.033-0.088,0.125-0.152,0.274-0.192c1.84-0.528,3.252-1.198,4.233-2.011
		c0.981-0.812,1.546-1.86,1.695-3.147c0.014-0.188,0.047-0.304,0.102-0.345c0.054-0.041,0.176-0.054,0.365-0.041l1.767,0.082
		c0.189,0.014,0.314,0.047,0.376,0.102c0.061,0.054,0.084,0.162,0.07,0.324c0,0.258-0.02,0.508-0.061,0.752
		c0.244,0.487,0.589,0.947,1.035,1.38c0.447,0.434,0.944,0.826,1.493,1.178c0.548,0.353,1.13,0.657,1.746,0.914
		c0.615,0.257,1.222,0.46,1.817,0.609c0.189,0.04,0.287,0.108,0.294,0.203s-0.023,0.23-0.091,0.406l-0.65,1.38
		c-0.054,0.109-0.108,0.18-0.162,0.214c-0.055,0.033-0.176,0.037-0.365,0.01c-0.501-0.081-1.036-0.229-1.604-0.446
		s-1.134-0.48-1.695-0.792s-1.094-0.667-1.594-1.066c-0.501-0.399-0.935-0.829-1.3-1.289c-0.663,0.921-1.554,1.699-2.67,2.335
		C453.569,332.941,452.294,333.415,450.859,333.726z M463.164,345.442h-1.99c-0.298,0-0.446-0.136-0.446-0.406v-3.757
		c0-0.203-0.096-0.305-0.284-0.305h-9.544c-0.108,0-0.203-0.021-0.284-0.061c-0.081-0.041-0.122-0.136-0.122-0.284v-1.584
		c0-0.189,0.041-0.301,0.122-0.335s0.176-0.051,0.284-0.051h11.229c0.298,0,0.538,0.023,0.721,0.071
		c0.184,0.047,0.325,0.132,0.427,0.254c0.102,0.121,0.173,0.28,0.213,0.477c0.041,0.196,0.062,0.437,0.062,0.721v4.854
		C463.55,345.307,463.421,345.442,463.164,345.442z"/>
	<path fill="#333333" d="M469.337,337.401c-0.23,0.108-0.39,0.142-0.478,0.102c-0.088-0.041-0.166-0.122-0.233-0.244l-0.771-1.4
		c-0.136-0.244-0.048-0.434,0.264-0.569c0.69-0.324,1.347-0.71,1.97-1.157c0.623-0.446,1.185-0.906,1.686-1.381
		c0.501-0.474,0.938-0.954,1.31-1.441s0.66-0.934,0.863-1.34c0.121-0.23,0.172-0.393,0.152-0.487
		c-0.021-0.095-0.14-0.143-0.355-0.143h-4.487c-0.19,0-0.302-0.037-0.335-0.111c-0.034-0.074-0.051-0.18-0.051-0.314v-1.482
		c0-0.284,0.135-0.427,0.405-0.427h6.701c0.813,0,1.306,0.196,1.482,0.589c0.176,0.393,0.148,0.935-0.081,1.625
		c-0.366,1.002-0.921,2.023-1.665,3.065c0.527,0.528,1.109,0.999,1.746,1.411c0.636,0.413,1.197,0.755,1.685,1.025
		c0.217,0.122,0.265,0.284,0.143,0.487l-0.934,1.523c-0.122,0.203-0.305,0.243-0.549,0.121c-0.203-0.107-0.453-0.257-0.751-0.446
		s-0.616-0.402-0.954-0.64c-0.339-0.236-0.681-0.497-1.025-0.781c-0.346-0.285-0.667-0.569-0.965-0.854
		c-0.663,0.664-1.395,1.272-2.193,1.828C471.116,336.515,470.257,336.995,469.337,337.401z M483.226,345.442h-2.011
		c-0.284,0-0.426-0.136-0.426-0.406v-4.224c0-0.203-0.102-0.305-0.305-0.305h-9.036c-0.108,0-0.199-0.021-0.273-0.061
		c-0.075-0.041-0.112-0.136-0.112-0.284v-1.584c0-0.189,0.037-0.302,0.112-0.335c0.074-0.034,0.165-0.051,0.273-0.051h10.721
		c0.298,0,0.542,0.023,0.731,0.071c0.189,0.047,0.335,0.132,0.437,0.253c0.102,0.122,0.173,0.281,0.213,0.478
		c0.041,0.196,0.062,0.437,0.062,0.721v5.32C483.611,345.307,483.482,345.442,483.226,345.442z M478.129,332.731
		c-0.271,0-0.406-0.136-0.406-0.406v-1.503c0-0.189,0.037-0.301,0.111-0.335c0.074-0.033,0.173-0.051,0.295-0.051h2.68v-4.041
		c0-0.176,0.037-0.284,0.112-0.324c0.074-0.041,0.172-0.062,0.294-0.062h2.051c0.176,0,0.277,0.038,0.305,0.112
		s0.041,0.166,0.041,0.273v10.315c0,0.149-0.027,0.251-0.081,0.305c-0.055,0.054-0.156,0.081-0.305,0.081h-2.031
		c-0.148,0-0.25-0.023-0.304-0.071c-0.055-0.047-0.082-0.146-0.082-0.294v-4H478.129z"/>
	<path fill="#333333" d="M492.24,336.69c-0.731,0-1.401-0.122-2.011-0.365c-0.608-0.244-1.137-0.586-1.583-1.025
		c-0.447-0.439-0.792-0.954-1.036-1.543c-0.243-0.589-0.365-1.229-0.365-1.919c0-0.65,0.122-1.27,0.365-1.858
		c0.244-0.589,0.589-1.106,1.036-1.553c0.446-0.447,0.975-0.803,1.583-1.066c0.609-0.264,1.279-0.396,2.011-0.396
		c0.744,0,1.428,0.132,2.051,0.396c0.622,0.264,1.16,0.619,1.614,1.066c0.453,0.446,0.805,0.964,1.056,1.553
		c0.25,0.589,0.376,1.208,0.376,1.858c0,0.69-0.126,1.33-0.376,1.919c-0.251,0.589-0.603,1.104-1.056,1.543
		c-0.454,0.439-0.992,0.781-1.614,1.025C493.668,336.568,492.984,336.69,492.24,336.69z M492.24,329.421
		c-0.325,0-0.627,0.062-0.904,0.184c-0.277,0.121-0.521,0.294-0.73,0.518s-0.372,0.487-0.487,0.792s-0.173,0.633-0.173,0.984
		c0,0.353,0.058,0.681,0.173,0.985c0.115,0.304,0.277,0.568,0.487,0.791c0.21,0.224,0.453,0.396,0.73,0.519
		c0.277,0.121,0.579,0.183,0.904,0.183c0.677,0,1.235-0.233,1.675-0.701c0.439-0.467,0.66-1.059,0.66-1.776
		c0-0.717-0.221-1.31-0.66-1.776S492.917,329.421,492.24,329.421z M502.697,345.157h-10.66c-0.298,0-0.538-0.023-0.721-0.07
		c-0.183-0.048-0.329-0.132-0.437-0.254c-0.108-0.122-0.183-0.277-0.224-0.467c-0.041-0.19-0.061-0.427-0.061-0.711v-4.589
		c0-0.284,0.135-0.427,0.405-0.427h2.011c0.271,0,0.406,0.143,0.406,0.427v3.451c0,0.203,0.107,0.305,0.324,0.305h8.955
		c0.108,0,0.203,0.023,0.284,0.071s0.122,0.146,0.122,0.295v1.604c0,0.189-0.041,0.298-0.122,0.325
		C502.9,345.144,502.806,345.157,502.697,345.157z M502.129,339.777h-2.051c-0.149,0-0.251-0.031-0.305-0.092
		c-0.055-0.061-0.082-0.166-0.082-0.314v-12.976c0-0.257,0.129-0.386,0.387-0.386h2.051c0.243,0,0.365,0.129,0.365,0.386v12.995
		c0,0.149-0.024,0.251-0.071,0.305C502.375,339.75,502.277,339.777,502.129,339.777z"/>
	<path fill="#333333" d="M528.869,342.173h-17.441c-0.176,0-0.288-0.041-0.335-0.122c-0.048-0.081-0.071-0.183-0.071-0.305v-1.462
		c0-0.148,0.023-0.257,0.071-0.324c0.047-0.068,0.159-0.102,0.335-0.102h7.31v-3.554h-3.695c-0.312,0-0.562-0.017-0.751-0.051
		c-0.19-0.033-0.339-0.102-0.447-0.203s-0.183-0.247-0.224-0.437c-0.04-0.189-0.061-0.433-0.061-0.73v-6.396
		c0-0.298,0.023-0.534,0.071-0.711c0.047-0.176,0.128-0.311,0.243-0.406c0.115-0.094,0.261-0.158,0.437-0.192
		c0.176-0.033,0.386-0.051,0.63-0.051h10.295c0.284,0,0.514,0.014,0.69,0.041c0.176,0.027,0.314,0.088,0.416,0.183
		s0.172,0.233,0.213,0.416s0.061,0.423,0.061,0.721v6.396c0,0.298-0.02,0.538-0.061,0.721s-0.111,0.324-0.213,0.426
		s-0.24,0.173-0.416,0.214c-0.177,0.04-0.406,0.061-0.69,0.061h-3.676v3.554h7.31c0.284,0,0.427,0.142,0.427,0.426v1.462
		C529.296,342.03,529.153,342.173,528.869,342.173z M523.834,329.827c0-0.176-0.018-0.287-0.051-0.335
		c-0.034-0.047-0.132-0.071-0.295-0.071h-6.741c-0.176,0-0.287,0.021-0.335,0.062c-0.047,0.04-0.07,0.155-0.07,0.345v3.777
		c0,0.189,0.023,0.305,0.07,0.345c0.048,0.041,0.159,0.062,0.335,0.062h6.741c0.163,0,0.261-0.027,0.295-0.082
		c0.033-0.054,0.051-0.162,0.051-0.324V329.827z"/>
	<path fill="#333333" d="M542.413,339.229c-0.758,0.149-1.566,0.271-2.427,0.365c-0.859,0.096-1.702,0.166-2.527,0.214
		c-0.826,0.047-1.598,0.074-2.314,0.081c-0.718,0.007-1.313-0.003-1.787-0.03c-0.568-0.027-0.968-0.152-1.198-0.376
		s-0.345-0.599-0.345-1.127v-10.7c0-0.285,0.128-0.427,0.386-0.427h2.01c0.284,0,0.427,0.142,0.427,0.427v9.441
		c0,0.136,0.021,0.227,0.061,0.274c0.041,0.047,0.143,0.078,0.305,0.091c0.419,0.027,0.931,0.034,1.533,0.021
		c0.602-0.014,1.231-0.047,1.888-0.102c0.657-0.054,1.3-0.118,1.93-0.192c0.629-0.075,1.181-0.159,1.654-0.254
		c0.163-0.027,0.271-0.018,0.325,0.03c0.054,0.048,0.088,0.104,0.102,0.173l0.284,1.664
		C542.785,339.032,542.684,339.175,542.413,339.229z M546.149,345.482h-2.03c-0.149,0-0.251-0.023-0.305-0.071
		c-0.055-0.047-0.081-0.152-0.081-0.314v-18.701c0-0.148,0.026-0.25,0.081-0.304c0.054-0.055,0.155-0.082,0.305-0.082h2.03
		c0.148,0,0.25,0.027,0.305,0.082c0.054,0.054,0.081,0.155,0.081,0.304v18.701c0,0.162-0.027,0.268-0.081,0.314
		C546.399,345.459,546.298,345.482,546.149,345.482z"/>
	<path fill="#333333" d="M558.108,334.863c-0.785,0.054-1.598,0.091-2.437,0.111c-0.84,0.021-1.665,0.038-2.478,0.051v2.721
		c0,0.244,0.122,0.366,0.365,0.366c0.907,0.027,1.93,0.003,3.066-0.071s2.247-0.206,3.33-0.396c0.148-0.026,0.25-0.017,0.305,0.031
		c0.054,0.047,0.095,0.125,0.122,0.233l0.243,1.481c0.027,0.149,0.014,0.251-0.041,0.305c-0.054,0.055-0.155,0.102-0.304,0.143
		c-0.569,0.136-1.223,0.251-1.96,0.345c-0.738,0.096-1.492,0.17-2.264,0.224c-0.771,0.055-1.526,0.085-2.265,0.092
		c-0.737,0.007-1.397-0.004-1.979-0.031c-0.487-0.013-0.85-0.102-1.086-0.264c-0.237-0.162-0.355-0.527-0.355-1.097v-10.355
		c0-0.271,0.021-0.49,0.061-0.659c0.041-0.17,0.112-0.302,0.214-0.396s0.243-0.159,0.426-0.192c0.183-0.034,0.417-0.051,0.701-0.051
		h6.903c0.148,0,0.254,0.023,0.314,0.07c0.062,0.048,0.092,0.146,0.092,0.295v1.604c0,0.149-0.03,0.244-0.092,0.285
		c-0.061,0.04-0.166,0.061-0.314,0.061h-5.198c-0.136,0-0.217,0.027-0.243,0.081c-0.027,0.055-0.041,0.122-0.041,0.203v2.681
		c0.839,0,1.668-0.007,2.487-0.021s1.587-0.041,2.305-0.081c0.298-0.014,0.447,0.088,0.447,0.305v1.522
		C558.434,334.714,558.324,334.85,558.108,334.863z M565.58,345.482h-2.07c-0.149,0-0.251-0.023-0.305-0.071
		c-0.055-0.047-0.082-0.152-0.082-0.314v-10.314h-2.761c-0.136,0-0.237-0.023-0.305-0.071c-0.068-0.048-0.102-0.146-0.102-0.295
		v-1.563c0-0.148,0.033-0.25,0.102-0.305c0.067-0.054,0.169-0.081,0.305-0.081h2.761v-6.071c0-0.148,0.027-0.25,0.082-0.304
		c0.054-0.055,0.155-0.082,0.305-0.082h2.07c0.149,0,0.247,0.027,0.295,0.082c0.047,0.054,0.071,0.155,0.071,0.304v18.701
		c0,0.162-0.024,0.268-0.071,0.314C565.827,345.459,565.729,345.482,565.58,345.482z"/>
	<path fill="#333333" d="M580.14,336.305c-0.609,0.122-1.272,0.23-1.99,0.325s-1.459,0.169-2.224,0.223
		c-0.765,0.055-1.529,0.092-2.294,0.112s-1.5,0.017-2.203-0.011c-0.596-0.013-0.992-0.121-1.188-0.324s-0.294-0.562-0.294-1.076
		v-3.676c0-0.433,0.088-0.728,0.264-0.883s0.48-0.233,0.914-0.233h4.427c0.121,0,0.195-0.017,0.223-0.051s0.041-0.112,0.041-0.233
		v-1.097c0-0.122-0.014-0.199-0.041-0.233s-0.102-0.051-0.223-0.051h-5.117c-0.271,0-0.406-0.129-0.406-0.386v-1.523
		c0-0.148,0.03-0.246,0.092-0.294c0.061-0.048,0.165-0.071,0.314-0.071h6.802c0.298,0,0.538,0.023,0.722,0.071
		c0.183,0.048,0.324,0.125,0.426,0.233s0.169,0.251,0.203,0.427s0.051,0.399,0.051,0.67v3.249c0,0.568-0.108,0.947-0.325,1.137
		c-0.216,0.189-0.568,0.284-1.056,0.284h-4.264c-0.176,0-0.264,0.088-0.264,0.264v1.279c0,0.163,0.102,0.251,0.304,0.264
		c1.205,0.027,2.376-0.006,3.513-0.101c1.138-0.095,2.247-0.237,3.33-0.427c0.149-0.027,0.24-0.017,0.274,0.03
		c0.034,0.048,0.064,0.125,0.092,0.233l0.223,1.462c0.027,0.149,0.018,0.247-0.03,0.295
		C580.386,336.24,580.288,336.277,580.14,336.305z M578.454,345.665c-0.921,0-1.757-0.088-2.508-0.264s-1.397-0.43-1.939-0.762
		c-0.541-0.332-0.957-0.73-1.248-1.197c-0.292-0.468-0.437-0.992-0.437-1.574c0-0.541,0.145-1.042,0.437-1.503
		c0.291-0.46,0.707-0.855,1.248-1.188c0.542-0.331,1.188-0.589,1.939-0.771s1.587-0.274,2.508-0.274
		c0.866,0,1.682,0.089,2.446,0.265s1.425,0.426,1.98,0.751c0.555,0.325,0.994,0.718,1.319,1.178s0.487,0.975,0.487,1.543
		s-0.162,1.086-0.487,1.554c-0.325,0.467-0.765,0.866-1.319,1.197c-0.556,0.332-1.216,0.589-1.98,0.772
		C580.136,345.574,579.32,345.665,578.454,345.665z M578.454,340.305c-1.056,0-1.861,0.162-2.416,0.487
		c-0.556,0.325-0.833,0.704-0.833,1.137c0,0.42,0.277,0.785,0.833,1.097c0.555,0.312,1.36,0.467,2.416,0.467
		c1.016,0,1.824-0.155,2.427-0.467c0.602-0.312,0.903-0.677,0.903-1.097c0-0.433-0.305-0.812-0.914-1.137
		S579.456,340.305,578.454,340.305z M584.14,337.665h-2.03c-0.258,0-0.387-0.128-0.387-0.386v-10.884
		c0-0.176,0.041-0.284,0.122-0.324c0.081-0.041,0.183-0.062,0.305-0.062h2.011c0.176,0,0.28,0.038,0.314,0.112
		c0.033,0.074,0.051,0.166,0.051,0.273v10.863C584.525,337.53,584.396,337.665,584.14,337.665z"/>
</g>
</svg>
