<?xml version="1.0" encoding="utf-8"?>
<!-- Generator: Adobe Illustrator 16.0.0, SVG Export Plug-In . SVG Version: 6.00 Build 0)  -->
<!DOCTYPE svg PUBLIC "-//W3C//DTD SVG 1.1//EN" "http://www.w3.org/Graphics/SVG/1.1/DTD/svg11.dtd">
<svg version="1.1" id="Layer_1" xmlns="http://www.w3.org/2000/svg" xmlns:xlink="http://www.w3.org/1999/xlink" x="0px" y="0px"
	 width="200px" height="200px" viewBox="0 0 200 200" enable-background="new 0 0 200 200" xml:space="preserve">
<g>
	<path fill="#333333" d="M-264.781,247.772h-51.365c-5.763,0-5.763-20.867,0-20.867h51.365c2.867,0,16.136,5.161,16.149,10.351
		C-248.615,242.5-261.884,247.772-264.781,247.772z"/>
	<text transform="matrix(1 0 0 1 -299.7314 240.8633)" fill="#FFFFFF" font-family="'NanumGothicExtraBold'" font-size="12.215">1단계</text>
	<circle fill="#ECECEC" cx="-284.714" cy="346.04" r="80.416"/>
	<circle opacity="0.3" fill="#1D87C9" cx="-287.486" cy="330.648" r="9.326"/>
	<path opacity="0.3" fill="#1D87C9" d="M-278.451,338.737c0.194,0.459-0.018,0.988-0.479,1.183l-8.047,3.408
		c-0.459,0.194-0.988-0.019-1.182-0.479l0,0c-0.195-0.459,0.019-0.988,0.478-1.183l8.047-3.408
		C-279.173,338.063-278.645,338.276-278.451,338.737L-278.451,338.737z"/>
	<path opacity="0.3" fill="#1D87C9" d="M-349.768,375.579h47.603c0-23.29-10.792-30.186-17.841-32.213
		c4.804-2.247,8.14-7.109,8.14-12.764c0-7.786-6.313-14.101-14.1-14.101c-7.788,0-14.101,6.314-14.101,14.101
		c0,5.632,3.312,10.479,8.087,12.739C-349.766,348.376-349.768,375.579-349.768,375.579z"/>
	<path opacity="0.3" fill="#1D87C9" d="M-219.66,373.062c0-23.289-10.792-30.186-17.842-32.213c4.804-2.246,8.14-7.109,8.14-12.764
		c0-7.786-6.313-14.101-14.1-14.101c-7.786,0-14.101,6.314-14.101,14.101c0,5.633,3.313,10.48,8.086,12.738
		c-3.703,1.049-6.627,3.066-8.948,5.592h-17.953v0.002l-1.561-3.686c-0.948-2.24-9.066,1.195-8.116,3.438l9.406,22.213
		c0.865,2.039,3.079,3.072,5.161,2.531l3.04,7.184l1.184-0.504l-3.041-7.18c1.838-1.119,2.637-3.428,1.772-5.469l-4.575-10.803
		h9.785c-3.933,8.977-3.941,18.92-3.941,18.92H-219.66z"/>
	<text transform="matrix(1 0 0 1 -335.4063 351.9141)" fill="#333333" font-family="'NanumGothicExtraBold'" font-size="20.3584">사전 인터뷰</text>
</g>
<g>
	<path fill="#333333" d="M-75.528,244.453h-51.365c-5.763,0-5.763-20.867,0-20.867h51.365c2.867,0,16.136,5.161,16.149,10.35
		C-59.362,239.181-72.631,244.453-75.528,244.453z"/>
	<text transform="matrix(1 0 0 1 -110.5815 238.0762)" fill="#FFFFFF" font-family="'NanumGothicExtraBold'" font-size="12.2968">2단계</text>
	<circle fill="#ECECEC" cx="-95.297" cy="341.76" r="80.953"/>
	<path opacity="0.3" fill="#1D87C9" d="M-158.271,385.997h47.921c0-23.444-10.864-30.39-17.96-32.427
		c4.835-2.264,8.194-7.161,8.194-12.852c0-7.84-6.355-14.196-14.194-14.196c-7.838,0-14.194,6.356-14.194,14.196
		c0,5.67,3.333,10.55,8.14,12.823C-158.27,358.613-158.271,385.997-158.271,385.997z"/>
	<path opacity="0.3" fill="#1D87C9" d="M-71.451,354.12h47.923c0-23.446-10.864-30.39-17.961-32.429
		c4.835-2.263,8.193-7.158,8.193-12.85c0-7.838-6.356-14.195-14.193-14.195c-7.84,0-14.194,6.357-14.194,14.195
		c0,5.67,3.332,10.55,8.14,12.823C-71.449,326.734-71.451,354.12-71.451,354.12z"/>
	<path opacity="0.3" fill="#1D87C9" d="M-84.402,345.694c0,3.797-3.078,6.875-6.875,6.875h-17.652c-2.245,0-4.241-1.077-5.496-2.746
		c-0.334-0.444-5.452,1.289-5.672,0.769c-0.351-0.822,4.293-3.947,4.293-4.897v-1.751v-2.522c0-3.796,3.078-6.877,6.875-6.877
		h17.652c3.797,0,6.875,3.081,6.875,6.877V345.694z"/>
	<path opacity="0.3" fill="#1D87C9" d="M-109.76,307.76c0,4.827,3.913,8.74,8.738,8.74h22.432c2.856,0,5.392-1.371,6.987-3.49
		c0.426-0.567,6.929,1.637,7.207,0.975c0.444-1.045-5.454-5.018-5.454-6.225v-2.225v-3.205c0-4.826-3.913-8.738-8.74-8.738h-22.432
		c-4.825,0-8.738,3.912-8.738,8.738V307.76z"/>
	
		<text transform="matrix(1 0 0 1 -98.9575 309.0674)" opacity="0.3" fill="#FFFFFF" font-family="'NanumGothicExtraBold'" font-size="12.2968">1차</text>
	<text transform="matrix(1 0 0 1 -130.4038 348.6748)" fill="#333333" font-family="'NanumGothicExtraBold'" font-size="20.4946">1차미팅</text>
</g>
<g>
	<path fill="#333333" d="M113.22,244.506H61.724c-5.776,0-5.776-20.92,0-20.92h51.496c2.874,0,16.176,5.174,16.192,10.376
		C129.428,239.22,116.124,244.506,113.22,244.506z"/>
	<text transform="matrix(1 0 0 1 78.4307 238.0771)" fill="#FFFFFF" font-family="'NanumGothicExtraBold'" font-size="12.2458">3단계</text>
	<circle fill="#ECECEC" cx="93.652" cy="341.592" r="80.618"/>
	<path opacity="0.3" fill="#1D87C9" d="M32.881,385.908h47.723c0-23.348-10.817-30.264-17.886-32.293
		c4.815-2.254,8.16-7.132,8.16-12.798c0-7.807-6.328-14.137-14.136-14.137c-7.805,0-14.136,6.33-14.136,14.137
		c0,5.646,3.321,10.506,8.106,12.771C32.885,358.638,32.881,385.908,32.881,385.908z"/>
	<path opacity="0.3" fill="#1D87C9" d="M119.343,354.163h47.724c0-23.35-10.819-30.263-17.886-32.294
		c4.814-2.254,8.159-7.129,8.159-12.796c0-7.807-6.33-14.136-14.135-14.136c-7.808,0-14.136,6.329-14.136,14.136
		c0,5.646,3.318,10.506,8.106,12.771C119.345,326.893,119.343,354.163,119.343,354.163z"/>
	<path opacity="0.3" fill="#1D87C9" d="M106.445,345.772c0,3.781-3.065,6.847-6.847,6.847H82.02c-2.236,0-4.224-1.072-5.474-2.734
		c-0.332-0.443-5.429,1.283-5.647,0.765c-0.35-0.819,4.274-3.931,4.274-4.877v-1.744v-2.512c0-3.78,3.065-6.848,6.847-6.848h17.579
		c3.781,0,6.847,3.067,6.847,6.848V345.772z"/>
	<path opacity="0.3" fill="#1D87C9" d="M81.192,307.996c0,4.807,3.896,8.703,8.702,8.703h22.339c2.844,0,5.369-1.365,6.958-3.476
		c0.425-0.565,6.9,1.63,7.177,0.971c0.442-1.042-5.431-4.997-5.431-6.198v-2.217v-3.191c0-4.807-3.896-8.703-8.704-8.703H89.895
		c-4.807,0-8.702,3.896-8.702,8.703V307.996z"/>
	
		<text transform="matrix(1 0 0 1 91.9502 309.2959)" opacity="0.3" fill="#FFFFFF" font-family="'NanumGothicExtraBold'" font-size="12.2458">2차</text>
	<text transform="matrix(1 0 0 1 58.6904 348.2295)" fill="#333333" font-family="'NanumGothicExtraBold'" font-size="20.4097">2차미팅</text>
</g>
<path fill="#333333" d="M326.337,240.326h-51.263c-5.75,0-5.75-20.826,0-20.826h51.263c2.86,0,16.104,5.15,16.119,10.33
	C342.472,235.064,329.226,240.326,326.337,240.326z"/>
<text transform="matrix(1 0 0 1 291.4561 233.6895)" fill="#FFFFFF" font-family="'NanumGothicExtraBold'" font-size="12.1908">4단계</text>
<circle fill="#ECECEC" cx="306.609" cy="337.91" r="80.255"/>
<polygon opacity="0.3" fill="#1D87C9" points="347.758,326.891 320.472,313.684 320.472,321.926 238.176,321.926 238.176,358.271 
	320.472,358.271 320.472,366.514 347.758,353.307 375.041,340.102 "/>
<text transform="matrix(1 0 0 1 236.9355 344.2715)" fill="#333333" font-family="'NanumGothicExtraBold'" font-size="20.318">재무설계안 실행</text>
<path fill="#333333" d="M119.508,21.813H68.278c-5.747,0-5.747-20.813,0-20.813h51.229c2.859,0,16.093,5.147,16.109,10.323
	C135.633,16.554,122.397,21.813,119.508,21.813z"/>
<g>
	<path fill="#FFFFFF" d="M90.363,16.095c-0.301,0.275-0.662,0.479-1.084,0.608c-0.423,0.13-0.865,0.195-1.328,0.195
		c-0.146,0-0.311-0.011-0.493-0.03c-0.184-0.021-0.366-0.049-0.549-0.086c-0.183-0.036-0.357-0.079-0.523-0.128
		c-0.167-0.049-0.307-0.102-0.421-0.158c-0.064-0.032-0.107-0.061-0.128-0.085s-0.03-0.081-0.03-0.171v-1.145
		c0-0.098,0.019-0.159,0.055-0.184c0.037-0.024,0.096-0.02,0.177,0.013c0.122,0.049,0.264,0.096,0.427,0.14
		c0.162,0.045,0.333,0.088,0.512,0.128c0.179,0.041,0.361,0.073,0.548,0.098s0.361,0.037,0.524,0.037
		c0.479,0,0.871-0.143,1.175-0.427c0.305-0.284,0.457-0.67,0.457-1.157c0-0.455-0.124-0.829-0.371-1.121
		c-0.248-0.292-0.668-0.438-1.261-0.438c-0.236,0-0.498,0.026-0.786,0.079s-0.555,0.124-0.798,0.213
		c-0.073,0.033-0.146,0.06-0.22,0.079c-0.073,0.021-0.138,0.024-0.194,0.013c-0.058-0.013-0.102-0.049-0.135-0.109
		c-0.032-0.062-0.048-0.156-0.048-0.287l0.061-4.52c0-0.122,0.024-0.199,0.073-0.231s0.142-0.049,0.28-0.049h4.422
		c0.098,0,0.16,0.019,0.189,0.055c0.028,0.037,0.042,0.1,0.042,0.189v1.011c0,0.09-0.012,0.154-0.036,0.195
		c-0.024,0.04-0.09,0.061-0.195,0.061h-3.167l-0.049,1.986c0.138-0.033,0.282-0.056,0.433-0.067
		c0.149-0.012,0.294-0.019,0.432-0.019c0.415,0,0.803,0.063,1.164,0.189s0.676,0.309,0.944,0.548
		c0.268,0.239,0.479,0.536,0.633,0.89s0.231,0.757,0.231,1.212C91.325,14.661,91.005,15.485,90.363,16.095z"/>
	<path fill="#FFFFFF" d="M99.232,12.573c-0.341,0.073-0.739,0.141-1.194,0.201s-0.922,0.111-1.4,0.152
		c-0.479,0.041-0.948,0.067-1.407,0.079c-0.459,0.013-0.863,0.011-1.213-0.006c-0.292-0.008-0.51-0.063-0.651-0.165
		c-0.143-0.102-0.213-0.322-0.213-0.664V7.883c0-0.162,0.012-0.294,0.036-0.396s0.069-0.179,0.134-0.231
		c0.065-0.053,0.15-0.088,0.256-0.104c0.105-0.017,0.244-0.024,0.415-0.024h4.215c0.162,0,0.243,0.068,0.243,0.207v0.962
		c0,0.139-0.081,0.207-0.243,0.207h-3.192c-0.081,0-0.13,0.017-0.146,0.049c-0.017,0.033-0.024,0.073-0.024,0.122v2.79
		c0,0.13,0.064,0.195,0.194,0.195c0.593,0,1.223-0.024,1.889-0.073s1.349-0.135,2.047-0.256c0.122-0.024,0.199-0.021,0.231,0.012
		s0.057,0.081,0.073,0.146l0.134,0.779c0.017,0.114,0.013,0.189-0.012,0.226S99.321,12.558,99.232,12.573z M101.889,17.897h-6.641
		c-0.349,0-0.578-0.062-0.688-0.183c-0.11-0.122-0.165-0.354-0.165-0.694v-2.668c0-0.171,0.086-0.256,0.256-0.256h1.194
		c0.162,0,0.243,0.085,0.243,0.256v1.974c0,0.121,0.065,0.183,0.195,0.183h5.604c0.064,0,0.123,0.014,0.176,0.042
		s0.08,0.088,0.08,0.177v0.95c0,0.114-0.027,0.179-0.08,0.195C102.012,17.889,101.953,17.897,101.889,17.897z M103.155,11.27h-1.511
		v3.107c0,0.089-0.015,0.149-0.043,0.183c-0.028,0.032-0.087,0.049-0.177,0.049h-1.23c-0.089,0-0.151-0.017-0.188-0.049
		c-0.036-0.033-0.055-0.094-0.055-0.183V6.641c0-0.154,0.081-0.231,0.243-0.231h1.23c0.146,0,0.22,0.077,0.22,0.231v3.24h1.511
		c0.064,0,0.122,0.008,0.171,0.024s0.072,0.077,0.072,0.183v0.963c0,0.089-0.022,0.148-0.066,0.177
		C103.287,11.256,103.229,11.27,103.155,11.27z"/>
	<path fill="#FFFFFF" d="M108.697,13.39c-0.081,0-0.142-0.014-0.183-0.043c-0.04-0.028-0.061-0.099-0.061-0.213V12.22
		c0-0.089,0.022-0.146,0.067-0.17c0.044-0.024,0.104-0.037,0.176-0.037h1.341v-1.571h-1.255c-0.301,0.967-0.788,1.87-1.462,2.711
		c-0.675,0.841-1.503,1.569-2.485,2.187c-0.098,0.065-0.171,0.092-0.22,0.079c-0.049-0.012-0.102-0.055-0.158-0.128l-0.561-0.779
		c-0.065-0.09-0.1-0.16-0.104-0.214c-0.004-0.053,0.038-0.107,0.128-0.164c0.52-0.341,0.984-0.719,1.396-1.133
		c0.409-0.414,0.763-0.845,1.06-1.292c0.296-0.446,0.532-0.899,0.706-1.358c0.175-0.458,0.282-0.896,0.323-1.31
		c0.024-0.211-0.057-0.316-0.243-0.316h-2.498c-0.162,0-0.243-0.077-0.243-0.231V7.591c0-0.163,0.081-0.244,0.243-0.244h3.509
		c0.382,0,0.634,0.071,0.755,0.214c0.122,0.142,0.184,0.396,0.184,0.761c0,0.13-0.005,0.256-0.013,0.378s-0.021,0.244-0.036,0.365
		h0.975V6.835c0-0.089,0.018-0.15,0.055-0.183c0.036-0.032,0.1-0.049,0.188-0.049h1.121c0.154,0,0.231,0.077,0.231,0.231v10.636
		c0,0.098-0.017,0.16-0.049,0.189c-0.032,0.028-0.094,0.042-0.183,0.042h-1.121c-0.089,0-0.152-0.012-0.188-0.036
		c-0.037-0.024-0.055-0.09-0.055-0.195V13.39H108.697z M113.863,18.116h-1.206c-0.09,0-0.15-0.016-0.183-0.048
		c-0.033-0.033-0.049-0.094-0.049-0.184V6.641c0-0.09,0.019-0.15,0.055-0.183c0.036-0.033,0.1-0.049,0.188-0.049h1.194
		c0.089,0,0.15,0.016,0.183,0.049c0.032,0.032,0.049,0.093,0.049,0.183v11.244c0,0.09-0.017,0.15-0.049,0.184
		C114.014,18.101,113.952,18.116,113.863,18.116z"/>
</g>
<circle fill="#ECECEC" cx="99.792" cy="118.835" r="80.204"/>
<path opacity="0.3" fill="#1D87C9" d="M129.18,62.402c0,0-37.733-0.51-23.959,35.089l-36.896,58.833c0,0-10.776,11.954,1.573,19.317
	c0,0,9.183,7.058,17.064-8.207l31.778-60.971c0,0,32.785-0.215,29.114-27.74l-17.313,11.32l-11.675-9.853L129.18,62.402z"/>
<g>
	<path fill="#333333" d="M32.382,123.459c-0.108,0.136-0.229,0.183-0.365,0.142c-0.136-0.04-0.291-0.121-0.467-0.243
		c-0.23-0.162-0.497-0.379-0.802-0.649c-0.305-0.271-0.623-0.572-0.955-0.904c-0.331-0.331-0.659-0.683-0.984-1.056
		c-0.325-0.372-0.616-0.734-0.873-1.086c-0.69,0.866-1.462,1.688-2.314,2.467c-0.854,0.778-1.767,1.479-2.741,2.102
		c-0.122,0.081-0.221,0.115-0.295,0.102s-0.166-0.088-0.273-0.224l-0.955-1.279c-0.108-0.148-0.146-0.267-0.111-0.355
		c0.033-0.088,0.111-0.172,0.233-0.253c0.785-0.542,1.529-1.145,2.233-1.808s1.351-1.36,1.939-2.092
		c0.589-0.73,1.106-1.481,1.553-2.254c0.447-0.771,0.792-1.543,1.036-2.314c0.081-0.271-0.021-0.406-0.305-0.406h-4.935
		c-0.189,0-0.301-0.037-0.335-0.111c-0.033-0.074-0.051-0.18-0.051-0.314v-1.462c0-0.163,0.031-0.274,0.092-0.335
		c0.061-0.062,0.166-0.092,0.314-0.092h6.701c0.527,0,0.944,0.115,1.248,0.346c0.305,0.229,0.457,0.568,0.457,1.015
		c0,0.189-0.017,0.373-0.051,0.548c-0.034,0.177-0.071,0.346-0.111,0.508c-0.162,0.664-0.399,1.341-0.711,2.031
		c-0.312,0.689-0.684,1.388-1.116,2.091c0.257,0.406,0.551,0.799,0.883,1.178s0.673,0.741,1.025,1.086
		c0.352,0.346,0.704,0.664,1.056,0.955c0.353,0.291,0.67,0.552,0.955,0.781c0.229,0.176,0.223,0.406-0.021,0.69L32.382,123.459z
		 M37.032,129.002h-2.03c-0.149,0-0.251-0.023-0.305-0.071c-0.055-0.047-0.081-0.152-0.081-0.314v-18.701
		c0-0.148,0.026-0.25,0.081-0.304c0.054-0.055,0.155-0.082,0.305-0.082h2.03c0.148,0,0.25,0.027,0.305,0.082
		c0.054,0.054,0.081,0.155,0.081,0.304v18.701c0,0.162-0.027,0.268-0.081,0.314C37.282,128.979,37.181,129.002,37.032,129.002z"/>
	<path fill="#333333" d="M57.905,120.819H40.483c-0.189,0-0.305-0.03-0.346-0.092c-0.04-0.061-0.061-0.172-0.061-0.335v-1.462
		c0-0.148,0.027-0.254,0.081-0.314s0.163-0.092,0.325-0.092h7.249v-2.07c0-0.149,0.026-0.251,0.081-0.305
		c0.054-0.055,0.162-0.082,0.325-0.082h1.989c0.163,0,0.271,0.027,0.325,0.082c0.054,0.054,0.081,0.155,0.081,0.305v2.07h7.371
		c0.121,0,0.223,0.027,0.304,0.082c0.082,0.054,0.122,0.162,0.122,0.324v1.462C58.331,120.677,58.189,120.819,57.905,120.819z
		 M42.859,117.245c-0.203,0.041-0.343,0.034-0.417-0.02c-0.074-0.055-0.146-0.163-0.213-0.325l-0.609-1.34
		c-0.04-0.108-0.044-0.206-0.01-0.295c0.033-0.088,0.125-0.152,0.274-0.192c1.84-0.528,3.252-1.198,4.233-2.011
		c0.981-0.812,1.546-1.86,1.695-3.147c0.014-0.188,0.047-0.304,0.102-0.345c0.054-0.041,0.176-0.054,0.365-0.041l1.767,0.082
		c0.189,0.014,0.314,0.047,0.376,0.102c0.061,0.054,0.084,0.162,0.07,0.324c0,0.258-0.02,0.508-0.061,0.752
		c0.244,0.487,0.589,0.947,1.035,1.38c0.447,0.434,0.944,0.826,1.493,1.178c0.548,0.353,1.13,0.657,1.746,0.914
		c0.615,0.257,1.222,0.46,1.817,0.609c0.189,0.04,0.287,0.108,0.294,0.203s-0.023,0.23-0.091,0.406l-0.65,1.38
		c-0.054,0.109-0.108,0.18-0.162,0.214c-0.055,0.033-0.176,0.037-0.365,0.01c-0.501-0.081-1.036-0.229-1.604-0.446
		s-1.134-0.48-1.695-0.792s-1.094-0.667-1.594-1.066c-0.501-0.399-0.935-0.829-1.3-1.289c-0.663,0.921-1.554,1.699-2.67,2.335
		C45.569,116.461,44.294,116.935,42.859,117.245z M55.164,128.962h-1.99c-0.298,0-0.446-0.136-0.446-0.406v-3.757
		c0-0.203-0.096-0.305-0.284-0.305h-9.544c-0.108,0-0.203-0.021-0.284-0.061c-0.081-0.041-0.122-0.136-0.122-0.284v-1.584
		c0-0.189,0.041-0.301,0.122-0.335s0.176-0.051,0.284-0.051h11.229c0.298,0,0.538,0.023,0.721,0.071
		c0.184,0.047,0.325,0.132,0.427,0.254c0.102,0.121,0.173,0.28,0.213,0.477c0.041,0.196,0.062,0.437,0.062,0.721v4.854
		C55.55,128.826,55.421,128.962,55.164,128.962z"/>
	<path fill="#333333" d="M61.337,120.921c-0.23,0.108-0.39,0.142-0.478,0.102c-0.088-0.041-0.166-0.122-0.233-0.244l-0.771-1.4
		c-0.136-0.244-0.048-0.434,0.264-0.569c0.69-0.324,1.347-0.71,1.97-1.157c0.623-0.446,1.185-0.906,1.686-1.381
		c0.501-0.474,0.938-0.954,1.31-1.441s0.66-0.934,0.863-1.34c0.121-0.23,0.172-0.393,0.152-0.487
		c-0.021-0.095-0.14-0.143-0.355-0.143h-4.487c-0.19,0-0.302-0.037-0.335-0.111c-0.034-0.074-0.051-0.18-0.051-0.314v-1.482
		c0-0.284,0.135-0.427,0.405-0.427h6.701c0.813,0,1.306,0.196,1.482,0.589c0.176,0.393,0.148,0.935-0.081,1.625
		c-0.366,1.002-0.921,2.023-1.665,3.065c0.527,0.528,1.109,0.999,1.746,1.411c0.636,0.413,1.197,0.755,1.685,1.025
		c0.217,0.122,0.265,0.284,0.143,0.487l-0.934,1.523c-0.122,0.203-0.305,0.243-0.549,0.121c-0.203-0.107-0.453-0.257-0.751-0.446
		s-0.616-0.402-0.954-0.64c-0.339-0.236-0.681-0.497-1.025-0.781c-0.346-0.285-0.667-0.569-0.965-0.854
		c-0.663,0.664-1.395,1.272-2.193,1.828C63.116,120.034,62.257,120.515,61.337,120.921z M75.226,128.962h-2.011
		c-0.284,0-0.426-0.136-0.426-0.406v-4.224c0-0.203-0.102-0.305-0.305-0.305h-9.036c-0.108,0-0.199-0.021-0.273-0.061
		c-0.075-0.041-0.112-0.136-0.112-0.284v-1.584c0-0.189,0.037-0.302,0.112-0.335c0.074-0.034,0.165-0.051,0.273-0.051h10.721
		c0.298,0,0.542,0.023,0.731,0.071c0.189,0.047,0.335,0.132,0.437,0.253c0.102,0.122,0.173,0.281,0.213,0.478
		c0.041,0.196,0.062,0.437,0.062,0.721v5.32C75.611,128.826,75.482,128.962,75.226,128.962z M70.129,116.251
		c-0.271,0-0.406-0.136-0.406-0.406v-1.503c0-0.189,0.037-0.301,0.111-0.335c0.074-0.033,0.173-0.051,0.295-0.051h2.68v-4.041
		c0-0.176,0.037-0.284,0.112-0.324c0.074-0.041,0.172-0.062,0.294-0.062h2.051c0.176,0,0.277,0.038,0.305,0.112
		s0.041,0.166,0.041,0.273v10.315c0,0.149-0.027,0.251-0.081,0.305c-0.055,0.054-0.156,0.081-0.305,0.081h-2.031
		c-0.148,0-0.25-0.023-0.304-0.071c-0.055-0.047-0.082-0.146-0.082-0.294v-4H70.129z"/>
	<path fill="#333333" d="M84.24,120.21c-0.731,0-1.401-0.122-2.011-0.365c-0.608-0.244-1.137-0.586-1.583-1.025
		c-0.447-0.439-0.792-0.954-1.036-1.543c-0.243-0.589-0.365-1.229-0.365-1.919c0-0.65,0.122-1.27,0.365-1.858
		c0.244-0.589,0.589-1.106,1.036-1.553c0.446-0.447,0.975-0.803,1.583-1.066c0.609-0.264,1.279-0.396,2.011-0.396
		c0.744,0,1.428,0.132,2.051,0.396c0.622,0.264,1.16,0.619,1.614,1.066c0.453,0.446,0.805,0.964,1.056,1.553
		c0.25,0.589,0.376,1.208,0.376,1.858c0,0.69-0.126,1.33-0.376,1.919c-0.251,0.589-0.603,1.104-1.056,1.543
		c-0.454,0.439-0.992,0.781-1.614,1.025C85.668,120.088,84.984,120.21,84.24,120.21z M84.24,112.94
		c-0.325,0-0.627,0.062-0.904,0.184c-0.277,0.121-0.521,0.294-0.73,0.518s-0.372,0.487-0.487,0.792s-0.173,0.633-0.173,0.984
		c0,0.353,0.058,0.681,0.173,0.985c0.115,0.304,0.277,0.568,0.487,0.791c0.21,0.224,0.453,0.396,0.73,0.519
		c0.277,0.121,0.579,0.183,0.904,0.183c0.677,0,1.235-0.233,1.675-0.701c0.439-0.467,0.66-1.059,0.66-1.776
		c0-0.717-0.221-1.31-0.66-1.776S84.917,112.94,84.24,112.94z M94.697,128.677h-10.66c-0.298,0-0.538-0.023-0.721-0.07
		c-0.183-0.048-0.329-0.132-0.437-0.254c-0.108-0.122-0.183-0.277-0.224-0.467c-0.041-0.19-0.061-0.427-0.061-0.711v-4.589
		c0-0.284,0.135-0.427,0.405-0.427h2.011c0.271,0,0.406,0.143,0.406,0.427v3.451c0,0.203,0.107,0.305,0.324,0.305h8.955
		c0.108,0,0.203,0.023,0.284,0.071s0.122,0.146,0.122,0.295v1.604c0,0.189-0.041,0.298-0.122,0.325
		C94.9,128.663,94.806,128.677,94.697,128.677z M94.129,123.297h-2.051c-0.149,0-0.251-0.031-0.305-0.092
		c-0.055-0.061-0.082-0.166-0.082-0.314v-12.976c0-0.257,0.129-0.386,0.387-0.386h2.051c0.243,0,0.365,0.129,0.365,0.386v12.995
		c0,0.149-0.024,0.251-0.071,0.305C94.375,123.27,94.277,123.297,94.129,123.297z"/>
	<path fill="#333333" d="M120.869,125.692h-17.441c-0.176,0-0.288-0.041-0.335-0.122c-0.048-0.081-0.071-0.183-0.071-0.305v-1.462
		c0-0.148,0.023-0.257,0.071-0.324c0.047-0.068,0.159-0.102,0.335-0.102h7.31v-3.554h-3.695c-0.312,0-0.562-0.017-0.751-0.051
		c-0.19-0.033-0.339-0.102-0.447-0.203s-0.183-0.247-0.224-0.437c-0.04-0.189-0.061-0.433-0.061-0.73v-6.396
		c0-0.298,0.023-0.534,0.071-0.711c0.047-0.176,0.128-0.311,0.243-0.406c0.115-0.094,0.261-0.158,0.437-0.192
		c0.176-0.033,0.386-0.051,0.63-0.051h10.295c0.284,0,0.514,0.014,0.69,0.041c0.176,0.027,0.314,0.088,0.416,0.183
		s0.172,0.233,0.213,0.416s0.061,0.423,0.061,0.721v6.396c0,0.298-0.02,0.538-0.061,0.721s-0.111,0.324-0.213,0.426
		s-0.24,0.173-0.416,0.214c-0.177,0.04-0.406,0.061-0.69,0.061h-3.676v3.554h7.31c0.284,0,0.427,0.142,0.427,0.426v1.462
		C121.296,125.55,121.153,125.692,120.869,125.692z M115.834,113.347c0-0.176-0.018-0.287-0.051-0.335
		c-0.034-0.047-0.132-0.071-0.295-0.071h-6.741c-0.176,0-0.287,0.021-0.335,0.062c-0.047,0.04-0.07,0.155-0.07,0.345v3.777
		c0,0.189,0.023,0.305,0.07,0.345c0.048,0.041,0.159,0.062,0.335,0.062h6.741c0.163,0,0.261-0.027,0.295-0.082
		c0.033-0.054,0.051-0.162,0.051-0.324V113.347z"/>
	<path fill="#333333" d="M134.413,122.748c-0.758,0.149-1.566,0.271-2.427,0.365c-0.859,0.096-1.702,0.166-2.527,0.214
		c-0.826,0.047-1.598,0.074-2.314,0.081c-0.718,0.007-1.313-0.003-1.787-0.03c-0.568-0.027-0.968-0.152-1.198-0.376
		s-0.345-0.599-0.345-1.127v-10.7c0-0.285,0.128-0.427,0.386-0.427h2.01c0.284,0,0.427,0.142,0.427,0.427v9.441
		c0,0.136,0.021,0.227,0.061,0.274c0.041,0.047,0.143,0.078,0.305,0.091c0.419,0.027,0.931,0.034,1.533,0.021
		c0.602-0.014,1.231-0.047,1.888-0.102c0.657-0.054,1.3-0.118,1.93-0.192c0.629-0.075,1.181-0.159,1.654-0.254
		c0.163-0.027,0.271-0.018,0.325,0.03c0.054,0.048,0.088,0.104,0.102,0.173l0.284,1.664
		C134.785,122.552,134.684,122.694,134.413,122.748z M138.149,129.002h-2.03c-0.149,0-0.251-0.023-0.305-0.071
		c-0.055-0.047-0.081-0.152-0.081-0.314v-18.701c0-0.148,0.026-0.25,0.081-0.304c0.054-0.055,0.155-0.082,0.305-0.082h2.03
		c0.148,0,0.25,0.027,0.305,0.082c0.054,0.054,0.081,0.155,0.081,0.304v18.701c0,0.162-0.027,0.268-0.081,0.314
		C138.399,128.979,138.298,129.002,138.149,129.002z"/>
	<path fill="#333333" d="M150.108,118.383c-0.785,0.054-1.598,0.091-2.437,0.111c-0.84,0.021-1.665,0.038-2.478,0.051v2.721
		c0,0.244,0.122,0.366,0.365,0.366c0.907,0.027,1.93,0.003,3.066-0.071s2.247-0.206,3.33-0.396c0.148-0.026,0.25-0.017,0.305,0.031
		c0.054,0.047,0.095,0.125,0.122,0.233l0.243,1.481c0.027,0.149,0.014,0.251-0.041,0.305c-0.054,0.055-0.155,0.102-0.304,0.143
		c-0.569,0.136-1.223,0.251-1.96,0.345c-0.738,0.096-1.492,0.17-2.264,0.224c-0.771,0.055-1.526,0.085-2.265,0.092
		c-0.737,0.007-1.397-0.004-1.979-0.031c-0.487-0.013-0.85-0.102-1.086-0.264c-0.237-0.162-0.355-0.527-0.355-1.097v-10.355
		c0-0.271,0.021-0.49,0.061-0.659c0.041-0.17,0.112-0.302,0.214-0.396s0.243-0.159,0.426-0.192c0.183-0.034,0.417-0.051,0.701-0.051
		h6.903c0.148,0,0.254,0.023,0.314,0.07c0.062,0.048,0.092,0.146,0.092,0.295v1.604c0,0.149-0.03,0.244-0.092,0.285
		c-0.061,0.04-0.166,0.061-0.314,0.061h-5.198c-0.136,0-0.217,0.027-0.243,0.081c-0.027,0.055-0.041,0.122-0.041,0.203v2.681
		c0.839,0,1.668-0.007,2.487-0.021s1.587-0.041,2.305-0.081c0.298-0.014,0.447,0.088,0.447,0.305v1.522
		C150.434,118.233,150.324,118.369,150.108,118.383z M157.58,129.002h-2.07c-0.149,0-0.251-0.023-0.305-0.071
		c-0.055-0.047-0.082-0.152-0.082-0.314v-10.314h-2.761c-0.136,0-0.237-0.023-0.305-0.071c-0.068-0.048-0.102-0.146-0.102-0.295
		v-1.563c0-0.148,0.033-0.25,0.102-0.305c0.067-0.054,0.169-0.081,0.305-0.081h2.761v-6.071c0-0.148,0.027-0.25,0.082-0.304
		c0.054-0.055,0.155-0.082,0.305-0.082h2.07c0.149,0,0.247,0.027,0.295,0.082c0.047,0.054,0.071,0.155,0.071,0.304v18.701
		c0,0.162-0.024,0.268-0.071,0.314C157.827,128.979,157.729,129.002,157.58,129.002z"/>
	<path fill="#333333" d="M172.14,119.824c-0.609,0.122-1.272,0.23-1.99,0.325s-1.459,0.169-2.224,0.223
		c-0.765,0.055-1.529,0.092-2.294,0.112s-1.5,0.017-2.203-0.011c-0.596-0.013-0.992-0.121-1.188-0.324s-0.294-0.562-0.294-1.076
		v-3.676c0-0.433,0.088-0.728,0.264-0.883s0.48-0.233,0.914-0.233h4.427c0.121,0,0.195-0.017,0.223-0.051s0.041-0.112,0.041-0.233
		V112.9c0-0.122-0.014-0.199-0.041-0.233s-0.102-0.051-0.223-0.051h-5.117c-0.271,0-0.406-0.129-0.406-0.386v-1.523
		c0-0.148,0.03-0.246,0.092-0.294c0.061-0.048,0.165-0.071,0.314-0.071h6.802c0.298,0,0.538,0.023,0.722,0.071
		c0.183,0.048,0.324,0.125,0.426,0.233s0.169,0.251,0.203,0.427s0.051,0.399,0.051,0.67v3.249c0,0.568-0.108,0.947-0.325,1.137
		c-0.216,0.189-0.568,0.284-1.056,0.284h-4.264c-0.176,0-0.264,0.088-0.264,0.264v1.279c0,0.163,0.102,0.251,0.304,0.264
		c1.205,0.027,2.376-0.006,3.513-0.101c1.138-0.095,2.247-0.237,3.33-0.427c0.149-0.027,0.24-0.017,0.274,0.03
		c0.034,0.048,0.064,0.125,0.092,0.233l0.223,1.462c0.027,0.149,0.018,0.247-0.03,0.295
		C172.386,119.76,172.288,119.797,172.14,119.824z M170.454,129.185c-0.921,0-1.757-0.088-2.508-0.264s-1.397-0.43-1.939-0.762
		c-0.541-0.332-0.957-0.73-1.248-1.197c-0.292-0.468-0.437-0.992-0.437-1.574c0-0.541,0.145-1.042,0.437-1.503
		c0.291-0.46,0.707-0.855,1.248-1.188c0.542-0.331,1.188-0.589,1.939-0.771s1.587-0.274,2.508-0.274
		c0.866,0,1.682,0.089,2.446,0.265s1.425,0.426,1.98,0.751c0.555,0.325,0.994,0.718,1.319,1.178s0.487,0.975,0.487,1.543
		s-0.162,1.086-0.487,1.554c-0.325,0.467-0.765,0.866-1.319,1.197c-0.556,0.332-1.216,0.589-1.98,0.772
		C172.136,129.094,171.32,129.185,170.454,129.185z M170.454,123.824c-1.056,0-1.861,0.162-2.416,0.487
		c-0.556,0.325-0.833,0.704-0.833,1.137c0,0.42,0.277,0.785,0.833,1.097c0.555,0.312,1.36,0.467,2.416,0.467
		c1.016,0,1.824-0.155,2.427-0.467c0.602-0.312,0.903-0.677,0.903-1.097c0-0.433-0.305-0.812-0.914-1.137
		S171.456,123.824,170.454,123.824z M176.14,121.185h-2.03c-0.258,0-0.387-0.128-0.387-0.386v-10.884
		c0-0.176,0.041-0.284,0.122-0.324c0.081-0.041,0.183-0.062,0.305-0.062h2.011c0.176,0,0.28,0.038,0.314,0.112
		c0.033,0.074,0.051,0.166,0.051,0.273v10.863C176.525,121.05,176.396,121.185,176.14,121.185z"/>
</g>
</svg>
