<?xml version="1.0" encoding="utf-8"?>
<!-- Generator: Adobe Illustrator 16.0.0, SVG Export Plug-In . SVG Version: 6.00 Build 0)  -->
<!DOCTYPE svg PUBLIC "-//W3C//DTD SVG 1.1//EN" "http://www.w3.org/Graphics/SVG/1.1/DTD/svg11.dtd">
<svg version="1.1" xmlns="http://www.w3.org/2000/svg" xmlns:xlink="http://www.w3.org/1999/xlink" x="0px" y="0px" width="120px"
	 height="120px" viewBox="0 0 120 120" enable-background="new 0 0 120 120" xml:space="preserve">
<g id="상담신청하기">
	<rect x="680" y="23" fill="none" stroke="#1B6794" stroke-width="8" stroke-miterlimit="10" width="83" height="83"/>
	<polyline fill="none" stroke="#1B6794" stroke-width="11" stroke-miterlimit="10" points="696.342,38.855 724.913,88.435 
		769.45,7.483 	"/>
</g>
<g id="상담신청하기_copy" display="none">
	<rect x="-6" display="inline" fill="none" stroke="#D2B32A" stroke-width="10" stroke-miterlimit="10" width="133" height="134"/>
	<polyline display="inline" fill="none" stroke="#D2B32A" stroke-width="18" stroke-miterlimit="10" points="18.257,22.64 
		64.376,102.67 136.267,-28 	"/>
</g>
<g id="프로세스">
	<polygon fill="#1B6794" points="284.103,20.642 295.374,31.347 280.828,36.013 266.282,40.679 269.557,25.307 272.832,9.936 	"/>
	<path fill="#1B6794" d="M283.297,33.091"/>
	<g>
		<path fill="none" d="M267.463,70.065c3.808,20.703,21.975,36.442,43.762,36.442c24.541,0,44.508-19.966,44.508-44.508
			c0-24.542-19.967-44.508-44.508-44.508c-12.738,0-24.68,5.36-33.129,14.785v37.788H267.463z"/>
		<path fill="#1B6794" d="M311.225,8.85c-16.002,0-30.944,7.082-41.092,19.445h7.963v3.982c8.449-9.425,20.391-14.785,33.129-14.785
			c24.541,0,44.508,19.966,44.508,44.508c0,24.542-19.967,44.508-44.508,44.508c-21.787,0-39.954-15.739-43.762-36.442h-8.777
			c3.898,25.494,25.975,45.085,52.539,45.085c29.308,0,53.15-23.844,53.15-53.15C364.375,32.693,340.532,8.85,311.225,8.85z"/>
	</g>
</g>
<g id="프로세스_copy" display="none">
	<polygon display="inline" fill="#D2B32A" points="12.925,-11.784 32.488,6.796 7.241,14.896 -18.004,22.994 -12.32,-3.686 
		-6.637,-30.366 	"/>
	<path display="inline" fill="#1B6794" d="M11.526,9.824"/>
	<g display="inline">
		<path fill="none" d="M-15.955,74c6.608,35.932,38.141,63.25,75.955,63.25c42.596,0,77.25-34.654,77.25-77.25
			S102.596-17.25,60-17.25c-22.111,0-42.834,9.302-57.5,25.662V74H-15.955z"/>
		<path fill="#D2B32A" d="M60-32.25c-27.773,0-53.708,12.292-71.321,33.75H2.5v6.912C17.166-7.948,37.889-17.25,60-17.25
			c42.596,0,77.25,34.654,77.25,77.25S102.596,137.25,60,137.25c-37.814,0-69.347-27.318-75.955-63.25h-15.234
			c6.765,44.247,45.081,78.25,91.189,78.25c50.867,0,92.25-41.383,92.25-92.25C152.25,9.133,110.867-32.25,60-32.25z"/>
	</g>
</g>
<g id="프로필" display="none">
	<g display="inline">
		<circle fill="#1B6794" cx="18.948" cy="39.505" r="17.786"/>
		<g>
			<path fill="#1B6794" d="M14.572,55.313c0,0-12.515-0.331-23.349,16.541c0,0-8.187,13.229,2.481,20.674
				c0,0,19.517,12.486,48.542,2.233c0,0,11.827-4.963,10.089-13.646c0,0-0.827-19.75-27.952-26.035c0,0,0.335,0.425,0.262,1.833
				c-0.055,1.061-2.602,4.203-4.017,5.596L24,86.542v0.108l0.537,0.117l-4.92,6.494l0.083,0.046l-0.011-0.034l-5.676-6.245
				l-0.076-0.197l0.024-0.201l4.217-24.121c0,0-2.915-2.966-3.609-5.155C14.13,55.964,14.627,55.258,14.572,55.313z"/>
			<path fill="#1B6794" d="M23.889,58.869c0,0,1.13-2.15-0.387-2.178l2.95-1.047L23.889,58.869z"/>
			<path fill="#1B6794" d="M15.261,58.869c0,0-1.351-2.205,0.276-1.874l-3.97-1.269L15.261,58.869z"/>
		</g>
	</g>
	<rect x="60.334" y="26.167" display="inline" fill="#1B6794" width="34" height="3"/>
	<rect x="60.334" y="34.333" display="inline" fill="#1B6794" width="40.667" height="3"/>
	<rect x="60.334" y="53.579" display="inline" fill="#1B6794" width="70.333" height="3"/>
	<rect x="60.334" y="62.246" display="inline" fill="#1B6794" width="70.333" height="3"/>
	<rect x="60.334" y="70.912" display="inline" fill="#1B6794" width="70.333" height="3"/>
	<rect x="60.334" y="80.246" display="inline" fill="#1B6794" width="70.333" height="3"/>
	<rect x="94.334" y="93" display="inline" fill="#1B6794" width="36.333" height="3"/>
	<path display="inline" fill="none" stroke="#1B6794" stroke-width="10" stroke-miterlimit="10" d="M145.623,100.937
		c0,6.079-4.93,11.008-11.009,11.008H-14.613c-6.08,0-11.009-4.929-11.009-11.008V19.064c0-6.08,4.929-11.009,11.009-11.009h149.227
		c6.079,0,11.009,4.929,11.009,11.009V100.937z"/>
</g>
<g id="프로필_copy" display="none">
	<g display="inline">
		<circle fill="#D2B32A" cx="18.948" cy="39.505" r="17.786"/>
		<g>
			<path fill="#D2B32A" d="M14.572,55.313c0,0-12.515-0.331-23.349,16.541c0,0-8.187,13.229,2.481,20.674
				c0,0,19.517,12.486,48.542,2.233c0,0,11.827-4.963,10.089-13.646c0,0-0.827-19.75-27.952-26.035c0,0,0.335,0.425,0.262,1.833
				c-0.055,1.061-2.602,4.203-4.017,5.596L24,86.542v0.108l0.537,0.117l-4.92,6.494l0.083,0.046l-0.011-0.034l-5.676-6.245
				l-0.076-0.197l0.024-0.201l4.217-24.121c0,0-2.915-2.966-3.609-5.155C14.13,55.964,14.627,55.258,14.572,55.313z"/>
			<path fill="#D2B32A" d="M23.889,58.869c0,0,1.13-2.15-0.387-2.178l2.95-1.047L23.889,58.869z"/>
			<path fill="#D2B32A" d="M15.261,58.869c0,0-1.351-2.205,0.276-1.874l-3.97-1.269L15.261,58.869z"/>
		</g>
	</g>
	<rect x="60.334" y="26.167" display="inline" fill="#D2B32A" width="34" height="3"/>
	<rect x="60.334" y="34.333" display="inline" fill="#D2B32A" width="40.667" height="3"/>
	<rect x="60.334" y="53.579" display="inline" fill="#D2B32A" width="70.333" height="3"/>
	<rect x="60.334" y="62.246" display="inline" fill="#D2B32A" width="70.333" height="3"/>
	<rect x="60.334" y="70.912" display="inline" fill="#D2B32A" width="70.333" height="3"/>
	<rect x="60.334" y="80.246" display="inline" fill="#D2B32A" width="70.333" height="3"/>
	<rect x="94.334" y="93" display="inline" fill="#D2B32A" width="36.333" height="3"/>
	<path display="inline" fill="none" stroke="#D2B32A" stroke-width="10" stroke-miterlimit="10" d="M145.623,100.937
		c0,6.079-4.93,11.008-11.009,11.008H-14.613c-6.08,0-11.009-4.929-11.009-11.008V19.064c0-6.08,4.929-11.009,11.009-11.009h149.227
		c6.079,0,11.009,4.929,11.009,11.009V100.937z"/>
</g>
<g id="재무란_x3F_">
	<g>
		<circle fill="#1B6794" cx="31.492" cy="22.832" r="10.105"/>
		<g>
			<path fill="#1B6794" d="M29.006,31.813c0,0-7.11-0.188-13.265,9.397c0,0-4.651,7.517,1.409,11.746c0,0,11.088,7.095,27.58,1.269
				c0,0,6.719-2.819,5.732-7.752c0,0-0.47-11.222-15.881-14.792c0,0,0.19,0.241,0.149,1.042c-0.031,0.603-1.159,2.387-1.963,3.179
				L35,49.555v0.062l-0.014,0.067l-2.955,3.689l-0.033,0.026l-0.046-0.02l-3.246-3.549l-0.052-0.111l0.009-0.114L31.058,35.9
				c0,0-1.658-1.685-2.052-2.928C28.756,32.183,29.037,31.782,29.006,31.813z"/>
			<path fill="#1B6794" d="M34.299,33.833c0,0,0.642-1.221-0.219-1.237l1.676-0.595L34.299,33.833z"/>
			<path fill="#1B6794" d="M29.397,33.833c0,0-0.767-1.253,0.157-1.064l-2.255-0.721L29.397,33.833z"/>
		</g>
	</g>
	<g>
		<circle fill="#1B6794" cx="86.044" cy="75.078" r="10.105"/>
		<g>
			<path fill="#1B6794" d="M83.559,84.06c0,0-7.111-0.188-13.266,9.397c0,0-4.651,7.518,1.409,11.745c0,0,11.088,7.095,27.58,1.27
				c0,0,6.719-2.819,5.732-7.753c0,0-0.471-11.222-15.881-14.792c0,0,0.19,0.241,0.148,1.041c-0.031,0.604-0.935,2.388-1.739,3.18
				L90,101.802v0.062l-0.236,0.067l-3.067,3.689l-0.088,0.026l-0.075-0.02l-3.259-3.549l-0.06-0.111l0.006-0.114l2.391-13.705
				c0,0-1.658-1.686-2.052-2.929C83.31,84.43,83.59,84.028,83.559,84.06z"/>
			<path fill="#1B6794" d="M88.852,86.08c0,0,0.643-1.222-0.22-1.237l1.676-0.596L88.852,86.08z"/>
			<path fill="#1B6794" d="M83.949,86.08c0,0-0.767-1.253,0.157-1.064l-2.256-0.721L83.949,86.08z"/>
		</g>
	</g>
	<g>
		<path fill="#1B6794" d="M86.608,49.06c-0.284-0.422-0.741-1.032,0.012-1.216l8.337-0.008c0.841,0.038,0.285,0.756,0.004,1.198
			l-3.702,6.04c-0.517,0.654-0.891,0.359-1.224,0.026L86.608,49.06z"/>
		<path fill="#1B6794" d="M92.553,23.758c0,1.255-1.018,2.271-2.271,2.271H66.429c-1.254,0-2.271-1.017-2.271-2.271l0,0
			c0-1.254,1.017-2.271,2.271-2.271h23.853C91.535,21.487,92.553,22.504,92.553,23.758L92.553,23.758z"/>
		<path fill="#1B6794" d="M90.773,49.882c-1.254,0-2.271-1.017-2.271-2.271V23.758c0-1.254,1.018-2.271,2.271-2.271l0,0
			c1.254,0,2.271,1.017,2.271,2.271v23.853C93.045,48.865,92.027,49.882,90.773,49.882L90.773,49.882z"/>
	</g>
	<g>
		<path fill="#1B6794" d="M32.064,71.257c0.284,0.422,0.742,1.032-0.012,1.216l-8.337,0.008c-0.84-0.038-0.285-0.756-0.003-1.197
			l3.702-6.04c0.517-0.655,0.891-0.359,1.224-0.027L32.064,71.257z"/>
		<path fill="#1B6794" d="M26.12,96.559c0-1.255,1.017-2.271,2.271-2.271h23.853c1.254,0,2.271,1.017,2.271,2.271l0,0
			c0,1.255-1.017,2.271-2.271,2.271H28.391C27.137,98.83,26.12,97.813,26.12,96.559L26.12,96.559z"/>
		<path fill="#1B6794" d="M27.899,70.435c1.254,0,2.272,1.018,2.272,2.271v23.853c0,1.255-1.018,2.271-2.272,2.271l0,0
			c-1.254,0-2.271-1.017-2.271-2.271V72.706C25.628,71.452,26.646,70.435,27.899,70.435L27.899,70.435z"/>
	</g>
</g>
<g id="재무란_x3F__copy" display="none">
	<g display="inline">
		<circle fill="#D2B32A" cx="15.272" cy="0.003" r="16.312"/>
		<g>
			<path fill="#D2B32A" d="M11.258,14.501c0,0-11.477-0.303-21.412,15.168c0,0-7.508,12.134,2.275,18.96
				c0,0,17.898,11.452,44.519,2.048c0,0,10.846-4.55,9.253-12.514c0,0-0.758-18.113-25.634-23.877c0,0,0.307,0.39,0.24,1.681
				c-0.051,0.974-1.838,3.854-3.136,5.132L21,43.141v0.1l-0.055,0.108l-4.786,5.955l-0.061,0.042l-0.079-0.031l-5.24-5.728
				l-0.086-0.18l0.014-0.185l3.863-22.122c0,0-2.675-2.719-3.312-4.727C10.855,15.098,11.309,14.451,11.258,14.501z"/>
			<path fill="#D2B32A" d="M19.803,17.762c0,0,1.037-1.972-0.354-1.997l2.705-0.96L19.803,17.762z"/>
			<path fill="#D2B32A" d="M11.89,17.762c0,0-1.238-2.022,0.253-1.719l-3.64-1.163L11.89,17.762z"/>
		</g>
	</g>
	<g display="inline">
		<circle fill="#D2B32A" cx="103.329" cy="84.339" r="16.312"/>
		<g>
			<path fill="#D2B32A" d="M99.315,98.836c0,0-11.478-0.303-21.413,15.169c0,0-7.508,12.135,2.275,18.96
				c0,0,17.898,11.452,44.519,2.048c0,0,10.846-4.551,9.253-12.514c0,0-0.759-18.113-25.634-23.877c0,0,0.307,0.389,0.239,1.681
				c-0.05,0.974-1.866,3.854-3.164,5.132L109,127.476v0.1l-0.026,0.108l-4.771,5.955l-0.054,0.042l-0.075-0.031l-5.238-5.728
				l-0.085-0.181l0.014-0.185l3.863-22.122c0,0-2.676-2.72-3.312-4.728C98.912,99.434,99.366,98.786,99.315,98.836z"/>
			<path fill="#D2B32A" d="M107.86,102.098c0,0,1.036-1.972-0.354-1.997l2.705-0.961L107.86,102.098z"/>
			<path fill="#D2B32A" d="M99.947,102.098c0,0-1.238-2.022,0.253-1.719l-3.641-1.163L99.947,102.098z"/>
		</g>
	</g>
	<g display="inline">
		<path fill="#D2B32A" d="M104.239,42.341c-0.459-0.681-1.197-1.666,0.019-1.963l13.458-0.012c1.356,0.061,0.46,1.22,0.006,1.933
			l-5.976,9.75c-0.834,1.056-1.438,0.579-1.976,0.042L104.239,42.341z"/>
		<path fill="#D2B32A" d="M113.834,1.5c0,2.025-1.642,3.667-3.666,3.667H71.666C69.642,5.167,68,3.525,68,1.5l0,0
			c0-2.025,1.642-3.667,3.666-3.667h38.502C112.192-2.167,113.834-0.525,113.834,1.5L113.834,1.5z"/>
		<path fill="#D2B32A" d="M110.962,43.667c-2.024,0-3.667-1.642-3.667-3.666V1.5c0-2.024,1.643-3.666,3.667-3.666l0,0
			c2.024,0,3.667,1.642,3.667,3.666v38.502C114.629,42.026,112.986,43.667,110.962,43.667L110.962,43.667z"/>
	</g>
	<g display="inline">
		<path fill="#D2B32A" d="M16.195,78.17c0.459,0.682,1.197,1.666-0.019,1.963L2.719,80.146c-1.356-0.062-0.46-1.22-0.006-1.933
			l5.976-9.75c0.834-1.057,1.438-0.58,1.976-0.043L16.195,78.17z"/>
		<path fill="#D2B32A" d="M6.601,119.012c0-2.025,1.642-3.666,3.666-3.666h38.502c2.024,0,3.666,1.641,3.666,3.666l0,0
			c0,2.025-1.642,3.666-3.666,3.666H10.267C8.242,122.678,6.601,121.037,6.601,119.012L6.601,119.012z"/>
		<path fill="#D2B32A" d="M9.473,76.844c2.024,0,3.667,1.643,3.667,3.666v38.502c0,2.025-1.643,3.666-3.667,3.666l0,0
			c-2.024,0-3.667-1.641-3.667-3.666V80.51C5.806,78.486,7.448,76.844,9.473,76.844L9.473,76.844z"/>
	</g>
</g>
<g id="금융콘텐츠">
	<path fill="#1B6794" d="M153,83.05c0,1.772-0.827,2.95-2.359,2.95h-6.936c-1.532,0-2.705-1.178-2.705-2.95V22.056
		c0-1.773,1.173-3.056,2.705-3.056h6.936c1.532,0,2.359,1.282,2.359,3.056V83.05z"/>
	<path fill="#1B6794" d="M231,22.79c0,1.773-1.438,3.21-3.21,3.21h-83.58c-1.772,0-3.21-1.437-3.21-3.21v-5.58
		c0-1.773,1.438-3.21,3.21-3.21h83.58c1.772,0,3.21,1.437,3.21,3.21V22.79z"/>
	<line fill="none" stroke="#1B6794" stroke-width="5" stroke-miterlimit="10" x1="163" y1="40.5" x2="194" y2="40.5"/>
	<line fill="none" stroke="#1B6794" stroke-width="5" stroke-miterlimit="10" x1="163" y1="49.5" x2="223" y2="49.5"/>
	<line fill="none" stroke="#1B6794" stroke-width="5" stroke-miterlimit="10" x1="163" y1="57.5" x2="223" y2="57.5"/>
	<line fill="none" stroke="#1B6794" stroke-width="5" stroke-miterlimit="10" x1="163" y1="66.5" x2="223" y2="66.5"/>
	<line fill="none" stroke="#1B6794" stroke-width="5" stroke-miterlimit="10" x1="163" y1="74.5" x2="223" y2="74.5"/>
	<path fill="none" stroke="#1B6794" stroke-width="8" stroke-miterlimit="10" d="M238.595,85.659c0,3.927-3.271,7.11-7.303,7.11
		h-11.438l-13.319,17.088L192.751,92.77h-38.232c-4.032,0-7.302-3.184-7.302-7.11V27.293c0-3.927,3.27-7.11,7.302-7.11h76.773
		c4.032,0,7.303,3.183,7.303,7.11V85.659z"/>
</g>
<g id="금융콘텐츠_copy" display="none">
	<path display="inline" fill="#D2B32A" d="M-1,93.978C-1,96.839-2.999,99-5.473,99h-11.195C-19.141,99-21,96.839-21,93.978V-4.477
		C-21-7.339-19.141-10-16.668-10h11.195C-2.999-10-1-7.339-1-4.477V93.978z"/>
	<path display="inline" fill="#D2B32A" d="M125-3.182C125-0.32,122.68,2,119.817,2H-15.817C-18.68,2-21-0.32-21-3.182v-8.637
		C-21-14.68-18.68-17-15.817-17h135.635c2.862,0,5.183,2.32,5.183,5.182V-3.182z"/>
	<line display="inline" fill="none" stroke="#D2B32A" stroke-width="6" stroke-miterlimit="10" x1="14" y1="27" x2="64" y2="27"/>
	<line display="inline" fill="none" stroke="#D2B32A" stroke-width="6" stroke-miterlimit="10" x1="14" y1="42" x2="112" y2="42"/>
	<line display="inline" fill="none" stroke="#D2B32A" stroke-width="6" stroke-miterlimit="10" x1="14" y1="55" x2="112" y2="55"/>
	<line display="inline" fill="none" stroke="#D2B32A" stroke-width="6" stroke-miterlimit="10" x1="14" y1="69" x2="112" y2="69"/>
	<line display="inline" fill="none" stroke="#D2B32A" stroke-width="6" stroke-miterlimit="10" x1="14" y1="83" x2="112" y2="83"/>
	<path display="inline" fill="none" stroke="#D2B32A" stroke-width="8" stroke-miterlimit="10" d="M136.5,98.189
		c0,6.339-5.278,11.478-11.787,11.478H106.25l-21.5,27.583L62.5,109.667H0.787c-6.509,0-11.787-5.139-11.787-11.478V3.978
		C-11-2.361-5.723-7.5,0.787-7.5h123.926c6.509,0,11.787,5.139,11.787,11.478V98.189z"/>
</g>
<g id="꼭">
	<path fill="none" stroke="#1B6794" stroke-width="10" stroke-miterlimit="10" d="M431.705,108.82c0,0-47.391-1.009-50.793-5.665
		c-3.402-4.654,18.134-44.885,18.134-44.885s24.976-43.09,32.659-43.09c6.823,0,32.472,43.165,32.472,43.165
		s21.609,39.446,18.319,44.811C479.207,108.521,431.705,108.82,431.705,108.82z"/>
	<g>
		<path fill="#1B6794" d="M431.604,97.385c-1.627,0-2.968-0.516-4.02-1.543c-1.053-1.03-1.579-2.31-1.579-3.841
			s0.526-2.812,1.579-3.841c1.052-1.028,2.393-1.543,4.02-1.543s2.979,0.515,4.056,1.543c1.077,1.029,1.616,2.31,1.616,3.841
			c0,1.579-0.551,2.871-1.651,3.876S433.184,97.385,431.604,97.385z M436.055,80.945c0,0.814-0.071,1.316-0.215,1.508
			c-0.145,0.192-0.551,0.287-1.221,0.287h-6.246c-0.574,0-0.945-0.095-1.112-0.287c-0.169-0.191-0.251-0.693-0.251-1.508
			l-0.789-37.76c-0.049-1.052-0.025-1.723,0.071-2.01c0.095-0.287,0.55-0.431,1.363-0.431h7.754c0.765,0,1.208,0.144,1.327,0.431
			s0.181,0.958,0.181,2.01L436.055,80.945z"/>
	</g>
</g>
<g id="꼭_copy" display="none">
	<path display="inline" fill="none" stroke="#D2B32A" stroke-width="12" stroke-miterlimit="10" d="M59.198,138.266
		c0,0-79.22-1.686-84.907-9.469c-5.687-7.781,30.313-75.032,30.313-75.032s41.75-72.031,54.594-72.031
		c11.406,0,54.281,72.156,54.281,72.156s36.123,65.94,30.624,74.907C138.604,137.766,59.198,138.266,59.198,138.266z"/>
	<g display="inline">
		<path fill="#D2B32A" d="M59.03,119.15c-2.721,0-4.962-0.861-6.721-2.58c-1.76-1.722-2.64-3.861-2.64-6.42
			c0-2.56,0.88-4.699,2.64-6.42c1.759-1.72,4-2.58,6.721-2.58c2.719,0,4.979,0.86,6.779,2.58c1.801,1.721,2.7,3.86,2.7,6.42
			c0,2.64-0.92,4.8-2.76,6.479C63.909,118.31,61.67,119.15,59.03,119.15z M66.47,91.67c0,1.361-0.12,2.201-0.359,2.521
			c-0.24,0.32-0.921,0.479-2.04,0.479H53.63c-0.96,0-1.58-0.159-1.86-0.479c-0.281-0.319-0.42-1.159-0.42-2.521L50.03,28.55
			c-0.081-1.759-0.042-2.88,0.12-3.36c0.159-0.48,0.918-0.72,2.279-0.72h12.96c1.279,0,2.02,0.24,2.221,0.72
			c0.198,0.48,0.3,1.601,0.3,3.36L66.47,91.67z"/>
	</g>
</g>
<g id="리뷰">
	<g>
		<circle fill="#1B6794" cx="573.017" cy="77.681" r="11.535"/>
		<g>
			<path fill="#1B6794" d="M570.179,87.933c0,0-8.116-0.215-15.142,10.727c0,0-5.309,8.58,1.609,13.406c0,0,12.656,8.1,31.481,1.449
				c0,0,7.669-3.218,6.543-8.85c0,0-0.536-12.808-18.128-16.885c0,0,0.218,0.275,0.17,1.188c-0.036,0.689-1.333,2.725-2.251,3.63
				L577,108.185v0.07l-0.005,0.076l-3.366,4.211l-0.035,0.03l-0.052-0.021l-3.704-4.051l-0.06-0.127l0.011-0.132l2.732-15.643
				c0,0-1.893-1.923-2.342-3.343C569.895,88.354,570.215,87.897,570.179,87.933z"/>
			<path fill="#1B6794" d="M576.222,90.238c0,0,0.732-1.394-0.25-1.412l1.912-0.679L576.222,90.238z"/>
			<path fill="#1B6794" d="M570.627,90.238c0,0-0.877-1.43,0.178-1.216l-2.574-0.821L570.627,90.238z"/>
		</g>
	</g>
	<path fill="none" stroke="#1B6794" stroke-width="8" stroke-miterlimit="10" d="M625.876,42.331c0,4.105-3.329,7.434-7.435,7.434
		h-38.354l-6.659,8.828l-7.279-8.828h-36.451c-4.106,0-7.435-3.329-7.435-7.434V14.762c0-4.106,3.328-7.434,7.435-7.434h88.744
		c4.105,0,7.435,3.328,7.435,7.434V42.331z"/>
	<circle fill="#1B6794" cx="541.058" cy="29.011" r="4.337"/>
	<circle fill="#1B6794" cx="562.431" cy="29.011" r="4.337"/>
	<circle fill="#1B6794" cx="584.601" cy="29.011" r="4.336"/>
	<circle fill="#1B6794" cx="606.235" cy="29.011" r="4.336"/>
</g>
<g id="리뷰_copy" display="none">
	<g display="inline">
		<circle fill="#D2B32A" cx="58.088" cy="85.312" r="18.619"/>
		<g>
			<path fill="#D2B32A" d="M53.506,101.859c0,0-13.1-0.347-24.44,17.314c0,0-8.57,13.851,2.597,21.641
				c0,0,20.431,13.073,50.816,2.339c0,0,12.38-5.194,10.562-14.284c0,0-0.865-20.675-29.261-27.255c0,0,0.351,0.444,0.274,1.918
				c-0.059,1.112-1.911,4.398-3.393,5.859L65,134.55v0.114l-0.25,0.122l-5.555,6.798l-0.116,0.049l-0.115-0.035l-5.993-6.539
				l-0.104-0.205l0.013-0.212l4.408-25.25c0,0-3.055-3.104-3.781-5.396C53.048,102.54,53.564,101.803,53.506,101.859z"/>
			<path fill="#D2B32A" d="M63.26,105.581c0,0,1.184-2.249-0.403-2.278l3.087-1.097L63.26,105.581z"/>
			<path fill="#D2B32A" d="M54.229,105.581c0,0-1.414-2.308,0.288-1.962l-4.155-1.326L54.229,105.581z"/>
		</g>
	</g>
	<path display="inline" fill="none" stroke="#D2B32A" stroke-width="10" stroke-miterlimit="10" d="M143.411,28.25
		c0,6.627-5.373,12-12,12H69.5L58.75,54.5L47,40.25h-58.838c-6.627,0-12-5.373-12-12v-44.5c0-6.627,5.373-12,12-12h143.25
		c6.627,0,12,5.373,12,12V28.25z"/>
	<circle display="inline" fill="#D2B32A" cx="6.5" cy="6.75" r="7"/>
	<circle display="inline" fill="#D2B32A" cx="41" cy="6.75" r="7"/>
	<circle display="inline" fill="#D2B32A" cx="76.786" cy="6.75" r="7"/>
	<circle display="inline" fill="#D2B32A" cx="111.707" cy="6.75" r="7"/>
</g>
<g id="상담프로세스" display="none">
	
		<text transform="matrix(1 0 0 1 -103.5 -56)" display="inline" fill="#212121" font-family="'BMDoHyeon'" font-size="12" letter-spacing="1">“건전하고 올바른 금융생태계 구축을 위해 노력하겠습니다.”</text>
	<path display="inline" fill="#333333" d="M-127.341-29.566h-25.23c-2.831,0-2.831-10.25,0-10.25h25.23
		c1.408,0,7.926,2.535,7.933,5.084C-119.4-32.156-125.918-29.566-127.341-29.566z"/>
	
		<text transform="matrix(1 0 0 1 -144.5088 -32.9604)" display="inline" fill="#FFFFFF" font-family="'NanumGothicExtraBold'" font-size="6">1단계</text>
	<circle display="inline" fill="#ECECEC" cx="-137.132" cy="18.423" r="39.5"/>
	<text transform="matrix(1 0 0 1 -204.3301 74)" display="inline"><tspan x="0" y="0" fill="#333333" font-family="'NanumGothicExtraBold'" font-size="8">사이다재무팀 담당 상담사가 전화통화로</tspan><tspan x="22.468" y="11.6" fill="#333333" font-family="'NanumGothicExtraBold'" font-size="8">사전 인터뷰를 진행합니다.</tspan></text>
	<path display="inline" fill="#333333" d="M82.876-29.252h-25.23c-2.83,0-2.83-10.25,0-10.25h25.23c1.408,0,7.926,2.535,7.934,5.084
		C90.817-31.842,84.299-29.252,82.876-29.252z"/>
	
		<text transform="matrix(1 0 0 1 65.709 -32.6465)" display="inline" fill="#FFFFFF" font-family="'NanumGothicExtraBold'" font-size="6">2단계</text>
	<circle display="inline" fill="#ECECEC" cx="73.166" cy="18.19" r="39.5"/>
	<text transform="matrix(1 0 0 1 11.2905 74.3145)" display="inline"><tspan x="0" y="0" fill="#333333" font-family="'NanumGothicExtraBold'" font-size="8">소득, 지출, 저축, 보험 등 세부내역을</tspan><tspan x="0.904" y="11.6" fill="#333333" font-family="'NanumGothicExtraBold'" font-size="8">분석하여 현 재무상태를 파악합니다.</tspan></text>
	<path display="inline" fill="#333333" d="M265.071-29.75h-25.23c-2.83,0-2.83-10.25,0-10.25h25.23c1.408,0,7.926,2.535,7.934,5.084
		C273.013-32.34,266.494-29.75,265.071-29.75z"/>
	
		<text transform="matrix(1 0 0 1 247.9033 -33.144)" display="inline" fill="#FFFFFF" font-family="'NanumGothicExtraBold'" font-size="6">3단계</text>
	<circle display="inline" fill="#ECECEC" cx="255.362" cy="17.942" r="39.5"/>
	<text transform="matrix(1 0 0 1 206.8828 73.8164)" display="inline"><tspan x="0" y="0" fill="#333333" font-family="'NanumGothicExtraBold'" font-size="8">파악된 현 재무상태를 토대로</tspan><tspan x="-7.612" y="11.6" fill="#333333" font-family="'NanumGothicExtraBold'" font-size="8">작성된 재무설계안을 제시합니다.</tspan></text>
	<path display="inline" fill="#333333" d="M34.714,151.249H9.484c-2.83,0-2.83-10.25,0-10.25h25.23c1.408,0,7.926,2.535,7.934,5.084
		C42.656,148.659,36.137,151.249,34.714,151.249z"/>
	
		<text transform="matrix(1 0 0 1 17.5474 148.4395)" display="inline" fill="#FFFFFF" font-family="'NanumGothicExtraBold'" font-size="6">4단계</text>
	<circle display="inline" fill="#ECECEC" cx="25.39" cy="200.355" r="39.5"/>
	<path display="inline" fill="#333333" d="M185.648,151.249h-25.23c-2.83,0-2.83-10.25,0-10.25h25.23
		c1.408,0,7.926,2.535,7.934,5.084C193.59,148.659,187.071,151.249,185.648,151.249z"/>
	
		<text transform="matrix(1 0 0 1 168.4805 148.4395)" display="inline" fill="#FFFFFF" font-family="'NanumGothicExtraBold'" font-size="6">5단계</text>
	<circle display="inline" fill="#ECECEC" cx="175.938" cy="199.524" r="39.5"/>
	<text transform="matrix(1 0 0 1 131.3438 255.4004)" display="inline"><tspan x="0" y="0" fill="#333333" font-family="'NanumGothicExtraBold'" font-size="8">1년 주기로 재무 리모델링,</tspan><tspan x="-6.309" y="11.6" fill="#333333" font-family="'NanumGothicExtraBold'" font-size="8">5년 주기로 보장자산 리모델링</tspan><tspan x="8.424" y="23.199" fill="#333333" font-family="'NanumGothicExtraBold'" font-size="8">서비스를 제공합니다.</tspan></text>
	<circle display="inline" opacity="0.3" fill="#1D87C9" cx="-138.493" cy="11.142" r="4.581"/>
	<path display="inline" opacity="0.3" fill="#1D87C9" d="M-134.056,15.115c0.096,0.226-0.009,0.486-0.235,0.582l-3.953,1.674
		c-0.226,0.096-0.485-0.009-0.581-0.235l0,0c-0.096-0.226,0.009-0.485,0.235-0.581l3.953-1.674
		C-134.411,14.784-134.151,14.889-134.056,15.115L-134.056,15.115z"/>
	<path display="inline" opacity="0.3" fill="#1D87C9" d="M-129.183,27.709c0.466,1.101-0.048,2.372-1.149,2.838l0,0
		c-1.101,0.466-2.372-0.048-2.838-1.149l-4.621-10.912c-0.466-1.101,3.521-2.789,3.987-1.688L-129.183,27.709z"/>
	
		<rect x="-130.044" y="29.722" transform="matrix(0.9207 -0.3904 0.3904 0.9207 -22.7743 -48.1054)" display="inline" opacity="0.3" fill="#1D87C9" width="0.632" height="4.502"/>
	<path display="inline" opacity="0.3" fill="#1D87C9" d="M-128.56,31.696h23.382c0-11.44-5.301-14.828-8.764-15.823
		c2.36-1.104,3.999-3.493,3.999-6.27c0-3.825-3.101-6.926-6.926-6.926c-3.825,0-6.926,3.102-6.926,6.926
		c0,2.767,1.626,5.147,3.972,6.257C-128.559,18.334-128.56,31.696-128.56,31.696z"/>
	<path display="inline" opacity="0.3" fill="#1D87C9" d="M42.92,39.287h23.382c0-11.44-5.301-14.828-8.764-15.823
		c2.359-1.104,3.998-3.493,3.998-6.27c0-3.825-3.101-6.926-6.926-6.926c-3.825,0-6.926,3.102-6.926,6.926
		c0,2.767,1.626,5.147,3.972,6.257C42.921,25.925,42.92,39.287,42.92,39.287z"/>
	<path display="inline" opacity="0.3" fill="#1D87C9" d="M85.283,23.733h23.383c0-11.44-5.301-14.828-8.764-15.823
		c2.359-1.104,3.998-3.493,3.998-6.27c0-3.825-3.102-6.926-6.926-6.926c-3.825,0-6.926,3.102-6.926,6.926
		c0,2.767,1.626,5.147,3.972,6.257C85.284,10.372,85.283,23.733,85.283,23.733z"/>
	<path display="inline" opacity="0.3" fill="#1D87C9" d="M-169.086,31.696h23.382c0-11.44-5.301-14.828-8.764-15.823
		c2.36-1.104,3.999-3.493,3.999-6.27c0-3.825-3.101-6.926-6.926-6.926c-3.825,0-6.926,3.102-6.926,6.926
		c0,2.767,1.626,5.147,3.972,6.257C-169.085,18.334-169.086,31.696-169.086,31.696z"/>
	<rect x="-133.038" y="18.607" display="inline" opacity="0.3" fill="#1D87C9" width="10.019" height="3.796"/>
	
		<text transform="matrix(1 0 0 1 -162.0313 21.3076)" display="inline" fill="#333333" font-family="'NanumGothicExtraBold'" font-size="10">사전 인터뷰</text>
	<polygon display="inline" opacity="0.3" fill="#1D87C9" points="45.642,193.854 32.213,187.354 32.213,191.41 -8.291,191.41 
		-8.291,209.299 32.213,209.299 32.213,213.355 45.642,206.855 59.07,200.355 	"/>
	
		<text transform="matrix(1 0 0 1 -9.2866 202.4102)" display="inline" fill="#333333" font-family="'NanumGothicExtraBold'" font-size="10">재무설계안 실행</text>
	<path display="inline" opacity="0.3" fill="#1D87C9" d="M190.412,171.239c0,0-18.584-0.251-11.8,17.281l-18.171,28.975
		c0,0-5.308,5.888,0.774,9.514c0,0,4.522,3.476,8.404-4.042l15.65-30.027c0,0,16.146-0.106,14.339-13.662l-8.526,5.575l-5.75-4.853
		L190.412,171.239z"/>
	
		<text transform="matrix(1 0 0 1 136.9395 202.4102)" display="inline" fill="#333333" font-family="'NanumGothicExtraBold'" font-size="10">지속적인 모니터링</text>
	<path display="inline" opacity="0.3" fill="#1D87C9" d="M78.964,19.622c0,1.853-1.502,3.355-3.354,3.355h-8.613
		c-1.096,0-2.069-0.526-2.682-1.34c-0.163-0.217-2.66,0.628-2.768,0.375c-0.171-0.401,2.095-1.926,2.095-2.39v-0.854v-1.23
		c0-1.853,1.502-3.355,3.354-3.355h8.613c1.853,0,3.354,1.502,3.354,3.355V19.622z"/>
	<path display="inline" opacity="0.3" fill="#1D87C9" d="M66.591,1.113c0,2.355,1.909,4.264,4.264,4.264H81.8
		c1.394,0,2.631-0.669,3.409-1.703c0.208-0.277,3.381,0.798,3.517,0.476c0.217-0.51-2.661-2.448-2.661-3.037V0.027v-1.563
		c0-2.355-1.909-4.264-4.265-4.264H70.854c-2.354,0-4.264,1.909-4.264,4.264V1.113z"/>
	
		<text transform="matrix(1 0 0 1 71.8623 1.75)" display="inline" opacity="0.3" fill="#FFFFFF" font-family="'NanumGothicExtraBold'" font-size="6">1차</text>
	<path display="inline" opacity="0.3" fill="#1D87C9" d="M225.586,39.287h23.383c0-11.44-5.301-14.828-8.764-15.823
		c2.359-1.104,3.998-3.493,3.998-6.27c0-3.825-3.101-6.926-6.926-6.926c-3.824,0-6.926,3.102-6.926,6.926
		c0,2.767,1.627,5.147,3.972,6.257C225.588,25.925,225.586,39.287,225.586,39.287z"/>
	<path display="inline" opacity="0.3" fill="#1D87C9" d="M267.949,23.733h23.383c0-11.44-5.301-14.828-8.764-15.823
		c2.359-1.104,3.998-3.493,3.998-6.27c0-3.825-3.102-6.926-6.926-6.926c-3.825,0-6.926,3.102-6.926,6.926
		c0,2.767,1.626,5.147,3.972,6.257C267.95,10.372,267.949,23.733,267.949,23.733z"/>
	<path display="inline" opacity="0.3" fill="#1D87C9" d="M261.63,19.622c0,1.853-1.502,3.355-3.354,3.355h-8.613
		c-1.096,0-2.069-0.526-2.682-1.34c-0.163-0.217-2.66,0.628-2.768,0.375c-0.171-0.401,2.095-1.926,2.095-2.39v-0.854v-1.23
		c0-1.853,1.502-3.355,3.354-3.355h8.613c1.853,0,3.354,1.502,3.354,3.355V19.622z"/>
	<path display="inline" opacity="0.3" fill="#1D87C9" d="M249.257,1.113c0,2.355,1.909,4.264,4.264,4.264h10.945
		c1.394,0,2.631-0.669,3.409-1.703c0.208-0.277,3.381,0.798,3.517,0.476c0.217-0.51-2.661-2.448-2.661-3.037V0.027v-1.563
		c0-2.355-1.909-4.264-4.265-4.264h-10.945c-2.354,0-4.264,1.909-4.264,4.264V1.113z"/>
	
		<text transform="matrix(1 0 0 1 254.5283 1.75)" display="inline" opacity="0.3" fill="#FFFFFF" font-family="'NanumGothicExtraBold'" font-size="6">2차</text>
	
		<text transform="matrix(1 0 0 1 56.0361 21.0757)" display="inline" fill="#333333" font-family="'NanumGothicExtraBold'" font-size="10">1차미팅</text>
	
		<text transform="matrix(1 0 0 1 238.2324 20.8267)" display="inline" fill="#333333" font-family="'NanumGothicExtraBold'" font-size="10">2차미팅</text>
</g>
</svg>
