<?xml version="1.0" encoding="utf-8"?>
<!-- Generator: Adobe Illustrator 16.0.0, SVG Export Plug-In . SVG Version: 6.00 Build 0)  -->
<!DOCTYPE svg PUBLIC "-//W3C//DTD SVG 1.1//EN" "http://www.w3.org/Graphics/SVG/1.1/DTD/svg11.dtd">
<svg version="1.1" id="Layer_1" xmlns="http://www.w3.org/2000/svg" xmlns:xlink="http://www.w3.org/1999/xlink" x="0px" y="0px"
	 width="200px" height="200px" viewBox="0 0 200 200" enable-background="new 0 0 200 200" xml:space="preserve">
<path fill="#333333" d="M-153.753-4.07h-51.365c-5.763,0-5.763-20.867,0-20.867h51.365c2.867,0,16.136,5.161,16.149,10.35
	C-137.587-9.343-150.855-4.07-153.753-4.07z"/>
<path fill="#333333" d="M122.726,21.331H71.36c-5.763,0-5.763-20.867,0-20.867h51.366c2.867,0,16.136,5.161,16.149,10.35
	C138.892,16.058,125.623,21.331,122.726,21.331z"/>
<text transform="matrix(1 0 0 1 -188.7046 -10.9795)" fill="#FFFFFF" font-family="'NanumGothicExtraBold'" font-size="12.215">1단계</text>
<circle fill="#ECECEC" cx="-173.522" cy="93.197" r="80.416"/>
<circle fill="#ECECEC" cx="102.419" cy="119.084" r="80.416"/>
<circle opacity="0.3" fill="#1D87C9" cx="-176.404" cy="77.805" r="9.326"/>
<path opacity="0.3" fill="#1D87C9" d="M-167.369,85.895c0.194,0.459-0.018,0.988-0.479,1.183l-8.047,3.408
	c-0.459,0.194-0.988-0.019-1.182-0.479l0,0c-0.195-0.459,0.019-0.988,0.478-1.183l8.047-3.408
	C-168.091,85.221-167.563,85.434-167.369,85.895L-167.369,85.895z"/>
<path opacity="0.3" fill="#1D87C9" d="M-238.686,122.736h47.603c0-23.29-10.792-30.186-17.841-32.213
	c4.804-2.247,8.14-7.109,8.14-12.764c0-7.787-6.313-14.101-14.1-14.101c-7.788,0-14.101,6.314-14.101,14.101
	c0,5.632,3.312,10.479,8.087,12.739C-238.684,95.533-238.686,122.736-238.686,122.736z"/>
<path opacity="0.3" fill="#1D87C9" d="M-108.578,120.219c0-23.289-10.792-30.186-17.842-32.213c4.804-2.246,8.14-7.109,8.14-12.764
	c0-7.786-6.313-14.101-14.1-14.101c-7.786,0-14.101,6.314-14.101,14.101c0,5.633,3.313,10.48,8.086,12.738
	c-3.703,1.049-6.627,3.066-8.948,5.592h-17.953v0.002l-1.561-3.686c-0.948-2.24-9.066,1.195-8.116,3.438l9.406,22.213
	c0.865,2.039,3.079,3.072,5.161,2.531l3.04,7.184l1.184-0.504l-3.041-7.18c1.838-1.119,2.637-3.428,1.772-5.469l-4.575-10.803h9.785
	c-3.933,8.977-3.941,18.92-3.941,18.92H-108.578z"/>
<text transform="matrix(1 0 0 1 -224.3242 99.0713)" fill="#333333" font-family="'NanumGothicExtraBold'" font-size="20.3584">사전 인터뷰</text>
<g>
	<path fill="#FFFFFF" d="M87.99,16.033c-0.116,0-0.198-0.013-0.248-0.038c-0.049-0.024-0.074-0.095-0.074-0.21v-0.879
		c0-0.091,0.021-0.167,0.062-0.229c0.041-0.062,0.091-0.126,0.148-0.192l1.809-2.18c0.668-0.809,1.151-1.47,1.449-1.982
		c0.297-0.512,0.446-0.92,0.446-1.226c0-0.338-0.089-0.607-0.266-0.805c-0.178-0.198-0.432-0.313-0.762-0.347
		c-0.314-0.033-0.632,0-0.954,0.099c-0.322,0.099-0.681,0.26-1.078,0.483c-0.116,0.066-0.196,0.089-0.241,0.068
		c-0.046-0.021-0.077-0.068-0.093-0.143l-0.223-1.09c-0.017-0.066-0.015-0.12,0.006-0.161c0.021-0.041,0.081-0.095,0.18-0.161
		c0.157-0.107,0.334-0.204,0.533-0.291c0.198-0.086,0.402-0.161,0.613-0.223c0.21-0.062,0.419-0.107,0.625-0.136
		c0.207-0.029,0.392-0.043,0.558-0.043c0.396,0,0.77,0.058,1.121,0.173c0.351,0.116,0.654,0.287,0.911,0.514
		c0.256,0.227,0.458,0.51,0.607,0.848c0.148,0.339,0.223,0.731,0.223,1.177c0,0.388-0.083,0.776-0.248,1.164
		c-0.166,0.388-0.368,0.766-0.607,1.133c-0.24,0.368-0.498,0.718-0.774,1.053c-0.277,0.334-0.526,0.638-0.75,0.911
		c-0.141,0.182-0.308,0.38-0.501,0.594c-0.194,0.215-0.37,0.413-0.526,0.595h3.27c0.124,0,0.2,0.021,0.229,0.062
		c0.029,0.042,0.043,0.12,0.043,0.235v0.929c0,0.124-0.017,0.204-0.049,0.241c-0.033,0.038-0.107,0.056-0.223,0.056H87.99z"/>
	<path fill="#FFFFFF" d="M101.85,11.71c-0.347,0.074-0.752,0.143-1.214,0.205c-0.462,0.062-0.937,0.113-1.424,0.155
		c-0.487,0.041-0.964,0.068-1.431,0.081c-0.466,0.012-0.877,0.01-1.232-0.006c-0.297-0.008-0.519-0.064-0.663-0.167
		c-0.145-0.103-0.216-0.328-0.216-0.675v-4.36c0-0.165,0.012-0.299,0.037-0.402c0.024-0.103,0.07-0.182,0.136-0.235
		c0.066-0.054,0.152-0.088,0.26-0.105s0.248-0.025,0.421-0.025h4.285c0.165,0,0.248,0.07,0.248,0.21v0.979
		c0,0.141-0.083,0.21-0.248,0.21h-3.245c-0.083,0-0.132,0.017-0.148,0.05c-0.017,0.033-0.025,0.074-0.025,0.124v2.836
		c0,0.132,0.066,0.198,0.198,0.198c0.603,0,1.243-0.025,1.92-0.074c0.677-0.05,1.371-0.137,2.081-0.26
		c0.123-0.025,0.201-0.021,0.234,0.012c0.033,0.033,0.059,0.083,0.074,0.149l0.137,0.792c0.017,0.116,0.013,0.192-0.012,0.229
		C101.998,11.667,101.94,11.693,101.85,11.71z M104.549,17.123h-6.75c-0.355,0-0.588-0.062-0.7-0.186
		c-0.111-0.124-0.167-0.359-0.167-0.706v-2.712c0-0.173,0.086-0.26,0.26-0.26h1.213c0.165,0,0.248,0.086,0.248,0.26v2.007
		c0,0.124,0.066,0.186,0.198,0.186h5.697c0.066,0,0.127,0.014,0.18,0.043c0.055,0.029,0.082,0.088,0.082,0.18v0.966
		c0,0.116-0.027,0.182-0.082,0.198C104.676,17.114,104.615,17.123,104.549,17.123z M105.838,10.385h-1.535v3.158
		c0,0.091-0.016,0.153-0.045,0.186c-0.029,0.033-0.088,0.049-0.18,0.049h-1.25c-0.092,0-0.154-0.017-0.191-0.049
		c-0.038-0.033-0.057-0.095-0.057-0.186V5.678c0-0.157,0.082-0.235,0.248-0.235h1.25c0.148,0,0.225,0.079,0.225,0.235v3.294h1.535
		c0.066,0,0.123,0.008,0.174,0.025c0.049,0.017,0.074,0.079,0.074,0.186v0.978c0,0.091-0.023,0.151-0.068,0.18
		C105.973,10.371,105.912,10.385,105.838,10.385z"/>
	<path fill="#FFFFFF" d="M111.473,12.54c-0.082,0-0.145-0.015-0.186-0.043s-0.062-0.101-0.062-0.217v-0.929
		c0-0.09,0.022-0.148,0.067-0.173c0.046-0.024,0.105-0.037,0.18-0.037h1.362V9.542h-1.275c-0.306,0.983-0.801,1.901-1.486,2.756
		s-1.527,1.596-2.526,2.223c-0.1,0.066-0.174,0.093-0.224,0.081c-0.049-0.013-0.103-0.056-0.16-0.13l-0.57-0.793
		c-0.066-0.091-0.101-0.163-0.105-0.217c-0.004-0.054,0.039-0.109,0.131-0.167c0.528-0.347,1.001-0.731,1.418-1.152
		c0.417-0.421,0.775-0.859,1.077-1.313s0.541-0.915,0.719-1.381c0.177-0.466,0.286-0.91,0.328-1.332
		c0.024-0.214-0.058-0.322-0.248-0.322h-2.539c-0.165,0-0.247-0.079-0.247-0.235V6.645c0-0.165,0.082-0.248,0.247-0.248h3.567
		c0.388,0,0.644,0.073,0.768,0.217c0.124,0.145,0.186,0.403,0.186,0.774c0,0.132-0.004,0.26-0.012,0.384
		c-0.009,0.124-0.021,0.248-0.037,0.372h0.99V5.876c0-0.091,0.019-0.153,0.056-0.186c0.037-0.033,0.102-0.05,0.192-0.05h1.14
		c0.156,0,0.235,0.079,0.235,0.235v10.813c0,0.099-0.017,0.163-0.05,0.192s-0.095,0.043-0.186,0.043h-1.14
		c-0.091,0-0.155-0.013-0.192-0.037c-0.037-0.025-0.056-0.091-0.056-0.198V12.54H111.473z M116.725,17.345h-1.227
		c-0.091,0-0.153-0.017-0.186-0.049c-0.033-0.033-0.05-0.095-0.05-0.186V5.678c0-0.091,0.019-0.152,0.056-0.186
		s0.102-0.05,0.192-0.05h1.214c0.091,0,0.152,0.017,0.186,0.05s0.05,0.095,0.05,0.186V17.11c0,0.091-0.017,0.153-0.05,0.186
		C116.877,17.329,116.815,17.345,116.725,17.345z"/>
</g>
<path opacity="0.3" fill="#1D87C9" d="M38.897,164.816h48.268c0-23.613-10.943-30.608-18.091-32.661
	c4.871-2.279,8.253-7.213,8.253-12.942c0-7.896-6.4-14.3-14.297-14.3c-7.894,0-14.295,6.403-14.295,14.3
	c0,5.71,3.357,10.625,8.199,12.915C38.901,137.236,38.897,164.816,38.897,164.816z"/>
<path opacity="0.3" fill="#1D87C9" d="M126.344,132.711h48.269c0-23.616-10.941-30.61-18.091-32.664
	c4.871-2.279,8.252-7.21,8.252-12.942c0-7.894-6.4-14.296-14.295-14.296c-7.897,0-14.296,6.402-14.296,14.296
	c0,5.712,3.355,10.626,8.198,12.916C126.346,105.128,126.344,132.711,126.344,132.711z"/>
<path opacity="0.3" fill="#1D87C9" d="M113.301,124.224c0,3.824-3.101,6.925-6.925,6.925h-17.78c-2.262,0-4.271-1.085-5.535-2.767
	c-0.337-0.447-5.492,1.299-5.713,0.774c-0.352-0.829,4.324-3.976,4.324-4.933v-1.764v-2.541c0-3.824,3.101-6.927,6.924-6.927h17.78
	c3.824,0,6.925,3.103,6.925,6.927V124.224z"/>
<path opacity="0.3" fill="#1D87C9" d="M87.759,86.016c0,4.861,3.941,8.802,8.801,8.802h22.593c2.877,0,5.432-1.381,7.039-3.515
	c0.429-0.571,6.978,1.648,7.258,0.981c0.448-1.053-5.492-5.054-5.492-6.269v-2.242v-3.228c0-4.861-3.941-8.802-8.805-8.802H96.561
	c-4.86,0-8.801,3.94-8.801,8.802V86.016z"/>
<g opacity="0.3">
	<path fill="#FFFFFF" d="M102.033,88.061c-0.092,0-0.154-0.019-0.186-0.056c-0.033-0.037-0.051-0.105-0.051-0.205v-7.067
		l-0.755,0.726c-0.132,0.124-0.235,0.136-0.31,0.037l-0.731-0.83c-0.049-0.058-0.064-0.109-0.043-0.155
		c0.021-0.045,0.068-0.101,0.143-0.167l1.907-1.784c0.092-0.074,0.189-0.111,0.297-0.111h0.818c0.182,0,0.289,0.021,0.322,0.062
		c0.033,0.042,0.049,0.165,0.049,0.372v8.917c0,0.091-0.016,0.157-0.049,0.198c-0.033,0.041-0.096,0.062-0.186,0.062H102.033z"/>
	<path fill="#FFFFFF" d="M112.535,81.385c-0.239,0.702-0.595,1.375-1.064,2.019c0.347,0.372,0.714,0.708,1.102,1.009
		c0.389,0.302,0.735,0.547,1.041,0.737c0.091,0.066,0.13,0.134,0.117,0.204c-0.013,0.07-0.048,0.147-0.105,0.229l-0.532,0.768
		c-0.066,0.091-0.141,0.126-0.223,0.105c-0.083-0.021-0.178-0.064-0.285-0.13c-0.124-0.074-0.271-0.175-0.439-0.303
		c-0.17-0.128-0.35-0.271-0.539-0.427c-0.19-0.157-0.38-0.324-0.569-0.501c-0.19-0.178-0.368-0.353-0.533-0.526
		c-0.438,0.446-0.921,0.863-1.449,1.25c-0.528,0.388-1.102,0.735-1.721,1.041c-0.092,0.042-0.159,0.06-0.205,0.056
		c-0.045-0.004-0.093-0.047-0.143-0.13l-0.508-0.817c-0.065-0.091-0.086-0.165-0.062-0.223c0.024-0.058,0.07-0.107,0.137-0.148
		c1.023-0.578,1.878-1.209,2.563-1.895c0.686-0.685,1.181-1.358,1.486-2.019c0.024-0.058,0.037-0.113,0.037-0.167
		s-0.058-0.081-0.174-0.081h-3.084c-0.115,0-0.184-0.025-0.204-0.074s-0.031-0.116-0.031-0.198v-0.892
		c0-0.165,0.083-0.248,0.248-0.248h4.198c0.322,0,0.574,0.064,0.756,0.192s0.272,0.324,0.272,0.588c0,0.074-0.004,0.165-0.013,0.272
		C112.602,81.183,112.576,81.286,112.535,81.385z M111.557,79.329h-3.245c-0.065,0-0.126-0.017-0.179-0.049
		c-0.055-0.033-0.081-0.104-0.081-0.211v-0.854c0-0.107,0.026-0.177,0.081-0.21c0.053-0.033,0.113-0.049,0.179-0.049h3.245
		c0.182,0,0.272,0.091,0.272,0.272v0.83C111.829,79.238,111.738,79.329,111.557,79.329z M117.452,83.317h-1.535v5.796
		c0,0.099-0.015,0.163-0.044,0.192c-0.029,0.029-0.089,0.043-0.18,0.043h-1.251c-0.091,0-0.154-0.015-0.191-0.043
		c-0.037-0.029-0.056-0.093-0.056-0.192V77.707c0-0.091,0.019-0.152,0.056-0.186s0.101-0.05,0.191-0.05h1.251
		c0.091,0,0.15,0.017,0.18,0.05s0.044,0.095,0.044,0.186v4.199h1.535c0.074,0,0.135,0.01,0.18,0.031
		c0.045,0.021,0.068,0.089,0.068,0.205v0.941c0,0.099-0.023,0.163-0.068,0.192S117.526,83.317,117.452,83.317z"/>
</g>
<g>
	<path fill="#333333" d="M72.715,127.928c-0.151,0-0.254-0.031-0.31-0.093c-0.055-0.063-0.083-0.176-0.083-0.341v-11.778
		l-1.259,1.21c-0.22,0.206-0.392,0.227-0.516,0.062l-1.218-1.383c-0.083-0.096-0.106-0.183-0.072-0.258
		c0.034-0.076,0.114-0.169,0.237-0.279l3.179-2.972c0.151-0.124,0.316-0.187,0.496-0.187h1.362c0.302,0,0.481,0.035,0.537,0.104
		c0.055,0.069,0.083,0.275,0.083,0.619v14.862c0,0.151-0.028,0.262-0.083,0.33c-0.055,0.069-0.158,0.104-0.31,0.104H72.715z"/>
	<path fill="#333333" d="M90.219,116.802c-0.399,1.17-0.991,2.291-1.775,3.364c0.578,0.619,1.19,1.181,1.837,1.683
		c0.646,0.503,1.225,0.912,1.734,1.229c0.151,0.11,0.217,0.224,0.196,0.341c-0.021,0.116-0.08,0.244-0.176,0.382l-0.888,1.279
		c-0.11,0.151-0.234,0.21-0.371,0.176c-0.138-0.034-0.296-0.106-0.475-0.217c-0.207-0.124-0.451-0.292-0.733-0.506
		c-0.282-0.213-0.582-0.45-0.898-0.712s-0.633-0.54-0.949-0.836c-0.317-0.296-0.613-0.589-0.888-0.878
		c-0.729,0.743-1.535,1.438-2.415,2.085c-0.881,0.647-1.837,1.226-2.87,1.734c-0.151,0.068-0.265,0.1-0.34,0.093
		c-0.076-0.007-0.155-0.079-0.237-0.217l-0.847-1.362c-0.11-0.151-0.144-0.275-0.103-0.372c0.042-0.096,0.117-0.179,0.227-0.247
		c1.706-0.963,3.13-2.017,4.273-3.158c1.142-1.143,1.968-2.264,2.477-3.365c0.042-0.096,0.062-0.188,0.062-0.278
		s-0.097-0.135-0.289-0.135h-5.14c-0.193,0-0.307-0.041-0.341-0.123c-0.035-0.083-0.052-0.193-0.052-0.331v-1.485
		c0-0.275,0.138-0.413,0.413-0.413h6.998c0.537,0,0.957,0.106,1.259,0.319c0.303,0.214,0.454,0.541,0.454,0.98
		c0,0.124-0.007,0.275-0.021,0.454C90.329,116.465,90.288,116.637,90.219,116.802z M88.588,113.375H83.18
		c-0.11,0-0.21-0.027-0.299-0.082c-0.089-0.056-0.134-0.173-0.134-0.352v-1.424c0-0.179,0.045-0.296,0.134-0.352
		c0.089-0.055,0.189-0.082,0.299-0.082h5.408c0.303,0,0.454,0.151,0.454,0.454v1.383C89.042,113.224,88.891,113.375,88.588,113.375z
		 M98.414,120.021h-2.56v9.661c0,0.165-0.024,0.271-0.072,0.319c-0.048,0.049-0.148,0.072-0.299,0.072h-2.085
		c-0.151,0-0.258-0.023-0.32-0.072c-0.062-0.048-0.093-0.154-0.093-0.319v-19.012c0-0.151,0.031-0.255,0.093-0.31
		s0.168-0.083,0.32-0.083h2.085c0.151,0,0.251,0.028,0.299,0.083s0.072,0.158,0.072,0.31v6.998h2.56
		c0.124,0,0.224,0.018,0.299,0.052s0.114,0.147,0.114,0.34v1.569c0,0.165-0.038,0.271-0.114,0.319
		C98.638,119.998,98.538,120.021,98.414,120.021z"/>
	<path fill="#333333" d="M109.168,124.295h-6.832c-0.316,0-0.574-0.018-0.773-0.052s-0.354-0.104-0.465-0.206
		c-0.11-0.104-0.186-0.248-0.227-0.434c-0.041-0.186-0.062-0.437-0.062-0.754v-9.681c0-0.592,0.106-0.971,0.32-1.136
		c0.213-0.165,0.581-0.248,1.104-0.248h6.935c0.289,0,0.527,0.015,0.713,0.042s0.33,0.09,0.434,0.186
		c0.104,0.097,0.176,0.237,0.217,0.423c0.041,0.187,0.063,0.431,0.063,0.733v9.681c0,0.303-0.021,0.551-0.063,0.743
		c-0.041,0.193-0.113,0.341-0.217,0.444c-0.104,0.103-0.248,0.172-0.434,0.206S109.457,124.295,109.168,124.295z M107.744,114.531
		c0-0.179-0.018-0.292-0.051-0.341c-0.035-0.048-0.135-0.072-0.301-0.072h-3.322c-0.18,0-0.293,0.021-0.342,0.062
		c-0.047,0.042-0.07,0.159-0.07,0.352v7.019c0,0.192,0.023,0.31,0.07,0.351c0.049,0.041,0.162,0.062,0.342,0.062h3.322
		c0.166,0,0.266-0.023,0.301-0.072c0.033-0.048,0.051-0.161,0.051-0.34V114.531z M115.67,130.074h-2.063
		c-0.152,0-0.256-0.023-0.311-0.072c-0.055-0.048-0.082-0.154-0.082-0.319v-19.012c0-0.151,0.027-0.255,0.082-0.31
		s0.158-0.083,0.311-0.083h2.063c0.152,0,0.256,0.028,0.311,0.083s0.082,0.158,0.082,0.31v19.012c0,0.165-0.027,0.271-0.082,0.319
		C115.926,130.051,115.822,130.074,115.67,130.074z"/>
	<path fill="#333333" d="M128.965,116.863c0,0.069-0.008,0.117-0.021,0.145c-0.041,0.083-0.145,0.131-0.311,0.145
		c-0.908,0.056-1.813,0.093-2.713,0.114c-0.902,0.021-1.793,0.03-2.674,0.03v1.383c0,0.221,0.109,0.331,0.33,0.331
		c1.018,0,2.061-0.027,3.127-0.083c1.066-0.055,2.191-0.192,3.375-0.413c0.207-0.027,0.338-0.014,0.393,0.042
		c0.055,0.055,0.096,0.138,0.125,0.247l0.227,1.321c0.027,0.193,0.02,0.32-0.021,0.382c-0.041,0.063-0.137,0.106-0.289,0.135
		c-0.578,0.123-1.246,0.233-2.002,0.33c-0.758,0.096-1.531,0.172-2.322,0.227c-0.791,0.056-1.566,0.09-2.322,0.104
		c-0.758,0.014-1.432,0.007-2.023-0.021c-0.494-0.014-0.863-0.106-1.104-0.279c-0.24-0.172-0.361-0.547-0.361-1.125v-7.596
		c0-0.275,0.02-0.499,0.063-0.671c0.041-0.172,0.115-0.303,0.227-0.393c0.109-0.089,0.258-0.147,0.443-0.176
		c0.186-0.027,0.424-0.041,0.713-0.041h7.059c0.289,0,0.434,0.117,0.434,0.352v1.63c0,0.234-0.145,0.352-0.434,0.352h-5.346
		c-0.139,0-0.221,0.027-0.248,0.082c-0.027,0.056-0.041,0.124-0.041,0.207v1.383c0.908,0,1.803-0.007,2.684-0.021
		s1.74-0.041,2.58-0.083c0.123-0.014,0.23-0.003,0.32,0.031s0.135,0.12,0.135,0.258v1.466c0,0.041,0.002,0.079,0.01,0.113
		C128.98,116.806,128.979,116.836,128.965,116.863z M129.109,130.261c-0.938,0-1.787-0.09-2.551-0.269s-1.42-0.438-1.971-0.774
		s-0.975-0.743-1.27-1.218c-0.297-0.475-0.443-1.008-0.443-1.6c0-0.551,0.15-1.06,0.453-1.527s0.727-0.87,1.27-1.208
		c0.545-0.337,1.197-0.599,1.961-0.784s1.613-0.278,2.551-0.278c0.879,0,1.709,0.089,2.486,0.268
		c0.777,0.18,1.449,0.434,2.014,0.764c0.563,0.331,1.01,0.73,1.342,1.197c0.33,0.469,0.494,0.991,0.494,1.569
		s-0.164,1.104-0.494,1.579c-0.332,0.475-0.779,0.881-1.342,1.218c-0.564,0.337-1.236,0.599-2.014,0.784
		C130.818,130.168,129.988,130.261,129.109,130.261z M129.109,124.811c-1.074,0-1.893,0.165-2.457,0.496
		c-0.564,0.33-0.846,0.716-0.846,1.155c0,0.427,0.281,0.798,0.846,1.115c0.564,0.316,1.383,0.475,2.457,0.475
		c1.031,0,1.854-0.158,2.467-0.475c0.611-0.317,0.918-0.688,0.918-1.115c0-0.439-0.311-0.825-0.93-1.155
		C130.945,124.976,130.127,124.811,129.109,124.811z M134.908,121.962h-2.084c-0.262,0-0.393-0.13-0.393-0.392v-10.899
		c0-0.179,0.041-0.289,0.125-0.33c0.082-0.041,0.186-0.063,0.309-0.063h2.064c0.178,0,0.285,0.038,0.32,0.114
		c0.033,0.075,0.051,0.168,0.051,0.278v10.879C135.301,121.825,135.17,121.962,134.908,121.962z"/>
</g>
</svg>
