<?xml version="1.0" encoding="utf-8"?>
<!-- Generator: Adobe Illustrator 16.0.0, SVG Export Plug-In . SVG Version: 6.00 Build 0)  -->
<!DOCTYPE svg PUBLIC "-//W3C//DTD SVG 1.1//EN" "http://www.w3.org/Graphics/SVG/1.1/DTD/svg11.dtd">
<svg version="1.1" id="Layer_1" xmlns="http://www.w3.org/2000/svg" xmlns:xlink="http://www.w3.org/1999/xlink" x="0px" y="0px"
	 width="200px" height="200px" viewBox="0 0 200 200" enable-background="new 0 0 200 200" xml:space="preserve">
<g>
	<path fill="#333333" d="M-264.781,247.772h-51.365c-5.763,0-5.763-20.867,0-20.867h51.365c2.867,0,16.136,5.161,16.149,10.351
		C-248.615,242.5-261.884,247.772-264.781,247.772z"/>
	<text transform="matrix(1 0 0 1 -299.7314 240.8633)" fill="#FFFFFF" font-family="'NanumGothicExtraBold'" font-size="12.215">1단계</text>
	<circle fill="#ECECEC" cx="-284.714" cy="346.04" r="80.416"/>
	<circle opacity="0.3" fill="#1D87C9" cx="-287.486" cy="330.648" r="9.326"/>
	<path opacity="0.3" fill="#1D87C9" d="M-278.451,338.737c0.194,0.459-0.018,0.988-0.479,1.183l-8.047,3.408
		c-0.459,0.194-0.988-0.019-1.182-0.479l0,0c-0.195-0.459,0.019-0.988,0.478-1.183l8.047-3.408
		C-279.173,338.063-278.645,338.276-278.451,338.737L-278.451,338.737z"/>
	<path opacity="0.3" fill="#1D87C9" d="M-349.768,375.579h47.603c0-23.29-10.792-30.186-17.841-32.213
		c4.804-2.247,8.14-7.109,8.14-12.764c0-7.786-6.313-14.101-14.1-14.101c-7.788,0-14.101,6.314-14.101,14.101
		c0,5.632,3.312,10.479,8.087,12.739C-349.766,348.376-349.768,375.579-349.768,375.579z"/>
	<path opacity="0.3" fill="#1D87C9" d="M-219.66,373.062c0-23.289-10.792-30.186-17.842-32.213c4.804-2.246,8.14-7.109,8.14-12.764
		c0-7.786-6.313-14.101-14.1-14.101c-7.786,0-14.101,6.314-14.101,14.101c0,5.633,3.313,10.48,8.086,12.738
		c-3.703,1.049-6.627,3.066-8.948,5.592h-17.953v0.002l-1.561-3.686c-0.948-2.24-9.066,1.195-8.116,3.438l9.406,22.213
		c0.865,2.039,3.079,3.072,5.161,2.531l3.04,7.184l1.184-0.504l-3.041-7.18c1.838-1.119,2.637-3.428,1.772-5.469l-4.575-10.803
		h9.785c-3.933,8.977-3.941,18.92-3.941,18.92H-219.66z"/>
	<text transform="matrix(1 0 0 1 -335.4063 351.9141)" fill="#333333" font-family="'NanumGothicExtraBold'" font-size="20.3584">사전 인터뷰</text>
</g>
<g>
	<path fill="#333333" d="M-75.528,244.453h-51.365c-5.763,0-5.763-20.867,0-20.867h51.365c2.867,0,16.136,5.161,16.149,10.35
		C-59.362,239.181-72.631,244.453-75.528,244.453z"/>
	<text transform="matrix(1 0 0 1 -110.5815 238.0762)" fill="#FFFFFF" font-family="'NanumGothicExtraBold'" font-size="12.2968">2단계</text>
	<circle fill="#ECECEC" cx="-95.297" cy="341.76" r="80.953"/>
	<path opacity="0.3" fill="#1D87C9" d="M-158.271,385.997h47.921c0-23.444-10.864-30.39-17.96-32.427
		c4.835-2.264,8.194-7.161,8.194-12.852c0-7.84-6.355-14.196-14.194-14.196c-7.838,0-14.194,6.356-14.194,14.196
		c0,5.67,3.333,10.55,8.14,12.823C-158.27,358.613-158.271,385.997-158.271,385.997z"/>
	<path opacity="0.3" fill="#1D87C9" d="M-71.451,354.12h47.923c0-23.446-10.864-30.39-17.961-32.429
		c4.835-2.263,8.193-7.158,8.193-12.85c0-7.838-6.356-14.195-14.193-14.195c-7.84,0-14.194,6.357-14.194,14.195
		c0,5.67,3.332,10.55,8.14,12.823C-71.449,326.734-71.451,354.12-71.451,354.12z"/>
	<path opacity="0.3" fill="#1D87C9" d="M-84.402,345.694c0,3.797-3.078,6.875-6.875,6.875h-17.652c-2.245,0-4.241-1.077-5.496-2.746
		c-0.334-0.444-5.452,1.289-5.672,0.769c-0.351-0.822,4.293-3.947,4.293-4.897v-1.751v-2.522c0-3.796,3.078-6.877,6.875-6.877
		h17.652c3.797,0,6.875,3.081,6.875,6.877V345.694z"/>
	<path opacity="0.3" fill="#1D87C9" d="M-109.76,307.76c0,4.827,3.913,8.74,8.738,8.74h22.432c2.856,0,5.392-1.371,6.987-3.49
		c0.426-0.567,6.929,1.637,7.207,0.975c0.444-1.045-5.454-5.018-5.454-6.225v-2.225v-3.205c0-4.826-3.913-8.738-8.74-8.738h-22.432
		c-4.825,0-8.738,3.912-8.738,8.738V307.76z"/>
	
		<text transform="matrix(1 0 0 1 -98.9575 309.0674)" opacity="0.3" fill="#FFFFFF" font-family="'NanumGothicExtraBold'" font-size="12.2968">1차</text>
	<text transform="matrix(1 0 0 1 -130.4038 348.6748)" fill="#333333" font-family="'NanumGothicExtraBold'" font-size="20.4946">1차미팅</text>
</g>
<g>
	<path fill="#333333" d="M113.22,244.506H61.724c-5.776,0-5.776-20.92,0-20.92h51.496c2.874,0,16.176,5.174,16.192,10.376
		C129.428,239.22,116.124,244.506,113.22,244.506z"/>
	<text transform="matrix(1 0 0 1 78.4307 238.0771)" fill="#FFFFFF" font-family="'NanumGothicExtraBold'" font-size="12.2458">3단계</text>
	<circle fill="#ECECEC" cx="93.652" cy="341.592" r="80.618"/>
	<path opacity="0.3" fill="#1D87C9" d="M32.881,385.908h47.723c0-23.348-10.817-30.264-17.886-32.293
		c4.815-2.254,8.16-7.132,8.16-12.798c0-7.807-6.328-14.137-14.136-14.137c-7.805,0-14.136,6.33-14.136,14.137
		c0,5.646,3.321,10.506,8.106,12.771C32.885,358.638,32.881,385.908,32.881,385.908z"/>
	<path opacity="0.3" fill="#1D87C9" d="M119.343,354.163h47.724c0-23.35-10.819-30.263-17.886-32.294
		c4.814-2.254,8.159-7.129,8.159-12.796c0-7.807-6.33-14.136-14.135-14.136c-7.808,0-14.136,6.329-14.136,14.136
		c0,5.646,3.318,10.506,8.106,12.771C119.345,326.893,119.343,354.163,119.343,354.163z"/>
	<path opacity="0.3" fill="#1D87C9" d="M106.445,345.772c0,3.781-3.065,6.847-6.847,6.847H82.02c-2.236,0-4.224-1.072-5.474-2.734
		c-0.332-0.443-5.429,1.283-5.647,0.765c-0.35-0.819,4.274-3.931,4.274-4.877v-1.744v-2.512c0-3.78,3.065-6.848,6.847-6.848h17.579
		c3.781,0,6.847,3.067,6.847,6.848V345.772z"/>
	<path opacity="0.3" fill="#1D87C9" d="M81.192,307.996c0,4.807,3.896,8.703,8.702,8.703h22.339c2.844,0,5.369-1.365,6.958-3.476
		c0.425-0.565,6.9,1.63,7.177,0.971c0.442-1.042-5.431-4.997-5.431-6.198v-2.217v-3.191c0-4.807-3.896-8.703-8.704-8.703H89.895
		c-4.807,0-8.702,3.896-8.702,8.703V307.996z"/>
	
		<text transform="matrix(1 0 0 1 91.9502 309.2959)" opacity="0.3" fill="#FFFFFF" font-family="'NanumGothicExtraBold'" font-size="12.2458">2차</text>
	<text transform="matrix(1 0 0 1 58.6904 348.2295)" fill="#333333" font-family="'NanumGothicExtraBold'" font-size="20.4097">2차미팅</text>
</g>
<path fill="#333333" d="M120.173,22.493H68.91c-5.75,0-5.75-20.826,0-20.826h51.263c2.86,0,16.104,5.15,16.119,10.33
	C136.308,17.231,123.062,22.493,120.173,22.493z"/>
<g>
	<path fill="#FFFFFF" d="M91.168,14.527v1.78c0,0.138-0.015,0.226-0.043,0.262c-0.028,0.036-0.111,0.055-0.25,0.055h-1.012
		c-0.138,0-0.222-0.022-0.25-0.067c-0.028-0.045-0.042-0.128-0.042-0.25v-1.78h-3.719c-0.113,0-0.188-0.014-0.226-0.043
		c-0.036-0.028-0.055-0.095-0.055-0.201v-0.865c0-0.089,0.021-0.165,0.062-0.226c0.04-0.061,0.081-0.124,0.121-0.189
		c0.618-0.951,1.231-1.912,1.841-2.883c0.61-0.971,1.239-1.92,1.89-2.847c0.041-0.065,0.084-0.107,0.128-0.128
		c0.045-0.02,0.108-0.03,0.189-0.03h1.121c0.146,0,0.224,0.026,0.232,0.079c0.008,0.053,0.012,0.12,0.012,0.201v5.632h1
		c0.121,0,0.196,0.012,0.226,0.037c0.028,0.024,0.042,0.105,0.042,0.244v0.951c0,0.139-0.018,0.218-0.055,0.238
		c-0.036,0.021-0.107,0.031-0.213,0.031H91.168z M87.401,13.028h2.17V9.675L87.401,13.028z"/>
	<path fill="#FFFFFF" d="M99.885,12.321c-0.342,0.073-0.74,0.14-1.195,0.201c-0.455,0.061-0.922,0.112-1.401,0.152
		s-0.949,0.067-1.408,0.079s-0.863,0.01-1.213-0.006c-0.293-0.008-0.511-0.063-0.652-0.165c-0.143-0.101-0.214-0.323-0.214-0.664
		V7.627c0-0.162,0.013-0.294,0.037-0.396S93.907,7.052,93.972,7c0.065-0.053,0.15-0.087,0.256-0.104
		c0.105-0.016,0.244-0.024,0.415-0.024h4.218c0.162,0,0.244,0.069,0.244,0.207v0.963c0,0.139-0.082,0.208-0.244,0.208h-3.194
		c-0.081,0-0.13,0.016-0.146,0.049c-0.017,0.032-0.024,0.073-0.024,0.122v2.792c0,0.13,0.064,0.195,0.194,0.195
		c0.594,0,1.224-0.024,1.89-0.073c0.667-0.049,1.35-0.134,2.049-0.256c0.121-0.024,0.198-0.02,0.231,0.012
		c0.032,0.033,0.057,0.082,0.073,0.146l0.134,0.78c0.017,0.114,0.012,0.189-0.013,0.226S99.974,12.304,99.885,12.321z
		 M102.542,17.648h-6.644c-0.35,0-0.579-0.061-0.689-0.183c-0.109-0.122-0.164-0.354-0.164-0.695v-2.67
		c0-0.171,0.085-0.256,0.256-0.256h1.194c0.163,0,0.244,0.085,0.244,0.256v1.975c0,0.122,0.064,0.183,0.195,0.183h5.607
		c0.065,0,0.124,0.014,0.177,0.042s0.079,0.087,0.079,0.177v0.951c0,0.114-0.026,0.179-0.079,0.195S102.607,17.648,102.542,17.648z
		 M103.81,11.016h-1.512v3.109c0,0.089-0.014,0.15-0.042,0.183c-0.029,0.033-0.088,0.049-0.177,0.049h-1.231
		c-0.09,0-0.152-0.016-0.189-0.049c-0.036-0.032-0.055-0.093-0.055-0.183V6.384c0-0.154,0.081-0.232,0.244-0.232h1.231
		c0.146,0,0.219,0.078,0.219,0.232v3.243h1.512c0.065,0,0.122,0.008,0.171,0.024s0.073,0.077,0.073,0.183v0.963
		c0,0.089-0.022,0.148-0.067,0.177S103.883,11.016,103.81,11.016z"/>
	<path fill="#FFFFFF" d="M109.356,13.137c-0.081,0-0.143-0.014-0.183-0.042c-0.041-0.028-0.062-0.1-0.062-0.213v-0.914
		c0-0.089,0.022-0.146,0.067-0.171s0.104-0.037,0.177-0.037h1.341v-1.573h-1.256c-0.301,0.967-0.788,1.872-1.463,2.713
		c-0.675,0.841-1.503,1.57-2.486,2.188c-0.098,0.065-0.171,0.091-0.22,0.079s-0.102-0.055-0.158-0.128l-0.562-0.78
		c-0.064-0.089-0.1-0.16-0.104-0.213c-0.004-0.053,0.039-0.107,0.128-0.165c0.521-0.341,0.985-0.719,1.396-1.134
		c0.41-0.414,0.764-0.845,1.061-1.292c0.296-0.447,0.532-0.9,0.707-1.359c0.175-0.459,0.282-0.896,0.323-1.311
		c0.024-0.211-0.058-0.317-0.244-0.317h-2.499c-0.163,0-0.244-0.077-0.244-0.231V7.334c0-0.163,0.081-0.244,0.244-0.244h3.511
		c0.382,0,0.634,0.071,0.756,0.213s0.183,0.396,0.183,0.762c0,0.13-0.004,0.256-0.012,0.378c-0.009,0.122-0.021,0.244-0.037,0.366
		h0.976V6.579c0-0.089,0.019-0.15,0.055-0.183c0.037-0.033,0.1-0.049,0.189-0.049h1.121c0.154,0,0.231,0.077,0.231,0.231v10.643
		c0,0.098-0.016,0.161-0.049,0.189c-0.032,0.028-0.093,0.043-0.183,0.043h-1.121c-0.09,0-0.152-0.012-0.189-0.037
		c-0.036-0.024-0.055-0.09-0.055-0.195v-4.084H109.356z M114.525,17.868h-1.207c-0.09,0-0.15-0.017-0.183-0.049
		c-0.033-0.033-0.049-0.094-0.049-0.183V6.384c0-0.089,0.019-0.15,0.055-0.183c0.036-0.032,0.1-0.049,0.188-0.049h1.195
		c0.089,0,0.15,0.017,0.183,0.049c0.032,0.033,0.049,0.094,0.049,0.183v11.252c0,0.089-0.017,0.15-0.049,0.183
		C114.676,17.851,114.614,17.868,114.525,17.868z"/>
</g>
<circle fill="#ECECEC" cx="100.445" cy="120.077" r="80.255"/>
<polygon opacity="0.3" fill="#1D87C9" points="141.594,109.058 114.308,95.851 114.308,104.093 32.012,104.093 32.012,140.438 
	114.308,140.438 114.308,148.681 141.594,135.474 168.877,122.269 "/>
<g>
	<path fill="#333333" d="M39.467,114.207c-0.122,0.678-0.305,1.368-0.549,2.072c-0.244,0.705-0.548,1.423-0.914,2.154
		c0.162,0.338,0.358,0.681,0.589,1.025c0.23,0.346,0.474,0.681,0.731,1.006s0.525,0.63,0.803,0.914
		c0.277,0.285,0.552,0.528,0.823,0.731c0.122,0.096,0.186,0.19,0.193,0.285c0.006,0.095-0.058,0.224-0.193,0.386L39.975,124
		c-0.122,0.163-0.227,0.241-0.315,0.234c-0.088-0.007-0.207-0.071-0.355-0.193c-0.217-0.176-0.447-0.386-0.691-0.63
		s-0.488-0.508-0.731-0.792c-0.244-0.285-0.481-0.579-0.711-0.885c-0.23-0.305-0.434-0.599-0.61-0.884
		c-0.542,0.772-1.145,1.504-1.808,2.194c-0.664,0.691-1.382,1.321-2.154,1.89c-0.176,0.122-0.302,0.177-0.376,0.163
		c-0.075-0.014-0.172-0.095-0.294-0.244l-1.077-1.3c-0.189-0.217-0.142-0.44,0.143-0.671c0.745-0.582,1.418-1.216,2.021-1.899
		c0.603-0.685,1.134-1.385,1.595-2.104c0.46-0.718,0.846-1.436,1.158-2.153s0.556-1.415,0.731-2.093
		c0.027-0.108,0.034-0.21,0.021-0.305c-0.014-0.095-0.122-0.143-0.325-0.143h-3.86c-0.19,0-0.298-0.037-0.325-0.111
		s-0.041-0.18-0.041-0.315v-1.442c0-0.148,0.023-0.257,0.071-0.325c0.047-0.067,0.152-0.102,0.315-0.102h5.628
		c0.609,0,1.029,0.105,1.26,0.315c0.23,0.21,0.345,0.552,0.345,1.025c0,0.136-0.014,0.295-0.041,0.478
		C39.521,113.893,39.494,114.059,39.467,114.207z M48.245,129.75h-2.052c-0.149,0-0.248-0.023-0.294-0.071
		c-0.048-0.047-0.071-0.146-0.071-0.294v-9.509h-1.524v8.757c0,0.176-0.024,0.281-0.071,0.314c-0.047,0.034-0.146,0.052-0.294,0.052
		h-1.89c-0.149,0-0.254-0.018-0.315-0.052c-0.061-0.033-0.091-0.139-0.091-0.314v-17.636c0-0.149,0.03-0.247,0.091-0.295
		c0.061-0.047,0.166-0.071,0.315-0.071h1.89c0.149,0,0.247,0.024,0.294,0.071c0.047,0.048,0.071,0.146,0.071,0.295v6.583h1.524
		v-6.949c0-0.148,0.027-0.247,0.081-0.294c0.054-0.048,0.156-0.071,0.305-0.071h2.032c0.149,0,0.247,0.023,0.294,0.071
		c0.047,0.047,0.071,0.146,0.071,0.294v18.754c0,0.148-0.024,0.247-0.071,0.294C48.492,129.727,48.394,129.75,48.245,129.75z"/>
	<path fill="#333333" d="M68.115,122.781h-7.314v6.421c0,0.271-0.136,0.406-0.406,0.406h-2.012c-0.271,0-0.406-0.136-0.406-0.406
		v-6.421h-7.314c-0.176,0-0.288-0.041-0.335-0.122s-0.071-0.196-0.071-0.346v-1.401c0-0.149,0.023-0.261,0.071-0.335
		s0.159-0.112,0.335-0.112h17.453c0.284,0,0.427,0.149,0.427,0.447v1.401C68.542,122.626,68.399,122.781,68.115,122.781z
		 M64.539,118.656h-10.2c-0.312,0-0.562-0.017-0.751-0.051c-0.19-0.033-0.339-0.102-0.447-0.203s-0.183-0.243-0.223-0.427
		c-0.041-0.183-0.061-0.43-0.061-0.741v-5.263c0-0.284,0.023-0.515,0.071-0.69s0.129-0.312,0.244-0.406
		c0.115-0.095,0.261-0.159,0.437-0.193c0.176-0.033,0.386-0.051,0.63-0.051h10.301c0.285,0,0.515,0.014,0.691,0.041
		c0.176,0.027,0.315,0.088,0.417,0.183s0.173,0.23,0.213,0.406c0.041,0.177,0.061,0.413,0.061,0.711v5.263
		c0,0.298-0.021,0.542-0.061,0.731s-0.112,0.335-0.213,0.437s-0.241,0.17-0.417,0.203C65.054,118.64,64.824,118.656,64.539,118.656z
		 M63.137,113.333c0-0.176-0.017-0.287-0.051-0.335c-0.034-0.047-0.132-0.071-0.294-0.071h-6.746c-0.176,0-0.288,0.021-0.335,0.062
		c-0.047,0.04-0.071,0.155-0.071,0.345v2.621c0,0.19,0.023,0.305,0.071,0.346s0.159,0.061,0.335,0.061h6.746
		c0.163,0,0.261-0.023,0.294-0.07c0.034-0.048,0.051-0.159,0.051-0.336V113.333z"/>
	<path fill="#333333" d="M71.854,120.363c-0.271,0.149-0.451,0.228-0.539,0.233c-0.088,0.008-0.18-0.063-0.274-0.213l-0.935-1.26
		c-0.149-0.203-0.21-0.346-0.183-0.427c0.027-0.081,0.135-0.183,0.325-0.305c1.408-0.921,2.468-1.981,3.18-3.18
		c0.711-1.199,1.066-2.638,1.066-4.317c0-0.23,0.03-0.369,0.092-0.417c0.061-0.047,0.186-0.063,0.376-0.051l1.909,0.081
		c0.149,0.014,0.251,0.045,0.305,0.092c0.055,0.048,0.082,0.146,0.082,0.295c0,0.542-0.034,1.063-0.102,1.564
		c-0.068,0.501-0.163,0.988-0.285,1.463c0.203,0.446,0.464,0.877,0.782,1.29s0.661,0.792,1.026,1.138
		c0.366,0.346,0.738,0.66,1.117,0.944c0.38,0.285,0.731,0.516,1.057,0.691c0.189,0.108,0.281,0.213,0.274,0.314
		s-0.064,0.234-0.173,0.396l-0.751,1.219c-0.109,0.163-0.204,0.251-0.285,0.265s-0.217-0.034-0.406-0.143
		c-0.284-0.135-0.596-0.318-0.935-0.549c-0.339-0.229-0.681-0.49-1.026-0.782c-0.345-0.291-0.677-0.609-0.995-0.954
		c-0.318-0.346-0.606-0.708-0.863-1.088c-0.461,0.759-1.013,1.446-1.656,2.063C73.394,119.345,72.666,119.89,71.854,120.363z
		 M85.893,129.852H74.962c-0.299,0-0.539-0.023-0.722-0.07c-0.183-0.048-0.325-0.122-0.427-0.224s-0.169-0.237-0.203-0.406
		c-0.034-0.17-0.051-0.376-0.051-0.62v-2.723c0-0.257,0.017-0.468,0.051-0.63s0.102-0.295,0.203-0.396s0.24-0.173,0.417-0.213
		c0.176-0.041,0.413-0.062,0.711-0.062h7.863c0.135,0,0.203-0.074,0.203-0.223v-0.549c0-0.163-0.075-0.244-0.224-0.244h-8.858
		c-0.149,0-0.254-0.026-0.315-0.081c-0.061-0.054-0.091-0.162-0.091-0.325v-1.402c0-0.257,0.135-0.386,0.407-0.386h10.382
		c0.312,0,0.563,0.024,0.752,0.071c0.189,0.048,0.339,0.122,0.447,0.224s0.179,0.233,0.213,0.396
		c0.034,0.162,0.051,0.365,0.051,0.609v2.702c0,0.271-0.017,0.491-0.051,0.66c-0.034,0.17-0.102,0.302-0.203,0.396
		s-0.243,0.159-0.427,0.192c-0.183,0.034-0.43,0.051-0.741,0.051h-7.782c-0.148,0-0.224,0.068-0.224,0.204v0.629
		c0,0.149,0.082,0.224,0.244,0.224h9.285c0.149,0,0.254,0.021,0.315,0.062c0.061,0.04,0.091,0.148,0.091,0.325v1.401
		C86.279,129.717,86.15,129.852,85.893,129.852z M79.818,115.69c-0.122,0-0.217-0.027-0.284-0.081
		c-0.068-0.055-0.102-0.156-0.102-0.305v-1.504c0-0.189,0.037-0.302,0.111-0.335c0.074-0.034,0.166-0.051,0.274-0.051h3.19v-2.764
		c0-0.176,0.04-0.284,0.122-0.325c0.081-0.04,0.183-0.061,0.305-0.061h2.011c0.176,0,0.281,0.037,0.315,0.111
		c0.033,0.075,0.051,0.166,0.051,0.274v9.265c0,0.258-0.129,0.387-0.386,0.387h-2.032c-0.258,0-0.386-0.122-0.386-0.366v-4.246
		H79.818z"/>
	<path fill="#333333" d="M96.763,121.907c-0.136,0-0.237-0.023-0.305-0.07c-0.068-0.048-0.102-0.166-0.102-0.356v-1.523
		c0-0.148,0.037-0.244,0.111-0.284c0.074-0.041,0.173-0.062,0.295-0.062h2.234v-2.621h-2.093c-0.501,1.612-1.313,3.119-2.438,4.521
		c-1.125,1.401-2.506,2.617-4.146,3.646c-0.162,0.108-0.284,0.152-0.365,0.132c-0.081-0.02-0.17-0.091-0.265-0.213l-0.935-1.301
		c-0.108-0.148-0.166-0.267-0.172-0.355c-0.008-0.088,0.063-0.179,0.213-0.274c0.866-0.568,1.643-1.198,2.326-1.889
		c0.684-0.691,1.273-1.409,1.768-2.154c0.494-0.744,0.888-1.5,1.179-2.266c0.291-0.765,0.471-1.493,0.538-2.184
		c0.041-0.353-0.095-0.528-0.406-0.528h-4.165c-0.271,0-0.406-0.129-0.406-0.387v-1.503c0-0.271,0.136-0.406,0.406-0.406h5.852
		c0.637,0,1.057,0.118,1.26,0.355s0.305,0.66,0.305,1.27c0,0.217-0.007,0.427-0.021,0.63s-0.033,0.406-0.061,0.609h1.625v-3.718
		c0-0.149,0.031-0.251,0.092-0.305s0.166-0.081,0.315-0.081h1.869c0.258,0,0.387,0.129,0.387,0.386v17.737
		c0,0.163-0.027,0.268-0.082,0.315c-0.055,0.047-0.156,0.071-0.305,0.071h-1.869c-0.149,0-0.255-0.021-0.315-0.062
		c-0.061-0.04-0.092-0.149-0.092-0.325v-6.807H96.763z M105.377,129.791h-2.01c-0.15,0-0.252-0.027-0.305-0.081
		c-0.055-0.055-0.082-0.156-0.082-0.305v-18.754c0-0.148,0.031-0.25,0.092-0.305c0.061-0.054,0.166-0.081,0.314-0.081h1.99
		c0.15,0,0.252,0.027,0.305,0.081c0.055,0.055,0.082,0.156,0.082,0.305v18.754c0,0.148-0.027,0.25-0.082,0.305
		C105.629,129.764,105.527,129.791,105.377,129.791z"/>
	<path fill="#333333" d="M113.424,120.912c-0.732,0-1.402-0.122-2.012-0.366c-0.609-0.243-1.131-0.585-1.564-1.025
		s-0.771-0.955-1.016-1.545c-0.244-0.589-0.365-1.229-0.365-1.92c0-0.649,0.121-1.27,0.365-1.858
		c0.244-0.59,0.582-1.107,1.016-1.555s0.955-0.803,1.564-1.066c0.609-0.265,1.279-0.396,2.012-0.396
		c0.744,0,1.426,0.132,2.041,0.396c0.617,0.264,1.148,0.619,1.596,1.066s0.793,0.965,1.035,1.555
		c0.244,0.589,0.367,1.209,0.367,1.858c0,0.691-0.123,1.331-0.367,1.92c-0.242,0.59-0.588,1.104-1.035,1.545
		s-0.979,0.782-1.596,1.025C114.85,120.79,114.168,120.912,113.424,120.912z M123.604,129.425h-11.074
		c-0.285,0-0.518-0.023-0.701-0.07c-0.182-0.048-0.324-0.126-0.426-0.234s-0.174-0.257-0.213-0.446
		c-0.041-0.19-0.063-0.427-0.063-0.712v-4.53c0-0.285,0.137-0.427,0.406-0.427h1.992c0.283,0,0.426,0.142,0.426,0.427v3.373
		c0,0.203,0.102,0.305,0.305,0.305h9.348c0.107,0,0.205,0.023,0.293,0.07c0.088,0.048,0.133,0.146,0.133,0.295v1.585
		c0,0.189-0.045,0.298-0.133,0.325C123.809,129.411,123.711,129.425,123.604,129.425z M113.424,113.638
		c-0.664,0-1.207,0.234-1.625,0.701c-0.42,0.468-0.631,1.061-0.631,1.778s0.211,1.311,0.631,1.777
		c0.418,0.468,0.961,0.701,1.625,0.701c0.678,0,1.225-0.233,1.645-0.701c0.42-0.467,0.631-1.06,0.631-1.777
		s-0.211-1.311-0.631-1.778C114.648,113.872,114.102,113.638,113.424,113.638z M125.717,118.372h-2.52v5.182
		c0,0.148-0.025,0.25-0.072,0.305c-0.047,0.054-0.145,0.081-0.295,0.081h-2.051c-0.15,0-0.254-0.027-0.316-0.081
		c-0.061-0.055-0.09-0.156-0.09-0.305v-12.902c0-0.257,0.135-0.386,0.406-0.386h2.051c0.244,0,0.367,0.129,0.367,0.386v5.404h2.52
		c0.107,0,0.203,0.014,0.283,0.041c0.082,0.027,0.123,0.129,0.123,0.305v1.605c0,0.148-0.039,0.247-0.113,0.294
		C125.936,118.349,125.838,118.372,125.717,118.372z"/>
	<path fill="#333333" d="M134.777,120.363c-0.271,0.149-0.449,0.228-0.537,0.233c-0.09,0.008-0.18-0.063-0.275-0.213l-0.934-1.26
		c-0.15-0.203-0.211-0.346-0.184-0.427s0.135-0.183,0.324-0.305c1.41-0.921,2.469-1.981,3.18-3.18
		c0.713-1.199,1.068-2.638,1.068-4.317c0-0.23,0.029-0.369,0.09-0.417c0.063-0.047,0.188-0.063,0.377-0.051l1.91,0.081
		c0.148,0.014,0.25,0.045,0.305,0.092c0.053,0.048,0.08,0.146,0.08,0.295c0,0.894-0.094,1.761-0.283,2.601
		c0.203,0.461,0.463,0.9,0.781,1.32s0.668,0.813,1.047,1.179c0.379,0.365,0.762,0.694,1.148,0.985
		c0.385,0.291,0.748,0.532,1.086,0.722c0.189,0.108,0.281,0.213,0.275,0.314c-0.008,0.102-0.064,0.233-0.174,0.396l-0.752,1.219
		c-0.107,0.163-0.203,0.251-0.283,0.265c-0.082,0.014-0.217-0.034-0.406-0.143c-0.285-0.136-0.598-0.318-0.936-0.549
		c-0.338-0.229-0.68-0.49-1.025-0.782c-0.346-0.291-0.678-0.609-0.996-0.955c-0.318-0.345-0.605-0.707-0.863-1.087
		c-0.475,0.813-1.051,1.552-1.727,2.215C136.396,119.26,135.631,119.849,134.777,120.363z M148.736,129.852h-10.789
		c-0.299,0-0.539-0.023-0.721-0.07c-0.184-0.048-0.326-0.122-0.428-0.224s-0.168-0.237-0.203-0.406
		c-0.033-0.17-0.051-0.376-0.051-0.62v-2.662c0-0.257,0.018-0.467,0.051-0.63c0.035-0.162,0.102-0.294,0.203-0.396
		s0.24-0.173,0.418-0.214c0.176-0.04,0.412-0.061,0.711-0.061h7.721c0.135,0,0.203-0.074,0.203-0.224v-0.487
		c0-0.163-0.074-0.244-0.225-0.244h-8.715c-0.15,0-0.254-0.027-0.316-0.081c-0.061-0.054-0.092-0.163-0.092-0.325v-1.402
		c0-0.257,0.137-0.386,0.408-0.386h10.24c0.311,0,0.561,0.023,0.75,0.071s0.34,0.122,0.447,0.224
		c0.109,0.102,0.18,0.233,0.215,0.396c0.033,0.163,0.051,0.366,0.051,0.61v2.641c0,0.271-0.018,0.491-0.051,0.66
		c-0.035,0.17-0.102,0.302-0.203,0.396s-0.244,0.159-0.428,0.193c-0.184,0.033-0.43,0.051-0.742,0.051h-7.639
		c-0.148,0-0.225,0.067-0.225,0.203v0.568c0,0.149,0.082,0.224,0.244,0.224h9.145c0.148,0,0.254,0.021,0.314,0.062
		c0.061,0.04,0.092,0.148,0.092,0.325v1.401C149.123,129.717,148.994,129.852,148.736,129.852z M148.229,120.425h-2.053
		c-0.258,0-0.385-0.136-0.385-0.407v-9.366c0-0.148,0.025-0.25,0.08-0.305c0.055-0.054,0.156-0.081,0.305-0.081h2.053
		c0.148,0,0.246,0.027,0.295,0.081c0.047,0.055,0.07,0.156,0.07,0.305v9.387C148.594,120.296,148.473,120.425,148.229,120.425z"/>
	<path fill="#333333" d="M160.643,115.629h-8.311c-0.299,0-0.447-0.142-0.447-0.427v-1.279c0-0.285,0.148-0.427,0.447-0.427h8.311
		c0.285,0,0.426,0.142,0.426,0.427v1.3C161.068,115.494,160.928,115.629,160.643,115.629z M156.68,122.537
		c-0.609,0-1.16-0.088-1.656-0.264c-0.494-0.176-0.914-0.41-1.258-0.701c-0.346-0.291-0.613-0.63-0.803-1.016
		c-0.191-0.387-0.285-0.789-0.285-1.209s0.094-0.819,0.285-1.199c0.189-0.379,0.459-0.714,0.813-1.006
		c0.352-0.291,0.775-0.524,1.27-0.7s1.047-0.265,1.656-0.265s1.164,0.085,1.666,0.254c0.5,0.17,0.928,0.396,1.279,0.681
		s0.623,0.617,0.813,0.996s0.285,0.778,0.285,1.198c0,0.434-0.096,0.844-0.285,1.229s-0.461,0.729-0.813,1.026
		s-0.779,0.535-1.279,0.711C157.865,122.449,157.303,122.537,156.68,122.537z M158.977,112.805h-4.592
		c-0.123,0-0.227-0.023-0.314-0.07c-0.09-0.048-0.133-0.166-0.133-0.355v-1.301c0-0.176,0.043-0.291,0.133-0.346
		c0.088-0.054,0.191-0.081,0.314-0.081h4.592c0.283,0,0.426,0.149,0.426,0.447v1.26C159.402,112.656,159.26,112.805,158.977,112.805
		z M156.701,118.25c-0.488,0-0.84,0.122-1.057,0.366s-0.326,0.487-0.326,0.731c0,0.257,0.109,0.508,0.326,0.752
		c0.217,0.243,0.568,0.365,1.057,0.365c0.486,0,0.842-0.122,1.066-0.365c0.223-0.244,0.336-0.495,0.336-0.752
		s-0.113-0.505-0.336-0.742C157.543,118.369,157.188,118.25,156.701,118.25z M162.186,129.852c-1.043,0-1.977-0.084-2.803-0.254
		c-0.826-0.169-1.527-0.413-2.104-0.731s-1.02-0.697-1.33-1.138c-0.313-0.44-0.467-0.938-0.467-1.493
		c0-0.528,0.154-1.013,0.467-1.453c0.311-0.439,0.754-0.815,1.33-1.127s1.277-0.556,2.104-0.731s1.76-0.265,2.803-0.265
		c0.977,0,1.873,0.085,2.693,0.254c0.818,0.17,1.527,0.41,2.123,0.722s1.063,0.688,1.402,1.128c0.338,0.439,0.508,0.931,0.508,1.473
		c0,0.556-0.17,1.053-0.508,1.493c-0.34,0.44-0.807,0.819-1.402,1.138s-1.305,0.563-2.123,0.731
		C164.059,129.768,163.162,129.852,162.186,129.852z M162.186,124.833c-1.232,0-2.166,0.143-2.803,0.427
		c-0.637,0.285-0.955,0.63-0.955,1.036c0,0.393,0.322,0.722,0.965,0.985c0.643,0.265,1.574,0.396,2.793,0.396
		c0.502,0,0.982-0.021,1.443-0.061c0.461-0.041,0.863-0.112,1.209-0.214s0.619-0.243,0.822-0.427
		c0.203-0.183,0.305-0.409,0.305-0.681c0-0.406-0.342-0.751-1.025-1.036C164.256,124.976,163.338,124.833,162.186,124.833z
		 M168.363,122.313h-2.012c-0.258,0-0.387-0.135-0.387-0.406v-4.104h-1.422v3.515c0,0.162-0.023,0.268-0.07,0.314
		c-0.049,0.048-0.146,0.071-0.295,0.071h-1.93c-0.15,0-0.254-0.017-0.316-0.051c-0.061-0.033-0.09-0.146-0.09-0.335v-10.342
		c0-0.149,0.029-0.247,0.09-0.295c0.063-0.047,0.166-0.071,0.316-0.071h1.93c0.244,0,0.365,0.122,0.365,0.366v4.551h1.422v-4.876
		c0-0.148,0.031-0.25,0.092-0.305c0.061-0.054,0.166-0.081,0.314-0.081h1.992c0.148,0,0.25,0.027,0.305,0.081
		c0.055,0.055,0.082,0.156,0.082,0.305v11.256c0,0.149-0.027,0.254-0.082,0.315C168.613,122.283,168.512,122.313,168.363,122.313z"
		/>
</g>
<path fill="#333333" d="M527.508,238.293h-51.229c-5.747,0-5.747-20.813,0-20.813h51.229c2.859,0,16.093,5.147,16.109,10.323
	C543.633,233.034,530.397,238.293,527.508,238.293z"/>
<g>
	<path fill="#FFFFFF" d="M498.363,232.575c-0.301,0.275-0.662,0.479-1.084,0.608c-0.423,0.13-0.865,0.195-1.328,0.195
		c-0.146,0-0.311-0.011-0.493-0.03c-0.184-0.021-0.366-0.049-0.549-0.086c-0.183-0.036-0.357-0.079-0.523-0.128
		c-0.167-0.049-0.307-0.102-0.421-0.158c-0.064-0.032-0.107-0.061-0.128-0.085s-0.03-0.081-0.03-0.171v-1.145
		c0-0.098,0.019-0.159,0.055-0.184c0.037-0.024,0.096-0.02,0.177,0.013c0.122,0.049,0.264,0.096,0.427,0.14
		c0.162,0.045,0.333,0.088,0.512,0.128c0.179,0.041,0.361,0.073,0.548,0.098s0.361,0.037,0.524,0.037
		c0.479,0,0.871-0.143,1.175-0.427c0.305-0.284,0.457-0.67,0.457-1.157c0-0.455-0.124-0.829-0.371-1.121
		c-0.248-0.292-0.668-0.438-1.261-0.438c-0.236,0-0.498,0.026-0.786,0.079s-0.555,0.124-0.798,0.213
		c-0.073,0.033-0.146,0.06-0.22,0.079c-0.073,0.021-0.138,0.024-0.194,0.013c-0.058-0.013-0.102-0.049-0.135-0.109
		c-0.032-0.062-0.048-0.156-0.048-0.287l0.061-4.52c0-0.122,0.024-0.199,0.073-0.231s0.142-0.049,0.28-0.049h4.422
		c0.098,0,0.16,0.019,0.189,0.055c0.028,0.037,0.042,0.1,0.042,0.189v1.011c0,0.09-0.012,0.154-0.036,0.195
		c-0.024,0.04-0.09,0.061-0.195,0.061h-3.167l-0.049,1.986c0.138-0.033,0.282-0.056,0.433-0.067
		c0.149-0.012,0.294-0.019,0.432-0.019c0.415,0,0.803,0.063,1.164,0.189s0.676,0.309,0.944,0.548
		c0.268,0.239,0.479,0.536,0.633,0.89s0.231,0.757,0.231,1.212C499.325,231.142,499.005,231.966,498.363,232.575z"/>
	<path fill="#FFFFFF" d="M507.232,229.054c-0.341,0.073-0.739,0.141-1.194,0.201s-0.922,0.111-1.4,0.152
		c-0.479,0.041-0.948,0.067-1.407,0.079c-0.459,0.013-0.863,0.011-1.213-0.006c-0.292-0.008-0.51-0.063-0.651-0.165
		c-0.143-0.102-0.213-0.322-0.213-0.664v-4.288c0-0.162,0.012-0.294,0.036-0.396s0.069-0.179,0.134-0.231
		c0.065-0.053,0.15-0.088,0.256-0.104c0.105-0.017,0.244-0.024,0.415-0.024h4.215c0.162,0,0.243,0.068,0.243,0.207v0.962
		c0,0.139-0.081,0.207-0.243,0.207h-3.192c-0.081,0-0.13,0.017-0.146,0.049c-0.017,0.033-0.024,0.073-0.024,0.122v2.79
		c0,0.13,0.064,0.195,0.194,0.195c0.593,0,1.223-0.024,1.889-0.073s1.349-0.135,2.047-0.256c0.122-0.024,0.199-0.021,0.231,0.012
		s0.057,0.081,0.073,0.146l0.134,0.779c0.017,0.114,0.013,0.189-0.012,0.226S507.321,229.038,507.232,229.054z M509.889,234.378
		h-6.641c-0.349,0-0.578-0.062-0.688-0.183c-0.11-0.122-0.165-0.354-0.165-0.694v-2.668c0-0.171,0.086-0.256,0.256-0.256h1.194
		c0.162,0,0.243,0.085,0.243,0.256v1.974c0,0.121,0.065,0.183,0.195,0.183h5.604c0.064,0,0.123,0.014,0.176,0.042
		s0.08,0.088,0.08,0.177v0.95c0,0.114-0.027,0.179-0.08,0.195C510.012,234.369,509.953,234.378,509.889,234.378z M511.155,227.75
		h-1.511v3.107c0,0.089-0.015,0.149-0.043,0.183c-0.028,0.032-0.087,0.049-0.177,0.049h-1.23c-0.089,0-0.151-0.017-0.188-0.049
		c-0.036-0.033-0.055-0.094-0.055-0.183v-7.736c0-0.154,0.081-0.231,0.243-0.231h1.23c0.146,0,0.22,0.077,0.22,0.231v3.24h1.511
		c0.064,0,0.122,0.008,0.171,0.024s0.072,0.077,0.072,0.183v0.963c0,0.089-0.022,0.148-0.066,0.177
		C511.287,227.736,511.229,227.75,511.155,227.75z"/>
	<path fill="#FFFFFF" d="M516.697,229.87c-0.081,0-0.142-0.014-0.183-0.043c-0.04-0.028-0.061-0.099-0.061-0.213V228.7
		c0-0.089,0.022-0.146,0.067-0.17c0.044-0.024,0.104-0.037,0.176-0.037h1.341v-1.571h-1.255c-0.301,0.967-0.788,1.87-1.462,2.711
		c-0.675,0.841-1.503,1.569-2.485,2.187c-0.098,0.065-0.171,0.092-0.22,0.079c-0.049-0.012-0.102-0.055-0.158-0.128l-0.561-0.779
		c-0.065-0.09-0.1-0.16-0.104-0.214c-0.004-0.053,0.038-0.107,0.128-0.164c0.52-0.341,0.984-0.719,1.396-1.133
		c0.409-0.414,0.763-0.845,1.06-1.292c0.296-0.446,0.532-0.899,0.706-1.358c0.175-0.458,0.282-0.896,0.323-1.31
		c0.024-0.211-0.057-0.316-0.243-0.316h-2.498c-0.162,0-0.243-0.077-0.243-0.231v-0.901c0-0.163,0.081-0.244,0.243-0.244h3.509
		c0.382,0,0.634,0.071,0.755,0.214c0.122,0.142,0.184,0.396,0.184,0.761c0,0.13-0.005,0.256-0.013,0.378s-0.021,0.244-0.036,0.365
		h0.975v-2.229c0-0.089,0.018-0.15,0.055-0.183c0.036-0.032,0.1-0.049,0.188-0.049h1.121c0.154,0,0.231,0.077,0.231,0.231v10.636
		c0,0.098-0.017,0.16-0.049,0.189c-0.032,0.028-0.094,0.042-0.183,0.042h-1.121c-0.089,0-0.152-0.012-0.188-0.036
		c-0.037-0.024-0.055-0.09-0.055-0.195v-4.081H516.697z M521.863,234.597h-1.206c-0.09,0-0.15-0.016-0.183-0.048
		c-0.033-0.033-0.049-0.094-0.049-0.184v-11.244c0-0.09,0.019-0.15,0.055-0.183c0.036-0.033,0.1-0.049,0.188-0.049h1.194
		c0.089,0,0.15,0.016,0.183,0.049c0.032,0.032,0.049,0.093,0.049,0.183v11.244c0,0.09-0.017,0.15-0.049,0.184
		C522.014,234.581,521.952,234.597,521.863,234.597z"/>
</g>
<circle fill="#ECECEC" cx="507.792" cy="335.315" r="80.204"/>
<path opacity="0.3" fill="#1D87C9" d="M537.18,278.883c0,0-37.733-0.51-23.959,35.089l-36.896,58.833
	c0,0-10.776,11.954,1.573,19.317c0,0,9.183,7.058,17.064-8.207l31.778-60.971c0,0,32.785-0.215,29.114-27.74l-17.313,11.32
	l-11.675-9.853L537.18,278.883z"/>
<g>
	<path fill="#333333" d="M440.382,339.939c-0.108,0.136-0.229,0.183-0.365,0.142c-0.136-0.04-0.291-0.121-0.467-0.243
		c-0.23-0.162-0.497-0.379-0.802-0.649c-0.305-0.271-0.623-0.572-0.955-0.904c-0.331-0.331-0.659-0.683-0.984-1.056
		c-0.325-0.372-0.616-0.734-0.873-1.086c-0.69,0.866-1.462,1.688-2.314,2.467c-0.854,0.778-1.767,1.479-2.741,2.102
		c-0.122,0.081-0.221,0.115-0.295,0.102s-0.166-0.088-0.273-0.224l-0.955-1.279c-0.108-0.148-0.146-0.267-0.111-0.355
		c0.033-0.088,0.111-0.172,0.233-0.253c0.785-0.542,1.529-1.145,2.233-1.808s1.351-1.36,1.939-2.092
		c0.589-0.73,1.106-1.481,1.553-2.254c0.447-0.771,0.792-1.543,1.036-2.314c0.081-0.271-0.021-0.406-0.305-0.406h-4.935
		c-0.189,0-0.301-0.037-0.335-0.111c-0.033-0.074-0.051-0.18-0.051-0.314v-1.462c0-0.163,0.031-0.274,0.092-0.335
		c0.061-0.062,0.166-0.092,0.314-0.092h6.701c0.527,0,0.944,0.115,1.248,0.346c0.305,0.229,0.457,0.568,0.457,1.015
		c0,0.189-0.017,0.373-0.051,0.548c-0.034,0.177-0.071,0.346-0.111,0.508c-0.162,0.664-0.399,1.341-0.711,2.031
		c-0.312,0.689-0.684,1.388-1.116,2.091c0.257,0.406,0.551,0.799,0.883,1.178s0.673,0.741,1.025,1.086
		c0.352,0.346,0.704,0.664,1.056,0.955c0.353,0.291,0.67,0.552,0.955,0.781c0.229,0.176,0.223,0.406-0.021,0.69L440.382,339.939z
		 M445.032,345.482h-2.03c-0.149,0-0.251-0.023-0.305-0.071c-0.055-0.047-0.081-0.152-0.081-0.314v-18.701
		c0-0.148,0.026-0.25,0.081-0.304c0.054-0.055,0.155-0.082,0.305-0.082h2.03c0.148,0,0.25,0.027,0.305,0.082
		c0.054,0.054,0.081,0.155,0.081,0.304v18.701c0,0.162-0.027,0.268-0.081,0.314C445.282,345.459,445.181,345.482,445.032,345.482z"
		/>
	<path fill="#333333" d="M465.905,337.3h-17.422c-0.189,0-0.305-0.03-0.346-0.092c-0.04-0.061-0.061-0.172-0.061-0.335v-1.462
		c0-0.148,0.027-0.254,0.081-0.314s0.163-0.092,0.325-0.092h7.249v-2.07c0-0.149,0.026-0.251,0.081-0.305
		c0.054-0.055,0.162-0.082,0.325-0.082h1.989c0.163,0,0.271,0.027,0.325,0.082c0.054,0.054,0.081,0.155,0.081,0.305v2.07h7.371
		c0.121,0,0.223,0.027,0.304,0.082c0.082,0.054,0.122,0.162,0.122,0.324v1.462C466.331,337.157,466.189,337.3,465.905,337.3z
		 M450.859,333.726c-0.203,0.041-0.343,0.034-0.417-0.02c-0.074-0.055-0.146-0.163-0.213-0.325l-0.609-1.34
		c-0.04-0.108-0.044-0.206-0.01-0.295c0.033-0.088,0.125-0.152,0.274-0.192c1.84-0.528,3.252-1.198,4.233-2.011
		c0.981-0.812,1.546-1.86,1.695-3.147c0.014-0.188,0.047-0.304,0.102-0.345c0.054-0.041,0.176-0.054,0.365-0.041l1.767,0.082
		c0.189,0.014,0.314,0.047,0.376,0.102c0.061,0.054,0.084,0.162,0.07,0.324c0,0.258-0.02,0.508-0.061,0.752
		c0.244,0.487,0.589,0.947,1.035,1.38c0.447,0.434,0.944,0.826,1.493,1.178c0.548,0.353,1.13,0.657,1.746,0.914
		c0.615,0.257,1.222,0.46,1.817,0.609c0.189,0.04,0.287,0.108,0.294,0.203s-0.023,0.23-0.091,0.406l-0.65,1.38
		c-0.054,0.109-0.108,0.18-0.162,0.214c-0.055,0.033-0.176,0.037-0.365,0.01c-0.501-0.081-1.036-0.229-1.604-0.446
		s-1.134-0.48-1.695-0.792s-1.094-0.667-1.594-1.066c-0.501-0.399-0.935-0.829-1.3-1.289c-0.663,0.921-1.554,1.699-2.67,2.335
		C453.569,332.941,452.294,333.415,450.859,333.726z M463.164,345.442h-1.99c-0.298,0-0.446-0.136-0.446-0.406v-3.757
		c0-0.203-0.096-0.305-0.284-0.305h-9.544c-0.108,0-0.203-0.021-0.284-0.061c-0.081-0.041-0.122-0.136-0.122-0.284v-1.584
		c0-0.189,0.041-0.301,0.122-0.335s0.176-0.051,0.284-0.051h11.229c0.298,0,0.538,0.023,0.721,0.071
		c0.184,0.047,0.325,0.132,0.427,0.254c0.102,0.121,0.173,0.28,0.213,0.477c0.041,0.196,0.062,0.437,0.062,0.721v4.854
		C463.55,345.307,463.421,345.442,463.164,345.442z"/>
	<path fill="#333333" d="M469.337,337.401c-0.23,0.108-0.39,0.142-0.478,0.102c-0.088-0.041-0.166-0.122-0.233-0.244l-0.771-1.4
		c-0.136-0.244-0.048-0.434,0.264-0.569c0.69-0.324,1.347-0.71,1.97-1.157c0.623-0.446,1.185-0.906,1.686-1.381
		c0.501-0.474,0.938-0.954,1.31-1.441s0.66-0.934,0.863-1.34c0.121-0.23,0.172-0.393,0.152-0.487
		c-0.021-0.095-0.14-0.143-0.355-0.143h-4.487c-0.19,0-0.302-0.037-0.335-0.111c-0.034-0.074-0.051-0.18-0.051-0.314v-1.482
		c0-0.284,0.135-0.427,0.405-0.427h6.701c0.813,0,1.306,0.196,1.482,0.589c0.176,0.393,0.148,0.935-0.081,1.625
		c-0.366,1.002-0.921,2.023-1.665,3.065c0.527,0.528,1.109,0.999,1.746,1.411c0.636,0.413,1.197,0.755,1.685,1.025
		c0.217,0.122,0.265,0.284,0.143,0.487l-0.934,1.523c-0.122,0.203-0.305,0.243-0.549,0.121c-0.203-0.107-0.453-0.257-0.751-0.446
		s-0.616-0.402-0.954-0.64c-0.339-0.236-0.681-0.497-1.025-0.781c-0.346-0.285-0.667-0.569-0.965-0.854
		c-0.663,0.664-1.395,1.272-2.193,1.828C471.116,336.515,470.257,336.995,469.337,337.401z M483.226,345.442h-2.011
		c-0.284,0-0.426-0.136-0.426-0.406v-4.224c0-0.203-0.102-0.305-0.305-0.305h-9.036c-0.108,0-0.199-0.021-0.273-0.061
		c-0.075-0.041-0.112-0.136-0.112-0.284v-1.584c0-0.189,0.037-0.302,0.112-0.335c0.074-0.034,0.165-0.051,0.273-0.051h10.721
		c0.298,0,0.542,0.023,0.731,0.071c0.189,0.047,0.335,0.132,0.437,0.253c0.102,0.122,0.173,0.281,0.213,0.478
		c0.041,0.196,0.062,0.437,0.062,0.721v5.32C483.611,345.307,483.482,345.442,483.226,345.442z M478.129,332.731
		c-0.271,0-0.406-0.136-0.406-0.406v-1.503c0-0.189,0.037-0.301,0.111-0.335c0.074-0.033,0.173-0.051,0.295-0.051h2.68v-4.041
		c0-0.176,0.037-0.284,0.112-0.324c0.074-0.041,0.172-0.062,0.294-0.062h2.051c0.176,0,0.277,0.038,0.305,0.112
		s0.041,0.166,0.041,0.273v10.315c0,0.149-0.027,0.251-0.081,0.305c-0.055,0.054-0.156,0.081-0.305,0.081h-2.031
		c-0.148,0-0.25-0.023-0.304-0.071c-0.055-0.047-0.082-0.146-0.082-0.294v-4H478.129z"/>
	<path fill="#333333" d="M492.24,336.69c-0.731,0-1.401-0.122-2.011-0.365c-0.608-0.244-1.137-0.586-1.583-1.025
		c-0.447-0.439-0.792-0.954-1.036-1.543c-0.243-0.589-0.365-1.229-0.365-1.919c0-0.65,0.122-1.27,0.365-1.858
		c0.244-0.589,0.589-1.106,1.036-1.553c0.446-0.447,0.975-0.803,1.583-1.066c0.609-0.264,1.279-0.396,2.011-0.396
		c0.744,0,1.428,0.132,2.051,0.396c0.622,0.264,1.16,0.619,1.614,1.066c0.453,0.446,0.805,0.964,1.056,1.553
		c0.25,0.589,0.376,1.208,0.376,1.858c0,0.69-0.126,1.33-0.376,1.919c-0.251,0.589-0.603,1.104-1.056,1.543
		c-0.454,0.439-0.992,0.781-1.614,1.025C493.668,336.568,492.984,336.69,492.24,336.69z M492.24,329.421
		c-0.325,0-0.627,0.062-0.904,0.184c-0.277,0.121-0.521,0.294-0.73,0.518s-0.372,0.487-0.487,0.792s-0.173,0.633-0.173,0.984
		c0,0.353,0.058,0.681,0.173,0.985c0.115,0.304,0.277,0.568,0.487,0.791c0.21,0.224,0.453,0.396,0.73,0.519
		c0.277,0.121,0.579,0.183,0.904,0.183c0.677,0,1.235-0.233,1.675-0.701c0.439-0.467,0.66-1.059,0.66-1.776
		c0-0.717-0.221-1.31-0.66-1.776S492.917,329.421,492.24,329.421z M502.697,345.157h-10.66c-0.298,0-0.538-0.023-0.721-0.07
		c-0.183-0.048-0.329-0.132-0.437-0.254c-0.108-0.122-0.183-0.277-0.224-0.467c-0.041-0.19-0.061-0.427-0.061-0.711v-4.589
		c0-0.284,0.135-0.427,0.405-0.427h2.011c0.271,0,0.406,0.143,0.406,0.427v3.451c0,0.203,0.107,0.305,0.324,0.305h8.955
		c0.108,0,0.203,0.023,0.284,0.071s0.122,0.146,0.122,0.295v1.604c0,0.189-0.041,0.298-0.122,0.325
		C502.9,345.144,502.806,345.157,502.697,345.157z M502.129,339.777h-2.051c-0.149,0-0.251-0.031-0.305-0.092
		c-0.055-0.061-0.082-0.166-0.082-0.314v-12.976c0-0.257,0.129-0.386,0.387-0.386h2.051c0.243,0,0.365,0.129,0.365,0.386v12.995
		c0,0.149-0.024,0.251-0.071,0.305C502.375,339.75,502.277,339.777,502.129,339.777z"/>
	<path fill="#333333" d="M528.869,342.173h-17.441c-0.176,0-0.288-0.041-0.335-0.122c-0.048-0.081-0.071-0.183-0.071-0.305v-1.462
		c0-0.148,0.023-0.257,0.071-0.324c0.047-0.068,0.159-0.102,0.335-0.102h7.31v-3.554h-3.695c-0.312,0-0.562-0.017-0.751-0.051
		c-0.19-0.033-0.339-0.102-0.447-0.203s-0.183-0.247-0.224-0.437c-0.04-0.189-0.061-0.433-0.061-0.73v-6.396
		c0-0.298,0.023-0.534,0.071-0.711c0.047-0.176,0.128-0.311,0.243-0.406c0.115-0.094,0.261-0.158,0.437-0.192
		c0.176-0.033,0.386-0.051,0.63-0.051h10.295c0.284,0,0.514,0.014,0.69,0.041c0.176,0.027,0.314,0.088,0.416,0.183
		s0.172,0.233,0.213,0.416s0.061,0.423,0.061,0.721v6.396c0,0.298-0.02,0.538-0.061,0.721s-0.111,0.324-0.213,0.426
		s-0.24,0.173-0.416,0.214c-0.177,0.04-0.406,0.061-0.69,0.061h-3.676v3.554h7.31c0.284,0,0.427,0.142,0.427,0.426v1.462
		C529.296,342.03,529.153,342.173,528.869,342.173z M523.834,329.827c0-0.176-0.018-0.287-0.051-0.335
		c-0.034-0.047-0.132-0.071-0.295-0.071h-6.741c-0.176,0-0.287,0.021-0.335,0.062c-0.047,0.04-0.07,0.155-0.07,0.345v3.777
		c0,0.189,0.023,0.305,0.07,0.345c0.048,0.041,0.159,0.062,0.335,0.062h6.741c0.163,0,0.261-0.027,0.295-0.082
		c0.033-0.054,0.051-0.162,0.051-0.324V329.827z"/>
	<path fill="#333333" d="M542.413,339.229c-0.758,0.149-1.566,0.271-2.427,0.365c-0.859,0.096-1.702,0.166-2.527,0.214
		c-0.826,0.047-1.598,0.074-2.314,0.081c-0.718,0.007-1.313-0.003-1.787-0.03c-0.568-0.027-0.968-0.152-1.198-0.376
		s-0.345-0.599-0.345-1.127v-10.7c0-0.285,0.128-0.427,0.386-0.427h2.01c0.284,0,0.427,0.142,0.427,0.427v9.441
		c0,0.136,0.021,0.227,0.061,0.274c0.041,0.047,0.143,0.078,0.305,0.091c0.419,0.027,0.931,0.034,1.533,0.021
		c0.602-0.014,1.231-0.047,1.888-0.102c0.657-0.054,1.3-0.118,1.93-0.192c0.629-0.075,1.181-0.159,1.654-0.254
		c0.163-0.027,0.271-0.018,0.325,0.03c0.054,0.048,0.088,0.104,0.102,0.173l0.284,1.664
		C542.785,339.032,542.684,339.175,542.413,339.229z M546.149,345.482h-2.03c-0.149,0-0.251-0.023-0.305-0.071
		c-0.055-0.047-0.081-0.152-0.081-0.314v-18.701c0-0.148,0.026-0.25,0.081-0.304c0.054-0.055,0.155-0.082,0.305-0.082h2.03
		c0.148,0,0.25,0.027,0.305,0.082c0.054,0.054,0.081,0.155,0.081,0.304v18.701c0,0.162-0.027,0.268-0.081,0.314
		C546.399,345.459,546.298,345.482,546.149,345.482z"/>
	<path fill="#333333" d="M558.108,334.863c-0.785,0.054-1.598,0.091-2.437,0.111c-0.84,0.021-1.665,0.038-2.478,0.051v2.721
		c0,0.244,0.122,0.366,0.365,0.366c0.907,0.027,1.93,0.003,3.066-0.071s2.247-0.206,3.33-0.396c0.148-0.026,0.25-0.017,0.305,0.031
		c0.054,0.047,0.095,0.125,0.122,0.233l0.243,1.481c0.027,0.149,0.014,0.251-0.041,0.305c-0.054,0.055-0.155,0.102-0.304,0.143
		c-0.569,0.136-1.223,0.251-1.96,0.345c-0.738,0.096-1.492,0.17-2.264,0.224c-0.771,0.055-1.526,0.085-2.265,0.092
		c-0.737,0.007-1.397-0.004-1.979-0.031c-0.487-0.013-0.85-0.102-1.086-0.264c-0.237-0.162-0.355-0.527-0.355-1.097v-10.355
		c0-0.271,0.021-0.49,0.061-0.659c0.041-0.17,0.112-0.302,0.214-0.396s0.243-0.159,0.426-0.192c0.183-0.034,0.417-0.051,0.701-0.051
		h6.903c0.148,0,0.254,0.023,0.314,0.07c0.062,0.048,0.092,0.146,0.092,0.295v1.604c0,0.149-0.03,0.244-0.092,0.285
		c-0.061,0.04-0.166,0.061-0.314,0.061h-5.198c-0.136,0-0.217,0.027-0.243,0.081c-0.027,0.055-0.041,0.122-0.041,0.203v2.681
		c0.839,0,1.668-0.007,2.487-0.021s1.587-0.041,2.305-0.081c0.298-0.014,0.447,0.088,0.447,0.305v1.522
		C558.434,334.714,558.324,334.85,558.108,334.863z M565.58,345.482h-2.07c-0.149,0-0.251-0.023-0.305-0.071
		c-0.055-0.047-0.082-0.152-0.082-0.314v-10.314h-2.761c-0.136,0-0.237-0.023-0.305-0.071c-0.068-0.048-0.102-0.146-0.102-0.295
		v-1.563c0-0.148,0.033-0.25,0.102-0.305c0.067-0.054,0.169-0.081,0.305-0.081h2.761v-6.071c0-0.148,0.027-0.25,0.082-0.304
		c0.054-0.055,0.155-0.082,0.305-0.082h2.07c0.149,0,0.247,0.027,0.295,0.082c0.047,0.054,0.071,0.155,0.071,0.304v18.701
		c0,0.162-0.024,0.268-0.071,0.314C565.827,345.459,565.729,345.482,565.58,345.482z"/>
	<path fill="#333333" d="M580.14,336.305c-0.609,0.122-1.272,0.23-1.99,0.325s-1.459,0.169-2.224,0.223
		c-0.765,0.055-1.529,0.092-2.294,0.112s-1.5,0.017-2.203-0.011c-0.596-0.013-0.992-0.121-1.188-0.324s-0.294-0.562-0.294-1.076
		v-3.676c0-0.433,0.088-0.728,0.264-0.883s0.48-0.233,0.914-0.233h4.427c0.121,0,0.195-0.017,0.223-0.051s0.041-0.112,0.041-0.233
		v-1.097c0-0.122-0.014-0.199-0.041-0.233s-0.102-0.051-0.223-0.051h-5.117c-0.271,0-0.406-0.129-0.406-0.386v-1.523
		c0-0.148,0.03-0.246,0.092-0.294c0.061-0.048,0.165-0.071,0.314-0.071h6.802c0.298,0,0.538,0.023,0.722,0.071
		c0.183,0.048,0.324,0.125,0.426,0.233s0.169,0.251,0.203,0.427s0.051,0.399,0.051,0.67v3.249c0,0.568-0.108,0.947-0.325,1.137
		c-0.216,0.189-0.568,0.284-1.056,0.284h-4.264c-0.176,0-0.264,0.088-0.264,0.264v1.279c0,0.163,0.102,0.251,0.304,0.264
		c1.205,0.027,2.376-0.006,3.513-0.101c1.138-0.095,2.247-0.237,3.33-0.427c0.149-0.027,0.24-0.017,0.274,0.03
		c0.034,0.048,0.064,0.125,0.092,0.233l0.223,1.462c0.027,0.149,0.018,0.247-0.03,0.295
		C580.386,336.24,580.288,336.277,580.14,336.305z M578.454,345.665c-0.921,0-1.757-0.088-2.508-0.264s-1.397-0.43-1.939-0.762
		c-0.541-0.332-0.957-0.73-1.248-1.197c-0.292-0.468-0.437-0.992-0.437-1.574c0-0.541,0.145-1.042,0.437-1.503
		c0.291-0.46,0.707-0.855,1.248-1.188c0.542-0.331,1.188-0.589,1.939-0.771s1.587-0.274,2.508-0.274
		c0.866,0,1.682,0.089,2.446,0.265s1.425,0.426,1.98,0.751c0.555,0.325,0.994,0.718,1.319,1.178s0.487,0.975,0.487,1.543
		s-0.162,1.086-0.487,1.554c-0.325,0.467-0.765,0.866-1.319,1.197c-0.556,0.332-1.216,0.589-1.98,0.772
		C580.136,345.574,579.32,345.665,578.454,345.665z M578.454,340.305c-1.056,0-1.861,0.162-2.416,0.487
		c-0.556,0.325-0.833,0.704-0.833,1.137c0,0.42,0.277,0.785,0.833,1.097c0.555,0.312,1.36,0.467,2.416,0.467
		c1.016,0,1.824-0.155,2.427-0.467c0.602-0.312,0.903-0.677,0.903-1.097c0-0.433-0.305-0.812-0.914-1.137
		S579.456,340.305,578.454,340.305z M584.14,337.665h-2.03c-0.258,0-0.387-0.128-0.387-0.386v-10.884
		c0-0.176,0.041-0.284,0.122-0.324c0.081-0.041,0.183-0.062,0.305-0.062h2.011c0.176,0,0.28,0.038,0.314,0.112
		c0.033,0.074,0.051,0.166,0.051,0.273v10.863C584.525,337.53,584.396,337.665,584.14,337.665z"/>
</g>
</svg>
