<?xml version="1.0" encoding="utf-8"?>
<!-- Generator: Adobe Illustrator 16.0.0, SVG Export Plug-In . SVG Version: 6.00 Build 0)  -->
<!DOCTYPE svg PUBLIC "-//W3C//DTD SVG 1.1//EN" "http://www.w3.org/Graphics/SVG/1.1/DTD/svg11.dtd">
<svg version="1.1" xmlns="http://www.w3.org/2000/svg" xmlns:xlink="http://www.w3.org/1999/xlink" x="0px" y="0px" width="191.5px"
	 height="92.167px" viewBox="0 0 191.5 92.167" enable-background="new 0 0 191.5 92.167" xml:space="preserve">
<g id="Layer_1">
	<g>
		<path fill="#1B87C9" d="M151.498,18.759c0,0-1.751,4.23-4.165,7.459v56.446c0,0,1,2.319,5,4.048v4.478c0,0,17-0.029,34-0.029
			v-4.448c0,0,3.865-0.955,5-4.185v-56.4c0,0-2.613-3.411-3.539-7.414L151.498,18.759z"/>
		<rect x="149.333" y="17" fill="#1B87C9" width="41" height="3"/>
		<rect x="149.333" y="90" fill="#1B87C9" width="40" height="2"/>
		<path fill="none" stroke="#1B87C9" stroke-width="3.9742" stroke-miterlimit="10" d="M170.567,18.9l4.063-12.959
			c0,0,0.896-1.977,2.33-2.27l10.934-0.952"/>
	</g>
	<g display="none">
		<path display="inline" fill="#FFFFFF" d="M168.579,39.934h-0.127l-7.153,3.862l-1.076-4.241l8.989-4.811h4.748v41.146h-5.38
			V39.934z"/>
	</g>
	<g display="none">
		<path display="inline" fill="#FFFFFF" d="M156.488,76.623v-3.418l4.368-4.242c10.508-10.001,15.256-15.318,15.318-21.521
			c0-4.178-2.024-8.04-8.165-8.04c-3.735,0-6.837,1.899-8.736,3.481l-1.772-3.924c2.849-2.405,6.899-4.178,11.647-4.178
			c8.861,0,12.597,6.077,12.597,11.964c0,7.597-5.507,13.737-14.18,22.092l-3.292,3.039v0.126h18.484v4.621H156.488z"/>
	</g>
	<g>
		<path fill="#FFFFFF" d="M157.817,69.293c1.583,1.014,5.254,2.596,9.115,2.596c7.153,0,9.369-4.558,9.306-7.977
			c-0.064-5.76-5.254-8.229-10.635-8.229h-3.102v-4.177h3.102c4.051,0,9.179-2.09,9.179-6.964c0-3.292-2.089-6.204-7.217-6.204
			c-3.292,0-6.457,1.457-8.229,2.722l-1.457-4.051c2.152-1.583,6.331-3.166,10.761-3.166c8.103,0,11.774,4.811,11.774,9.812
			c0,4.241-2.532,7.851-7.596,9.685v0.126c5.063,1.015,9.178,4.813,9.178,10.573c0,6.583-5.127,12.343-15.002,12.343
			c-4.621,0-8.672-1.455-10.698-2.785L157.817,69.293z"/>
	</g>
	<g display="none">
		<path display="inline" fill="#FFFFFF" d="M173.705,75.421V64.217h-19.116v-3.672l18.357-26.27h6.014v25.573h5.761v4.368h-5.761
			v11.204H173.705z M173.705,59.849V46.112c0-2.152,0.064-4.305,0.19-6.457h-0.19c-1.266,2.406-2.278,4.178-3.417,6.076
			l-10.065,13.991v0.126H173.705z"/>
	</g>
	<g display="none">
		<path display="inline" fill="#FFFFFF" d="M181.049,40.226H165.35l-1.583,10.571c0.95-0.127,1.836-0.254,3.355-0.254
			c3.165,0,6.33,0.697,8.862,2.216c3.228,1.836,5.887,5.38,5.887,10.571c0,8.039-6.394,14.053-15.319,14.053
			c-4.494,0-8.292-1.266-10.254-2.532l1.393-4.24c1.709,1.013,5.063,2.278,8.798,2.278c5.254,0,9.749-3.418,9.749-8.926
			c-0.064-5.317-3.608-9.115-11.838-9.115c-2.342,0-4.178,0.253-5.697,0.443l2.659-19.75h19.687V40.226z"/>
	</g>
	<g>
		<path fill="#333333" d="M25.135,128.179c1.828,0,3.527,0.346,5.097,1.035c1.57,0.69,2.924,1.656,4.062,2.897
			c1.138,1.242,2.027,2.717,2.666,4.425c0.638,1.708,0.957,3.563,0.957,5.563c0,1.898-0.294,3.666-0.88,5.304
			c-0.587,1.639-1.415,3.054-2.484,4.244c-1.069,1.189-2.346,2.129-3.829,2.82c-1.483,0.689-3.123,1.034-4.916,1.034H5.729v-8.176
			h17.749c0.862,0,1.69-0.104,2.484-0.311c0.793-0.207,1.475-0.525,2.044-0.957c0.569-0.431,1.026-0.975,1.371-1.63
			c0.344-0.655,0.518-1.432,0.518-2.329c0-1.689-0.552-3.001-1.656-3.933c-1.104-0.932-2.483-1.396-4.14-1.396h-5.227
			c-2.208,0-4.209-0.241-6.002-0.725c-1.794-0.483-3.321-1.242-4.58-2.277c-1.26-1.035-2.234-2.371-2.923-4.011
			c-0.691-1.638-1.035-3.596-1.035-5.872c0-1.622,0.275-3.184,0.828-4.684c0.552-1.501,1.328-2.82,2.329-3.959
			c1-1.139,2.208-2.052,3.623-2.742c1.414-0.689,2.983-1.035,4.709-1.035h18.215v8.59H19.184c-0.828,0-1.614,0.052-2.354,0.155
			c-0.743,0.104-1.389,0.303-1.941,0.595c-0.552,0.294-0.983,0.717-1.293,1.268c-0.311,0.553-0.466,1.295-0.466,2.226
			c0,1.104,0.362,2.027,1.087,2.769c0.724,0.742,1.725,1.112,3.001,1.112H25.135z"/>
		<path fill="#333333" d="M52.405,119.589H41.124v-8.124h30.531v8.124H60.27v35.912h-7.865V119.589z"/>
		<path fill="#333333" d="M84.332,148.05h21.94v7.451H76.001v-44.036h30.271v7.451h-21.94v10.867h21.94v7.348h-21.94V148.05z"/>
		<path fill="#333333" d="M130.697,111.465c1.656,0,3.216,0.311,4.683,0.932s2.734,1.475,3.804,2.562s1.915,2.354,2.536,3.804
			c0.621,1.448,0.931,3.001,0.931,4.656v1.915c0,1.656-0.31,3.208-0.931,4.657c-0.621,1.449-1.466,2.717-2.536,3.803
			c-1.069,1.087-2.337,1.941-3.804,2.562c-1.466,0.622-3.027,0.933-4.683,0.933h-11.125v18.214h-7.762v-44.036H130.697z
			 M119.571,119.176v10.4h9.832c1.863,0,3.216-0.457,4.062-1.371c0.845-0.914,1.268-2.182,1.268-3.804
			c0-1.552-0.432-2.812-1.293-3.777c-0.863-0.966-2.208-1.448-4.036-1.448H119.571z"/>
	</g>
	<g>
		<path fill="#333333" d="M24.339,73.119c-1.003,1.079-2.286,1.996-3.848,2.749s-3.211,1.204-4.947,1.359
			c-0.926,0.078-1.958,0.078-3.096,0c-1.139-0.078-2.238-0.202-3.299-0.375c-1.061-0.174-2.025-0.368-2.893-0.58
			c-0.868-0.211-1.495-0.414-1.88-0.607c-0.579-0.27-0.926-0.473-1.042-0.607s-0.136-0.415-0.058-0.838l0.405-4.282
			c0.039-0.308,0.134-0.501,0.29-0.579c0.154-0.077,0.443-0.02,0.868,0.174c0.463,0.193,1.118,0.414,1.967,0.666
			c0.848,0.251,1.793,0.462,2.835,0.635c1.042,0.175,2.092,0.28,3.154,0.319c1.06,0.039,2.015-0.039,2.864-0.231
			c1.119-0.271,2.025-0.627,2.72-1.071c0.694-0.442,1.244-0.964,1.649-1.562c0.405-0.598,0.684-1.253,0.838-1.967
			c0.154-0.715,0.231-1.456,0.231-2.229c0-0.732-0.473-1.735-1.417-3.009c-0.946-1.273-2.306-2.431-4.08-3.472
			c-2.161-1.273-4.032-2.46-5.613-3.559c-1.583-1.1-2.884-2.188-3.906-3.27c-1.022-1.079-1.785-2.199-2.286-3.356
			c-0.502-1.157-0.752-2.43-0.752-3.819c0-1.581,0.337-3.096,1.012-4.542c0.674-1.446,1.6-2.709,2.778-3.79
			c1.176-1.08,2.584-1.938,4.224-2.575c1.639-0.637,3.443-0.955,5.41-0.955c2.006,0,3.654,0.126,4.948,0.376
			c1.292,0.251,2.401,0.549,3.327,0.896c0.424,0.155,0.685,0.318,0.781,0.492c0.096,0.173,0.106,0.396,0.029,0.666l-0.752,3.703
			c-0.078,0.425-0.202,0.715-0.376,0.869c-0.173,0.154-0.473,0.154-0.896,0c-0.579-0.193-1.215-0.376-1.91-0.55
			c-0.695-0.173-1.409-0.318-2.141-0.434c-0.733-0.115-1.438-0.192-2.112-0.231c-0.675-0.037-1.283-0.019-1.822,0.058
			c-2.161,0.347-3.675,1.052-4.543,2.112C10.133,40.765,9.7,42.104,9.7,43.725c0,0.965,0.5,2.036,1.504,3.212
			c1.002,1.178,2.468,2.343,4.398,3.501c2.43,1.466,4.427,2.777,5.989,3.935c1.563,1.157,2.796,2.266,3.704,3.328
			c0.906,1.061,1.542,2.131,1.909,3.211c0.366,1.08,0.55,2.256,0.55,3.528C27.753,67.835,26.615,70.728,24.339,73.119z"/>
		<path fill="#333333" d="M50.03,38.691V75.55c0,0.462-0.231,0.694-0.694,0.694h-5.15c-0.463,0-0.694-0.232-0.694-0.694V38.691
			H32.266c-0.193,0-0.357-0.067-0.492-0.203c-0.136-0.135-0.203-0.318-0.203-0.55V33.31c0-0.193,0.066-0.356,0.203-0.492
			c0.134-0.135,0.298-0.203,0.492-0.203h29.047c0.192,0,0.356,0.068,0.492,0.203c0.135,0.135,0.203,0.299,0.203,0.492v4.628
			c0,0.502-0.231,0.753-0.694,0.753H50.03z"/>
		<path fill="#333333" d="M69.472,76.303c-0.772,0-1.235-0.068-1.389-0.203c-0.155-0.136-0.231-0.627-0.231-1.477V34.178
			c0-0.772,0.066-1.225,0.202-1.36c0.135-0.135,0.569-0.203,1.302-0.203h20.542c0.424,0,0.674,0.068,0.752,0.203
			c0.077,0.135,0.116,0.376,0.116,0.723v4.282c0,0.386-0.059,0.647-0.174,0.781c-0.116,0.135-0.347,0.203-0.694,0.203H74.217v11.805
			h14.929c0.578,0,0.868,0.309,0.868,0.925v4.34c0,0.656-0.29,0.983-0.868,0.983H74.217v13.193h16.375c0.54,0,0.81,0.328,0.81,0.983
			v4.34c0,0.617-0.27,0.927-0.81,0.927H69.472z"/>
		<path fill="#333333" d="M107.719,58.538v16.954c0,0.501-0.251,0.752-0.752,0.752h-5.15c-0.463,0-0.694-0.251-0.694-0.752V33.31
			c0-0.193,0.066-0.356,0.202-0.492c0.135-0.135,0.299-0.203,0.492-0.203h11.688c4.283,0,7.667,1.042,10.155,3.125
			c2.488,2.083,3.731,5.323,3.731,9.721c0,2.122-0.356,4.003-1.07,5.642c-0.714,1.64-1.717,3.008-3.009,4.108
			c-1.293,1.1-2.816,1.93-4.571,2.489c-1.755,0.559-3.674,0.838-5.757,0.838H107.719z M107.719,38.691v13.83h4.687
			c2.584,0,4.628-0.55,6.134-1.649c1.504-1.1,2.256-2.923,2.256-5.468c0-2.199-0.599-3.867-1.793-5.005
			c-1.196-1.138-2.759-1.707-4.687-1.707H107.719z"/>
	</g>
</g>
<g id="Layer_2" display="none">
	<g display="inline">
		<path fill="none" stroke="#1B87C9" stroke-width="2" stroke-miterlimit="10" d="M152.639,20.477c0,0-1.306,3.986-4.306,7.029
			v53.188c0,0,1,2.186,5,3.814v4.22c0,0,15-0.028,32-0.028v-4.191c0,0,4-0.9,5-3.942V27.42c0,0-2.542-3.215-3.413-6.986
			L152.639,20.477z"/>
		<rect x="150.333" y="19" fill="#1B87C9" width="38" height="2"/>
		<rect x="151.333" y="87" fill="#1B87C9" width="37" height="3"/>
		<path fill="none" stroke="#1B87C9" stroke-width="3.7448" stroke-miterlimit="10" d="M170.988,20.61l3.83-12.211
			c0,0,0.843-1.863,2.194-2.139l10.302-0.897"/>
	</g>
	<text transform="matrix(1 0 0 1 156.5874 70.334)" fill="#1B87C9" font-family="'MyriadPro-Regular'" font-size="50">1</text>
	<text transform="matrix(1 0 0 1 156.5874 70.334)" fill="#1B87C9" font-family="'MyriadPro-Regular'" font-size="50">2</text>
	<text transform="matrix(1 0 0 1 156.5874 70.334)" fill="#1B87C9" font-family="'MyriadPro-Regular'" font-size="50">3</text>
	<text transform="matrix(1 0 0 1 156.5874 70.334)" fill="#1B87C9" font-family="'MyriadPro-Regular'" font-size="50">4</text>
	
		<text transform="matrix(1 0 0 1 156.5874 70.334)" display="inline" fill="#1B87C9" font-family="'MyriadPro-Regular'" font-size="50">5</text>
</g>
</svg>
