<?xml version="1.0" encoding="utf-8"?>
<!-- Generator: Adobe Illustrator 16.0.0, SVG Export Plug-In . SVG Version: 6.00 Build 0)  -->
<!DOCTYPE svg PUBLIC "-//W3C//DTD SVG 1.1//EN" "http://www.w3.org/Graphics/SVG/1.1/DTD/svg11.dtd">
<svg version="1.1" xmlns="http://www.w3.org/2000/svg" xmlns:xlink="http://www.w3.org/1999/xlink" x="0px" y="0px" width="50px"
	 height="51.5px" viewBox="0 0 50 51.5" enable-background="new 0 0 50 51.5" xml:space="preserve">
<g id="레이어_1" display="none">
</g>
<g id="레이어_3" display="none">
	<g display="inline">
		<defs>
			<rect id="SVGID_1_" width="50" height="50.125"/>
		</defs>
		<clipPath id="SVGID_2_">
			<use xlink:href="#SVGID_1_"  overflow="visible"/>
		</clipPath>
		<polygon clip-path="url(#SVGID_2_)" fill="#FFFFFF" stroke="#2378AF" stroke-width="4" stroke-miterlimit="10" points="
			15.81,-13.301 19.177,-9.178 23.494,-12.287 25.683,-7.431 30.656,-9.313 31.516,-4.055 36.804,-4.583 36.277,0.719 41.523,1.581 
			39.645,6.566 44.488,8.76 41.389,13.087 45.5,16.463 41.389,19.838 44.488,24.167 39.645,26.36 41.523,31.346 36.277,32.207 
			36.804,37.508 31.516,36.981 30.656,42.238 25.683,40.355 23.494,45.212 19.177,42.104 15.81,46.227 12.443,42.104 8.126,45.212 
			5.938,40.355 0.966,42.238 0.106,36.981 -5.184,37.508 -4.656,32.207 -9.901,31.346 -8.024,26.36 -12.868,24.167 -9.767,19.838 
			-13.879,16.463 -9.767,13.087 -12.868,8.76 -8.024,6.566 -9.901,1.581 -4.656,0.719 -5.184,-4.584 0.106,-4.055 0.966,-9.313 
			5.938,-7.431 8.126,-12.287 12.443,-9.178 		"/>
	</g>
</g>
<g id="레이어_4">
	<path fill="#FFFFFF" stroke="#2378AF" stroke-width="4" stroke-miterlimit="10" d="M46.188,29c0,3.313-2.687,6-6,6H9.813
		c-3.313,0-6-2.687-6-6V17c0-3.313,2.687-6,6-6h30.375c3.313,0,6,2.687,6,6V29z"/>
</g>
<g id="레이어_2">
	<g>
		<path d="M11.385,18.348c0.52,0.039,0.702,0.117,1.17,0.741c0.897,1.209,2.249,2.99,3.302,4.303
			c0.247,0.299,0.416,0.234,0.442-0.156c0.026-0.286,0.013-2.08-0.013-2.743c-0.026-0.793-0.156-0.949-0.715-1.053
			c-0.377-0.065-0.364-0.962,0.039-1.014c1.014-0.13,1.976-0.13,2.977-0.013c0.468,0.065,0.455,0.988,0.026,1.066
			c-0.507,0.078-0.585,0.195-0.585,0.715c-0.013,1.417-0.013,4.018,0,5.72c0.013,1.287,0.013,1.469-0.806,1.469
			c-0.754,0-0.858-0.117-1.417-0.767c-1.3-1.508-2.496-3.12-3.809-4.693c-0.195-0.234-0.325-0.169-0.338,0.143
			c-0.039,0.78-0.052,2.106-0.026,3.198c0.013,0.728,0.247,0.897,0.663,0.975c0.299,0.052,0.312,1.026-0.039,1.079
			c-0.715,0.104-2.353,0.117-3.146,0.025c-0.364-0.039-0.351-1.026-0.039-1.079c0.52-0.078,0.741-0.26,0.767-0.962
			c0.039-1.456,0.065-3.575,0.026-5.031c-0.013-0.377-0.156-0.611-0.767-0.793c-0.312-0.091-0.286-1.04,0.039-1.079
			C10.085,18.296,10.41,18.27,11.385,18.348z"/>
		<path d="M24.385,18.426c1.326,0,1.599,0.026,2.145-0.169c0.48-0.169,1.04,0.52,1.145,1.703c0.051,0.533,0,0.624-0.404,0.767
			c-0.363,0.143-0.48,0.078-0.715-0.26c-0.351-0.494-0.571-0.715-1.3-0.78c-0.65-0.052-1.508-0.026-2.184,0.052
			c-0.39,0.039-0.507,0.208-0.507,0.546v1.469c0,0.338,0.065,0.455,0.546,0.481c0.364,0.026,0.871,0.013,1.261-0.026
			c0.598-0.052,0.806-0.104,0.897-0.598c0.065-0.299,0.884-0.364,0.988,0c0.195,0.663,0.195,1.716,0,2.393
			c-0.104,0.377-0.923,0.338-0.988,0c-0.104-0.494-0.299-0.572-0.897-0.598c-0.39-0.013-0.936-0.013-1.261,0.026
			c-0.468,0.039-0.546,0.273-0.546,0.663v1.456c0,0.338,0.065,0.442,0.546,0.468c0.65,0.039,1.755,0.065,2.405,0
			c0.741-0.065,1-0.299,1.327-0.806c0.221-0.338,0.351-0.416,0.728-0.273c0.403,0.143,0.429,0.221,0.39,0.767
			c-0.104,1.287-0.662,2.003-1.144,1.847c-0.546-0.195-0.832-0.195-2.158-0.195h-5.031c-0.364,0-0.39-1.053-0.091-1.118
			c0.598-0.13,0.767-0.299,0.806-0.91c0.052-0.884,0.052-4.017,0-4.927c-0.026-0.598-0.221-0.793-0.754-0.897
			c-0.299-0.065-0.273-1.079,0.091-1.079H24.385z"/>
		<path d="M31.964,18.426c0.352,0.052,0.339,1.092,0.039,1.157c-0.48,0.091-0.559,0.351-0.416,0.871
			c0.273,0.975,0.793,2.444,1.17,3.51c0.092,0.273,0.234,0.26,0.339,0.013c0.559-1.326,0.936-2.86,1.104-3.588
			c0.117-0.546-0.013-0.715-0.546-0.819c-0.313-0.065-0.338-1.079,0.039-1.118c0.793-0.091,2.197-0.078,2.925,0.026
			c0.338,0.052,0.325,1.053,0.039,1.105c-0.649,0.104-0.676,0.403-0.48,1.027c0.286,0.949,0.702,2.405,1.026,3.394
			c0.078,0.234,0.261,0.247,0.364-0.013c0.468-1.183,0.988-2.73,1.235-3.51c0.208-0.663,0.169-0.936-0.325-1.027
			c-0.313-0.065-0.338-1.014,0.039-1.053c0.78-0.091,1.911-0.078,2.639,0.026c0.352,0.052,0.338,1.053,0.039,1.118
			c-0.494,0.104-0.649,0.299-0.896,1.053c-0.638,1.95-1.509,4.212-2.263,6.11c-0.182,0.455-0.48,0.78-0.962,0.78
			c-0.649,0-0.767-0.13-0.949-0.599c-0.559-1.507-0.987-2.977-1.118-3.379c-0.091-0.234-0.207-0.234-0.285,0.013
			c-0.208,0.65-0.754,2.106-1.196,3.25c-0.169,0.442-0.481,0.715-1.04,0.715c-0.572,0-0.715-0.078-0.988-0.78
			c-0.754-1.963-1.547-4.134-2.288-6.163c-0.143-0.403-0.338-0.858-0.975-0.988c-0.313-0.065-0.338-1.118,0.025-1.157
			C29.052,18.309,31.249,18.322,31.964,18.426z"/>
	</g>
</g>
</svg>
