<?xml version="1.0" encoding="utf-8"?>
<!-- Generator: Adobe Illustrator 16.0.0, SVG Export Plug-In . SVG Version: 6.00 Build 0)  -->
<!DOCTYPE svg PUBLIC "-//W3C//DTD SVG 1.1//EN" "http://www.w3.org/Graphics/SVG/1.1/DTD/svg11.dtd">
<svg version="1.1" id="Layer_1" xmlns="http://www.w3.org/2000/svg" xmlns:xlink="http://www.w3.org/1999/xlink" x="0px" y="0px"
	 width="160px" height="160px" viewBox="0 0 160 160" enable-background="new 0 0 160 160" xml:space="preserve">
<g>
	<path fill="none" stroke="#1D87C9" stroke-width="6" stroke-miterlimit="10" d="M400.631,47.469
		c0,13.137-10.643,23.782-23.777,23.782s-23.775-10.646-23.775-23.782c0-13.134,10.641-23.778,23.775-23.778
		S400.631,34.335,400.631,47.469z"/>
	<path fill="none" stroke="#1D87C9" stroke-width="6" stroke-miterlimit="10" d="M423.577,47.413c0,0.361-0.316,0.784-0.512,1.073
		c-6.939,10.38-21.033,23.082-45.506,23.082c-24.869,0-38.467-14.494-45.354-23.439c-0.096-0.122-0.619-0.677-0.619-0.832
		c0-0.352,0.227-0.68,0.459-0.93c8.895-9.629,21.008-23.108,45.514-23.108c24.514,0,36.605,13.54,45.506,23.139
		C423.292,46.638,423.577,47.076,423.577,47.413z"/>
	<g>
		<path fill="#1D87C9" d="M389.186,38.748c0.09,0.429,0.09,0.88,0,1.354c-0.045,0.226-0.084,0.446-0.117,0.66
			c-0.035,0.215-0.074,0.435-0.119,0.66l-0.033,0.136c-0.113,0.451-0.221,0.908-0.322,1.371c-0.102,0.462-0.209,0.919-0.322,1.37
			h2.27c0.406,0,0.795,0.046,1.166,0.136c0.373,0.091,0.717,0.294,1.033,0.609c0.158,0.136,0.275,0.321,0.355,0.559
			c0.078,0.237,0.119,0.479,0.119,0.728c0,0.271-0.041,0.559-0.119,0.863c-0.08,0.305-0.186,0.524-0.322,0.66
			c-0.18,0.203-0.406,0.361-0.676,0.474c-0.271,0.113-0.543,0.187-0.813,0.221c-0.271,0.033-0.502,0.05-0.693,0.05
			c-0.193,0-0.301,0-0.322,0h-3.08c-0.068,0.316-0.137,0.621-0.203,0.914c-0.068,0.294-0.137,0.576-0.203,0.847
			c-0.271,1.129-0.553,2.369-0.848,3.724c-0.293,1.354-0.598,2.595-0.912,3.724c-0.113,0.384-0.232,0.767-0.355,1.15
			c-0.125,0.384-0.277,0.768-0.457,1.151c-0.158,0.338-0.346,0.637-0.559,0.896c-0.215,0.26-0.457,0.451-0.729,0.576
			c-0.271,0.123-0.559,0.169-0.863,0.135c-0.305-0.033-0.639-0.175-0.998-0.423c-0.543-0.384-0.943-0.914-1.201-1.591
			c-0.26-0.677-0.525-1.298-0.797-1.862c-0.09-0.157-0.225-0.508-0.406-1.049c-0.18-0.542-0.371-1.134-0.574-1.777
			s-0.402-1.264-0.594-1.861s-0.355-1.044-0.49-1.338c-0.203,0.497-0.406,1.062-0.609,1.693s-0.395,1.252-0.576,1.861
			c-0.18,0.609-0.344,1.156-0.49,1.642s-0.254,0.841-0.32,1.066c-0.182,0.451-0.379,0.948-0.594,1.489
			c-0.215,0.542-0.473,1.004-0.777,1.388s-0.672,0.638-1.102,0.762c-0.428,0.124-0.936-0.006-1.523-0.389
			c-0.451-0.271-0.768-0.655-0.947-1.151c-0.113-0.316-0.225-0.621-0.338-0.914s-0.203-0.598-0.271-0.914l-0.676-2.538l-1.389-5.45
			c-0.135-0.542-0.271-1.117-0.406-1.727h-1.658c-0.52,0.046-1.049,0.051-1.592,0.017c-0.541-0.033-1.004-0.242-1.387-0.626
			c-0.52-0.451-0.779-0.959-0.779-1.523c0-0.383,0.107-0.761,0.322-1.134c0.213-0.372,0.502-0.637,0.863-0.795
			c0.451-0.181,0.924-0.266,1.422-0.254c0.496,0.012,1.004,0.006,1.521-0.018h0.17c-0.113-0.519-0.221-1.1-0.322-1.743
			c-0.102-0.643-0.242-1.461-0.422-2.454c-0.045-0.248-0.074-0.479-0.086-0.693c-0.01-0.215,0.006-0.435,0.051-0.66
			c0.045-0.339,0.203-0.632,0.475-0.88c0.113-0.113,0.248-0.203,0.406-0.271c0.158-0.067,0.326-0.124,0.508-0.169
			c0.271-0.09,0.553-0.136,0.846-0.136c0.271,0,0.553,0.091,0.848,0.271c0.203,0.112,0.359,0.259,0.473,0.439l0.406,0.711
			c0.045,0.158,0.09,0.3,0.137,0.423c0.045,0.125,0.09,0.254,0.135,0.39c0.045,0.158,0.078,0.3,0.102,0.423
			c0.021,0.125,0.045,0.243,0.068,0.355c0.111,0.7,0.242,1.377,0.389,2.031s0.311,1.309,0.49,1.963h4.875
			c0.135-0.428,0.27-0.823,0.406-1.185c0.135-0.36,0.287-0.648,0.457-0.863c0.168-0.214,0.377-0.35,0.625-0.406
			c0.248-0.056,0.564-0.017,0.949,0.119c0.338,0.135,0.619,0.435,0.846,0.896c0.225,0.463,0.439,0.942,0.643,1.438h4.604
			c0.158-0.586,0.311-1.162,0.457-1.726c0.146-0.564,0.289-1.129,0.424-1.693l0.17-0.575c0.045-0.112,0.072-0.23,0.084-0.355
			c0.012-0.123,0.039-0.265,0.084-0.423c0.045-0.136,0.09-0.265,0.137-0.39c0.045-0.123,0.09-0.265,0.135-0.423
			c0.045-0.112,0.096-0.231,0.152-0.355s0.129-0.242,0.221-0.355c0.066-0.112,0.146-0.203,0.236-0.271s0.18-0.124,0.27-0.169
			c0.316-0.181,0.588-0.271,0.813-0.271c0.293,0,0.576,0.046,0.848,0.136c0.359,0.067,0.688,0.215,0.98,0.44
			C389.006,38.093,389.141,38.386,389.186,38.748z M372.6,53.506c0.158-0.564,0.355-1.287,0.592-2.167
			c0.238-0.88,0.48-1.782,0.729-2.708h-2.506c0.09,0.429,0.188,0.88,0.289,1.354c0.102,0.474,0.203,0.931,0.305,1.37
			c0.102,0.44,0.203,0.847,0.305,1.219C372.415,52.948,372.51,53.258,372.6,53.506z M381.739,52.863
			c0.068-0.226,0.141-0.508,0.221-0.847c0.078-0.338,0.158-0.699,0.236-1.083c0.08-0.383,0.164-0.778,0.254-1.185
			s0.182-0.778,0.271-1.117h-2.268c0.248,0.88,0.479,1.716,0.693,2.505C381.362,51.926,381.559,52.502,381.739,52.863z"/>
	</g>
</g>
<g>
	<g>
		<path fill="#1D87C9" d="M226.68,49.817c-0.229,0.332-0.549,0.575-0.957,0.729c-0.409,0.153-0.824,0.204-1.246,0.153
			c-0.421-0.052-0.805-0.198-1.148-0.44c-0.346-0.243-0.569-0.582-0.671-1.016c-0.026-0.052-0.045-0.191-0.058-0.422
			c-0.014-0.229-0.025-0.466-0.038-0.708c-0.013-0.243-0.032-0.569-0.058-0.978c-0.588-0.076-1.271-0.186-2.05-0.325
			c-0.779-0.141-1.462-0.313-2.05-0.518c-0.383-0.153-0.785-0.313-1.207-0.479c-0.422-0.167-0.824-0.357-1.207-0.575
			c-0.383-0.217-0.734-0.473-1.053-0.767c-0.32-0.293-0.557-0.645-0.709-1.054c-0.129-0.306-0.211-0.632-0.25-0.977
			c-0.037-0.345-0.013-0.683,0.077-1.016c0.089-0.331,0.243-0.625,0.46-0.881c0.217-0.255,0.518-0.422,0.9-0.498
			c0.255-0.076,0.511-0.07,0.766,0.02c0.256,0.09,0.498,0.21,0.729,0.363s0.46,0.326,0.689,0.518c0.23,0.191,0.46,0.339,0.689,0.44
			c0.588,0.23,1.271,0.44,2.051,0.632c0.778,0.192,1.5,0.339,2.164,0.441v-6.667c-0.46-0.153-0.977-0.293-1.552-0.421
			s-1.041-0.243-1.398-0.346c-0.332-0.127-0.632-0.235-0.9-0.325c-0.269-0.089-0.505-0.197-0.708-0.325
			c-1.125-0.435-1.941-1.111-2.453-2.031c-0.256-0.46-0.447-0.926-0.574-1.398c-0.129-0.472-0.191-1.002-0.191-1.59
			c0-0.511,0.051-0.989,0.152-1.437c0.103-0.447,0.23-0.862,0.384-1.245c0.307-0.767,0.805-1.431,1.494-1.992
			c0.307-0.307,0.657-0.562,1.054-0.767c0.396-0.204,0.824-0.408,1.283-0.613c0.434-0.204,0.983-0.357,1.648-0.46
			c0.663-0.102,1.25-0.178,1.762-0.229c0-0.357,0-0.734,0-1.13c0-0.396,0.102-0.734,0.307-1.016c0.307-0.434,0.587-0.74,0.843-0.92
			c0.255-0.178,0.638-0.242,1.149-0.191c0.459,0.052,0.868,0.167,1.227,0.345c0.357,0.18,0.625,0.498,0.805,0.958
			c0,0.052,0.006,0.186,0.019,0.402c0.013,0.218,0.032,0.454,0.058,0.709c0.025,0.281,0.038,0.601,0.038,0.958
			c0.817,0.179,1.667,0.402,2.548,0.67c0.881,0.269,1.68,0.607,2.395,1.016c0.562,0.358,1.016,0.76,1.36,1.207
			s0.504,1.003,0.479,1.666c-0.025,0.358-0.166,0.703-0.421,1.035c-0.256,0.332-0.563,0.523-0.92,0.574
			c-0.408,0.052-0.792-0.019-1.149-0.211c-0.358-0.191-0.702-0.376-1.034-0.555c-0.436-0.204-0.939-0.415-1.514-0.633
			c-0.574-0.217-1.156-0.351-1.743-0.402v5.287c0.536,0.153,1.099,0.352,1.686,0.595c0.587,0.242,1.099,0.453,1.532,0.632
			c1.431,0.588,2.484,1.514,3.162,2.777c0.676,1.265,0.988,2.625,0.938,4.081c-0.025,0.971-0.217,1.864-0.574,2.682
			c-0.205,0.357-0.435,0.689-0.689,0.996c-0.256,0.307-0.537,0.588-0.844,0.843c-0.306,0.281-0.639,0.518-0.996,0.709
			s-0.753,0.389-1.188,0.594c-0.434,0.128-0.919,0.249-1.455,0.364c-0.537,0.114-1.061,0.223-1.571,0.325
			c-0.026,0-0.045,0.083-0.058,0.249c-0.014,0.166-0.014,0.351,0,0.556c0.013,0.204,0.025,0.402,0.039,0.594
			c0.012,0.191,0.019,0.3,0.019,0.326C226.949,49.14,226.859,49.511,226.68,49.817z M219.784,29.549
			c0.025,0.205,0.115,0.428,0.269,0.671s0.331,0.44,0.536,0.594c0.23,0.153,0.511,0.274,0.844,0.364
			c0.331,0.09,0.689,0.159,1.072,0.21v-4.329c-0.843,0.052-1.539,0.263-2.088,0.632C219.867,28.062,219.657,28.681,219.784,29.549z
			 M230.014,39.818c-0.052-0.332-0.173-0.646-0.364-0.939c-0.191-0.293-0.435-0.555-0.728-0.785
			c-0.295-0.229-0.613-0.428-0.959-0.594c-0.344-0.166-0.684-0.287-1.015-0.364c0,0.895,0.019,1.795,0.058,2.701
			c0.038,0.907,0.044,1.808,0.02,2.701c0.383,0.052,0.766,0.02,1.148-0.096c0.384-0.115,0.715-0.293,0.996-0.536
			c0.281-0.242,0.504-0.543,0.671-0.9C230.007,40.648,230.065,40.252,230.014,39.818z"/>
	</g>
	<g>
		<rect x="264.177" y="22.947" fill="#1D87C9" width="6.356" height="27.219"/>
		<rect x="253.231" y="30.104" fill="#1D87C9" width="6.356" height="20.062"/>
		<rect x="242.547" y="37.736" fill="#1D87C9" width="6.355" height="12.43"/>
	</g>
	<rect x="232.436" y="61.276" fill="#1D87C9" width="18.053" height="12.467"/>
	<path fill="#1D87C9" d="M267.791,80.354c0,4.215-3.422,7.631-7.631,7.631h-37.394c-4.221,0-7.631-3.416-7.631-7.631l0,0
		c0-4.216,3.41-7.631,7.631-7.631h37.394C264.369,72.723,267.791,76.138,267.791,80.354L267.791,80.354z"/>
	<path fill="none" stroke="#1D87C9" stroke-width="6" stroke-miterlimit="10" d="M285.843,54.659c0,4.777-3.875,8.653-8.645,8.653
		h-71.472c-4.781,0-8.656-3.876-8.656-8.653V15.495c0-4.778,3.875-8.653,8.656-8.653h71.472c4.77,0,8.645,3.875,8.645,8.653V54.659z
		"/>
</g>
<g>
	<path fill="#1D87C9" d="M507.696,37.371c0.291-0.217,0.25-0.766-0.061-1.186l0,0c-0.309-0.423-0.822-0.623-1.113-0.406
		L480.95,54.723c-0.291,0.215-0.256,0.767,0.055,1.187l0,0c0.311,0.423,0.822,0.623,1.115,0.405L507.696,37.371z"/>
	<path fill="#1D87C9" d="M541.899,21.907c0.227-0.233,0.082-0.749-0.293-1.115l0,0c-0.375-0.364-0.895-0.501-1.121-0.269
		L518.588,42.83c-0.227,0.235-0.078,0.748,0.297,1.115l0,0c0.369,0.367,0.895,0.501,1.121,0.269L541.899,21.907z"/>
	<path fill="#1D87C9" d="M519.155,44.061c0.322,0.164,0.799-0.119,1.031-0.587l0,0c0.238-0.465,0.184-1.013-0.143-1.177
		l-12.85-6.653c-0.32-0.164-0.799,0.116-1.037,0.584l0,0c-0.232,0.468-0.178,1.016,0.145,1.18L519.155,44.061z"/>
	<path fill="#1D87C9" d="M544.575,22.977c-0.082,0.436-0.178,1.097-0.756,0.746l-5.158-5.151c-0.5-0.543,0.287-0.641,0.734-0.74
		l6.021-1.448c0.727-0.083,0.775,0.331,0.775,0.742L544.575,22.977z"/>
	<path fill="#1D87C9" d="M476.678,81.016c0,1.615-1.346,2.927-3.002,2.927l0,0c-1.656,0-2.998-1.312-2.998-2.927V12.591
		c0-1.616,1.342-2.928,2.998-2.928l0,0c1.656,0,3.002,1.312,3.002,2.928V81.016z"/>
	<rect x="486.514" y="57.934" fill="#1D87C9" width="6.246" height="24.229"/>
	<rect x="498.723" y="46.049" fill="#1D87C9" width="6.248" height="36.114"/>
	<rect x="510.801" y="46.049" fill="#1D87C9" width="6.248" height="36.114"/>
	<rect x="522.76" y="46.049" fill="#1D87C9" width="6.248" height="36.114"/>
	<rect x="535.375" y="32.367" fill="#1D87C9" width="6.248" height="49.796"/>
	<path fill="#1D87C9" d="M473.928,85.163c-1.754,0-3.178-1.344-3.178-3l0,0c0-1.656,1.424-3,3.178-3h74.158
		c1.76,0,3.178,1.344,3.178,3l0,0c0,1.655-1.418,3-3.178,3H473.928z"/>
</g>
<g>
	<rect x="615.571" y="14.826" fill="#1D87C9" width="7.105" height="7.109"/>
	<rect x="615.577" y="24.642" fill="#1D87C9" width="7.105" height="7.106"/>
	<rect x="615.577" y="34.729" fill="#1D87C9" width="7.105" height="7.109"/>
	<rect x="626.676" y="14.826" fill="#1D87C9" width="7.107" height="7.109"/>
	<rect x="626.682" y="24.642" fill="#1D87C9" width="7.107" height="7.106"/>
	<rect x="626.682" y="34.729" fill="#1D87C9" width="7.107" height="7.109"/>
	<rect x="637.766" y="14.826" fill="#1D87C9" width="7.107" height="7.109"/>
	<rect x="637.772" y="24.642" fill="#1D87C9" width="7.107" height="7.106"/>
	<rect x="637.772" y="34.729" fill="#1D87C9" width="7.107" height="7.109"/>
	<rect x="615.571" y="44.143" fill="#1D87C9" width="7.105" height="7.11"/>
	<rect x="615.577" y="53.959" fill="#1D87C9" width="7.105" height="7.107"/>
	<rect x="615.577" y="64.047" fill="#1D87C9" width="7.105" height="7.109"/>
	<rect x="626.676" y="44.143" fill="#1D87C9" width="7.107" height="7.11"/>
	<rect x="626.682" y="53.959" fill="#1D87C9" width="7.107" height="7.107"/>
	<rect x="626.682" y="64.047" fill="#1D87C9" width="7.107" height="7.109"/>
	<rect x="615.571" y="64.047" fill="#1D87C9" width="29.309" height="17.027"/>
	<rect x="637.766" y="44.143" fill="#1D87C9" width="7.107" height="7.11"/>
	<rect x="637.772" y="53.959" fill="#1D87C9" width="7.107" height="7.107"/>
	<rect x="637.772" y="64.047" fill="#1D87C9" width="7.107" height="7.109"/>
	<rect x="667.012" y="27.375" fill="#1D87C9" width="7.107" height="7.109"/>
	<rect x="667.02" y="37.192" fill="#1D87C9" width="7.105" height="7.106"/>
	<rect x="667.02" y="47.279" fill="#1D87C9" width="7.105" height="7.109"/>
	<rect x="677.12" y="27.375" fill="#1D87C9" width="7.107" height="7.109"/>
	<rect x="677.125" y="37.192" fill="#1D87C9" width="7.107" height="7.106"/>
	<rect x="677.125" y="47.279" fill="#1D87C9" width="7.107" height="7.109"/>
	<rect x="687.209" y="27.375" fill="#1D87C9" width="7.107" height="7.109"/>
	<rect x="687.215" y="37.192" fill="#1D87C9" width="7.107" height="7.106"/>
	<rect x="687.215" y="47.279" fill="#1D87C9" width="7.107" height="7.109"/>
	<rect x="667.012" y="56.693" fill="#1D87C9" width="7.107" height="7.11"/>
	<polygon fill="#1D87C9" points="667.02,66.509 667.02,73.616 667.02,80.722 694.323,80.722 694.323,73.616 694.323,66.509 	"/>
	<rect x="677.12" y="56.693" fill="#1D87C9" width="7.107" height="7.11"/>
	<rect x="687.209" y="56.693" fill="#1D87C9" width="7.107" height="7.11"/>
	<path fill="none" stroke="#1D87C9" stroke-width="6" stroke-miterlimit="10" d="M652.598,77.521c0,4.778-3.873,8.653-8.648,8.653
		h-26.961c-4.775,0-8.65-3.875-8.65-8.653V17.306c0-4.778,3.875-8.653,8.65-8.653h26.961c4.775,0,8.648,3.875,8.648,8.653V77.521z"
		/>
	<path fill="none" stroke="#1D87C9" stroke-width="6" stroke-miterlimit="10" d="M700.473,77.521c0,4.778-3.875,8.653-8.65,8.653
		h-22.381c-4.775,0-8.652-3.875-8.652-8.653V29.68c0-4.778,3.877-8.653,8.652-8.653h22.381c4.775,0,8.65,3.875,8.65,8.653V77.521z"
		/>
</g>
<g>
	<path fill="#1D87C9" d="M217.507,104.787v6.8l-2.149,19.85h-7.301l2.15-19.85h-14.25v-6.8H217.507z M228.506,134.986
		c1.234,0,2.393,0.208,3.477,0.625c1.082,0.417,2.023,1,2.824,1.75s1.434,1.642,1.9,2.675s0.699,2.167,0.699,3.4
		s-0.232,2.358-0.699,3.375c-0.467,1.016-1.1,1.9-1.9,2.65s-1.742,1.333-2.824,1.75c-1.084,0.417-2.242,0.625-3.477,0.625h-20.398
		c-1.234,0-2.393-0.208-3.476-0.625c-1.083-0.417-2.024-1-2.825-1.75c-0.8-0.75-1.434-1.634-1.899-2.65
		c-0.468-1.017-0.7-2.142-0.7-3.375s0.232-2.367,0.7-3.4c0.466-1.033,1.1-1.925,1.899-2.675c0.801-0.75,1.742-1.333,2.825-1.75
		c1.083-0.417,2.241-0.625,3.476-0.625H228.506z M208.108,141.236c-0.601,0-1.109,0.217-1.525,0.65
		c-0.417,0.434-0.625,0.95-0.625,1.55c0,0.566,0.208,1.066,0.625,1.5c0.416,0.433,0.925,0.65,1.525,0.65h20.398
		c0.602,0,1.117-0.217,1.551-0.65c0.434-0.434,0.65-0.934,0.65-1.5c0-0.6-0.217-1.117-0.65-1.55c-0.434-0.433-0.949-0.65-1.551-0.65
		H208.108z M229.907,120.537v-4.65h-8.35v-6h8.35v-5.35h7.301v26.9h-7.301v-4.85h-8.35v-6.05H229.907z"/>
	<path fill="#1D87C9" d="M259.708,127.886l7.949,23.7h-7l-4.549-13.5l-4.701,13.5h-7.549l14.199-40.1h-13.35v-6.7h20.75v6.7
		L259.708,127.886z M276.006,151.836h-6.449v-23.25h-5.699v-6.4h5.699v-17.65h6.449V151.836z M286.157,151.836h-6.6v-47.3h6.6
		V151.836z"/>
</g>
<g>
	<path fill="#1D87C9" d="M361.482,125.486l2.55-13.3h-28.949v-7.4h36.25v7.4l-2.551,13.3h6.301v6.35h-43v-6.35H361.482z
		 M372.182,135.236v16.6h-37.2v-16.6H372.182z M365.182,141.037h-23.2v5h23.2V141.037z"/>
	<path fill="#1D87C9" d="M382.181,143.386c0-1.166,0.217-2.25,0.65-3.25c0.433-1,1.025-1.875,1.775-2.625s1.625-1.341,2.625-1.775
		c1-0.433,2.082-0.683,3.25-0.75v-2.9h-10.4v-6.3h43v6.3h-10.4v2.9c1.133,0.067,2.208,0.317,3.226,0.75
		c1.017,0.434,1.899,1.025,2.649,1.775s1.342,1.625,1.775,2.625c0.433,1,0.65,2.084,0.65,3.25c0,1.233-0.234,2.367-0.7,3.4
		c-0.468,1.033-1.101,1.925-1.9,2.675s-1.742,1.333-2.825,1.75c-1.083,0.417-2.242,0.625-3.475,0.625h-21
		c-1.233,0-2.393-0.208-3.475-0.625c-1.084-0.417-2.025-1-2.825-1.75s-1.434-1.642-1.9-2.675
		C382.415,145.753,382.181,144.619,382.181,143.386z M391.082,122.886c-1.2,0-2.317-0.208-3.35-0.625
		c-1.034-0.416-1.934-1.008-2.7-1.775c-0.768-0.766-1.367-1.716-1.8-2.85c-0.434-1.133-0.65-2.4-0.65-3.8
		c0-1.366,0.217-2.608,0.65-3.725c0.433-1.116,1.032-2.066,1.8-2.85c0.767-0.783,1.666-1.391,2.7-1.825
		c1.032-0.433,2.149-0.65,3.35-0.65h21c1.133,0,2.217,0.192,3.25,0.575c1.033,0.384,1.933,0.958,2.7,1.725
		c0.767,0.767,1.383,1.717,1.85,2.85c0.467,1.133,0.7,2.434,0.7,3.9c0,1.4-0.217,2.659-0.65,3.775
		c-0.434,1.117-1.033,2.067-1.8,2.85c-0.767,0.784-1.667,1.384-2.7,1.8c-1.033,0.417-2.149,0.625-3.35,0.625H391.082z
		 M388.931,143.386c0,0.6,0.208,1.133,0.625,1.6c0.417,0.466,0.926,0.7,1.525,0.7h21c0.6,0,1.107-0.234,1.525-0.7
		c0.416-0.467,0.625-1,0.625-1.6c0-0.6-0.209-1.133-0.625-1.6c-0.418-0.467-0.926-0.7-1.525-0.7h-21c-0.6,0-1.108,0.233-1.525,0.7
		S388.931,142.787,388.931,143.386z M411.832,116.136c0.633,0,1.125-0.232,1.475-0.7c0.351-0.466,0.525-1,0.525-1.6
		c0-0.633-0.192-1.175-0.575-1.625c-0.384-0.45-0.858-0.675-1.425-0.675h-20.55c-0.667,0-1.167,0.242-1.5,0.725
		c-0.334,0.484-0.5,1.009-0.5,1.575c0,0.567,0.166,1.092,0.5,1.575c0.333,0.483,0.833,0.725,1.5,0.725H411.832z M397.681,134.937
		h7.801v-2.85h-7.801V134.937z"/>
</g>
<g>
	<path fill="#1D87C9" d="M483.421,111.486h-17.95v-6.7h25.8v6.7l-5.75,40.05h-7.7L483.421,111.486z M506.721,151.836h-7.701v-47.3
		h7.701V151.836z"/>
	<path fill="#1D87C9" d="M554.721,104.537v47.3h-37.9v-19.5h7.051v4.35h23.85v-16.45h-8.85c-0.168,1.234-0.617,2.375-1.352,3.425
		c-0.732,1.05-1.648,1.95-2.75,2.7c-1.1,0.75-2.357,1.342-3.773,1.775c-1.418,0.434-2.893,0.65-4.426,0.65
		c-1.668,0-3.225-0.242-4.676-0.725c-1.449-0.483-2.717-1.158-3.799-2.025c-1.084-0.867-1.943-1.883-2.576-3.05
		c-0.633-1.167-0.949-2.433-0.949-3.8v-4.75c0-1.566,0.357-2.958,1.074-4.175c0.717-1.216,1.643-2.232,2.775-3.05
		c1.133-0.816,2.393-1.441,3.775-1.875c1.383-0.433,2.758-0.65,4.125-0.65h0.35c1.566,0,3.059,0.225,4.475,0.675
		c1.418,0.45,2.676,1.059,3.775,1.825c1.1,0.767,2,1.692,2.701,2.775c0.699,1.083,1.115,2.242,1.25,3.475h8.85v-8.9H554.721z
		 M531.92,115.736c0-0.633-0.133-1.225-0.4-1.775c-0.266-0.55-0.633-1.033-1.1-1.45c-0.467-0.416-1.018-0.741-1.65-0.975
		c-0.633-0.233-1.299-0.35-2-0.35c-0.699,0-1.357,0.117-1.975,0.35c-0.617,0.233-1.158,0.559-1.625,0.975
		c-0.467,0.417-0.834,0.9-1.1,1.45c-0.268,0.55-0.4,1.142-0.4,1.775v2.45c0,0.633,0.133,1.225,0.4,1.775
		c0.266,0.55,0.633,1.034,1.1,1.45c0.467,0.417,1.008,0.742,1.625,0.975c0.617,0.234,1.275,0.35,1.975,0.35
		c0.701,0,1.367-0.116,2-0.35c0.633-0.232,1.184-0.558,1.65-0.975c0.467-0.417,0.834-0.9,1.1-1.45c0.268-0.55,0.4-1.142,0.4-1.775
		V115.736z M547.721,142.437h-23.85v3.6h23.85V142.437z"/>
</g>
<g>
	<path fill="#1D87C9" d="M651.906,132.386v6.25h-18.001v13.2h-7v-13.2h-18v-6.25H651.906z M631.456,111.586h-20.7v-6.75h39.301v5.75
		l-13.251,6.25l12.899,5.05v7.25l-20.699-8.6l-18.25,8.6v-7.4L631.456,111.586z"/>
	<path fill="#1D87C9" d="M675.205,104.787l10.25,23.4h-8.25l-6.149-14.6l-6.15,14.6h-8.25l10.25-23.4H675.205z M696.254,151.836
		h-7.5l1.95-11.15h-30.5v-6.1h30.5v-30.05h7.45v36.15L696.254,151.836z"/>
</g>
<g>
	<path fill="#1D87C9" d="M51.767,104.454c1.5,0,2.917,0.283,4.25,0.85c1.334,0.567,2.492,1.35,3.475,2.35
		c0.984,1,1.758,2.159,2.326,3.475c0.566,1.317,0.85,2.725,0.85,4.225v5c0,1.5-0.283,2.917-0.85,4.25
		c-0.568,1.333-1.342,2.492-2.326,3.475c-0.982,0.983-2.141,1.758-3.475,2.325c-1.333,0.567-2.75,0.85-4.25,0.85h-3.95
		c-1.5,0-2.917-0.283-4.25-0.85c-1.333-0.566-2.492-1.341-3.475-2.325c-0.984-0.983-1.759-2.142-2.325-3.475
		c-0.567-1.333-0.85-2.75-0.85-4.25v-5c0-1.5,0.283-2.908,0.85-4.225c0.566-1.316,1.341-2.475,2.325-3.475
		c0.982-1,2.141-1.783,3.475-2.35c1.333-0.566,2.75-0.85,4.25-0.85H51.767z M46.117,144.754h23.899v-40.55h7v47.3H39.117v-15.4h7
		V144.754z M47.816,111.354c-1.1,0-2.042,0.392-2.825,1.175c-0.784,0.784-1.175,1.725-1.175,2.825v5c0,1.1,0.392,2.042,1.175,2.825
		c0.783,0.784,1.725,1.175,2.825,1.175h3.95c1.1,0,2.042-0.392,2.825-1.175c0.782-0.783,1.174-1.725,1.174-2.825v-5
		c0-1.1-0.393-2.042-1.174-2.825c-0.784-0.783-1.725-1.175-2.825-1.175H47.816z"/>
	<path fill="#1D87C9" d="M101.716,111.154h-17.95v-6.7h25.8v6.7l-5.75,40.05h-7.7L101.716,111.154z M125.017,151.504h-7.701v-47.3
		h7.701V151.504z"/>
</g>
<path fill="#1D87C9" d="M124.082,41.406c-0.207-0.635-0.756-1.096-1.416-1.192l-27.729-4.029L82.538,11.058
	c-0.296-0.598-0.904-0.976-1.571-0.976s-1.276,0.379-1.571,0.977l-12.4,25.126l-27.729,4.029c-0.66,0.096-1.208,0.558-1.414,1.192
	c-0.205,0.635-0.034,1.331,0.444,1.796L58.36,62.76l-4.737,27.618c-0.113,0.657,0.158,1.322,0.697,1.713
	c0.305,0.221,0.666,0.334,1.03,0.334c0.279,0,0.559-0.065,0.815-0.2l24.802-13.04l24.799,13.039c0.591,0.309,1.306,0.26,1.845-0.133
	s0.811-1.058,0.698-1.714l-4.737-27.618l20.065-19.558C124.115,42.737,124.287,42.041,124.082,41.406z"/>
</svg>
