<?xml version="1.0" encoding="utf-8"?>
<!-- Generator: Adobe Illustrator 16.0.0, SVG Export Plug-In . SVG Version: 6.00 Build 0)  -->
<!DOCTYPE svg PUBLIC "-//W3C//DTD SVG 1.1//EN" "http://www.w3.org/Graphics/SVG/1.1/DTD/svg11.dtd">
<svg version="1.1" id="Layer_1" xmlns="http://www.w3.org/2000/svg" xmlns:xlink="http://www.w3.org/1999/xlink" x="0px" y="0px"
	 width="98.583px" height="55.75px" viewBox="0 0 98.583 55.75" enable-background="new 0 0 98.583 55.75" xml:space="preserve">
<path fill="none" stroke="#ECECEC" stroke-width="3" stroke-miterlimit="10" d="M96.167,28.568c0,14.045-11.82,25.431-25.867,25.431
	H27.163c-14.045,0-24.997-11.386-24.997-25.431v-1.139c0-14.045,10.951-25.431,24.997-25.431h43.136
	c14.047,0,25.867,11.386,25.867,25.431V28.568z"/>
<g display="none">
	<path display="inline" fill="#666666" d="M31.586,15.702c0.72,0,1.4,0.136,2.04,0.408c0.64,0.272,1.196,0.648,1.668,1.128
		c0.472,0.48,0.844,1.036,1.116,1.668c0.272,0.632,0.408,1.308,0.408,2.028v2.4c0,0.72-0.136,1.4-0.408,2.04
		c-0.272,0.64-0.645,1.196-1.116,1.668c-0.472,0.472-1.028,0.844-1.668,1.116c-0.64,0.272-1.32,0.408-2.04,0.408H29.69
		c-0.72,0-1.4-0.136-2.04-0.408c-0.64-0.272-1.196-0.644-1.668-1.116c-0.472-0.472-0.844-1.028-1.116-1.668
		c-0.272-0.64-0.408-1.32-0.408-2.04v-2.4c0-0.72,0.136-1.396,0.408-2.028c0.271-0.632,0.644-1.188,1.116-1.668
		c0.472-0.48,1.028-0.856,1.668-1.128s1.32-0.408,2.04-0.408H31.586z M28.875,35.046h11.472V15.583h3.36v22.704H25.515v-7.393h3.36
		V35.046z M29.69,19.014c-0.528,0-0.98,0.188-1.356,0.564c-0.376,0.376-0.564,0.828-0.564,1.356v2.4c0,0.528,0.188,0.98,0.564,1.356
		s0.828,0.564,1.356,0.564h1.896c0.528,0,0.98-0.188,1.356-0.564s0.564-0.828,0.564-1.356v-2.4c0-0.528-0.188-0.979-0.564-1.356
		c-0.376-0.375-0.828-0.564-1.356-0.564H29.69z"/>
	<path display="inline" fill="#666666" d="M63.243,18.918h-8.616v-3.216H67.01v3.216l-2.76,19.224h-3.696L63.243,18.918z
		 M74.426,38.287H70.73V15.583h3.696V38.287z"/>
</g>
<g display="none">
	<path display="inline" fill="#666666" d="M33.396,15.834v3.264l-1.032,9.528h-3.504l1.032-9.528h-6.84v-3.264H33.396z
		 M38.676,30.331c0.592,0,1.147,0.1,1.668,0.301c0.52,0.199,0.972,0.479,1.355,0.84c0.385,0.359,0.688,0.787,0.912,1.283
		s0.336,1.041,0.336,1.633s-0.112,1.131-0.336,1.619s-0.527,0.912-0.912,1.271c-0.384,0.361-0.836,0.641-1.355,0.84
		c-0.521,0.201-1.076,0.301-1.668,0.301h-9.792c-0.592,0-1.148-0.1-1.668-0.301c-0.52-0.199-0.972-0.479-1.356-0.84
		c-0.384-0.359-0.688-0.783-0.912-1.271c-0.225-0.488-0.336-1.027-0.336-1.619s0.112-1.137,0.336-1.633
		c0.224-0.496,0.528-0.924,0.912-1.283c0.384-0.361,0.836-0.641,1.356-0.84c0.52-0.201,1.076-0.301,1.668-0.301H38.676z
		 M28.884,33.331c-0.288,0-0.532,0.104-0.732,0.313c-0.2,0.207-0.3,0.455-0.3,0.744c0,0.271,0.1,0.512,0.3,0.719
		c0.2,0.209,0.444,0.313,0.732,0.313h9.792c0.288,0,0.536-0.104,0.744-0.313c0.207-0.207,0.312-0.447,0.312-0.719
		c0-0.289-0.104-0.537-0.312-0.744c-0.208-0.209-0.456-0.313-0.744-0.313H28.884z M39.348,23.395v-2.232H35.34v-2.88h4.008v-2.568
		h3.504v12.912h-3.504v-2.328H35.34v-2.904H39.348z"/>
	<path display="inline" fill="#666666" d="M61.331,26.923l3.816,11.376h-3.359l-2.184-6.48l-2.256,6.48h-3.625l6.816-19.249h-6.408
		v-3.216h9.959v3.216L61.331,26.923z M69.155,38.418h-3.096v-11.16h-2.736v-3.072h2.736v-8.472h3.096V38.418z M74.028,38.418H70.86
		V15.715h3.168V38.418z"/>
</g>
<g>
	<path fill="#666666" d="M37.122,25.758l1.225-6.384H24.45v-3.552h17.4v3.552l-1.225,6.384h3.023v3.048H23.01v-3.048H37.122z
		 M42.259,30.438v7.969H24.402v-7.969H42.259z M38.897,33.222H27.763v2.4h11.135V33.222z"/>
	<path fill="#666666" d="M54.737,34.35c0-0.56,0.104-1.08,0.313-1.56c0.207-0.48,0.492-0.9,0.852-1.26
		c0.361-0.36,0.781-0.644,1.26-0.853c0.48-0.207,1-0.328,1.561-0.359v-1.393h-4.992v-3.024H74.37v3.024h-4.992v1.393
		c0.543,0.031,1.061,0.152,1.549,0.359c0.486,0.209,0.91,0.492,1.271,0.853c0.359,0.359,0.643,0.779,0.852,1.26
		c0.207,0.479,0.313,1,0.313,1.56c0,0.592-0.113,1.136-0.336,1.633c-0.225,0.495-0.529,0.924-0.912,1.283
		c-0.385,0.36-0.836,0.64-1.357,0.84c-0.52,0.2-1.076,0.301-1.668,0.301H59.01c-0.594,0-1.148-0.101-1.67-0.301
		c-0.52-0.2-0.971-0.479-1.355-0.84c-0.383-0.359-0.688-0.788-0.912-1.283C54.848,35.486,54.737,34.942,54.737,34.35z M59.01,24.51
		c-0.576,0-1.113-0.1-1.609-0.3c-0.496-0.2-0.928-0.484-1.295-0.852c-0.369-0.368-0.656-0.824-0.865-1.368
		c-0.207-0.543-0.311-1.152-0.311-1.824c0-0.656,0.104-1.252,0.311-1.788c0.209-0.536,0.496-0.992,0.865-1.368
		c0.367-0.375,0.799-0.667,1.295-0.876c0.496-0.208,1.033-0.312,1.609-0.312h10.078c0.545,0,1.064,0.092,1.561,0.276
		s0.928,0.46,1.297,0.828c0.367,0.368,0.664,0.824,0.887,1.368c0.225,0.544,0.336,1.168,0.336,1.872
		c0,0.672-0.104,1.276-0.311,1.812c-0.209,0.536-0.496,0.992-0.865,1.368c-0.367,0.376-0.799,0.665-1.295,0.864
		c-0.496,0.2-1.033,0.3-1.609,0.3H59.01z M57.977,34.35c0,0.288,0.1,0.544,0.301,0.769c0.199,0.224,0.443,0.336,0.732,0.336h10.078
		c0.289,0,0.533-0.112,0.732-0.336c0.201-0.225,0.301-0.48,0.301-0.769s-0.1-0.543-0.301-0.768
		c-0.199-0.224-0.443-0.336-0.732-0.336H59.01c-0.289,0-0.533,0.112-0.732,0.336C58.077,33.807,57.977,34.062,57.977,34.35z
		 M68.969,21.271c0.305,0,0.541-0.112,0.709-0.336s0.252-0.48,0.252-0.768c0-0.304-0.094-0.564-0.277-0.78
		c-0.184-0.216-0.412-0.324-0.684-0.324h-9.863c-0.32,0-0.561,0.116-0.721,0.348s-0.24,0.484-0.24,0.756s0.08,0.524,0.24,0.756
		c0.16,0.232,0.4,0.348,0.721,0.348H68.969z M62.178,30.294h3.742v-1.368h-3.742V30.294z"/>
</g>
<text transform="matrix(1 0 0 1 21.8101 34.0864)" display="none" fill="#666666" font-family="'BMDoHyeon'" font-size="24">주 식</text>
<text transform="matrix(1 0 0 1 21.8101 34.0864)" display="none" fill="#666666" font-family="'BMDoHyeon'" font-size="24">기 업</text>
</svg>
