<?xml version="1.0" encoding="utf-8"?>
<!-- Generator: Adobe Illustrator 16.0.0, SVG Export Plug-In . SVG Version: 6.00 Build 0)  -->
<!DOCTYPE svg PUBLIC "-//W3C//DTD SVG 1.1//EN" "http://www.w3.org/Graphics/SVG/1.1/DTD/svg11.dtd">
<svg version="1.1" id="Layer_1" xmlns="http://www.w3.org/2000/svg" xmlns:xlink="http://www.w3.org/1999/xlink" x="0px" y="0px"
	 width="98.583px" height="55.75px" viewBox="0 0 98.583 55.75" enable-background="new 0 0 98.583 55.75" xml:space="preserve">
<path fill="none" stroke="#ECECEC" stroke-width="3" stroke-miterlimit="10" d="M96.167,28.568c0,14.045-11.82,25.431-25.867,25.431
	H27.163c-14.045,0-24.997-11.386-24.997-25.431v-1.139c0-14.045,10.951-25.431,24.997-25.431h43.136
	c14.047,0,25.867,11.386,25.867,25.431V28.568z"/>
<g display="none">
	<path display="inline" fill="#666666" d="M31.345,16.734c0.72,0,1.399,0.137,2.04,0.408c0.64,0.272,1.195,0.648,1.668,1.128
		c0.472,0.48,0.844,1.036,1.116,1.668c0.271,0.633,0.407,1.309,0.407,2.028v2.4c0,0.72-0.136,1.399-0.407,2.04
		c-0.272,0.64-0.645,1.196-1.116,1.668c-0.473,0.472-1.028,0.844-1.668,1.115c-0.641,0.272-1.32,0.409-2.04,0.409h-1.896
		c-0.72,0-1.399-0.137-2.04-0.409c-0.64-0.271-1.196-0.644-1.668-1.115s-0.844-1.028-1.115-1.668
		c-0.272-0.641-0.408-1.32-0.408-2.04v-2.4c0-0.72,0.136-1.396,0.408-2.028c0.271-0.632,0.644-1.188,1.115-1.668
		c0.472-0.479,1.028-0.855,1.668-1.128c0.641-0.271,1.32-0.408,2.04-0.408H31.345z M28.633,36.079h11.472V16.615h3.36v22.704H25.273
		v-7.393h3.36V36.079z M29.449,20.046c-0.527,0-0.979,0.188-1.355,0.563c-0.376,0.377-0.564,0.828-0.564,1.356v2.4
		c0,0.527,0.188,0.979,0.564,1.355s0.828,0.564,1.355,0.564h1.896c0.528,0,0.979-0.188,1.355-0.564s0.564-0.828,0.564-1.355v-2.4
		c0-0.528-0.188-0.979-0.564-1.356c-0.376-0.375-0.827-0.563-1.355-0.563H29.449z"/>
	<path display="inline" fill="#666666" d="M63.001,19.951h-8.616v-3.217h12.384v3.217l-2.76,19.224h-3.696L63.001,19.951z
		 M74.185,39.319h-3.696V16.615h3.696V39.319z"/>
</g>
<g display="none">
	<path display="inline" fill="#666666" d="M34.022,16.766v3.264l-1.032,9.529h-3.504l1.032-9.529h-6.84v-3.264H34.022z
		 M39.302,31.262c0.592,0,1.147,0.1,1.668,0.301c0.52,0.199,0.972,0.479,1.355,0.84c0.385,0.359,0.688,0.787,0.912,1.283
		s0.336,1.041,0.336,1.633s-0.112,1.131-0.336,1.619s-0.527,0.912-0.912,1.271c-0.384,0.361-0.836,0.641-1.355,0.84
		c-0.521,0.201-1.076,0.301-1.668,0.301H29.51c-0.592,0-1.148-0.1-1.668-0.301c-0.521-0.199-0.972-0.479-1.356-0.84
		c-0.384-0.359-0.688-0.783-0.911-1.271c-0.225-0.488-0.337-1.027-0.337-1.619s0.112-1.137,0.337-1.633
		c0.224-0.496,0.527-0.924,0.911-1.283c0.385-0.361,0.836-0.641,1.356-0.84c0.52-0.201,1.076-0.301,1.668-0.301H39.302z
		 M29.51,34.262c-0.288,0-0.532,0.104-0.732,0.313c-0.2,0.207-0.3,0.455-0.3,0.744c0,0.271,0.1,0.512,0.3,0.719
		c0.2,0.209,0.444,0.313,0.732,0.313h9.792c0.288,0,0.536-0.104,0.744-0.313c0.207-0.207,0.312-0.447,0.312-0.719
		c0-0.289-0.104-0.537-0.312-0.744c-0.208-0.209-0.456-0.313-0.744-0.313H29.51z M39.974,24.326v-2.232h-4.008v-2.88h4.008v-2.568
		h3.504v12.913h-3.504V27.23h-4.008v-2.904H39.974z"/>
	<path display="inline" fill="#666666" d="M61.957,27.854l3.816,11.376h-3.359l-2.184-6.48l-2.256,6.48h-3.625l6.816-19.249h-6.408
		v-3.216h9.959v3.216L61.957,27.854z M69.781,39.35h-3.096V28.19h-2.736v-3.072h2.736v-8.472h3.096V39.35z M74.654,39.35h-3.168
		V16.646h3.168V39.35z"/>
</g>
<g>
	<path fill="#666666" d="M37.36,26.7l1.225-6.384H24.688v-3.552h17.4v3.552L40.864,26.7h3.023v3.049H23.249V26.7H37.36z
		 M42.497,31.38v7.969H24.64V31.38H42.497z M39.136,34.165H28.001v2.4h11.135V34.165z"/>
	<path fill="#666666" d="M54.975,35.292c0-0.56,0.104-1.08,0.313-1.56c0.207-0.48,0.492-0.9,0.852-1.26
		c0.361-0.36,0.781-0.644,1.26-0.853c0.48-0.207,1-0.328,1.561-0.359v-1.393h-4.992v-3.024h20.641v3.024h-4.992v1.393
		c0.543,0.031,1.061,0.152,1.549,0.359c0.486,0.209,0.91,0.492,1.271,0.853c0.359,0.359,0.643,0.779,0.852,1.26
		c0.207,0.479,0.313,1,0.313,1.56c0,0.592-0.113,1.136-0.336,1.633c-0.225,0.495-0.529,0.924-0.912,1.283
		c-0.385,0.36-0.836,0.64-1.357,0.84c-0.52,0.2-1.076,0.301-1.668,0.301H59.249c-0.594,0-1.148-0.101-1.67-0.301
		c-0.52-0.2-0.971-0.479-1.355-0.84c-0.383-0.359-0.688-0.788-0.912-1.283C55.086,36.428,54.975,35.884,54.975,35.292z
		 M59.249,25.452c-0.576,0-1.113-0.1-1.609-0.3c-0.496-0.2-0.928-0.484-1.295-0.852c-0.369-0.368-0.656-0.824-0.865-1.368
		c-0.207-0.543-0.311-1.152-0.311-1.824c0-0.656,0.104-1.252,0.311-1.788c0.209-0.536,0.496-0.992,0.865-1.368
		c0.367-0.375,0.799-0.667,1.295-0.876c0.496-0.208,1.033-0.312,1.609-0.312h10.078c0.545,0,1.064,0.092,1.561,0.276
		s0.928,0.46,1.297,0.828c0.367,0.368,0.664,0.824,0.887,1.368c0.225,0.544,0.336,1.168,0.336,1.872
		c0,0.672-0.104,1.276-0.311,1.812c-0.209,0.536-0.496,0.992-0.865,1.368c-0.367,0.376-0.799,0.665-1.295,0.864
		c-0.496,0.2-1.033,0.3-1.609,0.3H59.249z M58.215,35.292c0,0.288,0.1,0.544,0.301,0.769c0.199,0.224,0.443,0.336,0.732,0.336
		h10.078c0.289,0,0.533-0.112,0.732-0.336c0.201-0.225,0.301-0.48,0.301-0.769s-0.1-0.543-0.301-0.768
		c-0.199-0.224-0.443-0.336-0.732-0.336H59.249c-0.289,0-0.533,0.112-0.732,0.336C58.315,34.75,58.215,35.004,58.215,35.292z
		 M69.208,22.212c0.305,0,0.541-0.112,0.709-0.336s0.252-0.48,0.252-0.768c0-0.304-0.094-0.564-0.277-0.78
		c-0.184-0.216-0.412-0.324-0.684-0.324h-9.863c-0.32,0-0.561,0.116-0.721,0.348s-0.24,0.484-0.24,0.756s0.08,0.524,0.24,0.756
		c0.16,0.232,0.4,0.348,0.721,0.348H69.208z M62.417,31.237h3.742v-1.368h-3.742V31.237z"/>
</g>
<g display="none">
	<path display="inline" fill="#666666" d="M44.098,30.042v3h-8.639v6.336h-3.361v-6.336h-8.639v-3H44.098z M34.283,20.058h-9.937
		v-3.24h18.865v2.761l-6.361,3l6.193,2.424v3.479l-9.938-4.128l-8.759,4.128V24.93L34.283,20.058z"/>
	<path display="inline" fill="#666666" d="M62.962,16.794l4.92,11.231h-3.961l-2.951-7.008l-2.953,7.008h-3.959l4.92-11.231H62.962z
		 M73.066,39.378h-3.6l0.936-5.353H55.761v-2.928h14.641V16.674h3.576v17.352L73.066,39.378z"/>
</g>
<g display="none">
	<path display="inline" fill="#666666" d="M32.522,19.983h-8.615v-3.216H36.29v3.216l-2.76,19.224h-3.695L32.522,19.983z
		 M43.706,39.351H40.01V16.647h3.695V39.351z"/>
	<path display="inline" fill="#666666" d="M74.425,16.647v22.704H56.232v-9.36h3.385v2.088h11.447v-7.896h-4.248
		c-0.08,0.592-0.295,1.14-0.646,1.644c-0.354,0.504-0.793,0.937-1.32,1.296c-0.527,0.36-1.133,0.645-1.813,0.853
		s-1.389,0.312-2.123,0.312c-0.801,0-1.549-0.115-2.244-0.348c-0.697-0.231-1.305-0.556-1.824-0.972
		c-0.521-0.416-0.934-0.904-1.236-1.464c-0.305-0.561-0.457-1.168-0.457-1.824v-2.28c0-0.752,0.172-1.42,0.518-2.004
		c0.344-0.584,0.787-1.071,1.332-1.464c0.543-0.392,1.146-0.692,1.811-0.9c0.664-0.207,1.324-0.312,1.98-0.312h0.168
		c0.752,0,1.469,0.107,2.148,0.324c0.68,0.216,1.283,0.508,1.813,0.876c0.527,0.368,0.959,0.812,1.295,1.332
		c0.336,0.52,0.537,1.076,0.6,1.668h4.248v-4.272H74.425z M63.48,22.023c0-0.304-0.063-0.588-0.191-0.852
		c-0.129-0.265-0.305-0.496-0.527-0.696c-0.225-0.2-0.488-0.356-0.793-0.468c-0.303-0.112-0.623-0.168-0.959-0.168
		s-0.652,0.056-0.949,0.168c-0.295,0.111-0.555,0.268-0.779,0.468s-0.4,0.432-0.527,0.696c-0.129,0.264-0.193,0.548-0.193,0.852
		v1.176c0,0.305,0.064,0.588,0.193,0.853c0.127,0.264,0.303,0.496,0.527,0.695c0.225,0.2,0.484,0.356,0.779,0.469
		c0.297,0.111,0.613,0.168,0.949,0.168s0.656-0.057,0.959-0.168c0.305-0.112,0.568-0.269,0.793-0.469
		c0.223-0.199,0.398-0.432,0.527-0.695c0.129-0.265,0.191-0.548,0.191-0.853V22.023z M71.064,34.838H59.617v1.729h11.447V34.838z"/>
</g>
</svg>
