<?xml version="1.0" encoding="utf-8"?>
<!-- Generator: Adobe Illustrator 16.0.0, SVG Export Plug-In . SVG Version: 6.00 Build 0)  -->
<!DOCTYPE svg PUBLIC "-//W3C//DTD SVG 1.1//EN" "http://www.w3.org/Graphics/SVG/1.1/DTD/svg11.dtd">
<svg version="1.1" id="Layer_1" xmlns="http://www.w3.org/2000/svg" xmlns:xlink="http://www.w3.org/1999/xlink" x="0px" y="0px"
	 width="98.583px" height="55.75px" viewBox="0 0 98.583 55.75" enable-background="new 0 0 98.583 55.75" xml:space="preserve">
<path fill="none" stroke="#ECECEC" stroke-width="3" stroke-miterlimit="10" d="M96.167,28.568c0,14.045-11.82,25.431-25.867,25.431
	H27.163c-14.045,0-24.997-11.386-24.997-25.431v-1.139c0-14.045,10.951-25.431,24.997-25.431h43.136
	c14.047,0,25.867,11.386,25.867,25.431V28.568z"/>
<g display="none">
	<path display="inline" fill="#666666" d="M31.586,15.702c0.72,0,1.4,0.136,2.04,0.408c0.64,0.272,1.196,0.648,1.668,1.128
		c0.472,0.48,0.844,1.036,1.116,1.668c0.272,0.632,0.408,1.308,0.408,2.028v2.4c0,0.72-0.136,1.4-0.408,2.04
		c-0.272,0.64-0.645,1.196-1.116,1.668c-0.472,0.472-1.028,0.844-1.668,1.116c-0.64,0.272-1.32,0.408-2.04,0.408H29.69
		c-0.72,0-1.4-0.136-2.04-0.408c-0.64-0.272-1.196-0.644-1.668-1.116c-0.472-0.472-0.844-1.028-1.116-1.668
		c-0.272-0.64-0.408-1.32-0.408-2.04v-2.4c0-0.72,0.136-1.396,0.408-2.028c0.271-0.632,0.644-1.188,1.116-1.668
		c0.472-0.48,1.028-0.856,1.668-1.128s1.32-0.408,2.04-0.408H31.586z M28.875,35.046h11.472V15.583h3.36v22.704H25.515v-7.393h3.36
		V35.046z M29.69,19.014c-0.528,0-0.98,0.188-1.356,0.564c-0.376,0.376-0.564,0.828-0.564,1.356v2.4c0,0.528,0.188,0.98,0.564,1.356
		s0.828,0.564,1.356,0.564h1.896c0.528,0,0.98-0.188,1.356-0.564s0.564-0.828,0.564-1.356v-2.4c0-0.528-0.188-0.979-0.564-1.356
		c-0.376-0.375-0.828-0.564-1.356-0.564H29.69z"/>
	<path display="inline" fill="#666666" d="M63.243,18.918h-8.616v-3.216H67.01v3.216l-2.76,19.224h-3.696L63.243,18.918z
		 M74.426,38.287H70.73V15.583h3.696V38.287z"/>
</g>
<g>
	<path fill="#666666" d="M33.396,15.834v3.264l-1.032,9.528h-3.504l1.032-9.528h-6.84v-3.264H33.396z M38.676,30.331
		c0.592,0,1.147,0.1,1.668,0.301c0.52,0.199,0.972,0.479,1.355,0.84c0.385,0.359,0.688,0.787,0.912,1.283s0.336,1.041,0.336,1.633
		s-0.112,1.131-0.336,1.619s-0.527,0.912-0.912,1.271c-0.384,0.361-0.836,0.641-1.355,0.84c-0.521,0.201-1.076,0.301-1.668,0.301
		h-9.792c-0.592,0-1.148-0.1-1.668-0.301c-0.52-0.199-0.972-0.479-1.356-0.84c-0.384-0.359-0.688-0.783-0.912-1.271
		c-0.225-0.488-0.336-1.027-0.336-1.619s0.112-1.137,0.336-1.633c0.224-0.496,0.528-0.924,0.912-1.283
		c0.384-0.361,0.836-0.641,1.356-0.84c0.52-0.201,1.076-0.301,1.668-0.301H38.676z M28.884,33.331c-0.288,0-0.532,0.104-0.732,0.313
		c-0.2,0.207-0.3,0.455-0.3,0.744c0,0.271,0.1,0.512,0.3,0.719c0.2,0.209,0.444,0.313,0.732,0.313h9.792
		c0.288,0,0.536-0.104,0.744-0.313c0.207-0.207,0.312-0.447,0.312-0.719c0-0.289-0.104-0.537-0.312-0.744
		c-0.208-0.209-0.456-0.313-0.744-0.313H28.884z M39.348,23.395v-2.232H35.34v-2.88h4.008v-2.568h3.504v12.912h-3.504v-2.328H35.34
		v-2.904H39.348z"/>
	<path fill="#666666" d="M61.331,26.923l3.816,11.376h-3.359l-2.184-6.48l-2.256,6.48h-3.625l6.816-19.249h-6.408v-3.216h9.959
		v3.216L61.331,26.923z M69.155,38.418h-3.096v-11.16h-2.736v-3.072h2.736v-8.472h3.096V38.418z M74.028,38.418H70.86V15.715h3.168
		V38.418z"/>
</g>
</svg>
