<?xml version="1.0" encoding="utf-8"?>
<!-- Generator: Adobe Illustrator 16.0.0, SVG Export Plug-In . SVG Version: 6.00 Build 0)  -->
<!DOCTYPE svg PUBLIC "-//W3C//DTD SVG 1.1//EN" "http://www.w3.org/Graphics/SVG/1.1/DTD/svg11.dtd">
<svg version="1.1" xmlns="http://www.w3.org/2000/svg" xmlns:xlink="http://www.w3.org/1999/xlink" x="0px" y="0px" width="280px"
	 height="250px" viewBox="0 0 280 250" enable-background="new 0 0 280 250" xml:space="preserve">
<g id="사회초년생">
	<path fill="#444445" d="M-254.044,156.012l-27.349,4.668c0,0-12.024,1.831-10.818,9.342l14.125,55.832c0,0,1.8,12.17,0.902,16.439
		h113.645c0,0,2.19-13.4,5.132-18.882l20.06-54.404l0.619-2.538l-1.595-0.403l-39.875-10.054H-254.044z"/>
	<path fill="#444445" d="M-138.348,166.771c0,0,5.729-0.506,7.684,4.47l7.664,71.052h-41.328
		C-164.329,242.293-145.435,168.598-138.348,166.771z"/>
	<path fill="#444445" d="M-288.421,161.794c0,0-6.198,1.46-9.001,16.887l-20.038,63.612h43.283c0,0-17.633-78.234-7.216-81.613
		L-288.421,161.794z"/>
	<path fill="#FEE4D2" d="M-272.212,84.306V58.451c0,0,1.158-10.122,14.472-12.741l36.473-1.876v94.061
		C-221.268,137.896-257.741,143.891-272.212,84.306z"/>
	<path fill="#FEE4D2" d="M-170.974,84.306V58.451c0,0-1.156-10.122-14.47-12.741l-36.466-1.876v94.061
		C-221.91,137.896-185.444,143.891-170.974,84.306z"/>
	<path fill="#FEE4D2" d="M-236.379,133.535c0,0,8.892,21.508,8.317,23.463h21.12c0,0,1.882-18.216,5.081-26.949L-236.379,133.535z"
		/>
	<path fill="#FFFFFF" d="M-232.378,144.088c0,0-1.948,1.164-3.644,1.943c0,0-14.673,38.326,17.665,70.405
		c0,0,25.181-35.205,21.19-70.849l-6.938-2.659l-13.937,15.886L-232.378,144.088z"/>
	<polygon fill="#6D9FD4" points="-225.966,155.23 -218.36,146.888 -209.164,153.989 -214.046,162.209 -209.164,171.898 
		-218.357,216.437 -227.123,171.775 -221.804,161.944 	"/>
	<path fill="#FFFFFF" stroke="#D8D8D8" stroke-width="0.1" stroke-miterlimit="10" d="M-232.378,144.088l2.74,14.727l13.686-13.35
		C-215.953,145.465-227.357,146.629-232.378,144.088z"/>
	<path fill="#FFFFFF" stroke="#D8D8D8" stroke-width="0.1" stroke-miterlimit="10" d="M-204.104,142.441l-0.722,14.895
		l-15.405-11.892C-220.231,145.444-208.743,145.463-204.104,142.441z"/>
	<path fill="#343434" d="M-201.714,143.522c0,0,27.041,9.838,33.512,25.188l-14.461,7.194l9.211,5.757l-44.271,33.86
		C-217.724,215.522-194.742,168.68-201.714,143.522z"/>
	<path fill="#343434" d="M-233.848,144.924c0,0-27.8,10.353-34.271,25.703l16.157,3.741l-9.211,5.757l42.7,36.312
		C-218.474,216.437-240.82,170.083-233.848,144.924z"/>
	<path fill="#CCCCCC" d="M-214.964,228.793c0,1.708-1.421,3.083-3.174,3.083c-1.757,0-3.181-1.375-3.181-3.083
		c0-1.704,1.424-3.084,3.181-3.084C-216.385,225.709-214.964,227.089-214.964,228.793z"/>
	<path fill="#3C2C22" d="M-269.679,93.789c0,0-16.024-30.996-2.533-56.996c0,0,8.509-15.333,20.176-17
		c0,0,10.933-17.331,42.833-11.667c0,0,27.104,2.167,38.229,24.5c0,0,9.104,12.333,5.271,40c0,0-2.562,18.41-9.253,24.623
		c0,0,7.186-23.866-2.48-30.533c0,0-37.516-4.922-70.766-15.255C-248.203,51.461-265.376,73.117-269.679,93.789z"/>
	<g>
		<path fill="#344055" d="M-235.276,245.613c0,1.87-1.516,3.387-3.387,3.387h-77.904c-1.871,0-3.387-1.517-3.387-3.387v-57.809
			c0-1.87,1.516-3.387,3.387-3.387h77.904c1.871,0,3.387,1.517,3.387,3.387V245.613z"/>
		<rect x="-294.325" y="187.798" fill="none" stroke="#C4C2CE" stroke-miterlimit="10" width="3.387" height="3.733"/>
		<path fill="#273A4F" d="M-295.187,190.993l-3.439,16.936c0,0-0.736,1.857,3.439,2.622l3.93,0.229c0,0,1.965-0.142,3.439-1.948
			c0,0,0.736-0.775,0-5.13l-2.457-12.709H-295.187z"/>
		<rect x="-266.212" y="187.798" fill="none" stroke="#C4C2CE" stroke-miterlimit="10" width="3.387" height="3.733"/>
		<path fill="#273A4F" d="M-267.073,190.993l-3.439,16.936c0,0-0.736,1.857,3.439,2.622l3.93,0.229c0,0,1.966-0.142,3.439-1.948
			c0,0,0.736-0.775,0-5.13l-2.457-12.709H-267.073z"/>
		<path fill="none" stroke="#273A4F" stroke-width="4" stroke-miterlimit="10" d="M-292.632,188.422c0,0-3.563-19.222,15.225-19.222
			c0,0,13.71-0.833,12.889,19.349"/>
	</g>
	
		<ellipse transform="matrix(0.9823 0.1871 -0.1871 0.9823 14.3486 33.9545)" fill="#FEE4D2" cx="-172.726" cy="93" rx="3.607" ry="9.667"/>
	
		<ellipse transform="matrix(-0.9823 0.1871 -0.1871 -0.9823 -515.3101 234.63)" fill="#FEE4D2" cx="-268.726" cy="93" rx="3.607" ry="9.667"/>
</g>
<g id="결혼적령기">
	<path fill="#FEE4D2" d="M129.062,144.425v15.001c0,0,1.332,7-4,11.332c0,0-5.333,4.666-11.333,5.334c0,0-9-1-11.334,7.666
		c0,0-3.334,8.689-3.666,40.678l13,0.002l2.24-24.291l28.092,14.945l29.333-16.668l1.668,26.014l14.666-0.002l-3.334-32.012
		c0,0-0.666-12.666-8.666-15c0,0-9.666-4.002-12.334-3.834c0,0-6-2.5-7-7.166l-2.666-21.999H129.062z"/>
	<path fill="#FEE4D2" d="M76.728,235.191c0,0-1.34,10.574,0,12.313l20.438,1.062c0,0,1.352-9.684,1.472-13.375H76.728z"/>
	<path fill="#FEE4D2" d="M203.439,231.696c0,0,1.34,12.626,0,14.704l-20.438,1.267c0,0-1.352-11.563-1.473-15.971H203.439z"/>
	<path fill="#D8B09C" d="M94.071,176.568c0,0,11.268,45.58,4.832,71.998l81.822-2.401c0,0-1.256-52.884,2.975-66.893
		c0,0-25.812-6-26.713-9.915c0,0-12.181,16.791-27.491-0.106L94.071,176.568z"/>
	<path fill="#D1A18C" d="M95.178,176.524c0,0-17.478,1.307-21.534,48.739l28.655,2.706
		C102.299,227.97,97.987,186.627,95.178,176.524z"/>
	<path fill="#D1A18C" d="M183.133,179.532c0,0-5.686,18.125-3.314,47.539l26.76-3.608
		C206.578,223.463,197.607,181.783,183.133,179.532z"/>
	<path fill="#D8B09C" stroke="#D1A18C" stroke-miterlimit="10" d="M73.583,225.264l-5.714,7.992c0,0,2.045,4.277,6.679,2.251
		c0,0,2.662-1.613,4.516-0.037c0,0,1.814,2.025,4.323,1.764c0,0,1.256,0.3,4.372-1.013c0,0,1.65-0.939,2.422-0.301
		c0,0,1.428,1.651,2.856,1.914c0,0,2.046,0.713,3.706-1.238c0,0,2.315-2.401,4.67,0.638c0,0,1.891,1.425,2.972,1.501l-2.45-10.765
		L73.583,225.264z"/>
	<path fill="#D8B09C" stroke="#D1A18C" stroke-miterlimit="10" d="M206.73,223.763l5.4,7.994c0,0-1.934,4.277-6.313,2.251
		c0,0-2.518-1.613-4.27-0.037c0,0-1.715,2.026-4.088,1.763c0,0-1.188,0.301-4.133-1.012c0,0-1.561-0.939-2.289-0.301
		c0,0-1.352,1.651-2.701,1.914c0,0-1.936,0.713-3.504-1.238c0,0-2.189-2.401-4.416,0.637c0,0-1.787,1.428-2.809,1.502l2.316-10.767
		L206.73,223.763z"/>
	<path fill="#754E1E" d="M-30.333-166.105c0,0,16.993,12.948,24.622,18.125c0,0,2.188,32.916-16.882,51.712
		c0,0-4.088,17.709,7.9,25.065c0,0,13.895,8.447,24.248,8.174l24.248,4.086c0,0,14.984,6.268,18.525,22.07
		c0,0-6.539-24.521-27.789-36.236c0,0-5.721-3.543-6.813-5.994c0,0-4.631-18.799-1.088-38.959c0,0,3.256-18.978-3.207-45.969
		c0,0-0.258-3.523-3.525-11.332c0,0-8.355-19.48-15.439-25.611c0,0-10.535-12.385-34.328-12.347c0,0-22.568,2.902-24.338,11.62
		c0,0-17.073,5.813-24.702,25.247c0,0-8.207,18.206-8.343,38.095c0,0,0.214,48.499-2.448,57.186c0,0-2.378,13.197-3.195,19.191
		c0,0-1.227,5.586-4.479,10.428c0,0-11.867,11.641-12.685,22.811c0,0-1.635,24.93,12.26,28.744c0,0-1.297-8.502,2.006-13.508
		c0.074-0.115,0.152-0.23,0.232-0.346c3.541-5.039-0.195,5.68,11.248,8.404c0,0,7.629,2.996,23.08-0.775
		c0,0,12.201-4.402,14.518-9.305c0,0-17.301,0-17.301-10.08c0-10.082,2.654-12.098,4.562-16.32c0,0,6.064-15.422,6.882-18.146
		c0,0,5.795-20.205,2.934-30.693c0,0-11.106-11.76-16.555-28.834c0,0-4.211-24.109-0.397-29.376
		C-76.583-148.98-38.371-154.527-30.333-166.105z"/>
	
		<ellipse transform="matrix(0.9984 -0.0559 0.0559 0.9984 -21.752 -11.6172)" fill="#FEE4D2" cx="-218.629" cy="383.187" rx="42.139" ry="45.81"/>
	<path fill="#FEE4D2" d="M-235.602,415.574c0,0,2.41,20.589-1.09,32.421c0,0,21.275,9.352,44.148-6.086
		c0,0-7.193-5.996-5.781-23.522L-235.602,415.574z"/>
	<path fill="#FEE4D2" d="M-311.159,531.644c0,0-1.926,15.195,0,17.695l29.37,1.525c0,0,1.942-13.916,2.115-19.221H-311.159z"/>
	<path fill="#FEE4D2" d="M-129.065,526.62c0,0,1.926,18.145,0,21.131l-29.369,1.82c0,0-1.943-16.617-2.115-22.951H-129.065z"/>
	<path fill="#D8B09C" d="M-286.234,447.397c0,0,16.193,65.502,6.943,103.467l117.583-3.451c0,0-1.803-75.998,4.275-96.129
		c0,0-37.093-8.623-38.388-14.25c0,0-17.505,24.131-39.507-0.152L-286.234,447.397z"/>
	<path fill="#D1A18C" d="M-284.644,447.335c0,0-25.116,1.877-30.946,70.041l41.18,3.889
		C-274.411,521.265-280.608,461.853-284.644,447.335z"/>
	<path fill="#D1A18C" d="M-158.245,451.657c0,0-8.172,26.047-4.766,68.316l38.457-5.186
		C-124.554,514.788-137.446,454.892-158.245,451.657z"/>
	<path fill="#D8B09C" stroke="#D1A18C" stroke-miterlimit="10" d="M-315.678,517.376l-8.211,11.486c0,0,2.939,6.146,9.598,3.234
		c0,0,3.826-2.318,6.49-0.053c0,0,2.606,2.91,6.212,2.533c0,0,1.805,0.432,6.282-1.455c0,0,2.371-1.35,3.48-0.432
		c0,0,2.053,2.373,4.105,2.75c0,0,2.94,1.025,5.325-1.779c0,0,3.328-3.451,6.712,0.916c0,0,2.718,2.049,4.271,2.158l-3.521-15.471
		L-315.678,517.376z"/>
	<path fill="#D8B09C" stroke="#D1A18C" stroke-miterlimit="10" d="M-124.335,515.22l7.762,11.488c0,0-2.779,6.146-9.072,3.234
		c0,0-3.619-2.318-6.137-0.053c0,0-2.463,2.912-5.873,2.533c0,0-1.707,0.432-5.939-1.455c0,0-2.242-1.35-3.291-0.432
		c0,0-1.941,2.373-3.881,2.75c0,0-2.781,1.025-5.035-1.779c0,0-3.146-3.451-6.346,0.916c0,0-2.568,2.051-4.037,2.158l3.328-15.473
		L-124.335,515.22z"/>
	
		<ellipse transform="matrix(0.9824 0.187 -0.187 0.9824 68.306 40.6863)" fill="#FEE4D2" cx="-181.443" cy="382.296" rx="3.608" ry="9.668"/>
	
		<ellipse transform="matrix(-0.9823 0.1871 -0.1871 -0.9823 -430.8944 805.2555)" fill="#FEE4D2" cx="-253.443" cy="382.296" rx="3.607" ry="9.668"/>
	<path fill="#754E1E" d="M-203.398,355.287c0,0-24.535,26.825-57.268,26.013c0,0-6.408,23.634,23.974,44.855
		c0,0,2.729,1.384,1.365,12.497c0,0,3.928,44.147-10.072,56.991c0,0-14.756,6.555-8.044,17.699c0,0,3.378,8.24,10.711,9.692
		c0,0-31.671,10.203-43.502-8.506c0,0-6.498,1.098-3.165,13.861c0,0-26.537-12.648-5.602-58.609c0,0,7.719-13.391,15.327-20.676
		c0,0,6.358-6.285,8.261-26.285c0,0,0-48.273,2.681-62.303c0,0,7.94-37.746,50.104-37.742c0,0,39.699-1.265,46.131,40.891
		c0,0,4.193,82.887,6.313,87.188c0,0-27.885-6.786-29.636-12.049c0,0-3.116-5.613-2.681-13.632c0,0,20.306-12.788,21.037-36.403
		C-177.464,388.77-204.064,370.086-203.398,355.287z"/>
	
		<ellipse transform="matrix(0.9823 0.1871 -0.1871 0.9823 69.6659 39.8826)" fill="#FEE4D2" cx="-176.476" cy="389.05" rx="3.607" ry="9.667"/>
	
		<ellipse transform="matrix(-0.9816 0.1909 -0.1909 -0.9816 -442.335 822.7079)" fill="#FEE4D2" cx="-260.792" cy="390.05" rx="3.607" ry="9.667"/>
	<ellipse fill="#FEE4D2" cx="142.093" cy="101.254" rx="46.833" ry="50.845"/>
	<path fill="#754E1E" d="M156.244,59.754c0,0-26.202,27.393-58.936,26.58c0,0-11.708,33.935,18.675,55.157
		c0,0,3.103,2.992,6.392,4.717c2.851,1.496,8.072,2.33,7.524,6.784c0,0-1.656,34.275-15.656,47.119c0,0-14.756,6.555-8.044,17.699
		c0,0,3.378,8.24,10.711,9.691c0,0-31.671,10.203-43.502-8.506c0,0-6.498,1.098-3.165,13.861c0,0-26.537-12.648-5.602-58.609
		c0,0,7.719-13.391,15.327-20.676c0,0,2.695-8.249,4.598-28.249c0,0-0.264-49.149,2.417-63.178c0,0,11.868-34.906,54.031-34.902
		c0,0,39.699-1.265,46.131,40.89c0,0,3.645,96.316,5.764,100.617c0,0,1.021,8.878-3.493,9.683c-1.32,0.235-1.043,3.811-1.844,3.067
		c-1.446-1.344-3.608-1.227-5.79-2.188c-2.896-1.274-7.147-2.444-9.778-3.135c-5.513-1.447-10.842-3.104-13.932-5.502
		c-4.383-3.4-3.192-18.85-3.634-20.176c0,0,22.193-12.434,22.629-20.452c0,0,4.597-15.858,5.327-39.474
		C182.394,90.574,155.578,74.553,156.244,59.754z"/>
	
		<ellipse transform="matrix(0.9683 -0.2497 0.2497 0.9683 -25.9651 27.3279)" fill="#FEE4D2" cx="94.728" cy="116.003" rx="5" ry="10.701"/>
	<path fill="#FEE4D2" d="M185.036,114.602c-1.23,5.78-2.986,8.377-0.285,8.952c2.701,0.574,5.887-3.646,7.116-9.428
		c1.23-5.779,0.036-10.932-2.665-11.506S186.266,108.821,185.036,114.602z"/>
</g>
<g id="신혼부부">
	<g>
		<path fill="#471F14" d="M387.217,41.482c0,0-49.333-0.167-54.166,51.5c0,0-12.668,24.001,2.832,60.167
			c0,0,15.334,27.166,15.167,32.333c0,0,4.667,13.333-5,16.333c0,0-7.167,2.168-9.5-8.666c0,0-2.292,11.082,9.583,14.082l-11.25-3
			c0,0,7.167,15.085,15.167,17.418h80.833c0,0,9.334-3.834,12.5-14.167c0,0-7.666,3.834-11.333,0.667c0,0,17.001-0.5,13.667-12.667
			c0,0,0.833,12.834-14.834,8.667c0,0-3.166-1.501-2.666-7.834c0,0,2.666-10,7.833-20.333c0,0,14.167-29.5,14.833-34.5
			c0,0,6.5-20,0-46c0,0-6.332-35-23.666-44.167C427.217,51.316,412.717,39.649,387.217,41.482z"/>
		<ellipse fill="#FEE4D2" cx="390.974" cy="118.405" rx="46.833" ry="50.846"/>
		<path fill="#471F14" d="M362.307,78.654c0,0,7.744,16.661,26.41,17.328c0,0-9.333-7-10.666-11c0,0,8.166,10.167,18.332,8.333
			c0,0-8-3.333-8.166-7.833c0,0,6.666,9,36.666,7.167c0,0,7.334,8,8.668,29.667c1.332,21.666,0,0.666,0,0.666s-0.334,20.833-5.5,34
			c0,0-1.5,4.333-1,9c0,0,4.166-9.5,7.832-15.5c0,0,6-13.333,8-23c0,0,6.834-27,1.668-40.833c0,0-7.834-25.5-26.168-28
			c-18.332-2.5-54.242-2.495-65.576,15.005c0,0-10.924,8.161-13.424,44.995c0,0-2,14.833,7,31.667c0,0,8.674,9.256,8.674,14.089
			c0,0-4.916-19.333-6.916-30.5C348.141,133.904,346.641,87.488,362.307,78.654z"/>
		
			<ellipse transform="matrix(0.9683 -0.2497 0.2497 0.9683 -22.364 90.0163)" fill="#FEE4D2" cx="343.609" cy="133.154" rx="5" ry="10.702"/>
		
			<ellipse transform="matrix(-0.9683 -0.2497 0.2497 -0.9683 825.8567 376.457)" fill="#FEE4D2" cx="436.807" cy="135.845" rx="5" ry="10.702"/>
		<path fill="#FEE4D2" d="M381.474,163.392v15c0,0,1.333,7-4,11.333c0,0-5.333,4.666-11.333,5.333c0,0-9-1-11.334,7.667
			c0,0-3.334,8.689-3.666,40.678l13,0.002l2.24-24.291l28.093,14.944l29.333-16.667l1.667,26.014l14.667-0.002l-3.334-32.012
			c0,0-0.666-12.667-8.666-15c0,0-9.666-4.002-12.334-3.834c0,0-6-2.5-7-7.166l-2.666-21.999H381.474z"/>
		<path fill="#FFFFFF" d="M365.637,195.071l5.167-1c0,0,6,22.5,6.167,24.667c0,0,13.833,0.834,18.333,9.167
			c0,0,8.667-11.001,18.667-8.834l5.666-26l3.5,0.834l0.667,27.166c0,0,5.333,16.501-1.833,25.834h-56.334
			c0,0-5.166-11.334,0.834-23.834L365.637,195.071z"/>
		<path fill="#FEFBE3" d="M366.432,72.809c0,0,24.542-12.167,49.084,0.191C415.516,73,392.547,48.642,366.432,72.809z"/>
		<g>
			<path fill="none" stroke="#FEFBE3" stroke-miterlimit="10" d="M368.859,71.345c0,0-11.256-6.5-4.006-11.75"/>
			<path fill="none" stroke="#FEFBE3" stroke-miterlimit="10" d="M371.859,68.845c0,0-12-7-5-11.5c0,0,3.027-1.444,3.777-0.444"/>
			<path fill="none" stroke="#FEFBE3" stroke-miterlimit="10" d="M376.609,65.845c0,0-11.918-10.833-2.084-12.5"/>
			<path fill="none" stroke="#FEFBE3" stroke-miterlimit="10" d="M383.891,63.654c0,0-16.031-9.643-6.281-12.809
				c0,0,1.583-0.833,5-0.417"/>
			<path fill="none" stroke="#FEFBE3" stroke-miterlimit="10" d="M391.063,50.632c0,0-2.818-5.04-7.18-2.417
				c0,0-4.746,2.387,2.278,11.229l2.979,3.43"/>
			<path fill="none" stroke="#FEFBE3" stroke-miterlimit="10" d="M413.088,71.345c0,0,11.35-6.164,4.1-11.414"/>
			<path fill="none" stroke="#FEFBE3" stroke-miterlimit="10" d="M410.088,68.845c0,0,12-7,5-11.5c0,0-3.369-0.878-4.119,0.122"/>
			<path fill="none" stroke="#FEFBE3" stroke-miterlimit="10" d="M404.391,65.845c0,0,12.863-10.833,3.03-12.5"/>
			<path fill="none" stroke="#FEFBE3" stroke-miterlimit="10" d="M397.891,63.654c0,0,16.197-9.643,6.447-12.809
				c0,0-1.584-0.833-5-0.417"/>
			<path fill="none" stroke="#FEFBE3" stroke-miterlimit="10" d="M390.936,50.312c0,0,2.666-4.397,7.127-2.098
				c0,0,4.747,2.387-2.277,11.229l-2.947,3.795"/>
		</g>
	</g>
	<g>
		<ellipse fill="#FEE4D2" cx="533.233" cy="95.552" rx="53.421" ry="57.999"/>
		
			<ellipse transform="matrix(0.9683 -0.2497 0.2497 0.9683 -12.8802 123.2275)" fill="#FEE4D2" cx="479.206" cy="112.375" rx="5.704" ry="12.207"/>
		
			<ellipse transform="matrix(-0.9683 -0.2497 0.2497 -0.9683 1123.6597 373.426)" fill="#FEE4D2" cx="585.514" cy="115.446" rx="5.704" ry="12.207"/>
		<path fill="#080908" d="M509.873,164.615c0,0-23.667,15.832-26.167,19.659c0,0-0.999,9.047-0.833,13.744l-2.667,45.754
			l118.167-0.695l-7.5-50.974c0,0-1-10.265-6.167-14.093l-28.667-16.875L509.873,164.615z"/>
		<path fill="#48281A" d="M565.617,63.053c0,0-4.5,10.5-26.5,11c0,0,16-4.75,16.25-11c0,0-8,9-35.75,8.25c0,0-19.25-1.5-26.25,4.75
			c0,0-11,5.25-11.5,19c0,0-1.75,17,4.25,26.75c0,0-8.75-9-12-32.5c0,0-4.5-21.75,2-42c0,0,10.5-28,31-35.5c0,0,29-11.5,49.5,1.25
			c0,0,11.25,5.5,12.75,10.5c0,0-0.75-7.5-3.5-10c0,0,8,8.75,8.75,15.5c0,0,7.75-1.5,13,4c0,0-6.75-1.25-7.75-0.75
			c0,0,10,5.25,13,19.25c0,0,2.25,12.25,0,26.75c0,0-1.5,25.5-12,43.5c0,0,6-24.75,2.5-39c0,0-1.75-8.25-6.5-12.5
			c0,0-3.25-4-5.5-4.25c0,0-0.5,5.75,2,9.25C573.367,75.303,568.117,70.803,565.617,63.053z"/>
		<rect x="518.07" y="144.553" fill="#FEE4D2" width="32.25" height="36.5"/>
		<path fill="#FAFBFB" d="M517.195,158.053c0,0,9.125,10,15.875,13.375c0,0,10.125-4,18.125-13.375c0,0,8,11.125,0.875,31.25
			l-18.838,53.407l-18.314-54.407C514.918,188.303,512.07,169.928,517.195,158.053z"/>
		<path fill="#213340" d="M551.195,158.053c0,0,10.25,4.875,13.375,11.625c0,0,3.125,5.125,3.25,11.125l-11,1.75l10.125,2.25
			c0,0-9.875,17.875-13.875,23.375l-20.25,35.25l20.25-63.125C553.07,180.303,556.445,168.803,551.195,158.053z"/>
		<path fill="#213340" d="M517.507,158.053c0,0-10.25,4.875-13.375,11.625c0,0-3.125,5.125-3.25,11.125l11,1.75l-10.125,2.25
			c0,0,9.875,17.875,13.875,23.375l17.601,35.25l-17.601-63.125C515.632,180.303,512.257,168.803,517.507,158.053z"/>
		<polygon fill="#0D0E10" points="531.233,169.638 535.9,169.638 544.233,163.471 544.233,179.22 536.066,173.804 531.233,173.804 
			522.233,179.22 522.233,163.471 		"/>
		<line fill="#213340" x1="533.233" y1="173.554" x2="533.233" y2="242.603"/>
		<line fill="#213340" x1="514.571" y1="169.137" x2="522.233" y2="177.971"/>
		<line fill="#213340" x1="543.571" y1="177.971" x2="553.684" y2="165.951"/>
	</g>
	<path fill="#EC2326" d="M470.186,29.464c-2.418-4.513-7.254-4.442-7.254-4.442c-5.581-0.698-8.842,4.293-9.159,4.804
		c-0.318-0.511-3.578-5.501-9.161-4.804c0,0-4.835-0.071-7.253,4.442c0,0-1.651,2.297-1.289,6.971c0,0,0.564,4.15,1.895,5.762
		c0,0,3.505,4.444,4.352,5.144l5.479,4.691l5.951,5.539v0.049l0.027-0.024l0.025,0.024V57.57l5.95-5.539l5.48-4.691
		c0.846-0.699,4.352-5.144,4.352-5.144c1.33-1.612,1.895-5.762,1.895-5.762C471.836,31.761,470.186,29.464,470.186,29.464z"/>
	<path fill="#EC2326" d="M437.84,4.475c-1.73-1.907-4.079-1.283-4.079-1.283c-2.808,0.34-3.79,3.172-3.883,3.459
		c-0.218-0.21-2.415-2.247-5.054-1.227c0,0-2.367,0.555-2.996,3.051c0,0-0.525,1.322,0.221,3.557c0,0,0.781,1.956,1.627,2.58
		c0,0,2.25,1.741,2.749,1.979l3.244,1.62l3.577,1.976l0.006,0.024l0.01-0.016l0.017,0.009l-0.006-0.024l2.228-3.426l2.101-2.956
		c0.328-0.444,1.497-3.039,1.497-3.039c0.451-0.948,0.221-3.042,0.221-3.042C438.925,5.394,437.84,4.475,437.84,4.475z"/>
	<g>
		<path fill="#471F14" d="M304.663,251.344c0,0-49.333-0.167-54.166,51.5c0,0-12.668,24.001,2.832,60.167
			c0,0,15.334,27.166,15.167,32.333c0,0,4.667,13.333-5,16.333c0,0-7.167,2.168-9.5-8.666c0,0-2.292,11.082,9.583,14.082l-11.25-3
			c0,0,7.167,15.085,15.167,17.418h80.833c0,0,9.334-3.834,12.5-14.167c0,0-7.666,3.834-11.333,0.667c0,0,17.001-0.5,13.667-12.667
			c0,0,0.833,12.834-14.834,8.667c0,0-3.166-1.501-2.666-7.834c0,0,2.666-10,7.833-20.333c0,0,14.167-29.5,14.833-34.5
			c0,0,6.5-20,0-46c0,0-6.332-34.999-23.666-44.167C344.663,261.177,330.163,249.511,304.663,251.344z"/>
		<ellipse fill="#FEE4D2" cx="308.42" cy="328.267" rx="46.833" ry="50.846"/>
		<path fill="#471F14" d="M279.753,288.516c0,0,7.744,16.661,26.41,17.328c0,0-9.333-7-10.666-11c0,0,8.166,10.167,18.332,8.334
			c0,0-8-3.334-8.166-7.834c0,0,6.666,9,36.666,7.167c0,0,7.334,8,8.668,29.667c1.332,21.666,0,0.666,0,0.666s-0.334,20.833-5.5,34
			c0,0-1.5,4.333-1,9c0,0,4.166-9.5,7.832-15.5c0,0,6-13.333,8-23c0,0,6.834-27,1.668-40.833c0,0-7.834-25.5-26.168-28
			c-18.332-2.5-54.242-2.495-65.576,15.005c0,0-10.924,8.161-13.424,44.994c0,0-2,14.833,7,31.667c0,0,8.674,9.256,8.674,14.089
			c0,0-4.916-19.333-6.916-30.5C265.587,343.766,264.087,297.349,279.753,288.516z"/>
		
			<ellipse transform="matrix(0.9683 -0.2497 0.2497 0.9683 -77.3809 76.0504)" fill="#FEE4D2" cx="261.056" cy="343.015" rx="5" ry="10.702"/>
		
			<ellipse transform="matrix(-0.9683 -0.2497 0.2497 -0.9683 610.9623 768.9186)" fill="#FEE4D2" cx="354.253" cy="345.707" rx="5" ry="10.702"/>
		<path fill="#FEE4D2" d="M298.92,373.253v15c0,0,1.333,7-4,11.333c0,0-5.333,4.666-11.333,5.333c0,0-9-1-11.334,7.667
			c0,0-3.334,8.689-3.666,40.678l13,0.002l2.24-24.291l28.093,14.944l29.333-16.667l1.667,26.014l14.667-0.002l-3.334-32.012
			c0,0-0.666-12.667-8.666-15c0,0-9.666-4.002-12.334-3.834c0,0-6-2.5-7-7.166l-2.666-21.999H298.92z"/>
		<path fill="#FFFFFF" d="M283.083,404.933l5.167-1c0,0,6,22.5,6.167,24.667c0,0,13.833,0.834,18.333,9.167
			c0,0,8.667-11.001,18.667-8.834l5.666-26l3.5,0.834l0.667,27.166c0,0,5.333,16.501-1.833,25.834h-56.334
			c0,0-5.166-11.334,0.834-23.834L283.083,404.933z"/>
		<path fill="#FEFBE3" d="M283.878,282.67c0,0,24.542-12.167,49.084,0.19C332.962,282.86,309.993,258.503,283.878,282.67z"/>
		<g>
			<path fill="none" stroke="#FEFBE3" stroke-miterlimit="10" d="M286.306,281.206c0,0-11.256-6.5-4.006-11.75"/>
			<path fill="none" stroke="#FEFBE3" stroke-miterlimit="10" d="M289.306,278.706c0,0-12-7-5-11.5c0,0,3.027-1.443,3.777-0.443"/>
			<path fill="none" stroke="#FEFBE3" stroke-miterlimit="10" d="M294.056,275.706c0,0-11.918-10.833-2.084-12.5"/>
			<path fill="none" stroke="#FEFBE3" stroke-miterlimit="10" d="M301.337,273.516c0,0-16.031-9.643-6.281-12.81
				c0,0,1.583-0.832,5-0.416"/>
			<path fill="none" stroke="#FEFBE3" stroke-miterlimit="10" d="M308.509,260.493c0,0-2.818-5.04-7.18-2.418
				c0,0-4.746,2.388,2.278,11.229l2.979,3.431"/>
			<path fill="none" stroke="#FEFBE3" stroke-miterlimit="10" d="M330.534,281.206c0,0,11.35-6.163,4.1-11.413"/>
			<path fill="none" stroke="#FEFBE3" stroke-miterlimit="10" d="M327.534,278.706c0,0,12-7,5-11.5c0,0-3.369-0.878-4.119,0.122"/>
			<path fill="none" stroke="#FEFBE3" stroke-miterlimit="10" d="M321.837,275.706c0,0,12.863-10.833,3.03-12.5"/>
			<path fill="none" stroke="#FEFBE3" stroke-miterlimit="10" d="M315.337,273.516c0,0,16.197-9.643,6.447-12.81
				c0,0-1.584-0.832-5-0.416"/>
			<path fill="none" stroke="#FEFBE3" stroke-miterlimit="10" d="M308.382,260.173c0,0,2.666-4.396,7.127-2.098
				c0,0,4.747,2.388-2.277,11.229l-2.947,3.795"/>
		</g>
	</g>
	<ellipse fill="#FEE4D2" cx="501.993" cy="343.017" rx="46.833" ry="50.846"/>
	
		<ellipse transform="matrix(0.9683 -0.2497 0.2497 0.9683 -74.9323 124.8525)" fill="#FEE4D2" cx="454.629" cy="357.765" rx="5" ry="10.702"/>
	<path fill="#FEE4D2" d="M545.154,370.819c2.674,0.689,6.037-3.391,7.514-9.114"/>
</g>
</svg>
