<?xml version="1.0" encoding="utf-8"?>
<!-- Generator: Adobe Illustrator 16.0.0, SVG Export Plug-In . SVG Version: 6.00 Build 0)  -->
<!DOCTYPE svg PUBLIC "-//W3C//DTD SVG 1.1//EN" "http://www.w3.org/Graphics/SVG/1.1/DTD/svg11.dtd">
<svg version="1.1" xmlns="http://www.w3.org/2000/svg" xmlns:xlink="http://www.w3.org/1999/xlink" x="0px" y="0px" width="280px"
	 height="250px" viewBox="0 0 280 250" enable-background="new 0 0 280 250" xml:space="preserve">
<g id="사회초년생">
	<g>
		<path fill="#454446" d="M107.432,156.012l-27.349,4.668c0,0-12.024,1.831-10.818,9.342l14.125,55.832c0,0,1.8,12.17,0.902,16.439
			h113.646c0,0,2.189-13.4,5.131-18.882l20.061-54.404l0.619-2.538l-1.596-0.403l-39.875-10.054H107.432z"/>
		<path fill="#454446" d="M223.129,166.771c0,0,5.729-0.506,7.684,4.47l7.664,71.052h-41.328
			C197.148,242.293,216.041,168.598,223.129,166.771z"/>
		<path fill="#454446" d="M73.056,161.794c0,0-6.198,1.46-9.001,16.887l-20.038,63.612h43.283c0,0-17.633-78.234-7.216-81.613
			L73.056,161.794z"/>
		<path fill="#FEE4D2" d="M89.264,84.306V58.451c0,0,1.158-10.122,14.472-12.741l36.473-1.876v94.061
			C140.208,137.896,103.736,143.891,89.264,84.306z"/>
		<path fill="#FEE4D2" d="M190.502,84.306V58.451c0,0-1.156-10.122-14.469-12.741l-36.466-1.876v94.061
			C139.567,137.896,176.033,143.891,190.502,84.306z"/>
		<path fill="#FEE4D2" d="M125.098,133.535c0,0,8.892,21.508,8.317,23.463h21.12c0,0,1.881-18.216,5.08-26.949L125.098,133.535z"/>
		<path fill="#FFFFFF" d="M129.099,144.088c0,0-1.948,1.164-3.644,1.943c0,0-14.673,38.326,17.664,70.405
			c0,0,25.182-35.205,21.191-70.849l-6.938-2.659l-13.938,15.886L129.099,144.088z"/>
		<polygon fill="#6D9FD4" points="135.51,155.23 143.117,146.888 152.313,153.989 147.43,162.209 152.313,171.898 143.119,216.437 
			134.354,171.775 139.672,161.944 		"/>
		<path fill="#FFFFFF" stroke="#D8D8D8" stroke-width="0.1" stroke-miterlimit="10" d="M129.099,144.088l2.74,14.727l13.685-13.35
			C145.523,145.465,134.119,146.629,129.099,144.088z"/>
		<path fill="#FFFFFF" stroke="#D8D8D8" stroke-width="0.1" stroke-miterlimit="10" d="M157.373,142.441l-0.723,14.895
			l-15.404-11.892C141.246,145.444,152.734,145.463,157.373,142.441z"/>
		<path fill="#353535" d="M159.762,143.522c0,0,27.041,9.838,33.512,25.188l-14.461,7.194l9.211,5.757l-44.271,33.86
			C143.752,215.522,166.734,168.68,159.762,143.522z"/>
		<path fill="#353535" d="M127.628,144.924c0,0-27.8,10.353-34.271,25.703l16.157,3.741l-9.211,5.757l42.7,36.312
			C143.002,216.437,120.656,170.083,127.628,144.924z"/>
		<path fill="#CCCCCC" d="M146.512,228.793c0,1.708-1.42,3.083-3.174,3.083c-1.756,0-3.18-1.375-3.18-3.083
			c0-1.704,1.424-3.084,3.18-3.084C145.092,225.709,146.512,227.089,146.512,228.793z"/>
		<path fill="#3D2D23" d="M91.797,93.789c0,0-16.024-30.996-2.533-56.996c0,0,8.509-15.333,20.176-17
			c0,0,10.933-17.331,42.833-11.667c0,0,27.104,2.167,38.229,24.5c0,0,9.105,12.333,5.271,40c0,0-2.563,18.41-9.254,24.623
			c0,0,7.186-23.866-2.48-30.533c0,0-37.516-4.922-70.766-15.255C113.273,51.461,96.1,73.117,91.797,93.789z"/>
		<g>
			<path fill="#354055" d="M126.2,245.613c0,1.87-1.516,3.387-3.387,3.387H44.909c-1.871,0-3.387-1.517-3.387-3.387v-57.809
				c0-1.87,1.516-3.387,3.387-3.387h77.904c1.871,0,3.387,1.517,3.387,3.387V245.613z"/>
			<rect x="67.151" y="187.798" fill="none" stroke="#C4C2CE" stroke-miterlimit="10" width="3.387" height="3.733"/>
			<path fill="#283A4F" d="M66.29,190.993l-3.439,16.936c0,0-0.736,1.857,3.439,2.622l3.93,0.229c0,0,1.965-0.142,3.439-1.948
				c0,0,0.736-0.775,0-5.13l-2.457-12.709H66.29z"/>
			<rect x="95.265" y="187.798" fill="none" stroke="#C4C2CE" stroke-miterlimit="10" width="3.387" height="3.733"/>
			<path fill="#283A4F" d="M94.403,190.993l-3.439,16.936c0,0-0.736,1.857,3.439,2.622l3.93,0.229c0,0,1.966-0.142,3.439-1.948
				c0,0,0.736-0.775,0-5.13l-2.457-12.709H94.403z"/>
			<path fill="none" stroke="#283A4F" stroke-width="4" stroke-miterlimit="10" d="M68.845,188.422c0,0-3.563-19.222,15.225-19.222
				c0,0,13.71-0.833,12.889,19.349"/>
		</g>
		
			<ellipse transform="matrix(0.9823 0.1871 -0.1871 0.9823 20.7302 -33.6686)" fill="#FEE4D2" cx="188.75" cy="93" rx="3.607" ry="9.667"/>
		
			<ellipse transform="matrix(-0.9823 0.1871 -0.1871 -0.9823 201.2615 167.0069)" fill="#FEE4D2" cx="92.75" cy="93" rx="3.607" ry="9.667"/>
	</g>
</g>
<g id="결혼적령기">
	<g>
		
			<ellipse transform="matrix(0.9984 -0.0559 0.0559 0.9984 -19.6264 -11.9316)" fill="#FEE4D2" cx="-223.19" cy="345.021" rx="42.139" ry="57.03"/>
		<path fill="#FEE4D2" d="M-239.537,388.611c0,0,2.41,20.588-1.09,32.421c0,0,21.275,9.352,44.148-6.086
			c0,0-7.193-5.997-5.781-23.522L-239.537,388.611z"/>
		<path fill="#FEE4D2" d="M-315.093,504.681c0,0-1.926,15.195,0,17.695l29.37,1.524c0,0,1.942-13.915,2.115-19.22H-315.093z"/>
		<path fill="#FEE4D2" d="M-133,499.656c0,0,1.926,18.146,0,21.131l-29.369,1.82c0,0-1.943-16.616-2.115-22.951H-133z"/>
		<path fill="#D8B09C" d="M-267.628,409.919l-23.986,10.515c0,0,17.639,65.503,8.389,103.467l117.584-3.451
			c0,0-1.803-75.997,4.275-96.128c0,0-35.336-10.566-36.631-16.193c0,0-20.707,26.073-42.71,1.791H-267.628z"/>
		<path fill="#D1A18C" d="M-289.579,420.372c0,0-25.116,1.876-30.946,70.04l41.18,3.889
			C-279.345,494.301-285.542,434.889-289.579,420.372z"/>
		<path fill="#D1A18C" d="M-161.179,423.693c0,0-8.172,26.048-4.766,68.317l38.457-5.186
			C-127.488,486.825-140.38,426.929-161.179,423.693z"/>
		<path fill="#D8B09C" stroke="#D1A18C" stroke-miterlimit="10" d="M-320.613,490.412l-8.211,11.486c0,0,2.939,6.147,9.598,3.235
			c0,0,3.826-2.318,6.49-0.054c0,0,2.606,2.911,6.212,2.534c0,0,1.805,0.432,6.282-1.455c0,0,2.371-1.35,3.48-0.432
			c0,0,2.053,2.373,4.105,2.749c0,0,2.94,1.025,5.325-1.778c0,0,3.328-3.451,6.712,0.916c0,0,2.718,2.049,4.271,2.157l-3.521-15.471
			L-320.613,490.412z"/>
		<path fill="#D8B09C" stroke="#D1A18C" stroke-miterlimit="10" d="M-127.269,487.257l7.762,11.487c0,0-2.779,6.147-9.072,3.235
			c0,0-3.619-2.318-6.137-0.054c0,0-2.463,2.912-5.873,2.534c0,0-1.707,0.432-5.939-1.456c0,0-2.242-1.349-3.291-0.432
			c0,0-1.941,2.373-3.881,2.75c0,0-2.781,1.026-5.035-1.778c0,0-3.146-3.451-6.346,0.916c0,0-2.568,2.05-4.037,2.157l3.328-15.472
			L-127.269,487.257z"/>
		<path fill="#754F1F" d="M-206.996,304.518c0,0,14.895,22.976,22.523,28.152c0,0,1.283,39.957-17.787,58.754
			c0,0-4.088,17.71,7.9,25.065c0,0,13.895,8.446,24.248,8.174l24.248,4.086c0,0,14.984,6.268,18.525,22.069
			c0,0-6.539-24.521-27.789-36.236c0,0-5.721-3.542-6.813-5.994c0,0-4.631-18.799-1.088-38.959c0,0,3.256-18.978-3.207-45.969
			c0,0-0.258-3.523-3.525-11.332c0,0-8.355-19.48-15.439-25.611c0,0-10.535-12.385-34.328-12.347c0,0-22.568,2.902-24.339,11.62
			c0,0-17.073,5.813-24.702,25.247c0,0-8.207,18.206-8.343,38.095c0,0,0.214,48.499-2.448,57.186c0,0-2.378,13.198-3.195,19.192
			c0,0-1.227,5.585-4.479,10.428c0,0-11.867,11.641-12.685,22.811c0,0-1.635,24.93,12.26,28.743c0,0-1.297-8.501,2.006-13.507
			c0.074-0.115,0.152-0.23,0.232-0.346c3.541-5.04-0.195,5.679,11.248,8.403c0,0,7.629,2.997,23.08-0.774
			c0,0,12.201-4.402,14.518-9.306c0,0-17.301,0-17.301-10.08c0-10.081,2.654-12.097,4.562-16.32c0,0,6.064-15.421,6.882-18.146
			c0,0,5.795-20.205,2.934-30.694c0,0-11.106-11.76-16.555-28.834c0,0-3.24-19.215-0.364-32.875c0,0,1.454-6.176,5.269-11.443
			C-250.949,323.77-215.033,316.096-206.996,304.518z"/>
		
			<ellipse transform="matrix(0.9823 0.1871 -0.1871 0.9823 63.7624 41.0056)" fill="#FEE4D2" cx="-185.378" cy="358.333" rx="3.607" ry="9.667"/>
		
			<ellipse transform="matrix(-0.9823 0.1871 -0.1871 -0.9823 -443.177 758.4888)" fill="#FEE4D2" cx="-257.378" cy="358.333" rx="3.607" ry="9.667"/>
	</g>
</g>
<g id="신혼부부" display="none">
	<g display="inline">
		<path fill="#482016" d="M373.384,31.896c0,0-49.333-0.167-54.167,51.5c0,0-12.666,24.001,2.834,60.167
			c0,0,15.332,27.166,15.166,32.333c0,0,4.666,13.333-5,16.333c0,0-7.167,2.168-9.5-8.666c0,0-2.291,11.082,9.584,14.082l-11.25-3
			c0,0,7.166,15.085,15.166,17.418h80.834c0,0,9.333-3.834,12.5-14.167c0,0-7.668,3.834-11.334,0.667c0,0,17-0.5,13.667-12.667
			c0,0,0.833,12.834-14.833,8.667c0,0-3.167-1.501-2.667-7.834c0,0,2.666-10,7.833-20.333c0,0,14.166-29.5,14.834-34.5
			c0,0,6.5-20,0-46c0,0-6.334-35-23.667-44.167C413.384,41.73,398.884,30.063,373.384,31.896z"/>
		<ellipse fill="#FEE4D2" cx="377.14" cy="108.819" rx="46.833" ry="50.846"/>
		<path fill="#482016" d="M348.475,69.068c0,0,7.742,16.661,26.409,17.328c0,0-9.333-7-10.667-11c0,0,8.166,10.167,18.334,8.333
			c0,0-8-3.333-8.167-7.833c0,0,6.667,9,36.667,7.167c0,0,7.334,8,8.666,29.667c1.334,21.666,0,0.666,0,0.666s-0.332,20.833-5.5,34
			c0,0-1.5,4.333-1,9c0,0,4.166-9.5,7.834-15.5c0,0,6-13.333,8-23c0,0,6.834-27,1.666-40.833c0,0-7.834-25.5-26.166-28
			c-18.334-2.5-54.243-2.495-65.576,15.005c0,0-10.924,8.161-13.424,44.995c0,0-2,14.833,7,31.667c0,0,8.674,9.256,8.674,14.089
			c0,0-4.918-19.333-6.918-30.5C334.307,124.318,332.808,77.902,348.475,69.068z"/>
		
			<ellipse transform="matrix(0.9683 -0.2497 0.2497 0.9683 -20.4086 86.2584)" fill="#FEE4D2" cx="329.775" cy="123.568" rx="5" ry="10.702"/>
		
			<ellipse transform="matrix(-0.9683 -0.2497 0.2497 -0.9683 801.0224 354.1347)" fill="#FEE4D2" cx="422.974" cy="126.259" rx="5" ry="10.702"/>
		<path fill="#FEE4D2" d="M367.641,153.806v15c0,0,1.333,7-4,11.333c0,0-5.333,4.666-11.333,5.333c0,0-9-1-11.333,7.667
			c0,0-3.334,8.689-3.668,40.678l13,0.002l2.241-24.291l28.093,14.944l29.334-16.667l1.666,26.014l14.666-0.002l-3.332-32.012
			c0,0-0.668-12.667-8.668-15c0,0-9.666-4.002-12.332-3.834c0,0-6-2.5-7-7.166l-2.668-21.999H367.641z"/>
		<path fill="#FFFFFF" d="M351.804,185.485l5.167-1c0,0,6,22.5,6.166,24.667c0,0,13.834,0.834,18.334,9.167
			c0,0,8.666-11.001,18.666-8.834l5.667-26l3.5,0.834l0.667,27.166c0,0,5.333,16.501-1.834,25.834h-56.333
			c0,0-5.167-11.334,0.833-23.834L351.804,185.485z"/>
		<path fill="#FEFBE3" d="M352.599,63.223c0,0,24.542-12.167,49.084,0.191C401.683,63.414,378.713,39.056,352.599,63.223z"/>
		<g>
			<path fill="none" stroke="#FEFBE3" stroke-miterlimit="10" d="M355.025,61.759c0,0-11.255-6.5-4.005-11.75"/>
			<path fill="none" stroke="#FEFBE3" stroke-miterlimit="10" d="M358.025,59.259c0,0-12-7-5-11.5c0,0,3.028-1.444,3.778-0.444"/>
			<path fill="none" stroke="#FEFBE3" stroke-miterlimit="10" d="M362.775,56.259c0,0-11.916-10.833-2.083-12.5"/>
			<path fill="none" stroke="#FEFBE3" stroke-miterlimit="10" d="M370.058,54.068c0,0-16.032-9.643-6.282-12.809
				c0,0,1.584-0.833,5-0.417"/>
			<path fill="none" stroke="#FEFBE3" stroke-miterlimit="10" d="M377.229,41.046c0,0-2.816-5.04-7.178-2.417
				c0,0-4.747,2.387,2.277,11.229l2.979,3.43"/>
			<path fill="none" stroke="#FEFBE3" stroke-miterlimit="10" d="M399.254,61.759c0,0,11.35-6.164,4.1-11.414"/>
			<path fill="none" stroke="#FEFBE3" stroke-miterlimit="10" d="M396.254,59.259c0,0,12-7,5-11.5c0,0-3.368-0.878-4.118,0.122"/>
			<path fill="none" stroke="#FEFBE3" stroke-miterlimit="10" d="M390.558,56.259c0,0,12.864-10.833,3.03-12.5"/>
			<path fill="none" stroke="#FEFBE3" stroke-miterlimit="10" d="M384.058,54.068c0,0,16.196-9.643,6.446-12.809
				c0,0-1.583-0.833-5-0.417"/>
			<path fill="none" stroke="#FEFBE3" stroke-miterlimit="10" d="M377.102,40.726c0,0,2.668-4.397,7.129-2.098
				c0,0,4.746,2.387-2.278,11.229l-2.947,3.795"/>
		</g>
	</g>
	<g display="inline">
		<ellipse fill="#FEE4D2" cx="519.4" cy="85.966" rx="53.421" ry="57.999"/>
		
			<ellipse transform="matrix(0.9683 -0.2497 0.2497 0.9683 -10.9247 119.4694)" fill="#FEE4D2" cx="465.373" cy="102.79" rx="5.704" ry="12.207"/>
		
			<ellipse transform="matrix(-0.9683 -0.2497 0.2497 -0.9683 1098.8252 351.1039)" fill="#FEE4D2" cx="571.681" cy="105.86" rx="5.704" ry="12.207"/>
		<path fill="#0A0909" d="M496.04,155.029c0,0-23.667,15.832-26.167,19.659c0,0-0.999,9.047-0.833,13.744l-2.667,45.754
			l118.167-0.695l-7.5-50.974c0,0-1-10.265-6.167-14.093l-28.667-16.875L496.04,155.029z"/>
		<path fill="#48291C" d="M551.784,53.467c0,0-4.5,10.5-26.5,11c0,0,16-4.75,16.25-11c0,0-8,9-35.75,8.25c0,0-19.25-1.5-26.25,4.75
			c0,0-11,5.25-11.5,19c0,0-1.75,17,4.25,26.75c0,0-8.75-9-12-32.5c0,0-4.5-21.75,2-42c0,0,10.5-28,31-35.5c0,0,29-11.5,49.5,1.25
			c0,0,11.25,5.5,12.75,10.5c0,0-0.75-7.5-3.5-10c0,0,8,8.75,8.75,15.5c0,0,7.75-1.5,13,4c0,0-6.75-1.25-7.75-0.75
			c0,0,10,5.25,13,19.25c0,0,2.25,12.25,0,26.75c0,0-1.5,25.5-12,43.5c0,0,6-24.75,2.5-39c0,0-1.75-8.25-6.5-12.5
			c0,0-3.25-4-5.5-4.25c0,0-0.5,5.75,2,9.25C559.534,65.717,554.284,61.217,551.784,53.467z"/>
		<rect x="504.237" y="134.967" fill="#FEE4D2" width="32.25" height="36.5"/>
		<path fill="#FAFBFB" d="M503.362,148.467c0,0,9.125,10,15.875,13.375c0,0,10.125-4,18.125-13.375c0,0,8,11.125,0.875,31.25
			l-18.838,53.407l-18.314-54.407C501.085,178.717,498.237,160.342,503.362,148.467z"/>
		<path fill="#223440" d="M537.362,148.467c0,0,10.25,4.875,13.375,11.625c0,0,3.125,5.125,3.25,11.125l-11,1.75l10.125,2.25
			c0,0-9.875,17.875-13.875,23.375l-20.25,35.25l20.25-63.125C539.237,170.717,542.612,159.217,537.362,148.467z"/>
		<path fill="#223440" d="M503.674,148.467c0,0-10.25,4.875-13.375,11.625c0,0-3.125,5.125-3.25,11.125l11,1.75l-10.125,2.25
			c0,0,9.875,17.875,13.875,23.375l17.601,35.25l-17.601-63.125C501.799,170.717,498.424,159.217,503.674,148.467z"/>
		<polygon fill="#0E0E10" points="517.4,160.052 522.067,160.052 530.4,153.885 530.4,169.634 522.233,164.218 517.4,164.218 
			508.4,169.634 508.4,153.885 		"/>
		<line fill="#223440" x1="519.4" y1="163.968" x2="519.4" y2="233.017"/>
		<line fill="#223440" x1="500.738" y1="159.551" x2="508.4" y2="168.385"/>
		<line fill="#223440" x1="529.738" y1="168.385" x2="539.851" y2="156.365"/>
	</g>
	<path display="inline" fill="#EC2426" d="M456.353,19.878c-2.418-4.513-7.253-4.442-7.253-4.442
		c-5.582-0.698-8.843,4.293-9.16,4.804c-0.318-0.511-3.578-5.501-9.161-4.804c0,0-4.835-0.071-7.253,4.442
		c0,0-1.651,2.297-1.289,6.971c0,0,0.564,4.15,1.895,5.762c0,0,3.505,4.444,4.352,5.144l5.479,4.691l5.951,5.539v0.049l0.027-0.024
		l0.025,0.024v-0.049l5.951-5.539l5.479-4.691c0.846-0.699,4.352-5.144,4.352-5.144c1.33-1.612,1.895-5.762,1.895-5.762
		C458.003,22.175,456.353,19.878,456.353,19.878z"/>
	<path display="inline" fill="#EC2426" d="M424.007-5.111c-1.729-1.907-4.079-1.283-4.079-1.283c-2.808,0.34-3.79,3.172-3.883,3.459
		c-0.217-0.21-2.416-2.247-5.054-1.227c0,0-2.366,0.555-2.996,3.051c0,0-0.525,1.322,0.222,3.557c0,0,0.78,1.956,1.625,2.58
		c0,0,2.252,1.741,2.75,1.979l3.244,1.62l3.577,1.976l0.007,0.024l0.01-0.016l0.016,0.009l-0.006-0.024l2.227-3.426l2.102-2.956
		c0.328-0.444,1.496-3.039,1.496-3.039c0.451-0.948,0.222-3.042,0.222-3.042C425.092-4.192,424.007-5.111,424.007-5.111z"/>
	<line display="inline" fill="#0A0909" x1="379.75" y1="144.521" x2="417" y2="179.188"/>
</g>
</svg>
